<svg width="215" height="252" viewBox="0 0 215 252" fill="none" xmlns="http://www.w3.org/2000/svg">
<path d="M213.062 245.752C213.062 245.752 189.745 256.77 174.111 249.514C158.477 242.259 110.239 239.034 80.2408 245.752C35.7442 255.628 22.5823 239.504 27.2592 228.889L63.2038 224.187C63.2038 224.187 109.571 225.866 144.313 226.269C179.055 226.672 211.392 239.907 213.062 245.752Z" fill="#E2E2E2"/>
<path d="M188.676 211.086C188.676 224.119 146.451 234.734 94.3381 234.734C42.225 234.734 0 224.119 0 211.086C0 198.053 42.225 187.438 94.3381 187.438C146.451 187.438 188.676 197.986 188.676 211.086Z" fill="#E2E2E2"/>
<path d="M58.8611 210.213C58.8611 210.213 24.9208 217.468 32.4037 236.145C37.7486 249.514 100.552 234.734 131.886 235.473C154.335 236.011 171.773 240.646 178.12 243.669C215.401 261.204 232.237 235.003 190.747 225.53C170.169 220.827 153.667 220.357 130.55 221.499C94.4049 223.246 56.3891 230.636 54.3847 227.479C51.1778 222.306 79.1719 214.311 79.1719 214.311C79.1719 214.311 75.6308 203.83 58.8611 210.213Z" fill="#3C2A34"/>
<path d="M54.5183 77.6625C54.5183 77.6625 48.0376 95.6001 30.9338 122.742C17.6383 143.837 -4.0087 210.481 91.9329 215.386C187.808 220.29 166.294 162.917 157.542 131.811C148.79 100.773 161.484 36.883 124.136 31.1053C86.7884 25.3277 88.7927 30.3663 75.2968 39.3015C71.3549 41.9888 54.5183 77.6625 54.5183 77.6625Z" fill="#FFFAEF"/>
<path d="M161.016 144.173C161.016 144.173 127.677 142.493 124.27 112.194C124.27 112.194 135.761 139.672 158.878 136.245C158.878 136.245 160.214 141.217 161.016 144.173Z" fill="#F2E4D7"/>
<path d="M73.9605 139.336C73.9605 139.336 62.4021 155.795 48.6389 147.062C34.8757 138.328 27.1924 129.393 27.1924 129.393L32.27 119.517C32.27 119.584 44.363 146.457 73.9605 139.336Z" fill="#F2E4D7"/>
<path d="M25.7225 132.685C25.7225 132.685 2.07116 191.738 65.8763 195.231C129.681 198.725 165.76 193.148 164.624 160.095C164.624 160.095 177.051 202.688 139.503 211.691C105.496 219.82 55.5205 218.879 38.2163 201.815C20.9789 184.684 10.0886 156.266 25.7225 132.685Z" fill="#F2E4D7"/>
<path d="M128.412 35.7409L176.249 35.3378C176.249 35.3378 172.708 49.8491 129.147 56.836L128.412 35.7409Z" fill="#3C2A34"/>
<path d="M140.371 39.7718L166.896 40.8467C166.896 40.8467 157.676 48.1696 145.115 49.8491L140.371 39.7718Z" fill="#F58981"/>
<path d="M93.0019 37.8235L72.3571 0C72.3571 0 67.2794 28.5524 70.3527 47.3634L93.0019 37.8235Z" fill="#3C2A34"/>
<path d="M84.1827 31.6428L75.0295 12.2271C75.0295 12.2271 72.7579 26.8728 71.8226 40.9811C71.8226 41.0483 82.8465 36.4799 84.1827 31.6428Z" fill="#F58981"/>
<path d="M106.966 29.0227C106.966 29.0227 119.058 74.4378 93.3359 83.373C67.5466 92.3082 54.4515 77.5953 54.4515 77.5953C54.4515 77.5953 60.5982 63.4871 65.3418 51.7974C73.8937 30.7694 95.0062 27.1416 106.966 29.0227Z" fill="#3C2A34"/>
<path d="M117.923 30.2991C117.923 30.2991 105.963 75.8486 120.862 85.0525C135.828 94.2565 152.464 82.4996 152.464 82.4996C152.464 82.4996 156.607 30.5007 117.923 30.2991Z" fill="#3C2A34"/>
<path d="M110.707 86.4633L111.108 93.7862L112.578 94.1221L111.241 86.5977L110.707 86.4633Z" fill="#3C2A34"/>
<path d="M104.56 102.856C104.56 102.856 111.175 84.2463 125.673 90.4271C125.673 90.4271 114.649 88.6804 104.56 102.856Z" fill="#3C2A34"/>
<path d="M74.0274 60.867L99.2822 61.0013C99.2822 61.0013 103.825 76.5204 87.8574 77.7297C71.8894 79.0733 74.0274 60.867 74.0274 60.867Z" fill="#F2CF00"/>
<path d="M76.9003 58.3812L96.6097 58.5156C96.6097 58.5156 100.151 70.6084 87.7238 71.6161C75.1632 72.5566 76.9003 58.3812 76.9003 58.3812Z" fill="#3C2A34"/>
<path d="M97.8791 63.2855C97.8791 64.0917 97.211 64.6964 96.4093 64.6964C95.6075 64.6964 95.0062 64.0245 95.0062 63.2183C95.0062 62.4122 95.6743 61.8075 96.4761 61.8075C97.2778 61.8747 97.8791 62.4793 97.8791 63.2855Z" fill="#FFFAEF"/>
<path d="M119.192 61.1357L144.447 61.27C144.447 61.27 148.99 76.7891 133.022 77.9984C117.054 79.342 119.192 61.1357 119.192 61.1357Z" fill="#F2CF00"/>
<path d="M122.065 58.65L141.774 58.7843C141.774 58.7843 145.315 70.8771 132.888 71.8848C120.328 72.8254 122.065 58.65 122.065 58.65Z" fill="#3C2A34"/>
<path d="M143.111 63.5542C143.111 64.3604 142.443 64.9651 141.641 64.9651C140.839 64.9651 140.238 64.2932 140.238 63.4871C140.238 62.6809 140.906 62.0762 141.708 62.0762C142.443 62.1434 143.111 62.8152 143.111 63.5542Z" fill="#FFFAEF"/>
<path d="M100.485 74.7065C100.485 74.7065 93.0019 87.2023 73.2924 80.5513C73.2924 80.4841 87.6569 85.6572 100.485 74.7065Z" fill="#6E7C7D"/>
<path d="M102.088 50.5881L102.021 58.0453L72.4907 57.8438L100.618 56.6345L102.088 50.5881Z" fill="#6E7C7D"/>
<path d="M118.591 52.1333L119.125 59.5233L145.85 59.2546L120.862 58.1797L118.591 52.1333Z" fill="#6E7C7D"/>
<path d="M120.261 74.8409C120.261 74.8409 131.018 93.8534 144.313 76.1173C144.313 76.1173 133.089 91.4348 120.261 74.8409Z" fill="#6E7C7D"/>
<path d="M139.102 38.2266C139.102 38.2266 150.928 37.9579 154.135 45.2807C154.135 45.2807 145.85 39.3015 138.901 39.3687C138.901 39.3687 149.324 40.8467 151.328 47.9008C151.328 47.9008 144.18 39.4359 137.766 40.5108L139.102 38.2266Z" fill="#3C2A34"/>
<path d="M87.3897 32.9192C87.3897 32.9192 81.9779 22.3716 74.0274 23.0434C74.0274 23.0434 83.1806 27.4775 86.4543 33.6582C86.4543 33.6582 80.174 25.1933 73.0252 26.7385C73.0252 26.7385 83.7819 28.9555 85.9866 35.2034L87.3897 32.9192Z" fill="#3C2A34"/>
<path d="M105.095 85.7243L58.3934 70.6755C58.3934 70.6755 83.3142 80.8872 105.095 85.7243Z" fill="#F2E4D7"/>
<path d="M105.095 85.7243L54.0507 83.3058C54.1175 83.3058 81.7775 86.9336 105.095 85.7243Z" fill="#F2E4D7"/>
<path d="M102.021 86.5977L55.1196 95.6673C55.1196 95.6673 80.909 92.8457 102.021 86.5977Z" fill="#F2E4D7"/>
<path d="M116.186 82.5668L161.484 63.6886C161.484 63.6886 137.565 75.9158 116.186 82.5668Z" fill="#F2E4D7"/>
<path d="M116.186 82.5668L166.829 75.9158C166.829 75.9158 139.57 81.8278 116.186 82.5668Z" fill="#F2E4D7"/>
<path d="M119.326 83.1714L166.829 88.2772C166.829 88.2772 140.906 87.6726 119.326 83.1714Z" fill="#F2E4D7"/>
<path d="M145.917 89.6881C145.917 89.6881 130.483 91.0317 119.66 112.194C119.593 112.194 125.406 87.5383 145.917 89.6881Z" fill="#F2E4D7"/>
<path d="M145.583 155.191C145.583 155.191 97.5451 98.6905 49.0398 159.289C49.0398 159.289 87.6569 105.543 145.583 155.191Z" fill="#DBECCC"/>
<path d="M19.8431 174.203C19.8431 174.203 47.8372 200.673 42.9599 210.011C34.0072 227.344 12.2265 214.244 4.74363 198.792C-4.67682 179.443 -0.267246 155.795 19.8431 174.203Z" fill="#3C2A34"/>
<path d="M159.546 139C159.546 139 129.615 134.633 124.604 114.344C121.931 103.326 136.429 90.4271 145.649 90.5614C154.803 90.6958 145.716 101.915 145.649 110.111C145.649 111.321 154.602 114.142 154.602 114.142C154.602 114.142 158.344 130.064 159.546 139Z" fill="#3C2A34"/>
<path d="M29.798 198.389C29.798 198.389 21.8474 183.676 16.3689 189.857C10.8235 196.037 19.3086 208.197 27.1255 208.668C35.0093 209.138 29.798 198.389 29.798 198.389Z" fill="#DF9FA1"/>
<path d="M20.1103 179.443C20.1103 179.443 22.9164 184.012 19.9767 184.751C16.1684 185.624 16.1684 174.539 20.1103 179.443Z" fill="#DF9FA1"/>
<path d="M13.2287 182.063C13.2287 182.063 17.2374 185.691 14.5649 187.169C11.0907 189.118 8.0174 178.503 13.2287 182.063Z" fill="#DF9FA1"/>
<path d="M8.21784 187.841C8.21784 187.841 13.3623 189.386 11.5584 191.939C9.22001 195.097 2.00435 186.766 8.21784 187.841Z" fill="#DF9FA1"/>
<path d="M168.833 174.203C168.833 174.203 140.839 200.673 145.716 210.011C154.669 227.344 176.45 214.244 183.933 198.792C193.353 179.443 188.943 155.795 168.833 174.203Z" fill="#3C2A34"/>
<path d="M158.878 198.389C158.878 198.389 166.829 183.676 172.307 189.857C177.853 196.037 169.434 208.197 161.551 208.668C153.667 209.138 158.878 198.389 158.878 198.389Z" fill="#DF9FA1"/>
<path d="M168.499 179.443C168.499 179.443 165.693 184.012 168.633 184.751C172.508 185.624 172.508 174.539 168.499 179.443Z" fill="#DF9FA1"/>
<path d="M175.447 182.063C175.447 182.063 171.439 185.691 174.111 187.169C177.585 189.118 180.659 178.503 175.447 182.063Z" fill="#DF9FA1"/>
<path d="M180.458 187.841C180.458 187.841 175.314 189.386 177.118 191.939C179.456 195.097 186.672 186.766 180.458 187.841Z" fill="#DF9FA1"/>
<path d="M106.364 80.82C106.364 80.82 113.379 77.0579 115.25 80.5513C115.25 80.5513 112.11 88.2772 111.308 88.2772C110.44 88.2101 106.364 80.82 106.364 80.82Z" fill="#F58981"/>
<path d="M97.1442 41.1826C97.1442 41.1826 89.5945 44.6089 78.9046 43.4668C78.9046 43.4668 89.4608 46.9603 97.1442 41.1826Z" fill="#6E7C7D"/>
<path d="M139.57 44.273C139.57 44.273 131.285 44.0715 122.132 38.4282C122.132 38.4282 130.149 46.0869 139.57 44.273Z" fill="#6E7C7D"/>
<path d="M142.843 92.5769L136.229 103.057C136.229 103.057 143.244 99.5638 142.843 92.5769Z" fill="#6E7C7D"/>
<path d="M147.453 94.3908L140.839 104.871C140.839 104.871 147.854 101.311 147.453 94.3908Z" fill="#6E7C7D"/>
<path d="M46.3673 133.021L135.828 116.292L145.917 174.27L55.8546 191.335L46.3673 133.021Z" fill="#43A10B"/>
<path d="M59.0615 169.097L67.0789 135.775L74.9627 134.499L80.0404 165.671L83.4478 165.134L84.5168 171.717L81.1094 172.255L82.4456 180.653L75.3636 181.795L74.0274 173.397L60.1305 175.681L59.0615 169.097ZM72.9584 166.813L70.1523 149.48L65.7427 168.022L72.9584 166.813Z" fill="#FFFAEF"/>
<path d="M82.8465 144.509C81.6439 137.119 84.784 132.282 91.8661 131.072C98.9481 129.863 103.491 133.491 104.694 140.881L108.636 164.865C109.838 172.255 106.698 177.092 99.6162 178.301C92.5342 179.443 87.991 175.883 86.7884 168.493L82.8465 144.509ZM94.0709 167.821C94.6053 171.113 96.2756 172.121 98.5472 171.717C100.819 171.314 102.088 169.836 101.554 166.544L97.4782 141.62C96.9437 138.328 95.2735 137.32 93.0019 137.723C90.7303 138.126 89.4608 139.604 89.9953 142.896L94.0709 167.821Z" fill="#FFFAEF"/>
<path d="M110.974 160.498L118.992 127.176L126.875 125.899L131.953 157.072L135.36 156.534L136.429 163.118L133.022 163.656L134.358 172.053L127.276 173.195L125.94 164.798L112.043 167.082L110.974 160.498ZM124.871 158.214L122.065 140.881L117.655 159.423L124.871 158.214Z" fill="#FFFAEF"/>
<g opacity="0.2">
<path opacity="0.2" d="M48.6389 146.994C48.6389 146.994 60.3978 157.34 73.5597 139.806C73.5597 139.806 59.1283 149.48 47.7704 141.418L48.6389 146.994Z" fill="#BC8611"/>
</g>
<path d="M44.6302 98.9592C44.6302 98.9592 50.8437 114.814 55.1196 121.331C59.3956 127.848 78.2365 134.163 73.9605 139.403C73.9605 139.403 61.8676 152.705 43.7617 138.731C35.2766 132.214 30.9338 122.809 30.9338 122.809C30.9338 122.809 34.3412 112.194 44.6302 98.9592Z" fill="#3C2A34"/>
<path d="M57.5249 137.253L68.7492 142.493C68.7492 142.493 64.3396 135.909 57.5249 137.253Z" fill="#6E7C7D"/>
<path d="M60.665 133.76L71.8226 139C71.8894 139 67.4798 132.416 60.665 133.76Z" fill="#6E7C7D"/>
<path d="M145.917 174.27L56.4559 194.291L46.3673 145.584L48.3049 145.248L57.5249 190.999L145.917 174.27Z" fill="#F4EFD7"/>
</svg>
