<svg width="160" height="50" viewBox="0 0 160 50" fill="none" xmlns="http://www.w3.org/2000/svg">
<g clip-path="url(#clip0)">
<path fill-rule="evenodd" clip-rule="evenodd" d="M105.102 28.1715C101.156 29.4153 97.0221 27.3631 95.7694 23.6317C94.5793 19.8382 96.7716 15.7959 100.718 14.5521C104.664 13.3083 112.869 18.2213 112.869 18.2213C112.869 18.2213 109.048 26.9277 105.102 28.1715Z" fill="#FBBA00"/>
<path fill-rule="evenodd" clip-rule="evenodd" d="M123.893 26.4304C125.145 30.3483 123.078 34.4528 119.258 35.6343C115.437 36.8159 111.366 34.6393 110.113 30.7214C108.86 26.8035 113.871 18.6567 113.871 18.6567C113.871 18.6567 122.703 22.5125 123.893 26.4304Z" fill="#0096D7"/>
<path fill-rule="evenodd" clip-rule="evenodd" d="M117.128 5.22399C115.875 1.30608 111.741 -0.87054 107.983 0.373242C104.225 1.55483 102.158 5.7215 103.411 9.63941C104.664 13.5573 113.495 17.3509 113.495 17.3509C113.495 17.3509 118.381 9.07971 117.128 5.22399Z" fill="#00773A"/>
<path fill-rule="evenodd" clip-rule="evenodd" d="M122.264 7.77362C126.21 6.52984 130.344 8.58208 131.597 12.3134C132.787 16.0448 130.595 20.1492 126.649 21.393C122.703 22.6368 114.497 17.7239 114.497 17.7239C114.497 17.7239 118.318 9.0174 122.264 7.77362Z" fill="#E11F21"/>
<path d="M94.0782 38.5572C93.3892 39.6144 93.0134 41.1691 93.0134 42.6616C93.0134 44.1542 93.3266 45.7089 94.0782 46.7039C94.7672 47.7612 96.0199 48.6318 97.711 48.6318C99.0264 48.6318 100.404 48.1343 101.407 46.7039C102.346 45.3358 102.534 43.9054 102.534 42.6616C102.534 41.4179 102.346 39.7388 101.469 38.495C100.78 37.5 99.5275 36.5671 97.7737 36.5671C95.7067 36.5671 94.5793 37.7487 94.0782 38.5572ZM105.227 42.5995C105.227 45.0248 104.413 46.8283 102.659 48.1965C100.905 49.5024 99.2143 49.689 97.7737 49.689C96.3331 49.689 94.5793 49.5024 92.8881 48.1965C91.1343 46.8283 90.3201 45.0248 90.3201 42.5995C90.3201 40.1741 91.197 38.3706 92.8881 37.0024C94.6419 35.6343 96.3331 35.5099 97.7737 35.5099C99.5275 35.5099 101.031 35.7587 102.659 37.0646C104.35 38.4328 105.227 40.1119 105.227 42.5995ZM158.405 41.6666C158.279 42.2885 157.904 42.5995 157.716 42.7238L156.776 43.4079C156.651 43.4701 156.526 43.7189 156.526 43.8432L156.463 43.9054H156.4L156.338 43.8432C156.338 43.6567 156.275 43.0348 157.152 42.4129L157.966 41.8532C158.091 41.791 158.217 41.6044 158.217 41.4801H158.279L158.342 41.5422L158.405 41.6666ZM159.156 44.5273V44.6517C159.031 44.7761 158.968 44.9005 158.968 45.087V48.5696C158.968 48.8806 159.031 49.0671 159.595 49.0671C159.657 49.0671 159.72 49.0671 159.72 49.1293V49.1915C159.72 49.2537 159.657 49.2537 159.595 49.2537C159.469 49.2537 159.282 49.2537 159.094 49.1915C158.843 49.1915 158.718 49.1293 158.593 49.1293C158.467 49.1293 158.342 49.1293 158.091 49.1915C157.841 49.1915 157.716 49.2537 157.59 49.2537C157.528 49.2537 157.465 49.2537 157.465 49.1915V49.1293C157.465 49.0671 157.528 49.0671 157.59 49.0671C158.091 49.0671 158.217 48.9427 158.217 48.5696V45.7089H158.154C157.089 46.8905 156.024 48.1343 155.022 49.3781L154.96 49.4403H154.834L154.772 49.3781V45.398C154.772 45.087 154.709 44.9005 154.145 44.9005C154.083 44.9005 154.02 44.9005 154.02 44.8383V44.7761C154.02 44.7139 154.083 44.7139 154.145 44.7139C154.271 44.7139 154.459 44.7139 154.646 44.7761C154.897 44.7761 155.022 44.8383 155.148 44.8383C155.21 44.8383 155.398 44.8383 155.649 44.7761C155.899 44.7761 156.024 44.7139 156.15 44.7139C156.212 44.7139 156.275 44.7139 156.275 44.7761V44.8383C156.275 44.9005 156.212 44.9005 156.15 44.9005C155.649 44.9005 155.523 45.0248 155.523 45.398V48.0721H155.586C156.087 47.388 156.526 46.8905 157.152 46.1442C158.405 44.7761 158.78 44.5273 159.031 44.4651L159.156 44.5273ZM152.893 44.4651V44.5895C152.767 44.7139 152.705 44.8383 152.705 45.0248V48.5074C152.705 48.8184 152.767 49.0049 153.331 49.0049C153.394 49.0049 153.456 49.0049 153.456 49.0671V49.1293C153.456 49.1915 153.394 49.1915 153.331 49.1915C153.206 49.1915 153.018 49.1915 152.83 49.1293C152.58 49.1293 152.454 49.0671 152.329 49.0671C152.204 49.0671 152.078 49.0671 151.828 49.1293C151.577 49.1293 151.452 49.1915 151.327 49.1915C151.264 49.1915 151.202 49.1915 151.202 49.1293C151.202 49.0671 151.264 49.0671 151.327 49.0671C151.828 49.0671 151.953 48.9427 151.953 48.5696V45.7089H151.891C150.826 46.8905 149.761 48.1343 148.759 49.3781L148.696 49.4403H148.571L148.508 49.3781V45.398C148.508 45.087 148.446 44.9005 147.882 44.9005C147.819 44.9005 147.757 44.9005 147.757 44.8383V44.7761C147.757 44.7139 147.819 44.7139 147.882 44.7139C148.007 44.7139 148.195 44.7139 148.383 44.7761C148.634 44.7761 148.759 44.8383 148.884 44.8383C148.947 44.8383 149.135 44.8383 149.385 44.7761C149.636 44.7761 149.761 44.7139 149.886 44.7139C149.949 44.7139 150.011 44.7139 150.011 44.7761C150.011 44.8383 149.949 44.8383 149.886 44.8383C149.385 44.8383 149.26 44.9626 149.26 45.3358V48.0099H149.322C149.824 47.3258 150.262 46.8283 150.888 46.082C152.141 44.7139 152.517 44.4651 152.767 44.4029L152.893 44.4651ZM145.314 45.398C145.314 45.087 145.251 44.9005 144.688 44.9005C144.625 44.9005 144.562 44.9005 144.562 44.8383V44.7761C144.562 44.7139 144.625 44.7139 144.688 44.7139C144.813 44.7139 145.001 44.7139 145.189 44.7761C145.439 44.7761 145.564 44.8383 145.69 44.8383C145.815 44.8383 145.94 44.8383 146.191 44.7761C146.441 44.7761 146.567 44.7139 146.692 44.7139C146.754 44.7139 146.817 44.7139 146.817 44.7761C146.817 44.8383 146.754 44.8383 146.692 44.8383C146.191 44.8383 146.065 44.9626 146.065 45.3358V48.5074C146.065 48.8184 146.128 49.0049 146.692 49.0049C146.754 49.0049 146.817 49.0049 146.817 49.0671V49.1293C146.817 49.1915 146.754 49.1915 146.692 49.1915C146.567 49.1915 146.379 49.1915 146.191 49.1293C145.94 49.1293 145.815 49.0671 145.69 49.0671C145.564 49.0671 145.439 49.0671 145.189 49.1293C144.938 49.1293 144.813 49.1915 144.688 49.1915C144.625 49.1915 144.562 49.1915 144.562 49.1293C144.562 49.0671 144.625 49.0671 144.688 49.0671C145.189 49.0671 145.314 48.9427 145.314 48.5696V46.9527H142.558V48.5074C142.558 48.8184 142.621 49.0049 143.184 49.0049C143.247 49.0049 143.31 49.0049 143.31 49.0671V49.1293C143.31 49.1915 143.247 49.1915 143.184 49.1915C143.059 49.1915 142.871 49.1915 142.683 49.1293C142.433 49.1293 142.307 49.0671 142.182 49.0671C142.119 49.0671 141.932 49.0671 141.681 49.1293C141.43 49.1293 141.305 49.1915 141.18 49.1915C141.117 49.1915 141.055 49.1915 141.055 49.1293C141.055 49.0671 141.117 49.0671 141.18 49.0671C141.681 49.0671 141.806 48.9427 141.806 48.5696V45.398C141.806 45.087 141.744 44.9005 141.18 44.9005C141.117 44.9005 141.055 44.9005 141.055 44.8383V44.7761C141.055 44.7139 141.117 44.7139 141.18 44.7139C141.305 44.7139 141.493 44.7139 141.681 44.7761C141.932 44.7761 142.057 44.8383 142.182 44.8383C142.307 44.8383 142.433 44.8383 142.683 44.7761C142.934 44.7761 143.059 44.7139 143.184 44.7139C143.247 44.7139 143.31 44.7139 143.31 44.7761C143.31 44.8383 143.247 44.8383 143.184 44.8383C142.683 44.8383 142.558 44.9626 142.558 45.3358V46.5174H145.314V45.398ZM137.422 47.2636C137.171 47.3258 136.983 47.4502 136.795 47.5746C136.545 47.8233 136.482 48.0721 136.482 48.1965C136.482 48.383 136.545 48.5696 136.67 48.694C136.795 48.8184 136.983 48.9427 137.171 48.9427C137.422 48.9427 137.798 48.8184 138.048 48.694C138.299 48.5696 138.612 48.2587 138.612 48.0721V46.8905L137.422 47.2636ZM139.426 48.5074C139.426 48.6318 139.426 48.7562 139.489 48.8806C139.551 48.9427 139.677 49.0049 139.802 49.0049C139.865 49.0049 139.99 48.9427 140.115 48.9427C140.178 48.9427 140.24 49.0049 140.24 49.0671C140.115 49.1915 139.739 49.3781 139.489 49.3781C139.238 49.3781 138.988 49.2537 138.862 49.1293C138.737 49.0049 138.612 48.7562 138.612 48.5696C138.424 48.7562 138.236 48.9427 138.048 49.0049C137.672 49.2537 137.297 49.3159 136.921 49.3159C136.608 49.3159 136.294 49.2537 136.044 49.0671C135.856 48.8806 135.668 48.6318 135.668 48.2587C135.668 47.8855 135.793 47.6368 136.044 47.388C136.232 47.2014 136.608 47.0771 136.858 46.9527L138.674 46.4552C138.674 46.1442 138.675 45.5845 138.487 45.2736C138.361 45.0248 138.048 44.7761 137.547 44.7761C137.297 44.7761 137.109 44.8383 136.858 44.9626C137.109 45.0248 137.171 45.2736 137.171 45.398C137.171 45.6467 136.983 45.8955 136.67 45.8955C136.357 45.8955 136.169 45.6467 136.169 45.3358C136.169 45.087 136.294 44.8383 136.545 44.6517C136.858 44.4651 137.234 44.4029 137.547 44.4029C137.986 44.4029 138.487 44.5273 138.8 44.7761C139.363 45.2114 139.426 45.7089 139.426 46.2686V48.5074ZM130.469 45.0248V48.5074C130.469 48.8184 130.532 49.0049 131.096 49.0049C131.158 49.0049 131.221 49.0049 131.221 49.0671V49.1293C131.221 49.1915 131.158 49.1915 131.096 49.1915C130.97 49.1915 130.782 49.1915 130.595 49.1293C130.344 49.1293 130.219 49.0671 130.093 49.0671C129.968 49.0671 129.843 49.0671 129.592 49.1293C129.342 49.1293 129.217 49.1915 129.091 49.1915C129.029 49.1915 128.966 49.1915 128.966 49.1293C128.966 49.0671 129.029 49.0671 129.091 49.0671C129.592 49.0671 129.718 48.9427 129.718 48.5696V45.398C129.718 45.087 129.655 44.9005 129.091 44.9005C129.029 44.9005 128.966 44.9005 128.966 44.8383V44.7761C128.966 44.7139 128.966 44.7139 129.091 44.7139H134.666C134.728 44.7139 134.791 44.7761 134.791 44.7761C134.791 44.8383 134.728 44.8383 134.666 44.8383C134.165 44.8383 134.039 44.9626 134.039 45.3358V48.5074C134.039 48.8184 134.102 49.0049 134.666 49.0049C134.728 49.0049 134.791 49.0049 134.791 49.0671V49.1293C134.791 49.1915 134.728 49.1915 134.666 49.1915C134.541 49.1915 134.353 49.1915 134.165 49.1293C133.914 49.1293 133.789 49.0671 133.664 49.0671C133.601 49.0671 133.413 49.0671 133.163 49.1293C132.912 49.1293 132.787 49.1915 132.662 49.1915C132.599 49.1915 132.536 49.1915 132.536 49.1293C132.536 49.0671 132.599 49.0671 132.662 49.0671C133.163 49.0671 133.288 48.9427 133.288 48.5696V45.087H130.469V45.0248ZM127.964 49.1915C127.964 49.2537 127.901 49.2537 127.839 49.2537C127.463 49.2537 127.275 49.1915 126.836 49.1915C126.711 49.1915 126.523 49.1915 126.335 49.2537C126.085 49.2537 125.96 49.3159 125.834 49.3159C125.772 49.3159 125.709 49.3159 125.709 49.2537V49.1293C125.709 49.0671 125.772 49.0671 125.834 49.0671C126.461 49.0671 126.461 48.8806 126.461 48.5696L126.523 45.2114H126.461L124.519 49.1915L124.456 49.2537H124.394L124.331 49.1915L122.577 45.2114H122.515L122.577 48.5696C122.577 48.8184 122.577 49.0671 123.266 49.0671C123.329 49.0671 123.392 49.0671 123.392 49.1293V49.1915C123.392 49.2537 123.329 49.2537 123.266 49.2537C122.828 49.2537 123.141 49.1915 122.389 49.1915C122.264 49.1915 122.139 49.1915 121.951 49.2537C121.763 49.2537 121.638 49.3159 121.45 49.3159C121.387 49.3159 121.387 49.3159 121.325 49.2537L121.262 49.1915C121.262 49.1293 121.262 49.1293 121.387 49.1293C122.076 49.1293 122.076 48.8184 122.076 48.6318L122.139 45.4602C122.139 44.9626 121.826 44.9626 121.512 44.9626C121.45 44.9626 121.387 44.9626 121.387 44.9005V44.8383C121.387 44.7761 121.45 44.7761 121.512 44.7761C121.7 44.7761 122.139 44.8383 122.515 44.8383C122.765 44.8383 123.016 44.7761 123.204 44.7761L124.644 48.0721H124.707L126.273 44.7761C126.461 44.8383 126.586 44.8383 126.774 44.8383C127.212 44.8383 127.275 44.7761 127.776 44.7761C127.839 44.7761 127.901 44.7761 127.901 44.8383V44.7761C127.901 44.8383 127.839 44.8383 127.776 44.8383C127.463 44.8383 127.15 44.8383 127.15 45.3358V48.5074C127.15 48.694 127.15 49.0671 127.776 49.0049C127.839 49.0049 127.964 49.0049 127.964 49.0671V49.1915ZM116.627 45.5845C116.376 45.9577 116.251 46.4552 116.251 47.0149C116.251 47.5124 116.376 48.0721 116.627 48.383C116.877 48.7562 117.316 49.0671 117.88 49.0671C118.318 49.0671 118.819 48.8806 119.195 48.383C119.508 47.9477 119.571 47.388 119.571 47.0149C119.571 46.5796 119.508 46.0199 119.195 45.5845C118.944 45.2114 118.506 44.9005 117.88 44.9005C117.253 44.8383 116.815 45.2736 116.627 45.5845ZM120.51 46.9527C120.51 47.7612 120.197 48.4452 119.633 48.8806C119.007 49.3159 118.443 49.3781 117.942 49.3781C117.441 49.3781 116.815 49.3159 116.251 48.8806C115.625 48.383 115.374 47.7612 115.374 46.9527C115.374 46.1442 115.687 45.4602 116.251 45.0248C116.877 44.5273 117.441 44.5273 117.942 44.5273C118.569 44.5273 119.07 44.5895 119.633 45.087C120.197 45.5223 120.51 46.082 120.51 46.9527ZM111.366 46.6417H111.491C111.616 46.6417 111.867 46.5796 111.992 46.3308L112.43 45.398C112.806 44.6517 113.307 44.5895 113.62 44.5895C114.184 44.5895 114.435 44.9005 114.435 45.2736C114.435 45.6467 114.184 45.7711 113.996 45.7711C113.746 45.7711 113.558 45.5223 113.558 45.2736C113.558 45.2114 113.558 45.087 113.683 44.9626C113.62 44.9005 113.558 44.9005 113.432 44.9626C113.307 45.087 113.182 45.2736 113.057 45.6467C112.806 46.082 112.618 46.5174 112.117 46.7661V46.8283C112.493 46.8905 112.869 47.0771 113.119 47.2636C113.245 47.388 113.495 47.6368 113.746 48.1343C113.871 48.4452 114.059 48.7562 114.309 48.9427C114.497 49.0671 114.685 49.0049 114.873 48.8806H114.936L114.998 48.9427V49.0049C114.873 49.1915 114.56 49.3159 114.309 49.3159C113.934 49.3159 113.432 49.1915 112.994 48.5074C112.806 48.1965 112.618 47.6368 112.305 47.3258C112.117 47.1393 111.804 46.9527 111.366 46.9527V48.5074C111.366 48.8184 111.428 49.0049 111.992 49.0049C112.055 49.0049 112.117 49.0049 112.117 49.0671V49.1293C112.117 49.1915 112.055 49.1915 111.992 49.1915C111.867 49.1915 111.679 49.1915 111.491 49.1293C111.24 49.1293 111.115 49.0671 110.99 49.0671C110.927 49.0671 110.739 49.0671 110.489 49.1293C110.238 49.1293 110.113 49.1915 109.988 49.1915C109.925 49.1915 109.862 49.1915 109.862 49.1293C109.862 49.0671 109.925 49.0671 109.988 49.0671C110.489 49.0671 110.614 48.9427 110.614 48.5696V45.398C110.614 45.087 110.551 44.9005 109.988 44.9005C109.925 44.9005 109.862 44.9005 109.862 44.8383V44.7761C109.862 44.7139 109.925 44.7139 109.988 44.7139C110.113 44.7139 110.301 44.7139 110.489 44.7761C110.739 44.7761 110.864 44.8383 110.99 44.8383C111.428 44.8383 111.24 44.7761 111.992 44.7761C112.055 44.7761 112.117 44.7761 112.117 44.8383V44.7761C112.117 44.8383 112.055 44.8383 111.992 44.8383C111.491 44.8383 111.366 44.9626 111.366 45.3358V46.6417ZM157.027 38.0597C156.776 38.1218 156.526 38.2462 156.4 38.3706C156.15 38.6194 156.087 38.8681 156.087 38.9925C156.087 39.1791 156.15 39.3656 156.275 39.49C156.4 39.6144 156.588 39.7388 156.776 39.7388C157.027 39.7388 157.402 39.6144 157.653 39.49C157.904 39.3656 158.217 39.0547 158.217 38.8681V37.6865L157.027 38.0597ZM158.968 39.3656C158.968 39.49 158.968 39.6144 159.094 39.7388C159.156 39.801 159.282 39.8631 159.407 39.8631C159.469 39.8631 159.595 39.801 159.72 39.801C159.783 39.801 159.845 39.8631 159.845 39.9253C159.72 40.0497 159.344 40.2363 159.094 40.2363C158.843 40.2363 158.593 40.1119 158.467 39.9875C158.342 39.8631 158.217 39.6144 158.217 39.4278C158.029 39.6144 157.841 39.801 157.653 39.9253C157.277 40.1741 156.901 40.2363 156.526 40.2363C156.212 40.2363 155.899 40.1741 155.649 39.9875C155.461 39.801 155.273 39.5522 155.273 39.1791C155.273 38.8059 155.398 38.5572 155.649 38.3084C155.837 38.1218 156.212 37.9975 156.463 37.8731L158.279 37.3756C158.279 37.0646 158.279 36.5049 158.091 36.194C157.966 35.9452 157.653 35.6965 157.152 35.6965C156.901 35.6965 156.713 35.7587 156.463 35.883C156.713 35.9452 156.776 36.194 156.776 36.3184C156.776 36.5671 156.588 36.8159 156.275 36.8159C155.962 36.8159 155.774 36.5671 155.774 36.2562C155.774 36.0074 155.899 35.7587 156.15 35.5721C156.463 35.3855 156.839 35.3233 157.152 35.3233C157.59 35.3233 158.091 35.4477 158.405 35.6965C158.968 36.1318 159.031 36.6293 159.031 37.189V39.3656H158.968ZM150.011 35.883V39.3656C150.011 39.6766 150.074 39.8631 150.638 39.8631C150.7 39.8631 150.763 39.8631 150.763 39.9253V39.9875C150.763 40.0497 150.7 40.0497 150.638 40.0497C150.513 40.0497 150.325 40.0497 150.137 39.9875C149.886 39.9875 149.761 39.9253 149.636 39.9253C149.51 39.9253 149.385 39.9253 149.135 39.9875C148.884 39.9875 148.759 40.0497 148.634 40.0497C148.571 40.0497 148.508 40.0497 148.508 39.9875V39.9253C148.508 39.8631 148.571 39.8631 148.634 39.8631C149.135 39.8631 149.26 39.7388 149.26 39.3656V36.194C149.26 35.883 149.197 35.6965 148.634 35.6965C148.571 35.6965 148.508 35.6965 148.508 35.6343V35.5721C148.508 35.5099 148.508 35.5099 148.634 35.5099H154.208C154.271 35.5099 154.333 35.5721 154.333 35.5721V35.6343C154.333 35.6965 154.271 35.6965 154.208 35.6965C153.707 35.6965 153.582 35.8209 153.582 36.194V39.3656C153.582 39.6766 153.644 39.8631 154.208 39.8631C154.271 39.8631 154.333 39.8631 154.333 39.9253V39.9875C154.333 40.0497 154.271 40.0497 154.208 40.0497C154.083 40.0497 153.895 40.0497 153.707 39.9875C153.456 39.9875 153.331 39.9253 153.206 39.9253C153.143 39.9253 152.955 39.9253 152.705 39.9875C152.454 39.9875 152.329 40.0497 152.204 40.0497C152.141 40.0497 152.078 40.0497 152.078 39.9875V39.9253C152.078 39.8631 152.141 39.8631 152.204 39.8631C152.705 39.8631 152.83 39.7388 152.83 39.3656V35.883H150.011ZM143.247 35.883V39.3656C143.247 39.6766 143.31 39.8631 143.873 39.8631C143.936 39.8631 143.999 39.8631 143.999 39.9253V39.9875C143.999 40.0497 143.936 40.0497 143.873 40.0497C143.748 40.0497 143.56 40.0497 143.372 39.9875C143.122 39.9875 142.996 39.9253 142.871 39.9253C142.808 39.9253 142.621 39.9253 142.37 39.9875C142.119 39.9875 141.994 40.0497 141.869 40.0497C141.806 40.0497 141.744 40.0497 141.744 39.9875V39.9253C141.744 39.8631 141.806 39.8631 141.869 39.8631C142.37 39.8631 142.495 39.7388 142.495 39.3656V36.194C142.495 35.883 142.433 35.6965 141.869 35.6965C141.806 35.6965 141.744 35.6965 141.744 35.6343V35.5721C141.744 35.5099 141.744 35.5099 141.869 35.5099H147.443C147.506 35.5099 147.569 35.5721 147.569 35.5721V35.6343C147.569 35.6965 147.506 35.6965 147.443 35.6965C146.942 35.6965 146.817 35.8209 146.817 36.194V39.3656C146.817 39.6766 146.88 39.8631 147.443 39.8631C147.506 39.8631 147.569 39.8631 147.569 39.9253V39.9875C147.569 40.0497 147.506 40.0497 147.443 40.0497C147.318 40.0497 147.13 40.0497 146.942 39.9875C146.692 39.9875 146.567 39.9253 146.441 39.9253C146.379 39.9253 146.191 39.9253 145.94 39.9875C145.69 39.9875 145.564 40.0497 145.439 40.0497C145.376 40.0497 145.314 40.0497 145.314 39.9875V39.9253C145.314 39.8631 145.376 39.8631 145.439 39.8631C145.94 39.8631 146.065 39.7388 146.065 39.3656V35.883H143.247ZM139.426 36.7537C139.489 36.5671 139.551 36.3184 139.551 36.194C139.551 36.0696 139.551 35.8209 139.176 35.7587C139.05 35.7587 138.862 35.7587 138.862 35.6343V35.5721C138.862 35.5099 138.862 35.5099 138.988 35.5099C139.176 35.5099 139.363 35.5721 139.614 35.5721C139.677 35.5721 139.927 35.5721 140.052 35.5721C140.24 35.5721 140.366 35.5721 140.491 35.5099C140.616 35.5099 140.679 35.4477 140.804 35.4477C140.929 35.4477 140.992 35.5099 140.992 35.5099V35.5721C140.992 35.6343 140.929 35.6343 140.867 35.6343C140.741 35.6343 140.554 35.6965 140.366 35.883C140.178 36.0696 140.115 36.2562 140.052 36.5049L138.173 41.2313C137.986 41.791 137.735 42.1641 137.422 42.4751C137.171 42.7238 136.921 42.8482 136.545 42.8482C135.919 42.8482 135.605 42.4129 135.605 42.1019C135.605 41.7288 135.919 41.5422 136.169 41.5422C136.482 41.5422 136.733 41.791 136.733 42.0398C136.733 42.2263 136.608 42.3507 136.545 42.4129C136.608 42.4751 136.608 42.4751 136.733 42.4751C136.983 42.4751 137.171 42.2885 137.359 42.0398C137.672 41.6666 137.923 40.8582 137.986 40.3607L136.169 36.5671C136.044 36.3184 135.919 36.0074 135.731 35.8209C135.355 35.4477 135.104 35.6965 135.104 35.5099V35.4477C135.104 35.3855 135.104 35.3855 135.292 35.3855C135.605 35.3855 136.106 35.4477 136.42 35.4477C136.858 35.4477 136.67 35.3855 137.359 35.3855C137.422 35.3855 137.484 35.3855 137.484 35.4477V35.5099C137.484 35.5721 137.422 35.6343 137.359 35.6343C137.234 35.6343 136.983 35.6343 136.983 35.9452C136.983 36.0696 137.046 36.3184 137.046 36.3184L138.487 39.5522L139.426 36.7537ZM130.97 39.2413C131.221 39.7388 131.847 39.8631 132.16 39.8631C132.662 39.8631 133.1 39.6144 133.351 39.1169C133.664 38.6194 133.664 38.1218 133.664 37.6865C133.664 37.2512 133.664 36.8781 133.413 36.3806C133.163 35.883 132.787 35.6343 132.16 35.6343C131.471 35.6343 131.096 35.9452 130.908 36.1318V39.2413H130.97ZM130.97 42.0398C130.97 42.1019 130.97 42.3507 131.096 42.4129C131.221 42.5373 131.471 42.4751 131.722 42.4751C131.785 42.4751 131.847 42.4751 131.847 42.5373V42.5995C131.847 42.6616 131.785 42.6616 131.722 42.6616C131.158 42.6616 131.221 42.5995 130.595 42.5995C130.093 42.5995 130.031 42.6616 129.592 42.6616C129.53 42.6616 129.467 42.6616 129.467 42.5995V42.5373C129.467 42.4751 129.53 42.4751 129.592 42.4751C129.718 42.4751 129.968 42.4751 130.093 42.4129C130.219 42.3507 130.219 42.1641 130.219 42.0398V36.2562C130.219 36.194 130.219 35.9452 130.031 35.8209C129.906 35.6965 129.718 35.6965 129.53 35.6965C129.467 35.6965 129.404 35.6965 129.404 35.6343V35.5721C129.404 35.4477 129.467 35.5099 129.53 35.5099H130.156C130.469 35.5099 130.595 35.3855 130.72 35.3855C130.97 35.3233 130.97 35.5099 130.97 35.6343V35.8209C131.534 35.4477 132.098 35.3855 132.474 35.3855C133.037 35.3855 133.664 35.6343 134.102 36.0696C134.478 36.5049 134.666 37.0024 134.666 37.5C134.666 38.0597 134.541 38.5572 134.227 39.0547C133.726 39.7388 132.975 40.1741 132.223 40.1741C131.785 40.1741 131.346 39.9875 130.97 39.801V42.0398ZM126.273 39.3656C126.273 39.7388 126.335 39.8631 127.024 39.8631C127.087 39.8631 127.15 39.8631 127.15 39.9253V39.9875C127.15 40.0497 127.087 40.0497 127.024 40.0497C126.461 40.0497 126.523 39.9875 125.897 39.9875C125.396 39.9875 125.333 40.0497 124.895 40.0497C124.832 40.0497 124.769 40.0497 124.769 39.9875V39.9253C124.769 39.8631 124.832 39.8631 124.895 39.8631C125.396 39.8631 125.521 39.7388 125.521 39.3656V36.194C125.521 35.883 125.458 35.6965 124.895 35.6965C124.832 35.6965 124.769 35.6965 124.769 35.6343V35.5721C124.769 35.5099 124.769 35.5099 124.895 35.5099H128.152C128.214 35.5099 128.34 35.5099 128.34 35.3233L128.402 35.2612H128.465L128.528 35.3233L128.653 36.9403L128.59 37.0024H128.528L128.465 36.9403C128.402 36.6915 128.277 36.4427 128.089 36.2562C127.839 35.9452 127.588 35.8209 127.275 35.8209H126.335V39.3656H126.273ZM79.9226 41.7288H80.2358C80.6742 41.7288 81.3006 41.6044 81.739 40.796L83.117 38.0597C84.1818 35.883 85.6851 35.6965 86.4993 35.6965C88.0652 35.6965 88.7542 36.6293 88.7542 37.6243C88.7542 38.6194 88.0652 39.0547 87.4389 39.0547C86.6872 39.0547 86.0609 38.3706 86.0609 37.6243C86.0609 37.3756 86.1235 37.0024 86.374 36.6915C86.2488 36.4427 85.9356 36.5049 85.6851 36.7537C85.2466 37.1268 85.0587 37.6865 84.5576 38.6816C83.9313 39.9875 83.3049 41.1691 81.8017 41.9154V42.1019C82.9291 42.2885 83.9313 42.7238 84.6203 43.3457C85.0587 43.7189 85.7477 44.4029 86.4993 45.8333C86.9378 46.6417 87.3762 47.6368 88.1905 48.1343C88.8168 48.4452 89.2553 48.3209 89.7564 47.9477L89.9443 48.0099L90.1322 48.1965L90.0695 48.383C89.6937 48.9427 88.8795 49.2537 88.1278 49.2537C87.0004 49.2537 85.6224 48.8806 84.3697 46.9527C83.806 46.082 83.3049 44.5273 82.428 43.6567C81.8643 43.097 81.05 42.5373 79.7347 42.5995V47.0149C79.7347 48.0099 79.9853 48.4452 81.4885 48.4452C81.6138 48.4452 81.8017 48.4452 81.8017 48.694V48.8806C81.8017 49.0671 81.5511 49.1293 81.4885 49.1293C81.0501 49.1293 80.6116 49.0671 79.9853 49.0049C79.2963 48.9427 78.8578 48.8806 78.6073 48.8806C78.3567 48.8806 77.9183 48.9427 77.2293 49.0049C76.603 49.0671 76.1645 49.1293 75.7261 49.1293C75.6008 49.1293 75.4129 49.0671 75.4129 48.8806V48.694C75.4129 48.4452 75.6008 48.4452 75.7261 48.4452C77.2293 48.5074 77.4798 48.0099 77.4798 47.0149V38.0597C77.4798 37.0646 77.2293 36.6293 75.7261 36.6293C75.6008 36.6293 75.4129 36.6293 75.4129 36.3806V36.194C75.4129 36.0074 75.6634 35.9452 75.7261 35.9452C76.1645 35.9452 76.603 36.0074 77.2293 36.0696C77.9183 36.1318 78.3567 36.194 78.6073 36.194C79.7973 36.194 79.4215 36.0074 81.4885 35.9452C81.6138 35.9452 81.9269 35.9452 81.9269 36.194V36.3806C81.9269 36.6293 81.739 36.6293 81.6138 36.6293C80.1105 36.5671 79.86 37.0646 79.86 38.0597V41.7288H79.9226ZM69.3372 38.0597C69.3372 37.0646 69.0867 36.6293 67.5835 36.6293C67.4582 36.6293 67.2703 36.6293 67.2703 36.3806V36.194C67.2703 36.0074 67.5208 35.9452 67.5835 35.9452C68.0219 35.9452 68.4604 36.0074 69.0867 36.0696C69.7757 36.1318 70.2141 36.194 70.4647 36.194C70.7152 36.194 71.1537 36.1318 71.8427 36.0696C72.469 36.0074 72.9075 35.9452 73.3459 35.9452C73.4712 35.9452 73.6591 36.0074 73.6591 36.194V36.3806C73.6591 36.6293 73.4712 36.6293 73.3459 36.6293C71.8427 36.5671 71.5921 37.0646 71.5921 38.0597V47.2015C71.5921 48.1965 71.8427 48.6318 73.3459 48.6318C73.4712 48.6318 73.6591 48.6318 73.6591 48.8806V49.0671C73.6591 49.2537 73.4085 49.3159 73.3459 49.3159C72.9075 49.3159 72.469 49.2537 71.8427 49.1915C71.1537 49.1293 70.7152 49.0671 70.4647 49.0671C70.2141 49.0671 69.7757 49.1293 69.0867 49.1915C68.4604 49.2537 68.0219 49.3159 67.5835 49.3159C67.4582 49.3159 67.2703 49.2537 67.2703 49.0671V48.8806C67.2703 48.6318 67.4582 48.6318 67.5835 48.6318C69.0867 48.694 69.3372 48.1965 69.3372 47.2015V42.5373H61.4452V47.2015C61.4452 48.1965 61.6958 48.6318 63.199 48.6318C63.3243 48.6318 63.5122 48.6318 63.5122 48.8806V49.0671C63.5122 49.2537 63.2616 49.3159 63.199 49.3159C62.7606 49.3159 62.3221 49.2537 61.6958 49.1915C61.0068 49.1293 60.5683 49.0671 60.3178 49.0671C60.0672 49.0671 59.6288 49.1293 58.9398 49.1915C58.3134 49.2537 57.875 49.3159 57.4366 49.3159C57.3113 49.3159 57.1234 49.2537 57.1234 49.0671V48.8806C57.1234 48.6318 57.3113 48.6318 57.4366 48.6318C58.9398 48.694 59.1903 48.1965 59.1903 47.2015V38.0597C59.1903 37.0646 58.9398 36.6293 57.4366 36.6293C57.3113 36.6293 57.1234 36.6293 57.1234 36.3806V36.194C57.1234 36.0074 57.3739 35.9452 57.4366 35.9452C57.875 35.9452 58.3134 36.0074 58.9398 36.0696C59.6288 36.1318 60.0672 36.194 60.3178 36.194C60.5683 36.194 61.0068 36.1318 61.6958 36.0696C62.3221 36.0074 62.7606 35.9452 63.199 35.9452C63.3243 35.9452 63.5122 36.0074 63.5122 36.194V36.3806C63.5122 36.6293 63.3243 36.6293 63.199 36.6293C61.6958 36.5671 61.4452 37.0646 61.4452 38.0597V41.5422H69.3372V38.0597ZM47.4775 43.4701C46.7886 43.7189 46.0996 43.9676 45.6611 44.4029C44.9095 45.087 44.7842 45.8955 44.7842 46.2686C44.7842 46.8283 44.9721 47.3258 45.2853 47.699C45.5985 48.0721 46.0996 48.383 46.7886 48.383C47.6028 48.383 48.605 48.0099 49.294 47.5746C50.0456 47.1393 50.8598 46.393 50.8598 45.7089V42.2885L47.4775 43.4701ZM53.24 47.1393C53.24 47.4502 53.3026 47.8855 53.4905 48.1343C53.6784 48.383 54.0542 48.4452 54.3674 48.4452C54.618 48.4452 54.9311 48.3209 55.2443 48.1965C55.4322 48.2587 55.5575 48.383 55.5575 48.6318C55.1817 49.0671 54.1169 49.6268 53.3653 49.6268C52.6136 49.6268 51.9873 49.3159 51.5488 48.8806C51.173 48.4452 50.9225 47.8233 50.8598 47.3258C50.3588 47.8233 49.7324 48.3209 49.2313 48.694C48.1665 49.3781 47.0391 49.689 46.0369 49.689C45.0974 49.689 44.1579 49.4403 43.4062 48.8806C42.7799 48.383 42.2788 47.5746 42.2788 46.4552C42.2788 45.4602 42.6546 44.5895 43.281 44.0298C43.8447 43.4701 44.8469 43.0348 45.6611 42.8482L50.8598 41.4179C50.9225 40.485 50.7972 38.8681 50.2335 37.9353C49.8577 37.3134 49.0434 36.5049 47.5402 36.5049C46.8512 36.5049 46.2248 36.6915 45.5985 37.0646C46.2248 37.3134 46.4754 37.8731 46.4754 38.4328C46.4754 39.1169 45.9117 39.8631 45.0348 39.8631C44.0326 39.8631 43.5315 39.1169 43.5315 38.3084C43.5315 37.6243 43.97 36.8781 44.659 36.3806C45.4732 35.8209 46.7259 35.6343 47.6654 35.6343C48.9182 35.6343 50.2961 36.0074 51.2983 36.7537C52.8642 37.9353 53.1774 39.49 53.1774 41.0447V47.1393H53.24ZM31.944 46.5796C31.944 47.388 32.2572 48.1965 34.3241 48.1965C37.4559 48.1965 37.8317 46.5796 37.8317 45.398C37.8317 44.6517 37.7691 43.7811 36.8295 43.097C36.0153 42.5373 35.0758 42.5373 34.1989 42.5373H33.5725L33.322 42.2885V42.0398L33.5725 41.791C34.512 41.6666 35.4516 41.6666 36.0779 41.0447C36.579 40.6094 36.8922 39.8631 36.8922 39.0547C36.8922 38.5572 36.7669 37.9353 36.1406 37.4378C35.4516 36.8781 34.5747 36.8781 33.8857 36.8781C33.0714 36.8781 32.5077 36.9403 31.8187 37.0024V46.5796H31.944ZM29.6891 38.0597C29.6891 37.0646 29.4386 36.6293 27.9353 36.6293C27.8101 36.6293 27.6222 36.6293 27.6222 36.3806V36.194C27.6222 36.0074 27.8727 35.9452 27.9353 35.9452C28.3738 35.9452 28.8122 36.0074 29.4386 36.0696C30.1276 36.1318 30.566 36.194 30.8792 36.194C34.011 36.194 32.7583 35.9452 35.0758 35.9452C37.2054 35.9452 38.1449 36.5049 38.4581 36.7537C39.0844 37.2512 39.5855 38.0597 39.5855 38.9303C39.5855 40.1741 38.5833 41.4801 36.9548 41.9776V42.1641C37.8943 42.2263 38.7712 42.5995 39.4602 43.1592C40.3371 43.8432 40.5877 44.7139 40.5877 45.5845C40.5877 46.8283 39.836 47.8233 38.8965 48.383C37.8943 48.9427 36.1406 49.2537 34.9505 49.2537C34.2615 49.2537 33.8857 49.1915 32.633 49.1293C31.7561 49.0671 31.3176 49.0049 30.8166 49.0049C29.877 49.0049 28.6243 49.2537 27.8727 49.2537C27.7474 49.2537 27.5595 49.1915 27.5595 49.0049V48.8184C27.5595 48.5696 27.7474 48.5696 27.8727 48.5696C29.3759 48.6318 29.6265 48.1343 29.6265 47.1393V38.0597H29.6891ZM6.32616 44.5895L19.7301 27.7985C21.296 25.8084 22.4861 25.3731 23.3003 25.1865L23.6135 25.3109L23.7388 25.6218L23.6135 25.9328C22.8619 26.5547 22.4234 27.2388 22.4234 28.4204V45.8955C22.4234 46.8905 22.5487 47.5746 23.4882 47.9477C24.1146 48.1965 24.8036 48.1965 25.4299 48.1965C25.8684 48.1965 25.8684 48.4452 25.8684 48.5696V48.7562C25.8684 48.9427 25.8057 49.1915 25.4299 49.1915C24.9915 49.1915 24.6157 49.1293 23.6135 49.0671C22.4234 48.9427 21.6718 48.8806 20.9828 48.8806C20.2938 48.8806 19.5422 48.9427 18.3521 49.0671C17.35 49.1293 16.9742 49.1915 16.5357 49.1915C16.1599 49.1915 16.0973 48.9427 16.0973 48.7562V48.5696C16.0973 48.383 16.1599 48.1965 16.5357 48.1965C17.1621 48.1965 17.8511 48.2587 18.4774 47.9477C19.4169 47.5746 19.5422 46.8905 19.5422 45.8955V30.6592L4.13393 49.8134L3.88339 50H3.69548L3.44494 49.689V29.1044C3.44494 28.1094 3.31967 27.4253 2.38014 27.0522C1.75379 26.7412 1.0648 26.7412 0.438447 26.7412C0.0626353 26.7412 0 26.5547 0 26.3681V26.1815C0 25.995 0.0626353 25.7462 0.438447 25.7462C0.876894 25.7462 1.25271 25.8084 2.25487 25.8706C3.44494 25.995 4.19656 26.0572 4.88555 26.0572C5.57454 26.0572 6.32616 25.995 7.51623 25.8706C8.5184 25.8084 8.89421 25.7462 9.33266 25.7462C9.70847 25.7462 9.7711 25.995 9.7711 26.1815V26.3681C9.7711 26.5547 9.70847 26.7412 9.33266 26.7412C8.7063 26.7412 8.01732 26.6791 7.39096 26.99C6.45143 27.3631 6.32616 28.0472 6.32616 29.0422V44.5895Z" fill="#D7B46A"/>
<path d="M108.046 37.8109C106.981 31.2811 107.858 29.2289 108.046 28.5448C108.046 28.4826 108.108 28.4826 108.108 28.4826C108.108 28.4204 108.108 28.3582 108.108 28.3582C108.108 28.296 108.046 28.296 107.983 28.296C107.921 28.296 107.858 28.3582 107.858 28.4204C107.858 28.4204 107.858 28.4204 107.858 28.4826C107.482 29.1045 105.728 31.2189 106.856 37.9353C107.921 44.3408 107.044 48.8806 106.856 49.5025C106.856 49.5647 106.793 49.5647 106.793 49.5647C106.73 49.6269 106.793 49.6891 106.793 49.7513C106.793 49.8134 106.856 49.8134 106.918 49.8134C106.981 49.8134 107.044 49.7513 107.044 49.6891C107.044 49.6891 107.044 49.6891 107.044 49.6269C107.419 48.8806 109.111 44.2786 108.046 37.8109Z" fill="#00773A"/>
</g>
<defs>
<clipPath id="clip0">
<rect width="159.783" height="50" fill="white"/>
</clipPath>
</defs>
</svg>
