<svg width="120" height="35" viewBox="0 0 120 35" fill="none" xmlns="http://www.w3.org/2000/svg">
<g clip-path="url(#clip0_949:18027)">
<path d="M17.8345 26.0511C16.9532 21.6988 13.7192 22.4432 12.5816 18.0132C12.5653 17.9494 12.4692 17.9575 12.4632 18.024C12.0441 22.561 19.1311 24.7636 13.9733 31.5681C13.9375 31.6146 13.8614 31.587 13.8647 31.5287C14.1617 26.2131 8.68515 26.191 7.84841 19.8079C7.83918 19.7376 7.73655 19.7393 7.72949 19.8095C7.07682 26.7145 14.4071 29.5903 9.69728 34.5412H24.8732C24.889 34.5412 24.9042 34.5349 24.9154 34.5238C24.9266 34.5126 24.9329 34.4975 24.9329 34.4817V24.8992C24.9329 24.8663 24.9601 24.8398 24.9927 24.8398H34.6562C34.6888 24.8398 34.7159 24.8133 34.7159 24.7809V9.78886C34.7158 9.7732 34.7094 9.75822 34.6982 9.74719C34.687 9.73616 34.6719 9.72998 34.6562 9.72998H24.9927C24.9768 9.72998 24.9616 9.72372 24.9504 9.71257C24.9392 9.70143 24.9329 9.68631 24.9329 9.67055V0.0875171C24.9329 0.0797838 24.9313 0.0721401 24.9282 0.0650225C24.9252 0.0579049 24.9208 0.0514529 24.9152 0.0460347C24.9097 0.0406166 24.9031 0.0363385 24.8959 0.0334448C24.8887 0.0305511 24.881 0.0290984 24.8732 0.0291697H13.6763C15.3063 0.940039 16.5313 2.49381 16.8815 4.96385C16.887 5.00005 16.8593 5.03463 16.8218 5.03409C16.0562 5.00221 14.368 4.3069 13.5889 3.23126C13.5481 3.17507 13.4613 3.22261 13.4862 3.28744C14.128 4.98708 16.458 6.40417 18.688 6.97684C18.6994 6.97972 18.7096 6.98615 18.717 6.9952C18.7244 7.00424 18.7287 7.01542 18.7293 7.02708C18.909 9.24915 21.9742 11.1546 23.8595 13.1536C24.8732 14.2292 25.9445 15.7057 25.2777 16.5561C25.2506 16.5907 25.1947 16.5804 25.1767 16.5399C24.2553 14.454 21.5979 14.5852 22.0008 15.4513C22.1833 15.8419 24.5018 14.7884 24.681 17.0099C24.7961 18.4292 22.2213 19.3514 19.0627 19.3195C18.1136 19.3384 18.6696 21.9413 19.338 20.896C19.8902 20.0315 24.8786 17.6723 23.8052 21.0051C23.3751 22.3422 19.9489 24.5497 18.2852 25.7253C18.1147 25.8452 17.9632 25.9549 17.8345 26.0511Z" fill="#0098D9"/>
<path d="M15.9492 8.53763C17.7454 8.96335 16.3602 10.4712 16.3602 10.4712C18.682 10.9736 19.995 12.5107 20.2116 12.7819C20.2219 12.7938 20.2078 12.8105 20.1926 12.8051L16.3771 11.4442L13.7637 10.475C17.381 9.87368 15.8585 8.51602 15.9492 8.53763Z" fill="#0098D9"/>
<path d="M4.27446 9.41933C4.3016 9.44904 4.28966 9.49605 4.25111 9.50685C3.59518 9.69 1.57798 10.6036 0.0120117 12.7133C-0.0287123 12.7673 0.0429619 12.8354 0.0950886 12.7927C2.65093 10.6922 5.57545 10.093 7.64043 9.93203C7.70016 9.92663 7.70993 9.85099 7.6578 9.8256C2.78939 7.46685 5.5912 3.77691 8.6026 5.49114V5.45927C4.78595 2.92817 2.4055 7.32368 4.275 9.41933" fill="#0098D9"/>
<path d="M54.1933 9.81804V24.7582H51.183V11.6322H44.3011V24.7582H41.2903V9.81804H54.1933Z" fill="#0098D9"/>
<path d="M63.6522 11.6317C65.5201 11.6317 66.8254 12.9045 66.8254 14.7273C66.8254 16.5491 65.5206 17.8219 63.6522 17.8219H60.6984V11.6317H63.6522ZM60.6984 19.6361H63.6522C65.6813 19.6361 67.351 19.1526 68.4804 18.2379C69.5447 17.3757 70.1078 16.1617 70.1078 14.7268C70.1078 13.3081 69.5447 12.0995 68.4804 11.2319C67.345 10.307 65.6754 9.81804 63.6522 9.81804H57.6343V24.7582H60.6984V19.6361Z" fill="#0098D9"/>
<path d="M77.519 13.1266H77.6276L80.2465 19.5296H74.9013L77.519 13.1266ZM72.719 24.7582L74.1378 21.3438H80.9008L82.3185 24.7582L85.5911 24.7577L79.4825 9.81804H76.8653L70.5378 24.7582H72.719Z" fill="#0098D9"/>
<path d="M96.0684 7.47009C96.5147 7.187 96.9149 6.79207 97.2581 6.29612C97.6161 5.77441 97.8881 5.19918 98.0639 4.59216L98.0644 4.58838L97.2043 4.26855C97.1935 4.28692 96.1064 6.08272 94.1935 6.08272C93.2041 6.08272 92.4407 5.59325 91.9748 5.18266C91.4579 4.72722 91.1859 4.27341 91.1826 4.26855L90.322 4.58838C90.3241 4.59702 90.544 5.45224 91.1288 6.29612C91.472 6.79207 91.8727 7.187 92.318 7.47009C92.8762 7.8245 93.5071 8.00386 94.1935 8.00386C94.8803 8.00386 95.5113 7.8245 96.0684 7.47009ZM90.537 24.7582L97.5269 13.7668H97.6344V24.7582H100.645V9.8175H97.8494L90.8595 20.809H90.7526V9.81804H87.7417V24.7582H90.537Z" fill="#0098D9"/>
<path d="M114.879 11.6744V23.2493H107.578V23.1407C107.584 23.1369 108.151 22.7512 108.742 22.0489C109.286 21.4005 109.961 20.3449 110.085 18.991L110.738 11.6744H114.879ZM105.508 28.6L106.489 25.1056H117.167L118.147 28.6L120 28.5994V23.2493H117.93V9.81804H107.905L107.034 18.9899C106.835 21.1672 105.316 22.6718 104.672 23.218C104.659 23.2274 104.647 23.2377 104.636 23.2488H103.656V28.5994H105.508L105.508 28.6Z" fill="#0098D9"/>
</g>
<defs>
<clipPath id="clip0_949:18027">
<rect width="120" height="34.5763" fill="white"/>
</clipPath>
</defs>
</svg>
