<svg width="120" height="60" viewBox="0 0 120 60" fill="none" xmlns="http://www.w3.org/2000/svg">
<g clip-path="url(#clip0_949:17993)">
<path d="M58.0422 9.88506H50.9021H7.14011H0V17.0115V45.5172C0 45.7471 0 45.977 0 46.2069C0 46.4368 0 46.6667 0 46.8965C0.460653 54.2529 6.44914 60 13.8196 60H51.1324H58.2726L58.0422 9.88506ZM51.1324 52.8736H25.7965H13.8196C10.1344 52.8736 7.14011 49.8851 7.14011 46.2069C7.14011 45.977 7.14011 45.977 7.14011 45.7471V34.023V17.0115H50.9021V52.8736H51.1324Z" fill="#008DCF"/>
<path d="M109.175 20.9195H100.422L91.2092 30.5747L81.7658 20.9195H73.0134V49.1954H81.7658V33.5632L91.2092 43.2184L97.428 36.7816L100.422 33.5632V49.1954H109.175V20.9195Z" fill="#008DCF"/>
<path d="M38.4645 20.9195V36.3218L23.4933 20.9195H11.0557L38.4645 48.9655V49.1954H47.2169V20.9195H38.4645Z" fill="#008DCF"/>
<path d="M113.09 9.88506H69.0979H61.9578V17.0115V52.8736V60H69.0979H112.86H120V52.8736V17.0115V9.88506H113.09ZM113.09 52.8736H69.0979V17.0115H112.86L113.09 52.8736Z" fill="#008DCF"/>
<path d="M0 0.459763C0.460653 0.459763 0.921305 0.459763 1.38196 0.459763C1.84261 0.459763 2.53359 0.459763 2.99424 0.919533C3.22457 1.14942 3.45489 1.60919 3.45489 2.06896C3.45489 2.52873 3.22457 2.9885 2.53359 3.21838C3.22457 3.44827 3.68522 3.90804 3.68522 4.59769C3.68522 5.05746 3.45489 5.51723 3.22457 5.74712C2.76392 5.977 2.30326 6.20689 1.15163 6.20689C0.690979 6.20689 0.230326 6.20689 0 6.20689V0.459763ZM1.15163 2.75861H1.38196C1.84261 2.75861 2.30326 2.29884 2.30326 1.83907C2.30326 1.3793 2.07294 1.14942 1.61228 1.14942C1.38196 1.14942 1.38196 1.14942 1.38196 1.14942L1.15163 2.75861ZM1.15163 5.28735H1.38196C2.07294 5.28735 2.30326 5.05746 2.30326 4.36781C2.30326 3.90804 1.84261 3.44827 1.38196 3.44827H1.15163V5.28735Z" fill="#008DCF"/>
<path d="M6.90981 3.44827H5.52785V5.05747H7.14014V5.97701H4.37622V0.229881H6.90981V1.14942H5.52785V2.52873H6.90981V3.44827Z" fill="#008DCF"/>
<path d="M8.75246 1.37931H7.60083V0.229881H10.8254V1.37931H9.90409V6.20689H8.75246V1.37931Z" fill="#008DCF"/>
<path d="M14.0499 3.44827H12.668V5.05747H14.2803V5.97701H11.5164V0.229881H14.0499V1.14942H12.668V2.52873H14.0499V3.44827Z" fill="#008DCF"/>
<path d="M14.9712 0.459763C15.2015 0.459763 15.6622 0.459763 16.1228 0.459763C16.8138 0.459763 17.2745 0.459763 17.7351 0.919533C18.4261 0.919533 18.4261 1.60919 18.4261 2.06896C18.4261 2.52873 18.1958 2.9885 17.9654 3.44827C17.5048 3.67815 17.0441 3.90804 16.5835 3.90804H16.3531V5.977H14.9712V0.459763ZM16.3531 2.9885C17.0441 2.9885 17.5048 2.52873 17.5048 2.06896C17.5048 1.60919 17.2745 1.14942 16.8138 1.14942H16.5835L16.3531 2.9885Z" fill="#008DCF"/>
<path d="M20.2688 0.229881V1.60919C20.2688 2.75862 20.2688 3.67816 20.0385 4.36781C20.2688 3.67816 20.7295 2.9885 20.7295 2.52873L21.6508 0.229881H22.8024V5.97701H21.6508V4.82758C21.6508 3.67816 21.6508 2.75862 21.6508 2.29885C21.6508 2.75862 21.4205 3.44827 21.1901 3.90804L20.2688 6.20689H19.1172V0.229881H20.2688Z" fill="#008DCF"/>
<path d="M25.1055 0.229881V2.52873H26.2571V0.229881H27.4088V5.97701H26.2571V3.67816H25.1055V5.97701H23.9539V0.229881H25.1055Z" fill="#008DCF"/>
<path d="M29.4818 4.82758L29.2515 6.20689H28.0999L29.2515 0.229881H30.6334L31.7851 5.97701H30.6334L30.4031 4.82758H29.4818ZM30.4031 3.90804L30.1728 2.75862C30.1728 2.29885 29.9425 1.83908 29.9425 1.37931C29.9425 1.83908 29.7121 2.29885 29.7121 2.75862L29.4818 3.90804H30.4031Z" fill="#008DCF"/>
<path d="M32.4761 0.459763C32.7064 0.459763 33.1671 0.459763 33.6277 0.459763C34.3187 0.459763 34.7793 0.459763 35.24 0.919533C35.7006 1.14942 35.7006 1.60919 35.7006 2.29884C35.7006 2.9885 35.4703 3.44827 35.24 3.67815C34.7793 4.13792 34.3187 4.13792 33.858 4.13792H33.6277V6.20689H32.4761V0.459763ZM33.858 2.9885C34.549 2.9885 35.0097 2.52873 35.0097 2.06896C35.0097 1.60919 34.7793 1.14942 34.3187 1.14942H34.0884L33.858 2.9885Z" fill="#008DCF"/>
<path d="M37.7736 0.229881V2.52873H39.1556V0.229881H40.3072V5.97701H39.1556V3.67816H38.0039V5.97701H36.8523V0.229881H37.7736Z" fill="#008DCF"/>
<path d="M42.38 4.82758L42.1497 6.20689H40.998L42.1497 0.229881H43.5316L44.6833 5.97701H43.762L43.3013 4.82758H42.38ZM43.3013 3.90804L43.071 2.75862C43.071 2.29885 42.8407 1.83908 42.8407 1.37931C42.8407 1.83908 42.6103 2.29885 42.6103 2.75862L42.38 3.90804H43.3013Z" fill="#008DCF"/>
<path d="M44.9136 5.97701C44.9136 5.74712 45.1439 5.51724 45.1439 5.28735C45.3742 4.5977 45.3742 3.90804 45.8349 3.44827C45.8349 3.44827 46.0652 3.21839 46.2955 3.21839C45.6046 2.9885 45.1439 2.52873 45.1439 1.83908C45.1439 1.14942 45.3742 0.919536 45.6046 0.689651C46.0652 0.459766 46.7562 0.229881 47.2168 0.229881C47.6775 0.229881 48.1381 0.229881 48.5988 0.229881V5.97701H47.4472V3.67816H47.2168C46.9865 3.67816 46.7562 3.67816 46.7562 3.90804C46.5259 4.13793 46.5259 5.05747 46.2955 5.51724C46.2955 5.74712 46.2955 5.74712 46.0652 5.97701H44.9136ZM47.4472 1.14942H47.2168C46.7562 1.14942 46.5259 1.60919 46.5259 2.06896C46.5259 2.52873 46.7562 2.9885 47.4472 2.9885C47.4472 2.9885 47.4472 2.9885 47.6775 2.9885V1.14942H47.4472Z" fill="#008DCF"/>
<path d="M52.284 0.229881V2.75862L53.4356 0.229881H54.8176L53.4356 2.9885C54.1266 3.21839 54.3569 3.67816 54.3569 4.36781C54.5873 4.82758 54.5873 5.51724 54.8176 5.97701H53.666C53.4356 5.51724 53.4356 5.05747 53.4356 4.5977C53.2053 3.90804 53.2053 3.44827 52.7446 3.44827V5.97701H51.593V0.229881H52.284Z" fill="#008DCF"/>
<path d="M58.7333 0.229881V5.97701H57.5816V1.37931H56.6603V2.9885C56.6603 4.36781 56.6603 5.51724 55.739 5.97701C55.5087 6.20689 55.2784 6.20689 54.8177 6.20689L54.5874 5.28735C54.8177 5.28735 54.8177 5.28735 55.0481 5.05747C55.5087 4.82758 55.5087 4.13793 55.5087 2.9885V0.229881H58.7333Z" fill="#008DCF"/>
<path d="M60.8061 0.229881V1.60919C60.8061 2.75862 60.8061 3.67816 60.5757 4.36781C60.8061 3.90804 61.0364 3.21839 61.2667 2.75862L62.188 0.459766H63.3397V6.20689H62.4184V4.82758C62.4184 3.67816 62.4184 2.75862 62.4184 2.29885C62.188 2.75862 61.9577 3.44827 61.7274 3.90804L60.8061 6.20689H59.8848V0.229881H60.8061Z" fill="#008DCF"/>
<path d="M65.6431 0.229881V2.52873H66.7947V0.229881H67.9464V5.97701H66.7947V3.67816H65.6431V5.97701H64.4915V0.229881H65.6431Z" fill="#008DCF"/>
<path d="M70.2495 0.229881V1.60919C70.2495 2.75862 70.2495 3.67816 70.0192 4.36781C70.2495 3.90804 70.4799 3.21839 70.7102 2.75862L71.6315 0.459766H72.7831V6.20689H71.8618V4.82758C71.8618 3.67816 71.8618 2.75862 71.8618 2.29885C71.6315 2.75862 71.4012 3.44827 71.1708 3.90804L70.2495 6.20689H69.0979V0.229881H70.2495Z" fill="#008DCF"/>
<path d="M74.856 0.229881V2.75862L76.0076 0.229881H77.3896L76.0076 2.9885C76.6986 3.21839 76.9289 3.67816 76.9289 4.36781C77.1592 4.82758 77.1592 5.51724 77.3896 5.97701H76.0076C76.0076 5.74712 75.7773 5.28735 75.7773 4.82758C75.547 4.13793 75.547 3.67816 75.0863 3.67816V6.20689H73.7043V0.229881H74.856Z" fill="#008DCF"/>
<path d="M79.0018 4.82758L78.7715 6.20689H77.6199L78.7715 0.229881H80.1535L81.3051 5.97701H80.1535L79.9231 4.82758H79.0018ZM79.9231 3.90804L79.6928 2.75862C79.6928 2.29885 79.4625 1.83908 79.4625 1.37931C79.4625 1.83908 79.2322 2.29885 79.2322 2.75862L79.0018 3.90804H79.9231Z" fill="#008DCF"/>
<path d="M86.3723 5.977C86.142 5.977 85.9116 6.20689 85.451 6.20689C83.8387 6.20689 83.1477 5.05746 83.1477 3.44827C83.1477 1.3793 84.5297 0.459763 85.6813 0.459763C86.142 0.459763 86.3723 0.459763 86.6026 0.689648L86.3723 1.60919C86.142 1.60919 86.142 1.60919 85.9116 1.60919C85.2206 1.60919 84.5297 2.06896 84.5297 3.67815C84.5297 5.05746 84.9903 5.51723 85.9116 5.51723C86.142 5.51723 86.3723 5.51723 86.3723 5.51723V5.977Z" fill="#008DCF"/>
<path d="M90.5183 2.98851C90.5183 5.05747 89.597 5.97701 88.4454 5.97701C87.0634 5.97701 86.6028 4.5977 86.6028 2.98851C86.6028 1.37931 87.2938 0 88.6757 0C90.0577 0.229885 90.5183 1.83908 90.5183 2.98851ZM87.9847 3.21839C87.9847 4.5977 88.2151 5.28736 88.6757 5.28736C89.1364 5.28736 89.3667 4.36782 89.3667 3.21839C89.3667 2.29885 89.1364 1.37931 88.6757 1.37931C88.2151 1.14943 87.9847 1.83908 87.9847 3.21839Z" fill="#008DCF"/>
<path d="M91.9002 1.37931H90.7485V0.229881H93.9731V1.37931H92.8215V6.20689H91.6698L91.9002 1.37931Z" fill="#008DCF"/>
<path d="M95.8157 0.229881V2.52873H96.9673V0.229881H98.119V5.97701H96.9673V3.67816H95.8157V5.97701H94.6641V0.229881H95.8157Z" fill="#008DCF"/>
<path d="M100.422 0.229881V1.60919C100.422 2.75862 100.422 3.67816 100.192 4.36781C100.422 3.90804 100.653 3.21839 100.883 2.75862L101.804 0.459766H102.956V6.20689H102.035V4.82758C102.035 3.67816 102.035 2.75862 102.035 2.29885C101.804 2.75862 101.574 3.44827 101.344 3.90804L100.422 6.20689H99.2708V0.229881H100.422Z" fill="#008DCF"/>
<path d="M105.029 0.229881V2.75862L106.18 0.229881H107.562L106.18 2.9885C106.871 3.21839 107.102 3.67816 107.102 4.36781C107.332 4.82758 107.332 5.51724 107.562 5.97701H106.411C106.18 5.74712 106.18 5.28735 105.95 4.82758C105.72 4.13793 105.72 3.67816 105.259 3.67816V6.20689H104.107V0.229881H105.029Z" fill="#008DCF"/>
<path d="M111.478 2.9885C111.478 5.05747 110.557 5.97701 109.405 5.97701C108.023 5.97701 107.562 4.5977 107.562 2.9885C107.793 1.60919 108.253 0.229881 109.635 0.229881C111.248 0.229881 111.478 1.83908 111.478 2.9885ZM108.944 3.21839C108.944 4.5977 109.175 5.28735 109.635 5.28735C110.096 5.28735 110.326 4.36781 110.326 3.21839C110.326 2.29885 110.096 1.37931 109.635 1.37931C109.175 1.14942 108.944 1.83908 108.944 3.21839Z" fill="#008DCF"/>
<path d="M112.399 0.459763C112.86 0.459763 113.32 0.459763 113.781 0.459763C114.242 0.459763 114.933 0.459763 115.393 0.919533C115.624 1.14942 115.854 1.60919 115.854 2.06896C115.854 2.52873 115.624 2.9885 114.933 3.21838C115.624 3.44827 116.084 3.90804 116.084 4.59769C116.084 5.05746 115.854 5.51723 115.624 5.74712C115.163 6.20689 114.702 6.43677 113.551 6.43677C113.09 6.43677 112.629 6.43677 112.399 6.43677C112.399 6.43677 112.399 0.459763 112.399 0.459763ZM113.551 2.75861C114.242 2.75861 114.472 2.52873 114.472 1.83907C114.472 1.3793 114.242 1.14942 113.781 1.14942C113.551 1.14942 113.551 1.14942 113.551 1.14942V2.75861ZM113.551 5.28735C114.242 5.28735 114.702 5.05746 114.702 4.36781C114.702 3.90804 114.242 3.44827 113.781 3.44827H113.551V5.28735Z" fill="#008DCF"/>
<path d="M117.697 4.82758L117.466 5.97701H116.315L117.466 0.229881H118.848L120 5.97701H118.848L118.618 4.82758H117.697ZM118.618 3.90804L118.388 2.75862C118.388 2.29885 118.157 1.83908 118.157 1.37931C118.157 1.83908 117.927 2.29885 117.927 2.75862L117.697 3.90804H118.618Z" fill="#008DCF"/>
</g>
<defs>
<clipPath id="clip0_949:17993">
<rect width="120" height="60" fill="white"/>
</clipPath>
</defs>
</svg>
