<svg width="120" height="51" viewBox="0 0 120 51" fill="none" xmlns="http://www.w3.org/2000/svg">
<path d="M13.1348 45.8697H4.18896C5.00007 45.727 5.80275 45.54 6.59338 45.3094C6.72884 45.2641 6.85819 45.2022 6.97849 45.1252C7.12161 45.0319 7.26051 44.9325 7.39514 44.8285C7.70941 44.6085 8.0836 44.4904 8.46714 44.4901C8.85068 44.4897 9.22507 44.6073 9.5397 44.8267C9.62008 44.8849 9.70339 44.942 9.78964 44.9981C9.91108 45.0717 10.0397 45.1327 10.1736 45.1801C11.1317 45.5203 12.125 45.7517 13.1348 45.8697Z" fill="#222221"/>
<path d="M6.31613 36.8586C6.41227 36.8329 6.49619 36.7739 6.55297 36.6922C7.1002 35.9742 6.24522 35.5721 5.50225 35.2929C5.14038 35.1799 4.8054 34.9942 4.51786 34.747C4.23031 34.4999 3.99626 34.1966 3.83007 33.8557C3.4943 32.9861 4.01953 32.0835 5.13454 31.7062C5.65568 31.5298 6.29719 31.4636 6.6296 31.119C6.74678 30.9964 6.82112 30.8392 6.84146 30.6708C6.85985 30.5594 6.84937 30.4452 6.81102 30.339C6.77267 30.2328 6.70774 30.1382 6.62244 30.0643C5.97921 29.5181 4.25311 30.3435 3.68092 30.6469C2.63291 31.2026 1.91021 32.0669 1.80695 33.0242C1.74189 33.6761 1.92024 34.3291 2.30764 34.8574C3.0421 35.9081 4.50463 36.6328 6.06152 36.855C6.14553 36.8711 6.2317 36.8723 6.31613 36.8586Z" fill="#222221"/>
<path d="M6.85278 40.9765C6.84574 40.9383 6.82794 40.903 6.80147 40.8746C6.74149 40.8227 6.66613 40.792 6.58699 40.7872C6.41924 40.7662 6.25082 40.7639 6.08351 40.7363C5.90504 40.7067 5.72919 40.6631 5.55758 40.6059C4.79809 40.353 4.3785 39.8802 3.83105 39.43C3.94135 39.9844 4.25834 40.4761 4.71772 40.8053C4.97626 41.0162 5.26248 41.1906 5.56838 41.3236C5.8704 41.4756 6.19477 41.5783 6.52922 41.6278C6.58779 41.6395 6.64853 41.6331 6.7034 41.6095C6.74068 41.5846 6.76782 41.5471 6.77993 41.5039C6.83294 41.3648 6.86028 41.2171 6.86064 41.0682C6.86119 41.0375 6.85856 41.0067 6.85278 40.9765Z" fill="#222221"/>
<path d="M2.6211 33.0157C2.6952 32.2699 2.53938 33.7618 2.6211 33.0157V33.0157Z" fill="#222221"/>
<path d="M11.5434 36.5838C11.5169 36.5687 11.4903 36.5539 11.4635 36.5393C11.3749 36.4811 11.2752 36.4417 11.1707 36.4234C11.0662 36.4052 10.9591 36.4086 10.856 36.4334C10.7528 36.4582 10.6559 36.5039 10.5711 36.5676C10.4863 36.6313 10.4154 36.7117 10.3629 36.8039C10.3074 36.9173 10.2796 37.0422 10.2816 37.1684C10.2837 37.2947 10.3156 37.4186 10.3747 37.5301C10.3894 37.5661 10.4115 37.5985 10.4395 37.6253C10.4944 37.6643 10.5561 37.6927 10.6214 37.7089C10.819 37.7718 10.9998 37.8788 11.15 38.0219C11.3002 38.165 11.4158 38.3404 11.4882 38.5349C11.5605 38.7293 11.5876 38.9377 11.5675 39.1442C11.5474 39.3507 11.4805 39.5499 11.372 39.7268C11.2278 39.9881 11.0284 40.2149 10.7877 40.3914C10.5626 40.5514 10.1753 40.5647 10.0288 40.7963C9.97869 40.894 9.96178 41.0053 9.98067 41.1135C9.98069 41.2391 10.0032 41.3636 10.047 41.4813C10.0851 41.5667 10.1551 41.6338 10.242 41.6681C10.3484 41.6998 10.4611 41.7044 10.5697 41.6815C11.1031 41.5835 11.6041 41.355 12.0278 41.0163C12.4516 40.6777 12.785 40.2394 12.9984 39.7405C13.1299 39.4263 13.1851 39.0854 13.1593 38.7457C13.1335 38.4061 13.0275 38.0774 12.8499 37.7867C12.5229 37.2819 12.0734 36.868 11.5434 36.5838Z" fill="#222221"/>
<path d="M23.3896 19.245C22.941 17.8769 22.1121 16.665 21 15.7512C19.7661 14.7661 18.3294 14.0668 16.7931 13.7035C13.6169 12.9048 9.62108 13.2949 7.18456 15.2381C6.81272 15.505 6.46839 15.7982 6.12025 16.0846C5.87039 16.3119 5.60405 16.5205 5.32341 16.7085L5.34902 16.7182C5.00897 16.9398 4.74918 17.2649 4.60804 17.6455C4.4385 17.9932 4.3147 18.3614 4.23974 18.7409C4.17216 19.0595 4.12803 19.3813 4.07574 19.7017C4.05093 19.8318 4.05813 19.9661 4.09672 20.0928C4.14972 20.2752 4.23935 20.4448 4.36012 20.5913L4.38301 20.6013C4.60829 20.6042 4.83283 20.575 5.04989 20.5146C5.20152 20.4745 5.34523 20.4088 5.47486 20.3205C5.8813 20.051 6.29811 19.7886 6.67678 19.4936C7.04328 19.2096 7.37371 18.8819 7.66072 18.5177C7.78733 18.3534 7.87574 18.1629 7.91952 17.9601C7.96331 17.7573 7.96136 17.5473 7.91383 17.3454C7.91629 17.3257 7.91898 17.306 7.92117 17.2869C7.94449 17.16 7.98414 17.0366 8.03913 16.9198C8.09447 16.8004 8.16203 16.6871 8.24072 16.5816C8.32632 16.4758 8.41868 16.3755 8.51721 16.2816C9.57282 15.3465 11.0921 15.0003 12.6235 14.9615C14.1385 14.9067 15.6473 15.1812 17.0461 15.766C18.186 16.2245 19.1626 17.0141 19.8499 18.033C20.5372 19.0519 20.9038 20.2534 20.9023 21.4826C20.9196 24.122 19.04 26.5428 16.2835 27.9278C14.6241 28.7614 12.5806 29.054 10.7259 29.4948C9.96213 29.6763 9.69591 30.6069 10.3759 31.0264C10.7188 31.1766 11.1012 31.2119 11.4658 31.1267C11.8088 31.0841 14.4877 30.7648 15.29 30.4751C18.4336 29.604 21.1402 27.8183 22.5952 25.4044C23.1602 24.4943 23.5235 23.4735 23.6605 22.4109C23.7976 21.3484 23.7052 20.2688 23.3896 19.245Z" fill="#222221"/>
<path d="M0.611786 24.249C0.962517 24.6538 1.36065 25.015 1.7976 25.3247C2.76807 25.9591 3.78468 26.52 4.8389 27.0024C5.23198 27.2005 5.61425 27.4193 5.98409 27.658C6.36623 27.9003 6.71767 28.188 7.03074 28.5148C7.37421 28.8732 7.57152 29.347 7.58403 29.8433C7.641 30.3923 7.61796 30.9467 7.51564 31.489C7.36801 31.9925 7.31952 35.0693 7.47559 36.1052C7.66253 37.1591 7.79411 38.222 7.86979 39.2897C7.91636 40.3448 7.82245 41.4014 7.59054 42.4317C7.56146 42.5313 7.30055 43.543 7.18069 44.0136C7.16603 44.0712 7.2481 44.1066 7.30687 44.0715C7.63324 43.8628 8.01166 43.75 8.39899 43.746C8.78632 43.7421 9.16698 43.8471 9.49755 44.0491C9.55699 44.0841 9.63918 44.0475 9.62387 43.9897C9.49975 43.5207 9.22071 42.5243 9.19372 42.4316C8.9557 41.3731 8.86314 40.2871 8.9186 39.2036C8.97226 38.1656 9.15341 37.1357 9.30867 36.1052C9.44164 34.5407 9.42029 32.9669 9.24492 31.4066C9.15995 30.8899 9.14492 30.3641 9.20023 29.8433C9.21779 29.3144 9.43989 28.813 9.81974 28.4448C10.1297 28.1384 10.4715 27.866 10.8394 27.6323C11.2241 27.3862 11.6219 27.1614 12.0311 26.9587C13.0852 26.48 14.0982 25.9155 15.0598 25.2708C15.4926 24.9552 15.8859 24.5886 16.2312 24.179C16.5358 23.809 16.8772 23.3098 16.7608 22.8501H0.0236402C-0.0995248 23.3362 0.28271 23.8645 0.611786 24.249Z" fill="#222221"/>
<path d="M88.821 24.5021C89.1482 24.3794 89.4345 24.2157 89.7617 24.0929C91.1523 23.6428 92.3384 22.9882 93.0337 21.6379C93.122 21.5426 93.2298 21.4677 93.3499 21.4183C93.4699 21.3688 93.5993 21.346 93.729 21.3515C94.8742 21.3105 95.4059 20.8195 95.4059 19.6738C95.4059 19.4693 95.1605 19.2647 94.9969 19.1419C94.7955 18.9689 94.5761 18.818 94.3425 18.6918C94.8742 18.4872 95.4059 18.4054 95.6513 18.119C95.8215 17.7465 95.8506 17.3247 95.7331 16.9324C95.6513 16.4823 95.5286 15.9094 95.2014 15.6639C94.956 15.4593 94.3834 15.6639 93.7699 15.7458L94.3834 14.9683H92.9928C93.1973 14.2318 94.547 14.8865 94.3016 13.7408H93.8108C92.8701 13.8226 91.9294 13.9045 90.9887 14.0272C88.5347 14.3136 86.9397 15.8276 85.7536 17.8325C85.7077 17.9217 85.6798 18.019 85.6718 18.119V18.4054C86.1723 18.5705 86.703 18.6231 87.2262 18.5594C87.7493 18.4958 88.252 18.3174 88.6983 18.0371C89.4345 17.5461 89.5981 17.628 90.1298 18.3236C90.5388 18.8555 90.866 19.5102 91.7249 19.1828H91.8067C92.5838 19.4283 93.3609 19.7147 94.2198 20.0012C93.9524 20.0792 93.6787 20.134 93.4018 20.1648C92.7474 20.1239 92.0521 20.0421 91.3977 19.9602C91.0707 19.9451 90.7538 19.8421 90.4803 19.6621C90.2069 19.4821 89.9869 19.2317 89.8435 18.9373C89.5981 18.4463 89.271 18.3645 88.6984 18.5691C88.0442 18.8133 87.3516 18.938 86.6534 18.9373C85.6309 18.9373 85.1401 19.2237 85.0174 20.2467C84.781 22.4675 85.1337 24.7115 86.0399 26.7526C86.5307 27.8164 86.9397 28.9212 87.3487 29.9851C87.4603 30.2565 87.5972 30.5168 87.7577 30.7625H87.9622C88.0421 30.5677 88.0837 30.3593 88.0849 30.1487C88.0031 29.2076 87.8804 28.2665 87.7986 27.3254C87.7577 26.9572 87.7168 26.5889 87.6759 26.1797L87.9622 26.1388C88.1229 26.413 88.2597 26.7005 88.3712 26.9981C88.8211 28.8257 88.8211 30.7352 88.3712 32.5629C88.1667 33.3403 88.0031 34.0768 87.7986 34.977C88.2894 34.9361 88.6575 34.8952 88.9847 34.8542L89.0665 34.977C88.884 35.1051 88.719 35.2564 88.5757 35.4271C88.4138 35.5826 88.3001 35.7815 88.2485 35.9999C88.2485 36.1227 88.5348 36.2864 88.7393 36.3682C89.8844 36.6546 91.0296 36.491 92.2157 36.45L92.1339 35.7135L92.2566 35.5908C92.4611 35.7544 92.7883 35.9181 92.8292 36.1227C93.0746 36.982 93.729 37.1456 94.4243 37.1047C95.9738 36.9945 97.5164 36.8033 99.0459 36.5319C100.641 36.2454 102.195 35.7954 103.79 35.5089C104.691 35.2999 105.63 35.3256 106.518 35.5835C107.406 35.8414 108.213 36.3229 108.862 36.982C109.104 37.2622 109.435 37.4515 109.799 37.5184C110.164 37.5854 110.54 37.526 110.866 37.3502C111.766 36.9001 111.97 35.9999 111.234 35.3453C110.791 34.9306 110.26 34.6227 109.68 34.4451C106.776 33.504 103.831 33.013 100.845 34.0359C100.563 34.1101 100.276 34.1648 99.9866 34.1996L99.9048 34.0359C100.086 33.8673 100.293 33.7291 100.518 33.6267C101.246 33.3679 102.001 33.1895 102.768 33.0948C104.941 32.8472 107.142 33.0563 109.23 33.7086C110.076 34.0282 110.863 34.4844 111.561 35.0589C111.878 35.2617 112.11 35.5724 112.216 35.9335C112.321 36.2946 112.292 36.6816 112.134 37.0229C111.994 37.3788 111.732 37.6732 111.394 37.8532C111.057 38.0332 110.667 38.087 110.293 38.0049C109.569 37.9562 108.867 37.7315 108.248 37.3502C106.612 36.1227 104.813 36.0409 102.931 36.4091C101.295 36.7365 99.6594 37.1866 98.0234 37.5139C97.0833 37.7237 96.1236 37.8334 95.1604 37.8412C94.4651 37.8412 93.8107 37.5139 93.1154 37.3502C92.5019 37.1866 91.8884 37.0638 91.234 36.9411C90.7128 36.9004 90.1883 36.9418 89.6799 37.0638C88.4938 37.3093 87.5531 36.6137 86.5306 36.3273C86.1216 36.2045 86.0807 35.4271 86.4897 35.0998C87.8803 34.0768 87.9621 32.6856 87.4304 31.2126C86.6942 29.3304 85.7944 27.53 85.0991 25.6478C83.913 22.579 83.913 19.5102 85.7535 16.6459C86.3561 15.6721 87.1998 14.8704 88.2029 14.3184C89.2061 13.7664 90.3347 13.4829 91.4794 13.4953C92.461 13.4544 93.4426 13.5771 94.3424 13.127C94.4065 13.0832 94.4809 13.057 94.5583 13.0508C94.6357 13.0447 94.7133 13.0588 94.7836 13.0919C94.8538 13.125 94.9142 13.1758 94.9587 13.2394C95.0033 13.3029 95.0305 13.377 95.0377 13.4543C95.0786 14.0681 95.4058 14.109 95.8557 13.9863C95.9933 13.9796 96.1311 13.9934 96.2647 14.0272C96.2672 14.0839 96.2811 14.1396 96.3056 14.1909C95.6512 14.9274 96.0602 15.623 96.1829 16.4413C96.3465 17.4233 96.142 18.4872 96.1011 19.5101C96.0965 19.7441 96.0691 19.9771 96.0193 20.2057C95.9614 20.4481 95.9772 20.7022 96.0647 20.9355C96.1521 21.1688 96.3072 21.3706 96.5101 21.5151C98.3506 23.2336 99.6185 25.3204 99.9047 27.8982C99.9802 28.3718 99.994 28.8532 99.9457 29.3304C99.823 30.4351 99.6185 31.5399 99.4549 32.6447C99.4192 32.8273 99.3643 33.0055 99.2913 33.1766H99.1277C99.0938 33.0153 99.08 32.8503 99.0868 32.6856C99.2094 31.499 99.3731 30.3124 99.4139 29.1258C99.4811 27.1166 98.812 25.1521 97.5326 23.6019C97.4552 23.5276 97.3534 23.4839 97.2463 23.4792C97.3232 23.7714 97.4188 24.0584 97.5326 24.3384C98.1461 25.8933 98.6369 27.4891 98.2279 29.2076C98.0517 30.0802 97.7043 30.9092 97.2059 31.6466C96.7074 32.3841 96.0678 33.0154 95.324 33.504C95.0225 33.743 94.6712 33.9113 94.296 33.9962C93.9209 34.0812 93.5314 34.0808 93.1564 33.995C93.32 33.8722 93.3609 33.7904 93.4427 33.7495C95.9375 33.2176 97.0418 31.4172 97.6144 29.1258C97.9825 27.6118 97.6553 26.1388 97.1645 24.6658C96.8373 23.7656 96.6328 22.8245 96.3056 21.9243C96.2238 21.6788 95.9375 21.4742 95.733 21.2287L95.5695 21.3515C95.6094 21.5731 95.6641 21.7918 95.733 22.0061C95.8966 22.7017 95.6103 22.9063 95.0377 23.3155C94.5143 23.686 94.1265 24.2177 93.9334 24.8294C93.6007 25.9803 92.9138 26.9969 91.9703 27.7346C90.4161 29.003 89.4754 30.5579 89.639 32.6856C89.6799 33.0527 89.6799 33.4233 89.639 33.7904C89.5981 33.9541 89.5572 34.1177 89.5163 34.2814C89.3936 34.1587 89.3118 34.1587 89.3118 34.1177C88.8619 31.99 88.5756 29.9032 90.457 28.2256C90.9599 27.8179 91.4252 27.366 91.8476 26.8753C92.4202 26.2206 92.911 25.525 93.4017 24.8704C93.6475 24.5482 93.8408 24.1891 93.9743 23.8065V22.7426C93.9743 22.579 94.097 22.4153 94.0561 22.2516C94.0152 22.047 93.9334 21.8015 93.7698 21.7606C93.6712 21.7392 93.569 21.739 93.4703 21.7602C93.3716 21.7813 93.2785 21.8233 93.1972 21.8834C93.053 22.0144 92.9289 22.166 92.8292 22.3335C91.9703 23.6838 90.6206 24.2157 89.1891 24.5839C89.065 24.5906 88.9406 24.5768 88.821 24.543L88.821 24.5021Z" fill="#222221"/>
<path d="M113.632 11.8665C113.508 11.8589 113.387 11.8475 113.271 11.8363C112.826 11.7934 112.388 11.6887 111.942 11.6589C111.352 11.6196 110.802 11.5803 110.213 11.5803C109.741 11.5803 109.269 11.6589 108.837 11.6589L108.562 11.4623C109.009 11.229 109.468 11.019 109.937 10.8331C111.408 10.435 112.776 9.72413 113.947 8.74894C114.368 8.3315 114.725 7.85453 115.008 7.33326C115.244 6.86136 115.48 6.38947 115.676 5.87825C115.676 5.83893 115.755 5.79961 115.755 5.76028C115.558 4.97379 116.109 4.46258 116.423 3.87271C117.209 4.30528 117.209 4.30528 117.877 3.79406L118.035 4.30528C118.323 4.10712 118.662 3.99778 119.011 3.99079C119.361 3.9838 119.705 4.07947 120 4.26595C118.624 4.85582 118.467 6.2715 117.76 7.29393C117.681 7.41191 117.563 7.60853 117.445 7.60853C116.855 7.5692 116.895 8.00177 116.895 8.35569C116.947 8.97286 116.829 9.59254 116.555 10.1477C116.398 10.4184 116.184 10.18 115.936 10.3697C115.778 10.4906 115.596 11.0309 115.428 11.1318C115.271 11.257 115.125 11.3959 114.993 11.5467C114.934 11.5977 114.87 11.6423 114.801 11.6797C114.437 11.8505 114.031 11.9153 113.632 11.8665Z" fill="#222221"/>
<path d="M92.7601 18.58C92.531 18.3617 92.38 18.074 92.3303 17.7614C92.2806 17.4488 92.3349 17.1285 92.4849 16.8498C92.5682 16.5752 92.7415 16.3366 92.9768 16.1725C93.2121 16.0085 93.4957 15.9284 93.7821 15.9453C92.8387 16.4958 92.9959 17.5576 92.7601 18.58Z" fill="#222221"/>
<path d="M27.6231 45.8665C27.5826 45.8671 27.5425 45.8596 27.5051 45.8444C27.4676 45.8292 27.4336 45.8067 27.405 45.7781C27.3764 45.7495 27.3538 45.7155 27.3386 45.678C27.3233 45.6406 27.3158 45.6004 27.3163 45.56V41.5677C27.3149 41.5266 27.322 41.4858 27.3373 41.4477C27.3526 41.4096 27.3756 41.3751 27.405 41.3465C27.4338 41.3184 27.468 41.2964 27.5054 41.2818C27.5429 41.2671 27.5829 41.2601 27.6231 41.2612H29.0318C29.2757 41.2559 29.5173 41.3094 29.7362 41.4171C29.9318 41.5154 30.0968 41.6654 30.2133 41.8507C30.3311 42.0419 30.3914 42.2629 30.3872 42.4874C30.3895 42.6732 30.3349 42.8553 30.231 43.0093C30.1236 43.1678 29.9762 43.295 29.8038 43.378C30.0467 43.431 30.2659 43.5613 30.4287 43.7493C30.5926 43.9545 30.6764 44.2123 30.6644 44.4747C30.6709 44.7248 30.6062 44.9715 30.4778 45.1861C30.3494 45.4007 30.1626 45.5744 29.9393 45.6867C29.6967 45.81 29.4275 45.8718 29.1554 45.8664L27.6231 45.8665ZM27.9294 43.1541H29.0318C29.2287 43.1623 29.4227 43.1041 29.5827 42.9889C29.6561 42.9288 29.714 42.8518 29.7515 42.7645C29.789 42.6772 29.8049 42.5822 29.798 42.4874C29.8051 42.3931 29.7892 42.2986 29.7517 42.2118C29.7142 42.125 29.6562 42.0487 29.5827 41.9893C29.422 41.8758 29.2283 41.8188 29.0318 41.8273H27.9294V43.1541ZM27.9294 45.3004H29.1554C29.3195 45.3038 29.4824 45.2715 29.6329 45.2059C29.7657 45.1473 29.8783 45.0511 29.9569 44.929C30.0396 44.7923 30.0807 44.6345 30.0751 44.4747C30.081 44.3262 30.0396 44.1797 29.9569 44.0562C29.875 43.9434 29.7626 43.8564 29.6329 43.8054C29.4809 43.7459 29.3186 43.7169 29.1554 43.7201H27.9294V45.3004Z" fill="#222221"/>
<path d="M32.0731 45.8666C32.0327 45.8672 31.9926 45.8597 31.9551 45.8445C31.9177 45.8293 31.8836 45.8067 31.855 45.7782C31.8264 45.7496 31.8039 45.7156 31.7886 45.6781C31.7734 45.6407 31.7659 45.6005 31.7664 45.5601V41.5678C31.765 41.5267 31.7721 41.4859 31.7874 41.4478C31.8026 41.4097 31.8257 41.3752 31.8551 41.3466C31.8839 41.3185 31.918 41.2965 31.9555 41.2819C31.9929 41.2672 32.0329 41.2602 32.0731 41.2613H34.7371C34.7769 41.2594 34.8167 41.2655 34.8541 41.2791C34.8915 41.2928 34.9259 41.3137 34.9552 41.3408C34.9828 41.3679 35.0044 41.4006 35.0187 41.4367C35.0329 41.4727 35.0394 41.5114 35.0377 41.5501C35.0392 41.5875 35.0326 41.6247 35.0183 41.6593C35.0041 41.6939 34.9825 41.7251 34.9552 41.7506C34.8952 41.8036 34.817 41.8311 34.7371 41.8274H32.3794V43.2602H34.0711C34.1109 43.2583 34.1507 43.2644 34.1881 43.278C34.2255 43.2917 34.2599 43.3126 34.2892 43.3397C34.3421 43.3942 34.3717 43.4672 34.3717 43.5432C34.3717 43.6192 34.3421 43.6922 34.2892 43.7467C34.2599 43.7738 34.2255 43.7947 34.1881 43.8084C34.1507 43.822 34.1109 43.8281 34.0711 43.8262H32.3794V45.3005H34.7371C34.817 45.2967 34.8952 45.3243 34.9552 45.3773C34.9825 45.4028 35.0041 45.4339 35.0183 45.4685C35.0326 45.5031 35.0392 45.5404 35.0377 45.5778C35.0394 45.6165 35.0329 45.6551 35.0187 45.6912C35.0044 45.7272 34.9828 45.7599 34.9552 45.7871C34.9259 45.8141 34.8915 45.8351 34.8541 45.8487C34.8167 45.8623 34.7769 45.8684 34.7371 45.8665L32.0731 45.8666Z" fill="#222221"/>
<path d="M35.863 41.8273C35.8253 41.8282 35.7877 41.8216 35.7526 41.8078C35.7175 41.7939 35.6855 41.7732 35.6585 41.7469C35.6315 41.7205 35.6101 41.689 35.5954 41.6542C35.5808 41.6194 35.5732 41.5821 35.5732 41.5443C35.5732 41.5066 35.5808 41.4692 35.5954 41.4344C35.6101 41.3996 35.6315 41.3681 35.6585 41.3417C35.6855 41.3154 35.7175 41.2947 35.7526 41.2809C35.7877 41.267 35.8253 41.2604 35.863 41.2613H39.0164C39.0541 41.2604 39.0916 41.2671 39.1266 41.281C39.1617 41.2948 39.1937 41.3155 39.2206 41.3419C39.2476 41.3682 39.269 41.3997 39.2836 41.4345C39.2982 41.4693 39.3058 41.5066 39.3058 41.5443C39.3058 41.582 39.2982 41.6194 39.2836 41.6541C39.269 41.6889 39.2476 41.7204 39.2206 41.7467C39.1937 41.7731 39.1617 41.7938 39.1266 41.8077C39.0916 41.8215 39.0541 41.8282 39.0164 41.8273H35.863ZM37.4426 45.8665C37.4022 45.8672 37.362 45.8597 37.3246 45.8445C37.2871 45.8293 37.2531 45.8068 37.2245 45.7782C37.196 45.7496 37.1734 45.7156 37.1583 45.6781C37.1431 45.6406 37.1356 45.6005 37.1362 45.5601V41.2613H37.7493V45.5601C37.7498 45.6005 37.7423 45.6406 37.727 45.6781C37.7118 45.7156 37.6892 45.7496 37.6607 45.7782C37.6321 45.8067 37.598 45.8293 37.5606 45.8445C37.5231 45.8596 37.483 45.8671 37.4426 45.8665Z" fill="#222221"/>
<path d="M40.4723 45.8666C40.4319 45.8672 40.3918 45.8597 40.3543 45.8445C40.3168 45.8293 40.2828 45.8068 40.2542 45.7782C40.2256 45.7496 40.203 45.7156 40.1878 45.6781C40.1726 45.6407 40.165 45.6005 40.1656 45.5601V41.5678C40.1641 41.5267 40.1713 41.4859 40.1865 41.4478C40.2018 41.4097 40.2249 41.3752 40.2543 41.3466C40.2831 41.3185 40.3172 41.2965 40.3547 41.2819C40.3921 41.2672 40.4321 41.2602 40.4723 41.2613H43.1363C43.1761 41.2594 43.2158 41.2655 43.2533 41.2791C43.2907 41.2928 43.325 41.3137 43.3543 41.3408C43.382 41.3679 43.4036 41.4006 43.4178 41.4367C43.432 41.4727 43.4385 41.5114 43.4369 41.5501C43.4383 41.5875 43.4317 41.6247 43.4175 41.6593C43.4032 41.6939 43.3817 41.7251 43.3543 41.7506C43.2944 41.8036 43.2162 41.8311 43.1363 41.8274H40.7786V43.2602H42.4703C42.5101 43.2583 42.5499 43.2644 42.5873 43.278C42.6247 43.2917 42.6591 43.3126 42.6883 43.3397C42.7413 43.3942 42.7709 43.4672 42.7709 43.5432C42.7709 43.6192 42.7413 43.6922 42.6883 43.7467C42.6591 43.7738 42.6247 43.7947 42.5873 43.8084C42.5499 43.822 42.5101 43.8281 42.4703 43.8262H40.7786V45.3005H43.1363C43.2162 45.2967 43.2944 45.3243 43.3543 45.3773C43.3817 45.4028 43.4032 45.4339 43.4175 45.4685C43.4317 45.5031 43.4383 45.5404 43.4369 45.5778C43.4385 45.6165 43.432 45.6551 43.4178 45.6912C43.4036 45.7272 43.382 45.7599 43.3543 45.7871C43.325 45.8141 43.2907 45.8351 43.2533 45.8487C43.2158 45.8624 43.1761 45.8684 43.1363 45.8666L40.4723 45.8666Z" fill="#222221"/>
<path d="M44.7869 45.8665C44.7465 45.8672 44.7063 45.8596 44.6689 45.8445C44.6314 45.8293 44.5974 45.8067 44.5688 45.7782C44.5402 45.7496 44.5176 45.7156 44.5024 45.6781C44.4872 45.6407 44.4796 45.6005 44.4802 45.5601V41.5678C44.4787 41.5267 44.4858 41.4859 44.5011 41.4478C44.5164 41.4097 44.5395 41.3752 44.5688 41.3466C44.5977 41.3185 44.6318 41.2965 44.6692 41.2819C44.7067 41.2672 44.7467 41.2602 44.7869 41.2613H45.9657C46.2395 41.2559 46.5099 41.323 46.7495 41.4556C46.9743 41.5821 47.1591 41.769 47.2831 41.9952C47.414 42.2388 47.48 42.512 47.4746 42.7886C47.4793 43.0565 47.4132 43.3209 47.2831 43.5551C47.1579 43.7766 46.973 43.9583 46.7495 44.0797C46.5088 44.2088 46.2388 44.2739 45.9657 44.2686H45.0932V45.5601C45.0942 45.6003 45.0872 45.6403 45.0725 45.6777C45.0579 45.7152 45.0359 45.7494 45.008 45.7782C44.9793 45.8075 44.9448 45.8305 44.9067 45.8457C44.8686 45.8609 44.8278 45.868 44.7869 45.8665ZM45.0932 43.7026H45.9657C46.1325 43.7059 46.2972 43.6653 46.4432 43.5847C46.5786 43.5078 46.6906 43.3957 46.7672 43.2602C46.8475 43.1161 46.8881 42.9534 46.885 42.7886C46.8888 42.6151 46.8482 42.4435 46.7672 42.2901C46.6918 42.1499 46.5798 42.0327 46.4432 41.951C46.2984 41.8666 46.1332 41.8238 45.9657 41.8274H45.0932V43.7026Z" fill="#222221"/>
<path d="M48.6593 45.8666C48.5759 45.8677 48.4954 45.836 48.4351 45.7782C48.4049 45.7507 48.3808 45.7169 48.3646 45.6793C48.3484 45.6417 48.3404 45.6011 48.3411 45.5601V41.5678C48.3398 41.5263 48.3475 41.485 48.3638 41.4468C48.38 41.4086 48.4044 41.3744 48.4351 41.3466C48.4962 41.2905 48.5764 41.26 48.6593 41.2613C48.6991 41.2594 48.7389 41.266 48.776 41.2807C48.8131 41.2954 48.8466 41.3179 48.8743 41.3466C48.9288 41.407 48.9574 41.4864 48.9541 41.5678V44.9111L51.7831 41.3731C51.8222 41.3223 51.8764 41.2852 51.9379 41.2672C51.9993 41.2492 52.0649 41.2511 52.1252 41.2728C52.1855 41.2944 52.2374 41.3346 52.2734 41.3876C52.3094 41.4407 52.3276 41.5037 52.3255 41.5678V45.5601C52.3265 45.6004 52.3195 45.6404 52.3048 45.6779C52.2901 45.7153 52.268 45.7495 52.2399 45.7783C52.2113 45.8076 52.1768 45.8306 52.1387 45.8458C52.1006 45.861 52.0598 45.8681 52.0188 45.8666C51.9784 45.8672 51.9383 45.8597 51.9009 45.8446C51.8634 45.8294 51.8294 45.8068 51.8008 45.7783C51.7722 45.7497 51.7497 45.7156 51.7345 45.6782C51.7194 45.6407 51.7119 45.6006 51.7125 45.5601V42.2222L48.895 45.7606C48.8648 45.7931 48.8284 45.8193 48.7879 45.8375C48.7474 45.8557 48.7037 45.8656 48.6593 45.8666L48.6593 45.8666Z" fill="#222221"/>
<path d="M53.9995 45.8665C53.9591 45.8672 53.919 45.8596 53.8815 45.8445C53.8441 45.8293 53.81 45.8067 53.7814 45.7782C53.7528 45.7496 53.7303 45.7156 53.715 45.6781C53.6998 45.6407 53.6923 45.6005 53.6928 45.5601V41.5677C53.6914 41.5267 53.6985 41.4859 53.7138 41.4478C53.729 41.4097 53.7521 41.3752 53.7815 41.3465C53.8242 41.3022 53.8794 41.2718 53.9397 41.2594C54.0001 41.247 54.0628 41.2532 54.1195 41.2771C54.1763 41.3011 54.2245 41.3417 54.2577 41.3935C54.291 41.4454 54.3078 41.5061 54.3058 41.5677V43.2602H57.0408V41.5677C57.0394 41.5268 57.0465 41.4859 57.0617 41.4478C57.0769 41.4098 57.0999 41.3753 57.1291 41.3465C57.158 41.3185 57.1922 41.2965 57.2297 41.2819C57.2673 41.2673 57.3073 41.2603 57.3475 41.2613C57.3878 41.2596 57.428 41.2663 57.4655 41.281C57.5031 41.2956 57.5371 41.318 57.5656 41.3465C57.5933 41.3761 57.6148 41.4109 57.629 41.4489C57.6432 41.4868 57.6497 41.5272 57.6481 41.5677V45.5601C57.6502 45.6408 57.6206 45.7191 57.5656 45.7782C57.5376 45.8076 57.5037 45.8307 57.4661 45.8459C57.4285 45.8611 57.3881 45.8682 57.3475 45.8665C57.3071 45.8672 57.2669 45.8598 57.2294 45.8446C57.1919 45.8295 57.1579 45.807 57.1293 45.7784C57.1007 45.7498 57.0781 45.7157 57.0629 45.6782C57.0477 45.6407 57.0402 45.6006 57.0408 45.5601V43.8028H54.3058V45.5601C54.3068 45.6003 54.2998 45.6403 54.2852 45.6777C54.2706 45.7152 54.2486 45.7494 54.2206 45.7782C54.1919 45.8075 54.1574 45.8305 54.1194 45.8457C54.0813 45.8609 54.0405 45.868 53.9995 45.8665Z" fill="#222221"/>
<path d="M58.8327 45.8666C58.7816 45.8682 58.7309 45.8558 58.6862 45.8309C58.6415 45.8059 58.6045 45.7693 58.579 45.7248C58.5503 45.6806 58.5335 45.6295 58.5304 45.5768C58.5273 45.5241 58.538 45.4715 58.5613 45.4242L60.2177 41.4675C60.2376 41.4068 60.2764 41.354 60.3284 41.317C60.3804 41.2799 60.4429 41.2604 60.5067 41.2613C60.571 41.2582 60.6345 41.2768 60.6869 41.3142C60.7392 41.3517 60.7775 41.4057 60.7954 41.4675L62.4575 45.4361C62.4795 45.4834 62.4892 45.5356 62.4855 45.5877C62.4819 45.6399 62.4651 45.6902 62.4368 45.7341C62.4097 45.777 62.3717 45.812 62.3266 45.8353C62.2815 45.8586 62.231 45.8694 62.1803 45.8666C62.1209 45.8664 62.0627 45.8489 62.013 45.8162C61.9605 45.7841 61.92 45.7355 61.8978 45.678L60.4357 42.0455H60.6008L59.1156 45.678C59.0914 45.7368 59.0491 45.7864 58.9947 45.8193C58.946 45.8496 58.89 45.8659 58.8327 45.8666ZM59.1452 44.8523L59.3809 44.3451H61.6913L61.927 44.8523H59.1452Z" fill="#222221"/>
<path d="M63.6543 45.8665C63.6139 45.8672 63.5738 45.8597 63.5363 45.8445C63.4989 45.8294 63.4648 45.8068 63.4363 45.7782C63.4077 45.7496 63.3852 45.7156 63.37 45.6781C63.3548 45.6407 63.3473 45.6005 63.348 45.5601V41.5678C63.3465 41.5268 63.3535 41.4859 63.3687 41.4478C63.3839 41.4097 63.4069 41.3752 63.4363 41.3466C63.4651 41.3185 63.4992 41.2966 63.5367 41.2819C63.5741 41.2673 63.6141 41.2603 63.6543 41.2613H64.8331C65.1069 41.2559 65.3773 41.323 65.617 41.4556C65.8417 41.5821 66.0265 41.769 66.1505 41.9952C66.2814 42.2388 66.3474 42.512 66.3421 42.7886C66.3467 43.0565 66.2806 43.3209 66.1505 43.5551C66.0254 43.7766 65.8405 43.9583 65.617 44.0797C65.3762 44.2088 65.1063 44.2739 64.8331 44.2686H63.9606V45.5601C63.9616 45.6003 63.9546 45.6403 63.94 45.6777C63.9253 45.7152 63.9034 45.7494 63.8754 45.7782C63.8467 45.8075 63.8122 45.8305 63.7741 45.8457C63.7361 45.8609 63.6953 45.868 63.6543 45.8665ZM63.9606 43.7026H64.8331C64.9999 43.7059 65.1646 43.6653 65.3106 43.5847C65.446 43.5078 65.558 43.3957 65.6346 43.2602C65.7149 43.1161 65.7555 42.9534 65.7525 42.7886C65.7562 42.6151 65.7157 42.4435 65.6346 42.2901C65.5592 42.1499 65.4472 42.0327 65.3106 41.951C65.1659 41.8666 65.0006 41.8238 64.8331 41.8274H63.9606V43.7026Z" fill="#222221"/>
<path d="M67.5148 45.8665C67.4744 45.8672 67.4343 45.8597 67.3968 45.8445C67.3593 45.8294 67.3253 45.8068 67.2967 45.7782C67.2682 45.7496 67.2456 45.7156 67.2305 45.6781C67.2153 45.6407 67.2078 45.6005 67.2085 45.5601V41.5677C67.2069 41.5268 67.214 41.4859 67.2292 41.4478C67.2444 41.4097 67.2674 41.3752 67.2967 41.3465C67.3395 41.3022 67.3947 41.2718 67.455 41.2594C67.5154 41.247 67.578 41.2532 67.6348 41.2771C67.6916 41.3011 67.7397 41.3417 67.773 41.3935C67.8063 41.4454 67.823 41.5061 67.8211 41.5677V43.2602H70.5561V41.5677C70.5546 41.5267 70.5618 41.4859 70.577 41.4478C70.5923 41.4097 70.6154 41.3752 70.6448 41.3465C70.6736 41.3185 70.7077 41.2965 70.7452 41.2819C70.7826 41.2672 70.8226 41.2602 70.8628 41.2613C70.9031 41.2596 70.9432 41.2663 70.9808 41.281C71.0183 41.2956 71.0524 41.318 71.0808 41.3465C71.1085 41.3761 71.1301 41.4109 71.1442 41.4489C71.1584 41.4868 71.1649 41.5272 71.1634 41.5677V45.5601C71.1654 45.6408 71.1358 45.7191 71.0808 45.7782C71.0528 45.8076 71.0189 45.8307 70.9813 45.8459C70.9437 45.8611 70.9033 45.8682 70.8628 45.8665C70.8224 45.8672 70.7823 45.8596 70.7448 45.8445C70.7073 45.8293 70.6733 45.8067 70.6447 45.7782C70.6161 45.7496 70.5935 45.7156 70.5783 45.6781C70.5631 45.6407 70.5555 45.6005 70.5561 45.5601V43.8028H67.8211V45.5601C67.8221 45.6003 67.8151 45.6403 67.8004 45.6777C67.7858 45.7152 67.7639 45.7494 67.7359 45.7782C67.7072 45.8075 67.6727 45.8305 67.6346 45.8457C67.5966 45.8609 67.5557 45.868 67.5148 45.8665Z" fill="#222221"/>
<path d="M72.3484 45.8666C72.2972 45.8682 72.2466 45.8558 72.2019 45.8309C72.1572 45.8059 72.1201 45.7693 72.0946 45.7249C72.0658 45.6806 72.049 45.6296 72.0459 45.5769C72.0428 45.5241 72.0535 45.4715 72.077 45.4242L73.7333 41.4675C73.7532 41.4068 73.7919 41.3541 73.8438 41.317C73.8957 41.2799 73.9582 41.2604 74.022 41.2613C74.0863 41.2581 74.1499 41.2767 74.2023 41.3142C74.2548 41.3516 74.2931 41.4056 74.311 41.4675L75.9732 45.4361C75.995 45.4835 76.0046 45.5356 76.0009 45.5877C75.9973 45.6398 75.9806 45.6901 75.9524 45.7341C75.9254 45.777 75.8873 45.812 75.8422 45.8352C75.7972 45.8585 75.7467 45.8694 75.696 45.8666C75.6364 45.8665 75.5781 45.849 75.5283 45.8163C75.4758 45.784 75.4354 45.7354 75.4131 45.678L73.9514 42.0455H74.1164L72.6313 45.678C72.6071 45.7368 72.5647 45.7864 72.5103 45.8193C72.4617 45.8496 72.4057 45.8659 72.3484 45.8666ZM72.6604 44.8523L72.8965 44.3451H75.207L75.4427 44.8523H72.6604Z" fill="#222221"/>
<path d="M79.6452 45.8666C79.6048 45.8672 79.5647 45.8597 79.5272 45.8445C79.4898 45.8294 79.4557 45.8068 79.4272 45.7782C79.3986 45.7497 79.3761 45.7156 79.3609 45.6781C79.3457 45.6407 79.3382 45.6005 79.3389 45.5601V44.0916H78.2249V44.0328C77.955 44.0383 77.6875 43.9807 77.4438 43.8646C77.2264 43.7601 77.0418 43.5979 76.9102 43.3957C76.7798 43.1918 76.7122 42.9539 76.716 42.7118C76.7109 42.4481 76.7781 42.1881 76.9102 41.9598C77.0381 41.7435 77.2226 41.5661 77.4438 41.4468C77.6842 41.3196 77.953 41.2558 78.2249 41.2613H79.6452C79.686 41.2593 79.7267 41.2659 79.7648 41.2806C79.8029 41.2953 79.8375 41.3178 79.8663 41.3466C79.8952 41.3755 79.9178 41.41 79.9325 41.4481C79.9472 41.4862 79.9538 41.527 79.9519 41.5678V45.5601C79.9528 45.6003 79.9457 45.6403 79.931 45.6778C79.9163 45.7152 79.8943 45.7494 79.8663 45.7782C79.8376 45.8076 79.8032 45.8306 79.7651 45.8458C79.727 45.861 79.6862 45.8681 79.6452 45.8666ZM77.0223 45.8666C76.9681 45.8708 76.9139 45.8587 76.8667 45.8318C76.8194 45.805 76.7812 45.7647 76.757 45.716C76.7321 45.6649 76.7217 45.608 76.7269 45.5514C76.7321 45.4948 76.7528 45.4407 76.7866 45.395L77.7532 43.8381L78.3485 44.009L77.2875 45.7191C77.2601 45.7661 77.2204 45.8049 77.1728 45.8312C77.1262 45.855 77.0746 45.8671 77.0223 45.8666ZM78.2249 43.549H79.3389V41.8274H78.2249C78.0611 41.8246 77.8988 41.8588 77.7501 41.9276C77.6137 41.9917 77.4997 42.0954 77.4231 42.2252C77.3402 42.3736 77.2994 42.5419 77.3052 42.7118C77.2997 42.8723 77.3406 43.031 77.4231 43.1688C77.5022 43.2929 77.6159 43.3913 77.7501 43.4518C77.8993 43.5186 78.0614 43.5518 78.2249 43.549Z" fill="#222221"/>
<path d="M83.5414 45.8665C83.501 45.8672 83.4609 45.8597 83.4234 45.8445C83.386 45.8294 83.3519 45.8068 83.3234 45.7782C83.2948 45.7496 83.2722 45.7156 83.2571 45.6781C83.2419 45.6407 83.2344 45.6005 83.2351 45.5601V41.5677C83.2335 41.5268 83.2406 41.4859 83.2558 41.4478C83.271 41.4097 83.294 41.3752 83.3234 41.3465C83.3661 41.3022 83.4213 41.2718 83.4816 41.2594C83.542 41.247 83.6046 41.2532 83.6614 41.2771C83.7182 41.3011 83.7664 41.3417 83.7996 41.3935C83.8329 41.4454 83.8496 41.5061 83.8477 41.5677V43.2602H84.8147V43.8028H83.8477V45.5601C83.8487 45.6003 83.8417 45.6403 83.8271 45.6777C83.8124 45.7152 83.7905 45.7493 83.7625 45.7782C83.7338 45.8075 83.6993 45.8305 83.6612 45.8457C83.6232 45.8609 83.5824 45.868 83.5414 45.8665ZM86.618 45.7897C86.555 45.8443 86.4737 45.8728 86.3905 45.8695C86.3073 45.8662 86.2285 45.8314 86.17 45.7721L84.2369 43.5198L86.0407 41.3615C86.0664 41.3292 86.0991 41.3031 86.1363 41.2852C86.1735 41.2673 86.2143 41.2581 86.2556 41.2582C86.2961 41.2559 86.3366 41.263 86.3739 41.2788C86.4113 41.2947 86.4445 41.3189 86.471 41.3496C86.522 41.4027 86.5505 41.4734 86.5504 41.547C86.5463 41.621 86.5159 41.6911 86.4648 41.7448L84.9735 43.4783L86.618 45.3888C86.6692 45.443 86.7013 45.5125 86.7093 45.5866C86.7104 45.6252 86.7027 45.6634 86.6869 45.6986C86.6711 45.7338 86.6475 45.7649 86.618 45.7897H86.618Z" fill="#222221"/>
<path d="M87.5608 45.8666C87.5097 45.8682 87.4591 45.8558 87.4145 45.8309C87.3698 45.8059 87.3328 45.7693 87.3074 45.7249C87.2785 45.6806 87.2617 45.6296 87.2586 45.5769C87.2555 45.5241 87.2662 45.4715 87.2898 45.4242L88.9461 41.4675C88.9659 41.4068 89.0046 41.354 89.0565 41.3169C89.1085 41.2798 89.171 41.2603 89.2348 41.2613C89.2991 41.2582 89.3626 41.2768 89.4151 41.3142C89.4675 41.3517 89.5058 41.4057 89.5238 41.4675L91.1859 45.4361C91.2076 45.4833 91.2175 45.535 91.2149 45.5869C91.2123 45.6388 91.1972 45.6893 91.171 45.7341C91.1455 45.7771 91.1087 45.8123 91.0645 45.8357C91.0203 45.8591 90.9706 45.8698 90.9207 45.8666C90.8609 45.8665 90.8025 45.849 90.7525 45.8163C90.7002 45.7839 90.6599 45.7354 90.6378 45.678L89.1641 42.0455H89.3526L87.8437 45.678C87.8198 45.737 87.7773 45.7866 87.7228 45.8193C87.6741 45.8496 87.6181 45.8659 87.5608 45.8666Z" fill="#222221"/>
<path d="M92.4296 45.8666C92.3462 45.8678 92.2656 45.836 92.2054 45.7782C92.1751 45.7507 92.151 45.717 92.1348 45.6794C92.1185 45.6417 92.1106 45.6011 92.1114 45.5601V41.5678C92.11 41.5263 92.1177 41.485 92.1339 41.4467C92.1502 41.4085 92.1746 41.3743 92.2054 41.3466C92.2664 41.2904 92.3467 41.2599 92.4296 41.2613C92.4694 41.2594 92.5092 41.266 92.5463 41.2807C92.5833 41.2954 92.6169 41.3178 92.6445 41.3466C92.6988 41.4071 92.7273 41.4865 92.724 41.5678V44.9111L95.5534 41.3731C95.5811 41.3404 95.6151 41.3137 95.6533 41.2945C95.6916 41.2754 95.7334 41.2643 95.7761 41.2618C95.8188 41.2593 95.8616 41.2656 95.9019 41.2801C95.9421 41.2947 95.979 41.3173 96.0102 41.3466C96.0387 41.3757 96.061 41.4103 96.0757 41.4484C96.0904 41.4864 96.0973 41.527 96.0958 41.5678V45.5601C96.0967 45.6004 96.0896 45.6404 96.0749 45.6778C96.0602 45.7153 96.0382 45.7494 96.0102 45.7783C95.9815 45.8076 95.9471 45.8306 95.909 45.8458C95.8709 45.861 95.8301 45.8681 95.7891 45.8666C95.7487 45.8672 95.7086 45.8597 95.6711 45.8446C95.6337 45.8294 95.5996 45.8068 95.5711 45.7783C95.5425 45.7497 95.52 45.7156 95.5048 45.6782C95.4896 45.6407 95.4821 45.6005 95.4828 45.5601V42.2222L92.6653 45.7606C92.6351 45.7931 92.5987 45.8193 92.5582 45.8375C92.5177 45.8557 92.4739 45.8656 92.4296 45.8666L92.4296 45.8666Z" fill="#222221"/>
<path d="M97.7698 45.8666C97.7294 45.8672 97.6893 45.8597 97.6518 45.8445C97.6143 45.8294 97.5803 45.8068 97.5518 45.7782C97.5232 45.7496 97.5006 45.7156 97.4855 45.6781C97.4703 45.6407 97.4628 45.6005 97.4635 45.5601V41.5678C97.4619 41.5268 97.469 41.4859 97.4842 41.4478C97.4994 41.4097 97.5224 41.3752 97.5517 41.3466C97.5945 41.3022 97.6497 41.2718 97.71 41.2594C97.7704 41.247 97.833 41.2532 97.8898 41.2771C97.9466 41.3011 97.9947 41.3417 98.028 41.3935C98.0613 41.4454 98.078 41.5062 98.0761 41.5678V43.2602H100.811V41.5678C100.81 41.5267 100.817 41.4859 100.832 41.4478C100.847 41.4097 100.87 41.3752 100.9 41.3466C100.929 41.3185 100.963 41.2965 101 41.2819C101.038 41.2672 101.078 41.2602 101.118 41.2613C101.158 41.2596 101.198 41.2663 101.236 41.281C101.273 41.2956 101.307 41.318 101.336 41.3466C101.364 41.3761 101.385 41.4109 101.399 41.4489C101.413 41.4869 101.42 41.5273 101.418 41.5678V45.5601C101.42 45.6408 101.391 45.7191 101.336 45.7782C101.308 45.8076 101.274 45.8307 101.236 45.8459C101.199 45.8611 101.158 45.8682 101.118 45.8666C101.077 45.8672 101.037 45.8597 101 45.8445C100.962 45.8293 100.928 45.8067 100.9 45.7782C100.871 45.7496 100.849 45.7156 100.833 45.6781C100.818 45.6407 100.811 45.6005 100.811 45.5601V43.8028H98.0761V45.5601C98.0771 45.6003 98.0701 45.6403 98.0555 45.6777C98.0408 45.7152 98.0189 45.7494 97.9909 45.7782C97.9622 45.8075 97.9277 45.8305 97.8896 45.8457C97.8516 45.8609 97.8108 45.868 97.7698 45.8666Z" fill="#222221"/>
<path d="M103.104 45.8666C103.02 45.8678 102.94 45.836 102.88 45.7782C102.849 45.7507 102.825 45.717 102.809 45.6794C102.793 45.6417 102.785 45.6011 102.786 45.5601V41.5678C102.784 41.5263 102.792 41.485 102.808 41.4467C102.825 41.4085 102.849 41.3743 102.88 41.3466C102.941 41.2904 103.021 41.2599 103.104 41.2613C103.144 41.2594 103.184 41.266 103.221 41.2807C103.258 41.2954 103.291 41.3178 103.319 41.3466C103.373 41.4071 103.402 41.4865 103.398 41.5678V44.9111L106.228 41.3731C106.255 41.3404 106.289 41.3137 106.328 41.2945C106.366 41.2754 106.408 41.2643 106.45 41.2618C106.493 41.2593 106.536 41.2656 106.576 41.2801C106.616 41.2947 106.653 41.3173 106.685 41.3466C106.713 41.3757 106.735 41.4103 106.75 41.4484C106.765 41.4864 106.772 41.527 106.77 41.5678V45.5601C106.771 45.6004 106.764 45.6404 106.749 45.6778C106.735 45.7153 106.713 45.7494 106.685 45.7783C106.656 45.8076 106.621 45.8306 106.583 45.8458C106.545 45.861 106.504 45.8681 106.463 45.8666C106.423 45.8672 106.383 45.8597 106.345 45.8446C106.308 45.8294 106.274 45.8068 106.245 45.7783C106.217 45.7497 106.194 45.7156 106.179 45.6782C106.164 45.6407 106.156 45.6005 106.157 45.5601V42.2222L103.34 45.7606C103.309 45.7931 103.273 45.8193 103.232 45.8375C103.192 45.8557 103.148 45.8656 103.104 45.8666L103.104 45.8666Z" fill="#222221"/>
<path d="M108.444 45.8666C108.404 45.8672 108.364 45.8597 108.326 45.8445C108.289 45.8294 108.255 45.8068 108.226 45.7782C108.198 45.7496 108.175 45.7156 108.16 45.6781C108.145 45.6407 108.137 45.6005 108.138 45.5601V41.5678C108.136 41.5268 108.143 41.4859 108.159 41.4478C108.174 41.4097 108.197 41.3752 108.226 41.3466C108.269 41.3022 108.324 41.2718 108.384 41.2594C108.445 41.247 108.507 41.2532 108.564 41.2771C108.621 41.3011 108.669 41.3417 108.702 41.3935C108.736 41.4454 108.752 41.5062 108.751 41.5678V43.2602H109.718V43.8028H108.751V45.5601C108.752 45.6003 108.745 45.6403 108.73 45.6778C108.715 45.7152 108.693 45.7494 108.665 45.7782C108.637 45.8075 108.602 45.8305 108.564 45.8457C108.526 45.8609 108.485 45.868 108.444 45.8666ZM111.521 45.7898C111.458 45.8443 111.377 45.8728 111.293 45.8695C111.21 45.8662 111.131 45.8314 111.073 45.7721L109.14 43.5198L110.944 41.3615C110.969 41.3292 111.002 41.3031 111.039 41.2852C111.076 41.2673 111.117 41.2581 111.158 41.2582C111.199 41.2559 111.239 41.263 111.277 41.2788C111.314 41.2947 111.347 41.3189 111.374 41.3496C111.425 41.4027 111.453 41.4734 111.453 41.547C111.449 41.621 111.419 41.6912 111.368 41.7448L109.876 43.4783L111.521 45.3888C111.572 45.443 111.604 45.5125 111.612 45.5866C111.613 45.6252 111.606 45.6635 111.59 45.6986C111.574 45.7338 111.55 45.765 111.521 45.7898Z" fill="#222221"/>
<path d="M112.452 45.8666C112.401 45.8682 112.351 45.8558 112.306 45.8309C112.261 45.8059 112.224 45.7693 112.199 45.7249C112.17 45.6806 112.153 45.6296 112.15 45.5769C112.147 45.5241 112.158 45.4715 112.181 45.4242L113.837 41.4675C113.857 41.4068 113.896 41.3541 113.948 41.317C114 41.2799 114.062 41.2604 114.126 41.2613C114.19 41.2581 114.254 41.2767 114.306 41.3142C114.359 41.3516 114.397 41.4056 114.415 41.4675L116.077 45.4361C116.099 45.4835 116.109 45.5356 116.105 45.5877C116.101 45.6398 116.085 45.6901 116.057 45.7341C116.029 45.777 115.991 45.812 115.946 45.8352C115.901 45.8585 115.851 45.8694 115.8 45.8666C115.74 45.8665 115.682 45.849 115.632 45.8163C115.58 45.784 115.54 45.7354 115.517 45.678L114.055 42.0455H114.221L112.735 45.678C112.711 45.7368 112.669 45.7864 112.614 45.8193C112.566 45.8496 112.51 45.8659 112.452 45.8666ZM112.765 44.8523L113.001 44.3451H115.311L115.547 44.8523H112.765Z" fill="#222221"/>
<path d="M28.6416 37.8838C28.3048 37.8972 27.9723 37.8037 27.6919 37.6165C27.5773 37.5446 27.4827 37.4449 27.417 37.3265C27.3513 37.2082 27.3167 37.0752 27.3163 36.9398V14.2576C27.3129 14.1195 27.3458 13.9829 27.4117 13.8615C27.4777 13.74 27.5743 13.638 27.6919 13.5656C27.9761 13.3883 28.307 13.3006 28.6416 13.3139H36.5938C38.9435 13.2898 41.2852 13.5915 43.5521 14.2104C45.5107 14.7392 47.3637 15.6012 49.0302 16.7586C50.4963 17.7722 51.7187 19.0994 52.6087 20.644C53.4351 22.1619 53.868 23.8627 53.868 25.5911C53.868 27.3194 53.4351 29.0202 52.6087 30.5381C51.7222 32.0896 50.4994 33.4225 49.0302 34.439C47.3638 35.5965 45.5107 36.4584 43.5521 36.9871C41.2852 37.6061 38.9435 37.9079 36.5938 37.8838L28.6416 37.8838ZM29.9669 36.1848H36.5938C39.1865 36.2345 41.7628 35.7639 44.1706 34.8008C46.1891 34.0073 47.9692 32.7071 49.3395 31.0254C50.5559 29.4753 51.2171 27.5616 51.2171 25.5909C51.2171 23.6201 50.5559 21.7064 49.3395 20.1563C47.9651 18.4828 46.1858 17.1887 44.1706 16.3969C41.7627 15.434 39.1865 14.9633 36.5938 15.0126H29.9669V36.1848Z" fill="#222221"/>
<path d="M54.775 37.8838C54.5561 37.908 54.3346 37.8776 54.1303 37.7952C53.9259 37.7128 53.7452 37.5811 53.6042 37.4118C53.4978 37.2909 53.4372 37.1364 53.4332 36.9753C53.4292 36.8143 53.4819 36.6569 53.5821 36.5309L66.9685 13.9746C67.0953 13.7523 67.2838 13.5716 67.5112 13.4543C67.7386 13.3371 67.9951 13.2883 68.2496 13.3139C68.5033 13.2954 68.7571 13.3473 68.9832 13.4639C69.2093 13.5805 69.3988 13.7572 69.531 13.9746L82.9614 36.5309C83.0178 36.5924 83.0615 36.6645 83.0899 36.7431C83.1182 36.8216 83.1307 36.905 83.1266 36.9885C83.1225 37.0719 83.1019 37.1537 83.0659 37.229C83.0299 37.3044 82.9794 37.3719 82.9171 37.4276C82.7714 37.584 82.5928 37.7061 82.3941 37.785C82.1954 37.864 81.9817 37.8977 81.7684 37.8838C81.5179 37.8928 81.2687 37.8443 81.0398 37.7421C80.8343 37.6359 80.6593 37.479 80.5313 37.2862L67.5429 15.2329H68.9566L56.0122 37.2862C55.9037 37.4868 55.7331 37.6468 55.526 37.7421C55.2887 37.8426 55.0326 37.891 54.775 37.8838ZM58.0442 31.7178L59.1045 30.0189H77.4832L78.4992 31.7178H58.0442Z" fill="#222221"/>
<path d="M114.505 37.8838C114.168 37.8972 113.835 37.8037 113.555 37.6165C113.44 37.5445 113.346 37.4447 113.28 37.3264C113.215 37.2081 113.18 37.0751 113.179 36.9398V14.2576C113.18 14.1224 113.215 13.9895 113.28 13.8713C113.346 13.7531 113.44 13.6533 113.555 13.5814C113.841 13.4064 114.17 13.3139 114.505 13.3139C114.84 13.3139 115.169 13.4064 115.455 13.5814C115.569 13.6534 115.663 13.7532 115.729 13.8714C115.795 13.9896 115.829 14.1224 115.83 14.2576V36.9398C115.829 37.0751 115.795 37.2081 115.729 37.3264C115.664 37.4446 115.569 37.5444 115.455 37.6165C115.174 37.8034 114.842 37.897 114.505 37.8838Z" fill="#222221"/>
</svg>
