<svg width="42" height="38" viewBox="0 0 42 38" fill="none" xmlns="http://www.w3.org/2000/svg">
<path d="M40.6903 31.2065C40.354 31.2065 40.0177 30.8722 40.0177 30.5378V29.2004C40.0177 28.8661 40.354 28.5317 40.6903 28.5317C41.0265 28.5317 41.3628 28.8661 41.3628 29.2004V30.5378C41.3628 30.8722 41.0265 31.2065 40.6903 31.2065Z" fill="currentColor"/>
<path d="M38.5605 37.7822H2.69026C1.23304 37.7822 0 36.5563 0 35.1074V11.0338C0 9.58498 1.23304 8.35901 2.69026 8.35901H38.5605C40.0177 8.35901 41.2507 9.58498 41.2507 11.0338V29.5348C41.2507 29.8692 40.9145 30.2035 40.5782 30.2035C40.2419 30.2035 39.9056 29.8692 39.9056 29.5348V11.0338C39.9056 10.2537 39.233 9.69643 38.5605 9.69643H2.69026C1.9056 9.69643 1.34513 10.3651 1.34513 11.0338V34.9959C1.34513 35.7761 2.0177 36.3334 2.69026 36.3334H38.5605C39.3451 36.3334 39.9056 35.6646 39.9056 34.9959V30.4264C39.9056 30.0921 40.2419 29.7577 40.5782 29.7577C40.9145 29.7577 41.2507 30.0921 41.2507 30.4264V34.9959C41.3628 36.5563 40.1298 37.7822 38.5605 37.7822Z" fill="currentColor"/>
<path d="M26.0059 20.8416H15.3569C13.5634 20.8416 11.7699 20.5072 10.2006 19.727L0.448386 15.4919C0.112103 15.3804 9.49204e-06 14.9346 0.112104 14.6003C0.224198 14.2659 0.672575 14.1545 1.00886 14.2659L10.7611 18.5011C12.2183 19.1698 13.7876 19.5041 15.3569 19.5041H26.0059C27.5752 19.5041 29.1446 19.1698 30.6018 18.5011L40.354 14.2659C40.6903 14.1545 41.1387 14.2659 41.2507 14.6003C41.3628 14.9346 41.2507 15.3804 40.9145 15.4919L31.1623 19.727C29.4808 20.5072 27.7994 20.8416 26.0059 20.8416Z" fill="currentColor"/>
<path d="M30.8259 9.69629H10.5368C10.2005 9.69629 9.86426 9.36194 9.86426 9.02758V2.00613C9.86426 0.891616 10.761 0 11.882 0H29.3687C30.4896 0 31.3864 0.891616 31.3864 2.00613V9.02758C31.4985 9.36194 31.1622 9.69629 30.8259 9.69629ZM11.2094 8.35887H30.0412V2.00613C30.0412 1.67178 29.705 1.33742 29.3687 1.33742H11.882C11.5457 1.33742 11.2094 1.67178 11.2094 2.00613V8.35887Z" fill="currentColor"/>
<path d="M27.1269 9.69629H14.236C13.8998 9.69629 13.5635 9.36194 13.5635 9.02759V4.45813C13.5635 3.67798 14.1239 3.12073 14.9086 3.12073H26.4543C27.239 3.12073 27.7995 3.67798 27.7995 4.45813V9.02759C27.7995 9.36194 27.4632 9.69629 27.1269 9.69629ZM14.9086 8.35889H26.4543V4.45813H14.9086V8.35889Z" fill="currentColor"/>
<path d="M22.1947 27.0828H19.056C17.9351 27.0828 17.0383 26.1912 17.0383 25.0767V20.1729C17.0383 19.8385 17.3746 19.5042 17.7109 19.5042H23.5398C23.8761 19.5042 24.2124 19.8385 24.2124 20.1729V25.0767C24.3245 26.1912 23.3156 27.0828 22.1947 27.0828ZM18.3835 20.8416V25.0767C18.3835 25.411 18.7197 25.7454 19.056 25.7454H22.1947C22.531 25.7454 22.8672 25.411 22.8672 25.0767V20.8416H18.3835Z" fill="currentColor"/>
<path d="M23.4278 23.962H17.8231C17.4868 23.962 17.1505 23.6277 17.1505 23.2934C17.1505 22.9591 17.4868 22.6248 17.8231 22.6248H23.4278C23.7641 22.6248 24.1004 22.9591 24.1004 23.2934C24.1004 23.6277 23.8762 23.962 23.4278 23.962Z" fill="currentColor"/>
<path d="M13.5635 33.9928H5.04427C4.2596 33.9928 3.58704 33.3241 3.58704 32.5439V23.2935C3.58704 22.9591 3.92332 22.6248 4.25961 22.6248C4.59589 22.6248 4.93217 22.9591 4.93217 23.2935V32.5439C4.93217 32.6554 5.04427 32.6554 5.04427 32.6554H13.5635C13.8997 32.6554 14.236 32.9897 14.236 33.3241C14.236 33.7699 13.8997 33.9928 13.5635 33.9928Z" fill="currentColor"/>
</svg>
