<svg width="51" height="32" viewBox="0 0 51 32" fill="none" xmlns="http://www.w3.org/2000/svg">
<path d="M34.8662 25.3951C34.4608 25.3951 34.1567 25.0928 34.1567 24.6897V6.44956C34.1567 6.04646 34.4608 5.74414 34.8662 5.74414C35.2716 5.74414 35.5757 6.04646 35.5757 6.44956V24.6897C35.4743 25.0928 35.1703 25.3951 34.8662 25.3951Z" fill="currentColor"/>
<path d="M18.9534 31.2399C15.9127 31.2399 13.4802 28.8213 13.4802 25.7981C13.4802 22.7749 15.9127 20.3563 18.9534 20.3563C21.9941 20.3563 24.4266 22.7749 24.4266 25.7981C24.4266 28.8213 21.9941 31.2399 18.9534 31.2399ZM18.9534 21.7672C16.7236 21.7672 14.8992 23.5811 14.8992 25.7981C14.8992 28.0151 16.7236 29.829 18.9534 29.829C21.1832 29.829 23.0076 28.0151 23.0076 25.7981C23.0076 23.5811 21.1832 21.7672 18.9534 21.7672Z" fill="currentColor"/>
<path d="M18.9533 28.3175C17.5343 28.3175 16.4194 27.209 16.4194 25.7982C16.4194 24.3873 17.5343 23.2788 18.9533 23.2788C20.3723 23.2788 21.4872 24.3873 21.4872 25.7982C21.4872 27.209 20.3723 28.3175 18.9533 28.3175Z" fill="currentColor"/>
<path d="M42.2648 28.3175C40.8459 28.3175 39.731 27.209 39.731 25.7982C39.731 24.3873 40.8459 23.2788 42.2648 23.2788C43.6838 23.2788 44.7987 24.3873 44.7987 25.7982C44.7987 27.209 43.6838 28.3175 42.2648 28.3175Z" fill="currentColor"/>
<path d="M42.2651 31.2399C39.2245 31.2399 36.792 28.8213 36.792 25.7981C36.792 22.7749 39.2245 20.3563 42.2651 20.3563C45.3058 20.3563 47.7383 22.7749 47.7383 25.7981C47.7383 28.8213 45.3058 31.2399 42.2651 31.2399ZM42.2651 21.7672C40.0353 21.7672 38.211 23.5811 38.211 25.7981C38.211 28.0151 40.0353 29.829 42.2651 29.829C44.4949 29.829 46.3193 28.0151 46.3193 25.7981C46.3193 23.5811 44.4949 21.7672 42.2651 21.7672Z" fill="currentColor"/>
<path d="M49.9679 25.395H46.8259C46.5218 25.395 46.2178 25.1935 46.1164 24.8911C45.711 23.0772 44.0893 21.7672 42.1636 21.7672C40.2378 21.7672 38.6162 23.0772 38.2107 24.8911C38.1094 25.1935 37.9067 25.395 37.5012 25.395H23.6156C23.3116 25.395 23.0075 25.1935 22.9062 24.8911C22.5007 23.0772 20.8791 21.7672 18.9533 21.7672C17.0276 21.7672 15.4059 23.0772 15.0005 24.8911C14.8991 25.1935 14.6964 25.395 14.291 25.395H8.20973C7.80431 25.395 7.50024 25.0927 7.50024 24.6896V1.51161C7.50024 1.10851 7.80431 0.80619 8.20973 0.80619C8.61515 0.80619 8.91921 1.10851 8.91921 1.51161V24.085H13.7842C14.4937 21.8679 16.6222 20.3563 18.9533 20.3563C21.2845 20.3563 23.4129 21.8679 24.1224 24.085H37.0958C37.8053 21.8679 39.9338 20.3563 42.2649 20.3563C44.5961 20.3563 46.7245 21.8679 47.434 24.085H49.3597V15.3176L44.9001 7.15494H34.866C34.4606 7.15494 34.1565 6.85263 34.1565 6.44953V1.41084H8.51379C8.10837 1.41084 7.80431 1.10851 7.80431 0.705418C7.80431 0.302322 8.10837 0 8.51379 0H34.7647C35.1701 0 35.4742 0.302322 35.4742 0.705418V5.74411H45.2042C45.5083 5.74411 45.711 5.84488 45.8123 6.14721L50.576 14.8138C50.6774 14.9145 50.6774 15.0153 50.6774 15.1161V24.7904C50.6774 25.0927 50.3733 25.395 49.9679 25.395Z" fill="currentColor"/>
<path d="M49.9679 15.8215H38.9202C38.5148 15.8215 38.2107 15.5192 38.2107 15.1161V8.76742C38.2107 8.36433 38.5148 8.06201 38.9202 8.06201H46.5218C46.8259 8.06201 47.0286 8.16279 47.1299 8.46511L50.576 14.8138C50.6774 15.0153 50.6774 15.3177 50.576 15.5192C50.4747 15.7208 50.272 15.8215 49.9679 15.8215ZM39.6297 14.4107H48.853L46.1164 9.37206H39.6297V14.4107Z" fill="currentColor"/>
<path d="M12.3652 9.57349H1.82435C1.41893 9.57349 1.11487 9.27118 1.11487 8.8681C1.11487 8.46503 1.41893 8.16272 1.82435 8.16272H12.3652C12.7706 8.16272 13.0747 8.46503 13.0747 8.8681C12.9734 9.27118 12.6693 9.57349 12.3652 9.57349Z" fill="currentColor"/>
<path d="M11.2504 6.44958H0.709483C0.304064 6.44958 0 6.14728 0 5.7442C0 5.34113 0.304064 5.03882 0.709483 5.03882H11.2504C11.6558 5.03882 11.9598 5.34113 11.9598 5.7442C11.9598 6.14728 11.6558 6.44958 11.2504 6.44958Z" fill="currentColor"/>
<path d="M34.866 21.7671H8.31105C7.90563 21.7671 7.60156 21.4648 7.60156 21.0617C7.60156 20.6586 7.90563 20.3563 8.31105 20.3563H34.866C35.2714 20.3563 35.5755 20.6586 35.5755 21.0617C35.4741 21.4648 35.1701 21.7671 34.866 21.7671Z" fill="currentColor"/>
</svg>
