<svg width="29" height="43" viewBox="0 0 29 43" fill="none" xmlns="http://www.w3.org/2000/svg">
<path d="M27.1875 7.59309C24.7983 3.13628 20.3494 0.247601 15.3238 0C15.0767 0 14.7471 0 14.5 0C14.2528 0 13.9233 0 13.6761 0C8.73294 0.247601 4.28407 3.05374 1.81248 7.59309C-0.741495 12.215 -0.659109 17.7447 1.97726 22.2841L13.2642 41.6795H4.44885C4.03691 41.6795 3.78975 42.0096 3.78975 42.3397C3.78975 42.7524 4.1193 43 4.44885 43H24.5511C24.963 43 25.2102 42.6699 25.2102 42.3397C25.2102 41.9271 24.8807 41.6795 24.5511 41.6795H15.7358L27.0227 22.2841C29.6591 17.7447 29.7415 12.215 27.1875 7.59309ZM14.5 40.9367L3.21305 21.5413C0.823846 17.4146 0.74146 12.4626 3.04828 8.25336C5.27271 4.20921 9.22726 1.65067 13.7585 1.40307C14.0057 1.40307 14.2528 1.40307 14.5 1.40307C14.7471 1.40307 14.9943 1.40307 15.2415 1.40307C19.7727 1.65067 23.8096 4.20921 26.0341 8.25336C28.3409 12.4626 28.2585 17.4146 25.7869 21.5413L14.5 40.9367Z" fill="currentColor"/>
<path d="M14.4999 7.18042C12.5227 7.18042 10.6278 7.92322 9.22722 9.32629C6.34369 12.215 6.34369 16.9194 9.22722 19.8906C10.6278 21.2937 12.5227 22.0365 14.4999 22.0365C16.4772 22.0365 18.3721 21.2937 19.7727 19.8906C21.1732 18.4875 21.9147 16.5893 21.9147 14.6084C21.9147 12.6276 21.1732 10.7294 19.7727 9.32629C18.3721 7.92322 16.4772 7.18042 14.4999 7.18042ZM18.784 18.9002C17.6306 20.0557 16.1477 20.7159 14.4999 20.7159C12.8522 20.7159 11.3693 20.0557 10.2159 18.9002C7.82665 16.5067 7.82665 12.7102 10.2159 10.3167C11.3693 9.16123 12.8522 8.50096 14.4999 8.50096C16.1477 8.50096 17.6306 9.16123 18.784 10.3167C19.9374 11.4722 20.5965 12.9578 20.5965 14.6084C20.5965 16.2591 19.9374 17.7447 18.784 18.9002Z" fill="currentColor"/>
</svg>
