<svg width="39" height="39" viewBox="0 0 39 39" fill="none" xmlns="http://www.w3.org/2000/svg">
<path d="M35.7503 0.0020752H20.1519C18.3581 0.00418748 16.9043 1.45793 16.9022 3.25175V11.2323L9.64697 13.6507H3.25356C2.89463 13.6507 2.60363 13.9417 2.60363 14.3006V16.3154C0.844739 16.6726 -0.29151 18.3879 0.065629 20.1468C0.325278 21.4256 1.3248 22.4252 2.60363 22.6848V24.6996C2.60363 25.0585 2.89463 25.3495 3.25356 25.3495H3.98994L5.20987 33.891C5.25577 34.2111 5.52996 34.4487 5.8533 34.4486H9.75291C10.1118 34.4487 10.4028 34.1577 10.4029 33.7988C10.4029 33.7679 10.4007 33.737 10.3963 33.7064L9.20242 25.3495H9.64697L16.9022 27.7679V35.7485C16.9043 37.5423 18.3581 38.9961 20.1519 38.9982H35.7503C37.5441 38.9961 38.9979 37.5423 39 35.7485V3.25175C38.9979 1.45793 37.5441 0.00418748 35.7503 0.0020752ZM2.60363 21.3388C1.82517 21.0623 1.30473 20.3262 1.30376 19.5001C1.30473 18.6741 1.82517 17.9379 2.60363 17.6615V21.3388ZM6.41679 33.1488L5.30281 25.3495H7.88955L9.00354 33.1488H6.41679ZM9.10298 24.0497H3.9035V14.9506H9.10298V24.0497ZM10.4028 24.231V14.7692L24.7014 10.0026V28.9976L10.4028 24.231ZM37.7001 35.7485C37.7001 36.8254 36.8272 37.6983 35.7503 37.6983H20.1519C19.075 37.6983 18.2021 36.8254 18.2021 35.7485V35.0986H37.7001V35.7485ZM37.7001 33.7987H18.2021V28.2015L25.146 30.5159C25.2123 30.5378 25.2816 30.5489 25.3514 30.549C25.7103 30.549 26.0013 30.258 26.0013 29.8991V9.10117C26.0014 8.74224 25.7104 8.45115 25.3515 8.45107C25.2816 8.45107 25.2123 8.46228 25.146 8.48438L18.2021 10.7988V5.20156H37.7001V33.7987ZM37.7001 3.90169H18.2021V3.25175C18.2021 2.17489 19.075 1.30195 20.1519 1.30195H35.7503C36.8272 1.30195 37.7001 2.17489 37.7001 3.25175V3.90169Z" fill="currentColor"/>
<path d="M27.9512 13.6506C27.5923 13.6506 27.3013 13.9416 27.3013 14.3005C27.3013 14.6595 27.5923 14.9505 27.9512 14.9505C30.4639 14.9505 32.5008 16.9874 32.5008 19.5C32.5008 22.0127 30.4639 24.0496 27.9512 24.0496C27.5923 24.0496 27.3013 24.3406 27.3013 24.6995C27.3013 25.0584 27.5923 25.3494 27.9512 25.3494C31.1818 25.3494 33.8006 22.7305 33.8006 19.5C33.8006 16.2694 31.1818 13.6506 27.9512 13.6506Z" fill="currentColor"/>
<path d="M27.9512 16.2503C27.5923 16.2503 27.3013 16.5413 27.3013 16.9003C27.3013 17.2592 27.5923 17.5502 27.9512 17.5502C29.0281 17.5502 29.901 18.4232 29.901 19.5C29.901 20.5769 29.0281 21.4498 27.9512 21.4498C27.5923 21.4498 27.3013 21.7408 27.3013 22.0998C27.3013 22.4587 27.5923 22.7497 27.9512 22.7497C29.7459 22.7497 31.2009 21.2947 31.2009 19.5C31.2009 17.7053 29.7459 16.2503 27.9512 16.2503Z" fill="currentColor"/>
</svg>
