<svg width="31" height="39" viewBox="0 0 31 39" fill="none" xmlns="http://www.w3.org/2000/svg">
<path d="M15.3337 20.1359C15.2372 20.1359 15.1408 20.1359 15.0444 20.1359C11.1868 20.04 8.10083 16.684 8.10083 12.8486V7.19138C8.10083 3.26009 11.3797 0 15.3337 0C19.2876 0 22.5665 3.26009 22.5665 7.19138V13.0404C22.5665 14.9581 21.795 16.8758 20.3485 18.2182C18.9019 19.4647 17.166 20.1359 15.3337 20.1359ZM15.3337 1.24651C12.0548 1.24651 9.45096 3.8354 9.45096 7.09549V12.7527C9.45096 15.9169 11.9583 18.6976 15.1408 18.7935C16.7802 18.8894 18.3233 18.314 19.4805 17.1634C20.6378 16.0128 21.3128 14.5745 21.3128 12.9445V7.09549C21.2164 3.93129 18.5161 1.24651 15.3337 1.24651Z" fill="currentColor"/>
<path d="M17.0695 6.99951C16.2016 6.99951 15.3336 6.80774 14.3693 6.42421C11.0904 4.89008 9.25807 5.75303 9.25807 5.75303C8.96876 5.9448 8.58301 5.75303 8.39014 5.46538C8.19726 5.17773 8.39014 4.7942 8.67945 4.60243C8.77589 4.60243 10.9939 3.45183 14.9479 5.27362C18.1303 6.80775 20.927 4.31478 20.927 4.2189C21.2163 3.93125 21.6021 4.02713 21.8914 4.2189C22.1807 4.50655 22.0843 4.89008 21.8914 5.17773C21.6985 5.27361 19.7698 6.99951 17.0695 6.99951Z" fill="currentColor"/>
<path d="M22.0842 14.1908C21.9878 14.1908 21.8914 14.1908 21.7949 14.1908C21.4092 14.0949 21.2163 13.9031 21.2163 13.5196V9.10904C21.2163 8.8214 21.4092 8.53375 21.6985 8.43787C21.7949 8.43787 21.8914 8.43787 21.9878 8.43787C23.1451 8.43787 24.1094 9.68433 24.1094 11.3143C24.2059 12.9443 23.2415 14.1908 22.0842 14.1908ZM22.47 10.0679V12.5608C22.6629 12.2732 22.8557 11.7937 22.8557 11.3143C22.8557 10.8349 22.7593 10.3555 22.47 10.0679Z" fill="currentColor"/>
<path d="M8.58306 14.1908C7.4258 14.1908 6.46143 12.9443 6.46143 11.3143C6.46143 9.68433 7.4258 8.43787 8.58306 8.43787C8.67949 8.43787 8.77593 8.43787 8.87237 8.43787C9.16168 8.53375 9.451 8.8214 9.35456 9.10904V9.20492V13.5196C9.35456 13.8073 9.16168 14.0949 8.77593 14.1908C8.77593 14.1908 8.67949 14.1908 8.58306 14.1908ZM8.10087 10.0679C7.90799 10.3555 7.71512 10.8349 7.71512 11.3143C7.71512 11.7937 7.90799 12.2732 8.10087 12.5608V10.0679Z" fill="currentColor"/>
<path d="M15.43 24.1631C13.4048 24.1631 11.9583 23.3001 11.9583 22.0536V18.8894C11.9583 18.6976 12.0547 18.5059 12.2476 18.3141C12.4404 18.2182 12.6333 18.2182 12.9226 18.3141C13.5977 18.6018 14.3692 18.7935 15.1407 18.7935C16.2015 18.7935 17.1659 18.6018 18.1303 18.1223C18.3232 18.0264 18.6125 18.0264 18.8054 18.1223C18.9982 18.2182 19.0947 18.41 19.0947 18.6976V22.1495C18.9982 23.3001 17.4552 24.1631 15.43 24.1631ZM13.3084 19.8483V22.1495C13.3084 22.3413 14.0799 22.9166 15.5265 22.9166C16.973 22.9166 17.7445 22.3413 17.7445 22.1495V19.7524C16.8766 20.04 16.0086 20.1359 15.1407 20.1359C14.4656 20.1359 13.887 20.04 13.3084 19.8483Z" fill="currentColor"/>
<path d="M28.8347 38.6417H2.1215C1.92863 38.6417 1.73575 38.5458 1.63931 38.3541C1.54288 38.1623 1.44644 37.9705 1.54287 37.7788L4.14669 26.1767C4.62888 24.1631 6.07544 22.6289 8.10063 22.0536L12.4403 20.903C12.6332 20.8071 12.8261 20.903 13.0189 20.9989C13.2118 21.0948 13.3083 21.2865 13.3083 21.4783V22.1495C13.3083 22.3413 14.0798 22.9166 15.5263 22.9166C16.9729 22.9166 17.7444 22.3413 17.7444 22.1495V21.6701C17.7444 21.4783 17.8408 21.2865 18.0337 21.1907C18.2266 21.0948 18.4194 20.9989 18.6123 21.0948L22.952 22.2454C24.9772 22.7248 26.5202 24.3549 26.906 26.3684L29.5098 37.9705C29.5098 38.1623 29.5098 38.3541 29.4133 38.5458C29.2205 38.5458 29.0276 38.6417 28.8347 38.6417ZM2.893 37.3952H27.9668L25.5558 26.5602C25.1701 25.0261 24.0128 23.8754 22.5663 23.4919L18.9981 22.533C18.7088 23.4919 17.3586 24.259 15.5263 24.259C13.7904 24.259 12.3439 23.5878 12.0546 22.533L8.48638 23.4919C6.94338 23.8754 5.78613 25.0261 5.49682 26.5602L2.893 37.3952Z" fill="currentColor"/>
<path d="M22.3737 38.6417C22.0844 38.6417 21.7951 38.45 21.6986 38.0664L20.6378 31.6421C20.5414 31.2586 20.8307 30.9709 21.2165 30.875C21.6022 30.7791 21.8915 31.0668 21.9879 31.4503L23.0488 37.8746C23.1452 38.2582 22.8559 38.5458 22.4701 38.6417H22.3737Z" fill="currentColor"/>
<path d="M8.58303 38.6417H8.48659C8.10083 38.5458 7.90796 38.2582 7.90796 37.8746L8.96878 31.4503C9.06521 31.0668 9.35453 30.875 9.74028 30.875C10.126 30.9709 10.3189 31.2585 10.3189 31.6421L9.25809 38.0664C9.16165 38.45 8.87234 38.6417 8.58303 38.6417Z" fill="currentColor"/>
<path d="M15.43 36.9156C15.2371 36.9156 15.1406 36.8198 14.9478 36.7239L13.3083 35.1897C13.1155 34.9979 13.019 34.8062 13.1155 34.6144L14.7549 23.3959C14.7549 23.1082 15.0442 22.8206 15.43 22.8206C15.7193 22.8206 16.0086 23.0123 16.105 23.3959L17.7444 34.6144C17.7444 34.8062 17.7444 35.0938 17.5516 35.1897L15.9121 36.7239C15.8157 36.9156 15.6228 36.9156 15.43 36.9156ZM14.4656 34.5185L15.43 35.3815L16.3943 34.5185L15.43 27.9983L14.4656 34.5185Z" fill="currentColor"/>
<path d="M30.2815 38.6417H0.675066C0.289314 38.6417 0 38.354 0 37.9705C0 37.5869 0.289314 37.2992 0.675066 37.2992H30.2815C30.6672 37.2992 30.9565 37.5869 30.9565 37.9705C30.9565 38.354 30.6672 38.6417 30.2815 38.6417Z" fill="currentColor"/>
</svg>
