<svg width="41" height="41" viewBox="0 0 41 41" fill="none" xmlns="http://www.w3.org/2000/svg">
<path d="M5.76808 9.59575L7.40496 10.7853C7.6388 10.9439 7.95059 11.1025 8.26237 11.1025C8.57416 11.1025 8.88595 11.0232 9.11979 10.7853C9.66541 10.3888 9.82131 9.75435 9.66541 9.11992L9.04184 7.13733C9.04184 7.05803 9.04184 6.97872 9.11979 6.97872L10.7567 5.78917C11.3023 5.39265 11.4582 4.75822 11.3023 4.12379C11.0685 3.48936 10.5228 3.09284 9.89926 3.09284H7.79469C7.71675 3.09284 7.6388 3.01354 7.6388 3.01354L7.01523 1.03095C6.85933 0.396518 6.3137 0 5.61218 0C4.98861 0 4.44298 0.396518 4.28709 1.03095L3.66351 3.01354C3.66351 3.09284 3.58557 3.09284 3.50762 3.09284H1.481C0.857431 3.09284 0.311803 3.48936 0.0779632 4.12379C-0.155877 4.75822 0.0779632 5.39265 0.623591 5.78917L2.26047 6.97872C2.26047 7.05803 2.33842 7.13733 2.26047 7.13733L1.6369 9.11992C1.40306 9.75435 1.6369 10.3888 2.18253 10.7853C2.72815 11.1818 3.35173 11.1818 3.89735 10.7853L5.53424 9.59575C5.61218 9.51644 5.69013 9.51644 5.76808 9.59575ZM3.11789 9.67505C3.11789 9.67505 3.03994 9.75435 2.96199 9.67505C2.88405 9.59575 2.88405 9.51644 2.88405 9.51644L3.50762 7.53385C3.74146 6.89942 3.50762 6.26499 2.96199 5.86847L1.40306 4.67892C1.40306 4.67892 1.32511 4.59961 1.32511 4.52031C1.32511 4.44101 1.481 4.44101 1.481 4.44101H3.50762C4.13119 4.44101 4.67682 4.04449 4.91066 3.41006L5.53424 1.42747C5.53424 1.42747 5.53424 1.34816 5.69013 1.34816C5.84602 1.34816 5.84602 1.42747 5.84602 1.42747L6.4696 3.41006C6.70344 4.04449 7.24907 4.44101 7.87264 4.44101H9.89926C9.89926 4.44101 9.9772 4.44101 10.0551 4.52031C10.0551 4.59961 10.0551 4.67892 9.9772 4.67892L8.34032 5.86847C7.79469 6.26499 7.56085 6.97872 7.71675 7.61315L8.34032 9.59575C8.34032 9.59575 8.34032 9.67505 8.26237 9.75435C8.18443 9.83366 8.10648 9.75435 8.10648 9.75435L6.4696 8.5648C6.23576 8.40619 5.92397 8.24758 5.61218 8.24758C5.3004 8.24758 4.98861 8.32689 4.75477 8.5648L3.11789 9.67505Z" fill="currentColor"/>
<path d="M15.4335 5.78917L17.0704 6.97872C17.1483 7.05803 17.1483 7.13733 17.1483 7.13733L16.5247 9.11992C16.2909 9.75435 16.5247 10.3888 17.0704 10.7853C17.616 11.1818 18.2396 11.1818 18.7852 10.7853L20.4221 9.59575C20.5 9.51644 20.578 9.59575 20.578 9.59575L22.2149 10.7853C22.4487 10.9439 22.7605 11.1025 23.0723 11.1025C23.3841 11.1025 23.6958 11.0232 23.9297 10.7853C24.4753 10.3888 24.6312 9.75435 24.4753 9.11992L23.8517 7.13733C23.8517 7.05803 23.8517 6.97872 23.9297 6.97872L25.5666 5.78917C26.1122 5.39265 26.2681 4.75822 26.1122 4.12379C25.8784 3.48936 25.3327 3.09284 24.7092 3.09284H22.6825C22.6046 3.09284 22.5266 3.01354 22.5266 3.01354L21.9031 1.03095C21.6692 0.396518 21.1236 0 20.5 0C19.8765 0 19.3308 0.396518 19.097 1.03095L18.4734 3.01354C18.4734 3.09284 18.3955 3.09284 18.3175 3.09284H16.2909C15.6673 3.09284 15.1217 3.48936 14.8879 4.12379C14.732 4.75822 14.8879 5.39265 15.4335 5.78917ZM16.2909 4.44101H18.3175C18.9411 4.44101 19.4867 4.04449 19.7206 3.41006L20.3441 1.42747C20.3441 1.42747 20.3441 1.34816 20.5 1.34816C20.578 1.34816 20.6559 1.42747 20.6559 1.42747L21.2795 3.41006C21.5133 4.04449 22.059 4.44101 22.6825 4.44101H24.7092C24.7092 4.44101 24.7871 4.44101 24.8651 4.52031C24.8651 4.59961 24.8651 4.67892 24.7871 4.67892L23.1502 5.86847C22.6046 6.26499 22.3708 6.97872 22.6046 7.61315L23.2282 9.59575C23.2282 9.59575 23.2282 9.67505 23.1502 9.75435C23.0723 9.83366 22.9943 9.75435 22.9943 9.75435L21.3574 8.5648C20.8118 8.16828 20.1103 8.16828 19.6426 8.5648L18.0057 9.75435C18.0057 9.75435 17.9278 9.83366 17.8498 9.75435C17.7719 9.67505 17.7719 9.59575 17.7719 9.59575L18.3955 7.61315C18.6293 6.97872 18.3955 6.34429 17.8498 5.94778L16.213 4.75822C16.213 4.75822 16.135 4.67892 16.135 4.59961C16.213 4.44101 16.2909 4.44101 16.2909 4.44101Z" fill="currentColor"/>
<path d="M40.9221 4.12379C40.6883 3.48936 40.1426 3.09284 39.5191 3.09284H37.4924C37.4145 3.09284 37.3366 3.01354 37.3366 3.01354L36.713 1.03095C36.4791 0.396518 35.9335 0 35.3099 0C34.6864 0 34.1407 0.396518 33.9069 1.03095L33.2833 3.01354C33.2833 3.09284 33.2054 3.09284 33.1274 3.09284H31.1788C30.5552 3.09284 30.0096 3.48936 29.7757 4.12379C29.5419 4.75822 29.7757 5.39265 30.3213 5.78917L31.9582 6.97872C31.9582 7.05803 31.9582 7.13733 31.9582 7.13733L31.3347 9.11992C31.1008 9.75435 31.3347 10.3888 31.8803 10.7853C32.4259 11.1818 33.0495 11.1818 33.5951 10.7853L35.232 9.59575C35.3099 9.59575 35.3879 9.59575 35.3879 9.59575L37.0248 10.7853C37.2586 10.9439 37.5704 11.1025 37.8822 11.1025C38.194 11.1025 38.5058 11.0232 38.7396 10.7853C39.2852 10.3888 39.4411 9.75435 39.2852 9.11992L38.6616 7.13733C38.6616 7.05803 38.6616 6.97872 38.7396 6.97872L40.3765 5.78917C40.9221 5.39265 41.078 4.75822 40.9221 4.12379ZM39.597 4.67892L37.9601 5.86847C37.4145 6.26499 37.2586 6.89942 37.4145 7.53385L38.0381 9.51644C38.0381 9.51644 38.0381 9.59575 37.9601 9.67505C37.8822 9.75435 37.8042 9.67505 37.8042 9.67505L36.1674 8.48549C35.9335 8.32689 35.6217 8.16828 35.3099 8.16828C34.9981 8.16828 34.6864 8.24758 34.4525 8.48549L32.8156 9.67505C32.8156 9.67505 32.7377 9.75435 32.6597 9.67505C32.5818 9.59575 32.5818 9.51644 32.5818 9.51644L33.2054 7.53385C33.4392 6.89942 33.2054 6.26499 32.6597 5.86847L31.0229 4.67892C31.0229 4.67892 30.9449 4.59961 30.9449 4.52031C30.9449 4.44101 31.1008 4.44101 31.1008 4.44101H33.1274C33.751 4.44101 34.2966 4.04449 34.5305 3.41006L35.154 1.42747C35.154 1.42747 35.154 1.34816 35.3099 1.34816C35.3879 1.34816 35.4658 1.42747 35.4658 1.42747L36.0894 3.41006C36.3232 4.04449 36.8689 4.44101 37.4924 4.44101H39.5191C39.5191 4.44101 39.597 4.44101 39.675 4.52031C39.675 4.67892 39.597 4.67892 39.597 4.67892Z" fill="currentColor"/>
<path d="M34.9202 26.0116C34.9202 24.5841 33.8289 23.4739 32.4259 23.4739H25.6445C25.3327 23.4739 25.021 23.3153 24.7871 22.9981C24.5533 22.6808 24.5533 22.3636 24.6312 22.0464L26.2681 17.2882C26.5799 16.4159 26.424 15.5435 25.8784 14.8298C25.3327 14.1161 24.5533 13.6402 23.6959 13.6402C22.5267 13.6402 21.5134 14.354 21.1236 15.4642L19.5647 19.7466C18.9411 21.4913 17.5381 22.7602 15.7453 23.1567L14.9658 23.3153V22.4429C14.9658 22.0464 14.654 21.8085 14.3422 21.8085H5.76811C5.37837 21.8085 5.14453 22.1257 5.14453 22.4429V40.2863C5.14453 40.6828 5.45632 40.9207 5.76811 40.9207H14.3422C14.732 40.9207 14.9658 40.6035 14.9658 40.2863V39.6518H32.4259C33.8289 39.6518 34.9202 38.5416 34.9202 37.1141C34.9202 36.4004 34.6084 35.6867 34.1407 35.2901C34.6084 34.8143 34.9202 34.1799 34.9202 33.4661C34.9202 32.7524 34.6084 32.0387 34.1407 31.6422C34.6084 31.1663 34.9202 30.5319 34.9202 29.8182C34.9202 29.1044 34.6084 28.3907 34.1407 27.9942C34.6084 27.4391 34.9202 26.7253 34.9202 26.0116ZM13.7187 39.6518H6.46963V23.1567H13.7187V24.1876V39.0174V39.6518ZM29.9316 28.5493H32.4259C33.0495 28.5493 33.5951 29.1044 33.5951 29.7389C33.5951 30.3733 33.0495 30.9284 32.4259 30.9284H29.9316C29.5419 30.9284 29.308 31.2456 29.308 31.5629C29.308 31.9594 29.6198 32.1973 29.9316 32.1973H32.4259C33.0495 32.1973 33.5951 32.7524 33.5951 33.3868C33.5951 34.0213 33.0495 34.5764 32.4259 34.5764H29.9316C29.5419 34.5764 29.308 34.8936 29.308 35.2108C29.308 35.528 29.6198 35.8453 29.9316 35.8453H32.4259C33.0495 35.8453 33.5951 36.4004 33.5951 37.0348C33.5951 37.6692 33.0495 38.2244 32.4259 38.2244H15.0438V24.7427L16.135 24.5048C18.3175 24.029 20.1103 22.4429 20.8898 20.3017L22.4487 16.0193C22.6826 15.4642 23.1502 15.0677 23.7738 15.0677C24.2415 15.0677 24.6312 15.3056 24.943 15.6228C25.1769 16.0193 25.2548 16.4952 25.0989 16.8917L23.462 21.6499C23.2282 22.3636 23.3061 23.1567 23.7738 23.7911C24.2415 24.4255 24.943 24.822 25.7225 24.822H32.5038C33.1274 24.822 33.6731 25.3772 33.6731 26.0116C33.6731 26.646 33.1274 27.2012 32.5038 27.2012H30.0096C29.6198 27.2012 29.386 27.5184 29.386 27.8356C29.386 28.1528 29.6198 28.5493 29.9316 28.5493Z" fill="currentColor"/>
<path d="M10.0552 24.5841C8.96393 24.5841 8.02856 25.5358 8.02856 26.646C8.02856 27.7563 8.96393 28.7079 10.0552 28.7079C11.1464 28.7079 12.0818 27.7563 12.0818 26.646C12.0818 25.5358 11.2244 24.5841 10.0552 24.5841ZM10.0552 27.3598C9.66545 27.3598 9.35366 27.0426 9.35366 26.646C9.35366 26.2495 9.66545 25.9323 10.0552 25.9323C10.4449 25.9323 10.7567 26.2495 10.7567 26.646C10.8346 27.0426 10.5229 27.3598 10.0552 27.3598Z" fill="currentColor"/>
</svg>
