<svg width="31" height="35" viewBox="0 0 31 35" fill="none" xmlns="http://www.w3.org/2000/svg">
<path d="M30.2901 7.46033H24.2952C24.5318 7.22224 24.7684 6.90478 25.0051 6.58732C25.7939 5.23811 25.8728 3.65081 25.1628 2.38097C25.084 2.22224 25.0051 2.14287 24.9262 1.98414C24.8473 1.82541 24.7684 1.74605 24.6896 1.58732C23.743 0.39684 22.3232 -0.158716 20.7455 1.46274e-05C19.1679 0.23811 17.7481 1.26986 17.117 2.69843L15.3817 6.66668L13.7252 2.77779C13.0941 1.34922 11.7532 0.317475 10.0967 0.0793797C8.59796 -0.158716 7.09924 0.476205 6.15267 1.66668C6.23155 1.74605 6.15267 1.90478 6.07379 1.98414C5.99491 2.14287 5.91603 2.22224 5.83715 2.38097C5.12723 3.73017 5.20611 5.31748 5.99491 6.58732C6.15267 6.90478 6.38931 7.22224 6.70483 7.46033H0.631043C0.315522 7.46033 0 7.77779 0 8.17462V16.0318C0 16.3492 0.315522 16.6667 0.631043 16.6667H1.34097V34.2857C1.34097 34.6826 1.65649 34.9207 1.97201 34.9207H11.8321H19.1679H28.9491C29.3435 34.9207 29.5802 34.6032 29.5802 34.2857V16.6667H30.2901C30.6845 16.6667 30.9211 16.3492 30.9211 16.0318V8.17462C31 7.77779 30.6845 7.46033 30.2901 7.46033ZM18.458 15.3175H12.4631V8.80954H18.458V15.3175ZM18.3791 3.25398C18.8524 2.22224 19.799 1.50795 20.9033 1.34922C22.0076 1.19049 23.0331 1.58732 23.6641 2.46033C23.743 2.5397 23.8219 2.61906 23.8219 2.69843C23.9008 2.77779 23.9008 2.85716 23.9796 2.93652C24.4529 3.8889 24.4529 5.00002 23.9008 5.87303C23.3486 6.82541 22.3232 7.46033 21.1399 7.46033H16.6438L18.3791 3.25398ZM7.09924 5.9524C6.54707 5.00002 6.46819 3.96827 7.02036 3.01589C7.02036 2.93652 7.09924 2.85716 7.17812 2.69843C7.257 2.61906 7.33588 2.5397 7.33588 2.46033C7.88804 1.74605 8.67684 1.34922 9.62341 1.34922C9.78117 1.34922 9.93893 1.34922 10.0178 1.34922C11.1221 1.50795 12.0687 2.22224 12.542 3.25398L14.3562 7.38097H9.86005C8.75572 7.5397 7.73028 6.90478 7.09924 5.9524ZM1.34097 8.80954H9.86005H11.1221V15.3175H2.05089H1.34097V8.80954ZM2.68193 16.6667H11.1221V33.5714H2.68193V16.6667ZM12.4631 33.6508V16.6667H18.458V33.5714H12.4631V33.6508ZM28.2392 33.6508H19.799V16.6667H28.2392V33.6508ZM29.659 15.3175H28.9491H19.799V8.80954H29.659V15.3175Z" fill="currentColor"/>
</svg>
