<svg width="51" height="27" viewBox="0 0 51 27" fill="none" xmlns="http://www.w3.org/2000/svg">
<path d="M7.09999 18.0709C6.99999 18.0709 6.99999 18.0709 6.89999 18.0709L0.6 16.3807C0.4 16.2812 0.2 16.1818 0.1 15.983C3.79979e-07 15.7841 0 15.5852 0 15.3864L3.9 0.969488C4 0.57178 4.4 0.273499 4.9 0.472353L11.2 2.16261C11.4 2.26204 11.6 2.36146 11.7 2.56032C11.8 2.75917 11.8 2.95803 11.8 3.15688L7.89999 17.5738C7.69999 17.8721 7.39999 18.0709 7.09999 18.0709ZM1.7 15.0881L6.49999 16.3807L9.99999 3.55459L5.2 2.26204L1.7 15.0881Z" fill="currentColor"/>
<path d="M9.90004 17.2754C9.40004 17.2754 8.90004 17.176 8.40004 17.0765L7.20004 16.6788C6.80004 16.5794 6.60004 16.1817 6.70004 15.784L9.80004 4.44937C9.90004 4.25052 10 4.05167 10.2 3.95224C10.4 3.85282 10.6 3.85282 10.8 3.85282L12.5 4.34995C13.4 4.64823 14.4 4.5488 15.4 4.34995L19.5 3.15683C21.2 2.6597 23.2 3.0574 24.5 4.25052L29.8 9.12242C30.6 9.91783 30.9 11.0115 30.4 12.0058C30.1 12.7018 29.5 13.1989 28.8 13.3978C28.1 13.5966 27.3 13.4972 26.7 13.0995L23.6 11.1109C22.8 10.6138 21.7 10.6138 20.9 11.1109L12.7 16.3806C11.9 16.9771 10.9 17.2754 9.90004 17.2754ZM8.40004 15.3863L8.80004 15.4857C9.80004 15.784 10.9 15.6846 11.8 15.088L19.9 9.71898C21.2 8.82414 23 8.82414 24.3 9.71898L27.4 11.7075C27.6 11.9064 27.9 11.9064 28.2 11.8069C28.5 11.7075 28.7 11.5087 28.8 11.3098C29 10.9121 28.9 10.5144 28.6 10.2161L23.3 5.34421C22.4 4.44938 21 4.15109 19.8 4.5488L15.7 5.74192C14.5 6.13962 13.2 6.13962 12 5.74192L11.1 5.44364L8.40004 15.3863Z" fill="currentColor"/>
<path d="M38.9999 18.0709C38.6999 18.0709 38.3999 17.8721 38.2999 17.5738C38.0999 17.1761 38.2999 16.6789 38.6999 16.5795L41.7999 15.0881L37.9999 5.84141L35.6999 6.13969C34.6999 6.23912 33.6999 6.13969 32.7999 5.84141L26.7999 3.65402C26.2999 3.45517 25.7999 3.45517 25.3999 3.65402L23.0999 4.54886C22.6999 4.74771 22.1999 4.54886 22.0999 4.15115C21.8999 3.75345 22.0999 3.25631 22.4999 3.15688L24.7999 2.26204C25.5999 1.96376 26.4999 1.96376 27.2999 2.26204L33.2999 4.44943C33.9999 4.74771 34.7999 4.74771 35.4999 4.64829L38.3999 4.25058C38.7999 4.15115 39.0999 4.35001 39.1999 4.74771L43.4999 15.287C43.6999 15.6847 43.4999 16.0824 43.0999 16.2812L39.2999 18.0709C39.1999 18.0709 39.0999 18.0709 38.9999 18.0709Z" fill="currentColor"/>
<path d="M38 21.4513C37.3 21.4513 36.7 21.153 36.2 20.5565L34.8 18.5679C34.1 17.5737 34.3 16.2811 35.3 15.5851L35.8 15.1874C36.8 14.4914 38.1 14.6903 38.8 15.6846L40.2 17.6731C40.9 18.6674 40.7 19.9599 39.7 20.6559L39.2 21.0536C38.8 21.2524 38.4 21.4513 38 21.4513ZM37.1 16.3805C37 16.3805 36.9 16.3805 36.8 16.48L36.2 16.7783C35.9 16.9771 35.9 17.2754 36.1 17.5737L37.5 19.5622C37.7 19.8605 38 19.8605 38.3 19.6616L38.8 19.2639C39.1 19.0651 39.1 18.7668 38.9 18.4685L37.5 16.48C37.4 16.48 37.2 16.3805 37.1 16.3805Z" fill="currentColor"/>
<path d="M35.7 24.136C35.6 24.136 35.5 24.136 35.3 24.136C34.7 24.0366 34.2 23.7383 33.9 23.2411L30.3 18.2697C30 17.7726 29.8 17.176 29.9 16.6789C30 16.0823 30.3 15.5852 30.8 15.2869L31.3 14.8892C31.8 14.5909 32.4 14.392 32.9 14.4914C33.5 14.5909 34 14.8892 34.3 15.3863L37.9 20.3577C38.2 20.8549 38.4 21.4514 38.3 21.9486C38.2 22.5451 37.9 23.0423 37.4 23.3406L36.9 23.7383C36.6 23.9371 36.1 24.136 35.7 24.136ZM32.7 15.9829C32.6 15.9829 32.4 15.9829 32.3 16.0823L31.8 16.3806C31.7 16.48 31.6 16.5794 31.5 16.7783C31.5 16.9772 31.5 17.0766 31.6 17.2754L35.2 22.2469C35.3 22.3463 35.4 22.4457 35.6 22.5451C35.8 22.5451 35.9 22.5451 36.1 22.4457L36.6 22.048C36.7 21.9486 36.8 21.8491 36.9 21.6503C36.9 21.4514 36.9 21.352 36.8 21.1531L33.2 16.1817C33 16.0823 32.8 15.9829 32.7 15.9829Z" fill="currentColor"/>
<path d="M32.0999 25.0308C31.9999 25.0308 31.8999 25.0308 31.6999 25.0308C31.0999 24.9313 30.5999 24.633 30.2999 24.1359L27.6999 20.4571C27.3999 19.9599 27.1999 19.3634 27.2999 18.8662C27.3999 18.2697 27.6999 17.7725 28.1999 17.4742L28.6999 17.0765C29.1999 16.7782 29.7999 16.5794 30.2999 16.6788C30.8999 16.7782 31.3999 17.0765 31.6999 17.5737L34.2999 21.2525C34.9999 22.2468 34.7999 23.6388 33.7999 24.3348L33.2999 24.7325C32.9999 24.9313 32.5999 25.0308 32.0999 25.0308ZM29.9999 18.1702C29.8999 18.1702 29.6999 18.1702 29.5999 18.2697L29.0999 18.6674C28.9999 18.7668 28.8999 18.8662 28.7999 19.0651C28.7999 19.2639 28.7999 19.3634 28.8999 19.5622L31.4999 23.2411C31.5999 23.3405 31.6999 23.4399 31.8999 23.5393C32.0999 23.5393 32.1999 23.5393 32.3999 23.4399L32.8999 23.0422C32.9999 22.9428 33.0999 22.8433 33.1999 22.6445C33.1999 22.4456 33.1999 22.3462 33.0999 22.1474L30.4999 18.4685C30.3999 18.3691 30.2999 18.2697 30.0999 18.1702H29.9999Z" fill="currentColor"/>
<path d="M29 26.8203C28.3 26.8203 27.6 26.522 27.2 25.8261L25 22.7439C24.3 21.7496 24.5 20.3577 25.5 19.6617L26 19.264C26.5 18.9657 27.1 18.7669 27.7 18.8663C28.3 18.9657 28.8 19.264 29.2 19.7611L31.4 22.8433C31.7 23.3404 31.9 23.937 31.8 24.5335C31.7 25.1301 31.4 25.6272 30.9 26.0249L30.4 26.4226C29.9 26.7209 29.4 26.8203 29 26.8203ZM27.3 20.4571C27.2 20.4571 27 20.4571 26.9 20.5565L26.4 20.9542C26.1 21.1531 26 21.6502 26.2 21.9485L28.4 25.0307C28.5 25.2295 28.7 25.3289 28.8 25.3289C29 25.3289 29.2 25.3289 29.3 25.2295L29.8 24.8318C30 24.7324 30.1 24.5335 30.1 24.4341C30.1 24.2353 30.1 24.0364 30 23.937L27.8 20.8548C27.7 20.656 27.5 20.5565 27.4 20.5565C27.4 20.4571 27.4 20.4571 27.3 20.4571Z" fill="currentColor"/>
<path d="M21.6999 25.7267C21.0999 25.7267 20.5 25.4284 20.1 24.9313C19.8 24.4341 19.7 23.937 19.8 23.3405C19.9 22.8433 20.2999 22.3462 20.7999 22.0479L22.9999 20.8548C23.3999 20.6559 23.8999 20.7554 24.0999 21.1531C24.2999 21.5508 24.1999 22.0479 23.7999 22.2468L21.6 23.4399C21.5 23.5393 21.4 23.6387 21.4 23.7382C21.4 23.8376 21.3999 23.937 21.4999 24.0364C21.5999 24.2353 21.7999 24.2353 21.9999 24.1359L25.9999 22.3462C26.3999 22.1473 26.8999 22.3462 26.9999 22.7439C27.1999 23.1416 26.9999 23.6387 26.5999 23.7382L22.5999 25.5278C22.1999 25.7267 21.8999 25.7267 21.6999 25.7267Z" fill="currentColor"/>
<path d="M18.5 24.6331C17.8 24.6331 17 24.2353 16.6 23.6388C16.2 23.1417 16.1 22.4457 16.2 21.8491C16.3 21.2525 16.7 20.656 17.3 20.3577L23.7 16.6789C24.1 16.48 24.6 16.5795 24.8 16.9772C25 17.3749 24.9 17.872 24.5 18.0709L18.1 21.7497C17.9 21.8491 17.8 22.048 17.7 22.2468C17.7 22.4457 17.7 22.6445 17.8 22.8434C18 23.1417 18.4 23.2411 18.8 23.1417L21 22.048C21.4 21.8491 21.9 22.048 22 22.4457C22.2 22.8434 22 23.3405 21.6 23.4399L19.5 24.3348C19.2 24.5336 18.9 24.6331 18.5 24.6331Z" fill="currentColor"/>
<path d="M16.3 22.3461C16.1 22.3461 15.9 22.3461 15.7 22.2466C15.1 22.0478 14.5 21.6501 14.2 21.0535C13.6 19.9598 14 18.4684 15.1 17.8719L21.4 14.0937C21.8 13.8948 22.2 13.9943 22.5 14.392C22.7 14.7897 22.6 15.1874 22.2 15.4857L15.9 19.2639C15.5 19.4627 15.4 19.9598 15.6 20.3575C15.7 20.5564 15.9 20.7553 16.1 20.7553C16.3 20.8547 16.6 20.7552 16.8 20.6558L21.8 17.7725C22.2 17.5736 22.7 17.673 22.9 18.0707C23.1 18.4684 23 18.9656 22.6 19.1644L17.6 22.0478C17.1 22.2466 16.7 22.3461 16.3 22.3461Z" fill="currentColor"/>
<path d="M13.7 20.0594C13.5 20.0594 13.2 20.0594 13 19.96C12.2 19.7612 11.6 19.264 11.2 18.6675C10.4 17.3749 10.8 15.6846 12.1 14.8892L16.5 12.0058C16.9 11.8069 17.3 11.9064 17.6 12.2047C17.8 12.6024 17.7 13.0001 17.4 13.2984L13 16.1818C12.4 16.5795 12.3 17.2755 12.6 17.872C12.8 18.1703 13.1 18.3692 13.4 18.4686C13.7 18.568 14.1 18.4686 14.4 18.2698L16.9 16.7783C17.3 16.5795 17.7 16.6789 18 16.9772C18.2 17.3749 18.1 17.7726 17.8 18.0709L15.3 19.5623C14.8 19.96 14.3 20.0594 13.7 20.0594Z" fill="currentColor"/>
<path d="M43.5 17.8719C43.2 17.8719 42.9 17.6731 42.8 17.3748L42.1 15.784L37.8 5.24476L37.2 3.5545C37 3.1568 37.2 2.75909 37.6 2.56024L44 0.07457C44.2 -0.0248567 44.4 -0.0248567 44.6 0.07457C44.8 0.173997 44.9 0.273425 45 0.472278L50.4 14.392C50.5 14.5909 50.5 14.7897 50.4 14.9886C50.3 15.1874 50.2 15.2869 50 15.3863L43.8 17.7725C43.7 17.872 43.6 17.8719 43.5 17.8719ZM39.3 4.74762L44 16.1817L48.8 14.392L44 1.96368L39 3.85279L39.3 4.74762Z" fill="currentColor"/>
<path d="M4.19995 14.3921C4.75224 14.3921 5.19995 13.9469 5.19995 13.3978C5.19995 12.8486 4.75224 12.4034 4.19995 12.4034C3.64767 12.4034 3.19995 12.8486 3.19995 13.3978C3.19995 13.9469 3.64767 14.3921 4.19995 14.3921Z" fill="currentColor"/>
<path d="M46.2 14.3921C46.7522 14.3921 47.2 13.9469 47.2 13.3978C47.2 12.8486 46.7522 12.4034 46.2 12.4034C45.6477 12.4034 45.2 12.8486 45.2 13.3978C45.2 13.9469 45.6477 14.3921 46.2 14.3921Z" fill="currentColor"/>
</svg>
