<svg width="39" height="36" viewBox="0 0 39 36" fill="none" xmlns="http://www.w3.org/2000/svg">
<path d="M35.6 35.9H3.1C1.4 35.9 0 34.5 0 32.8V10.6C0 8.9 1.4 7.5 3.1 7.5H35.6C37.3 7.5 38.7 8.9 38.7 10.6V32.8C38.7 34.5 37.3 35.9 35.6 35.9ZM3.1 8.5C2 8.5 1 9.4 1 10.6V32.8C1 34 1.9 34.9 3.1 34.9H35.6C36.8 34.9 37.7 34 37.7 32.8V10.6C37.7 9.4 36.8 8.5 35.6 8.5H3.1Z" fill="currentColor"/>
<path d="M26.7 8.49999H12C11.7 8.49999 11.5 8.29999 11.5 7.99999V4.99999C11.5 3.79999 12.5 2.79999 13.7 2.79999H25.1C26.3 2.79999 27.3 3.79999 27.3 4.99999V7.99999C27.3 8.29999 27 8.49999 26.7 8.49999ZM12.5 7.49999H26.2V4.99999C26.2 4.39999 25.7 3.89999 25.1 3.89999H13.7C13.1 3.89999 12.6 4.39999 12.6 4.99999V7.49999H12.5Z" fill="currentColor"/>
<path d="M29.4 8.5H9.30005C9.00005 8.5 8.80005 8.3 8.80005 8V4.4C8.80005 2 10.8 0 13.2 0H25.6C28 0 30 2 30 4.4V8C29.9 8.3 29.7 8.5 29.4 8.5ZM9.80005 7.5H28.8V4.4C28.8 2.6 27.3 1.1 25.5 1.1H13.2C11.4 1.1 9.90005 2.6 9.90005 4.4V7.5H9.80005Z" fill="currentColor"/>
<path d="M34.2 31H4.5C4.3 31 4 30.7 4 30.4V12.6C4 12.3 4.2 12.1 4.5 12.1H34.2C34.5 12.1 34.7 12.3 34.7 12.6V30.5C34.7 30.7 34.5 31 34.2 31ZM5.1 29.9H33.7V13.1H5.1V29.9Z" fill="currentColor"/>
<path d="M21 28.3H17.1C16.8 28.3 16.6 28.1 16.6 27.8V24H12.8C12.5 24 12.3 23.8 12.3 23.5V19.6C12.3 19.3 12.5 19.1 12.8 19.1H16.6V15.3C16.6 15 16.8 14.8 17.1 14.8H21C21.3 14.8 21.5 15 21.5 15.3V19.1H25.3C25.6 19.1 25.8 19.3 25.8 19.6V23.5C25.8 23.8 25.6 24 25.3 24H21.5V27.8C21.6 28.1 21.3 28.3 21 28.3ZM17.7 27.3H20.5V23.5C20.5 23.2 20.7 23 21 23H24.8V20.2H21C20.7 20.2 20.5 20 20.5 19.7V15.9H17.7V19.7C17.7 20 17.5 20.2 17.2 20.2H13.4V23H17.2C17.5 23 17.7 23.2 17.7 23.5V27.3Z" fill="currentColor"/>
</svg>
