<svg width="42" height="36" viewBox="0 0 42 36" fill="none" xmlns="http://www.w3.org/2000/svg">
<path d="M39.8 4.60001V4.40001C39.8 3.10001 38.8 2.10001 37.5 2.10001H4.39998C3.09998 2.10001 2.09998 3.10001 2.09998 4.40001V4.60001C2.09998 5.90001 3.09998 6.90001 4.39998 6.90001H4.59998C3.29998 9.40001 2.59998 12.2 2.59998 15.1C2.59998 25.1 10.8 33.3 20.8 33.3C30.8 33.3 39 25.1 39 15C39 12.1 38.3 9.30001 37.1 6.80001H37.6C38.8 6.80001 39.8 5.80001 39.8 4.60001ZM35.7 6.60001C37.2 9.10001 38 12.1 38 15C38 24.4 30.3 32.1 20.9 32.1C11.5 32.1 3.69998 24.5 3.69998 15C3.69998 12 4.49998 9.10001 5.89998 6.50001L6.29998 5.70001H4.29998C3.59998 5.70001 3.09998 5.10001 3.09998 4.50001V4.40001C3.09998 3.70001 3.69998 3.20001 4.29998 3.20001H37.4C38.1 3.20001 38.6 3.80001 38.6 4.40001V4.60001C38.6 5.30001 38 5.80001 37.4 5.80001H35.2L35.7 6.60001Z" fill="currentColor"/>
<path d="M17.5 10.3C11.9 10.3 9.39995 16.3 9.29995 16.6L9.19995 16.8L9.29995 17C9.39995 17.3 11.8 23.3 17.5 23.3C22.4 23.3 26.3 18.8 27.4 17.5L31.6 21.7V11.3L27.2999 16C26.1999 14.5 22.3 10.3 17.5 10.3ZM17.5 22.2C13.1 22.2 10.8 17.8 10.4 16.8C10.9 15.8 13.1 11.4 17.5 11.4C21.8 11.4 25.6 15.6 26.5 16.8C25.6 17.9 21.9 22.2 17.5 22.2ZM30.5 14V19L28.1 16.6L30.5 14Z" fill="currentColor"/>
<path d="M41.9 4.6V4.4C41.9 2 39.9 0 37.5 0H4.4C2 0 0 2 0 4.4V4.6C0 6 0.7 7.3 1.8 8.1C1 10.3 0.6 12.7 0.6 15.1C0.6 26.3 9.7 35.4 20.9 35.4C32.1 35.4 41.2 26.3 41.2 15.1C41.2 12.8 40.8 10.5 40 8.3C41.2 7.4 41.9 6.1 41.9 4.6ZM38.8 8.2C39.6 10.4 40.1 12.7 40.1 15.1C40.1 25.7 31.5 34.3 20.9 34.3C10.2 34.3 1.6 25.6 1.6 15C1.6 12.6 2 10.3 2.9 8L3.1 7.6L2.7 7.4C1.7 6.8 1 5.7 1 4.6V4.4C1 2.5 2.5 1 4.4 1H37.5C39.3 1 40.8 2.5 40.8 4.3V4.5C40.8 5.8 40.1 6.9 39 7.5L38.6 7.7L38.8 8.2Z" fill="currentColor"/>
</svg>
