<svg width="42" height="42" viewBox="0 0 42 42" fill="none" xmlns="http://www.w3.org/2000/svg">
<path d="M40.9 41.6H2.50002C2.20002 41.6 1.90002 41.3 1.90002 41C1.90002 40.7 2.20002 40.4 2.50002 40.4H40.9C41.2 40.4 41.5 40.7 41.5 41C41.5 41.3 41.2 41.6 40.9 41.6Z" fill="currentColor"/>
<path d="M14.7 41.6C13.3 41.6 11.9 41.2 10.7 40.4C8.59999 38.9 7.49999 36.3 7.89999 33.7C5.29999 34.1 2.79999 33 1.19999 30.8C-0.400008 28.5 -0.300008 24.8 1.39999 22.6C3.69999 19.6 8.09999 19 11.1 21.3L21.4 11C20.3 9.60001 19.8 7.70001 20 5.90001C20.3 4.10001 21.2 2.40001 22.7 1.30001C25 -0.39999 28.5 -0.49999 30.8 1.20001C32.9 2.70001 34 5.30001 33.6 7.90001C36.2 7.50001 38.8 8.60001 40.3 10.8C41.9 13.1 41.8 16.8 40.1 19C37.8 22 33.4 22.6 30.4 20.3L20.2 30.5C21.3 32 21.8 33.8 21.6 35.6C21.3 37.4 20.4 39.1 18.9 40.2C17.6 41.1 16.2 41.6 14.7 41.6ZM7.79999 32.5C8.09999 32.5 8.39999 32.6 8.59999 32.8C8.89999 33.1 8.99999 33.4 8.89999 33.8C8.59999 36 9.49999 38.1 11.3 39.4C13.2 40.8 16.2 40.7 18.1 39.3C19.4 38.4 20.2 37 20.4 35.4C20.6 33.9 20.2 32.3 19.3 31.1C19 30.7 19 30 19.4 29.6L29.7 19.3C30.1 18.9 30.7 18.9 31.2 19.2C33.7 21.1 37.3 20.7 39.3 18.1C40.7 16.3 40.8 13.1 39.4 11.2C38.1 9.60001 36 8.70001 33.8 9.00001C33.4 9.10001 33.1 8.90001 32.8 8.70001C32.5 8.40001 32.4 8.10001 32.5 7.70001C32.8 5.50001 31.9 3.40001 30.1 2.10001C28.2 0.70001 25.2 0.80001 23.3 2.20001C22 3.10001 21.2 4.50001 21 6.10001C20.8 7.60001 21.2 9.20001 22.1 10.4C22.4 10.8 22.4 11.5 22 11.9L11.8 22.1C11.4 22.5 10.8 22.5 10.3 22.2C7.79999 20.3 4.19999 20.7 2.19999 23.3C0.799992 25.1 0.699992 28.3 2.09999 30.2C3.39999 32 5.49999 32.9 7.69999 32.6L7.79999 32.5Z" fill="currentColor"/>
<path d="M17.3 27.5C17.2 27.5 17 27.4 16.9 27.3C16.7 27.1 16.7 26.7 16.9 26.5L24.4 19.3C24.6 19.1 25 19.1 25.2 19.3C25.4 19.5 25.4 19.9 25.2 20.1L17.7 27.3C17.6 27.5 17.4 27.5 17.3 27.5Z" fill="currentColor"/>
</svg>
