<svg width="44" height="43" viewBox="0 0 44 43" fill="none" xmlns="http://www.w3.org/2000/svg">
<path d="M25.7999 36.1C25.2999 36.1 24.7999 36.1 24.2999 36C22.6999 35.8 20.9999 35.8 19.3999 36C16.2999 36.4 14.4999 35.6 14.0999 33.6C13.7999 32 14.5999 31.1 15.3999 30.2C16.0999 29.4 16.8999 28.5 17.3999 26.9C18.1999 24 20.6999 23.3 21.8999 23.4C23.0999 23.4 25.5999 24.1 26.3999 26.9C26.7999 28.5 27.5999 29.4 28.3999 30.2C29.1999 31.1 29.9999 32 29.6999 33.6C29.2999 35.2 27.9999 36.1 25.7999 36.1ZM21.8999 34.7C22.7999 34.7 23.5999 34.8 24.4999 34.9C27.6999 35.4 28.2999 34.2 28.4999 33.3C28.6999 32.3 28.2999 31.9 27.4999 30.9C26.6999 30.1 25.7999 29 25.2999 27.1C24.5999 24.4 21.9999 24.4 21.8999 24.4C21.7999 24.4 19.1999 24.4 18.4999 27.1C17.9999 29 16.9999 30.1 16.2999 30.9C15.4999 31.8 15.0999 32.3 15.2999 33.3C15.4999 34.2 16.0999 35.3 19.2999 34.9C20.0999 34.7 20.9999 34.7 21.8999 34.7Z" fill="currentColor"/>
<path d="M19.7 28.7C19.7 28.7 19.6 28.7 19.5 28.7C19.2 28.6 19 28.3 19.1 28C19.7 25.9 21.5 25.3 22.4 25.4C22.7 25.4 23 25.7 23 26C23 26.3 22.7 26.6 22.4 26.6C22.3 26.6 20.7 26.6 20.2 28.4C20.1 28.5 19.9 28.7 19.7 28.7Z" fill="currentColor"/>
<path d="M18.2001 23.1C16.7001 23.1 15.6001 21.6 15.6001 19.7C15.6001 17.8 16.7001 16.3 18.2001 16.3C19.7001 16.3 20.8001 17.8 20.8001 19.7C20.8001 21.6 19.7001 23.1 18.2001 23.1ZM18.2001 17.4C17.4001 17.4 16.7001 18.4 16.7001 19.7C16.7001 20.9 17.4001 22 18.2001 22C19.0001 22 19.7001 21 19.7001 19.7C19.7001 18.4 19.0001 17.4 18.2001 17.4Z" fill="currentColor"/>
<path d="M13.8 29.5C12.3 29.5 11.2 28 11.2 26.1C11.2 24.2 12.3 22.7 13.8 22.7C15.3 22.7 16.4 24.2 16.4 26.1C16.4 28 15.3 29.5 13.8 29.5ZM13.8 23.8C13 23.8 12.3 24.8 12.3 26.1C12.3 27.3 13 28.4 13.8 28.4C14.6 28.4 15.3 27.4 15.3 26.1C15.3 24.8 14.6 23.8 13.8 23.8Z" fill="currentColor"/>
<path d="M25.4999 23.1C23.9999 23.1 22.8999 21.6 22.8999 19.7C22.8999 17.8 23.9999 16.3 25.4999 16.3C26.9999 16.3 28.0999 17.8 28.0999 19.7C28.0999 21.6 26.8999 23.1 25.4999 23.1ZM25.4999 17.4C24.6999 17.4 23.9999 18.4 23.9999 19.7C23.9999 20.9 24.6999 22 25.4999 22C26.2999 22 26.9999 21 26.9999 19.7C26.8999 18.4 26.2999 17.4 25.4999 17.4Z" fill="currentColor"/>
<path d="M29.9 29.5C28.4 29.5 27.3 28 27.3 26.1C27.3 24.2 28.4 22.7 29.9 22.7C31.4 22.7 32.5 24.2 32.5 26.1C32.5 28 31.4 29.5 29.9 29.5ZM29.9 23.8C29.1 23.8 28.4 24.8 28.4 26.1C28.4 27.3 29.1 28.4 29.9 28.4C30.7 28.4 31.4 27.4 31.4 26.1C31.4 24.8 30.7 23.8 29.9 23.8Z" fill="currentColor"/>
<path d="M38.9001 7.1H4.90005C4.60005 7.1 4.30005 6.8 4.30005 6.5V1.7C4.30005 0.8 5.00005 0 6.00005 0H37.8C38.7001 0 39.5 0.8 39.5 1.7V6.5C39.4001 6.9 39.2001 7.1 38.9001 7.1ZM5.40005 6H38.3V1.7C38.3 1.4 38 1.1 37.7001 1.1H6.00005C5.70005 1.1 5.40005 1.4 5.40005 1.7V6Z" fill="currentColor"/>
<path d="M40.9 43H2.79995C2.49995 43 2.19995 42.7 2.19995 42.4V28.7C2.19995 27.4 2.29995 26 2.39995 24.6L4.29995 6.5C4.29995 6.2 4.49995 6 4.79995 6H38.7999C39.0999 6 39.3 6.2 39.4 6.5L41.2999 24.7C41.3999 26 41.5 27.4 41.5 28.8V42.5C41.5 42.8 41.2 43 40.9 43ZM3.29995 41.9H40.2999V28.7C40.2999 27.4 40.1999 26.1 40.0999 24.8L38.2999 7.1H5.29995L3.49995 24.8C3.39995 26.1 3.29995 27.4 3.29995 28.7V41.9Z" fill="currentColor"/>
<path d="M32.9 4.1H4.79995C4.49995 4.1 4.19995 3.8 4.19995 3.5C4.29995 3.2 4.49995 3 4.79995 3H32.9C33.2 3 33.5 3.3 33.5 3.6C33.5 3.9 33.2 4.1 32.9 4.1Z" fill="currentColor"/>
<path d="M34.9 10.9H8.79995C8.49995 10.9 8.19995 10.6 8.19995 10.3C8.19995 10 8.49995 9.70001 8.79995 9.70001H34.9C35.2 9.70001 35.5 10 35.5 10.3C35.5 10.7 35.2 10.9 34.9 10.9Z" fill="currentColor"/>
<path d="M43.1 43H0.6C0.3 43 0 42.8 0 42.5C0 42.2 0.3 41.9 0.6 41.9H43.2C43.5 41.9 43.8 42.2 43.8 42.5C43.7 42.8 43.4 43 43.1 43Z" fill="currentColor"/>
</svg>
