<svg width="46" height="33" viewBox="0 0 46 33" fill="none" xmlns="http://www.w3.org/2000/svg">
<path d="M42.4 27.5H3.20002C3.00002 27.5 2.90002 27.4 2.70002 27.3C2.60002 27.2 2.50002 27 2.60002 26.8L6.40002 9.89999C6.70002 8.69999 7.70002 7.79999 9.00002 7.79999H36.7C37.9 7.79999 39 8.69999 39.3 9.89999L43 26.8C43 27 43 27.2 42.9 27.3C42.8 27.4 42.6 27.5 42.4 27.5ZM3.90002 26.3H41.7L38.1 10.1C38 9.49999 37.4 8.99999 36.7 8.99999H8.90001C8.20002 8.99999 7.60002 9.49999 7.50002 10.1L3.90002 26.3Z" fill="currentColor"/>
<path d="M42.7 32.1H2.9C1.3 32.1 0 30.8 0 29.2C0 27.6 1.3 26.3 2.9 26.3H42.7C44.3 26.3 45.6 27.6 45.6 29.2C45.6 30.8 44.3 32.1 42.7 32.1ZM2.9 27.5C1.9 27.5 1.2 28.3 1.2 29.2C1.2 30.2 2 30.9 2.9 30.9H42.7C43.7 30.9 44.4 30.1 44.4 29.2C44.4 28.2 43.6 27.5 42.7 27.5H2.9Z" fill="currentColor"/>
<path d="M36.6 9H9.10005C8.80005 9 8.70005 8.9 8.50005 8.7C8.40005 8.5 8.40005 8.3 8.50005 8.1C11.4 3.1 16.9 0 22.8 0C28.7 0 34.2 3.1 37.1 8.1C37.2 8.3 37.2 8.5 37.1 8.7C37 8.9 36.8 9 36.6 9ZM10.1 7.8H35.5C32.7001 3.7 27.9 1.2 22.8 1.2C17.7 1.2 12.9 3.7 10.1 7.8Z" fill="currentColor"/>
<path d="M21.2 5.10001C20.6 5.10001 19.9 4.70001 19.6 4.10001C19.5 3.80001 19.6 3.50001 19.9 3.30001C20.2 3.20001 20.5 3.30001 20.7 3.60001C20.8 3.90001 21.2 4.00001 21.4 3.80001C21.5 3.70001 21.6 3.60001 21.7 3.50001C21.7 3.40001 21.7 3.20001 21.7 3.10001C21.6 2.80001 21.7 2.50001 22 2.30001C22.3 2.20001 22.6 2.30001 22.8 2.60001C22.9 3.00001 23 3.50001 22.8 3.90001C22.7 4.30001 22.3 4.70001 21.9 4.90001C21.7 5.00001 21.4 5.10001 21.2 5.10001Z" fill="currentColor"/>
<path d="M14.9 6.90001C14.7 6.90001 14.5 6.90001 14.3 6.80001C13.9 6.70001 13.5 6.30001 13.3 5.90001C13.2 5.60001 13.3 5.30001 13.6 5.10001C13.9 5.00001 14.2 5.10001 14.4 5.40001C14.5 5.50001 14.6 5.60001 14.7 5.70001C14.8 5.70001 15 5.70001 15.1 5.70001C15.4 5.60001 15.5 5.20001 15.4 5.00001C15.3 4.70001 15.4 4.40001 15.7 4.20001C16 4.10001 16.3 4.20001 16.5 4.50001C16.9 5.40001 16.6 6.40001 15.7 6.80001C15.4 6.80001 15.1 6.90001 14.9 6.90001Z" fill="currentColor"/>
<path d="M28.8 6.90001C28.3 6.90001 27.8001 6.70001 27.5001 6.30001C26.9001 5.60001 27.0001 4.50001 27.7001 3.90001C27.9001 3.70001 28.3001 3.70001 28.5001 4.00001C28.7001 4.20001 28.7 4.60001 28.4 4.80001C28.2 5.00001 28.1 5.30001 28.3 5.60001C28.5 5.80001 28.8001 5.90001 29.1001 5.70001C29.3001 5.50001 29.7 5.50001 29.9 5.80001C30.1 6.00001 30.1 6.40001 29.8 6.60001C29.6 6.70001 29.2 6.90001 28.8 6.90001Z" fill="currentColor"/>
</svg>
