<svg width="47" height="25" viewBox="0 0 47 25" fill="none" xmlns="http://www.w3.org/2000/svg">
<path d="M36.6503 24.3872H24.7177C24.3524 24.3872 24.1089 24.1421 24.1089 23.7745V13.3578C24.1089 13.2353 24.2306 12.9902 24.2306 12.8676C24.3524 12.7451 24.4742 12.7451 24.7177 12.7451H36.6503C37.7462 12.7451 38.4768 13.6029 38.4768 14.5833V22.4265C38.4768 23.5294 37.7462 24.3872 36.6503 24.3872ZM25.3265 23.1618H36.6503C37.0156 23.1618 37.3809 22.9167 37.3809 22.4265V14.7059C37.3809 14.3382 37.1374 13.9706 36.6503 13.9706H25.3265V23.1618Z" fill="currentColor"/>
<path d="M24.7175 25H16.0724C15.7071 25 15.4636 24.7549 15.4636 24.3872V12.6225C15.4636 12.2549 15.7071 12.0098 16.0724 12.0098H24.7175C25.0828 12.0098 25.3263 12.2549 25.3263 12.6225V24.3872C25.3263 24.6323 25.0828 25 24.7175 25ZM16.803 23.7745H24.2305V13.2353H16.803V23.7745Z" fill="currentColor"/>
<path d="M16.1943 13.6029C16.1943 13.6029 16.0725 13.6029 16.1943 13.6029C8.27979 12.8676 0 10.7843 0 6.98529C0 2.45098 12.0544 0 23.5 0C34.9456 0 47 2.45098 47 6.98529C47 9.19118 44.443 10.9069 39.4508 12.1324C39.0855 12.2549 38.842 12.0098 38.7202 11.6422C38.5984 11.3971 38.842 11.0294 39.2073 11.0294C43.4689 9.92647 45.7824 8.57843 45.7824 6.98529C45.7824 4.28922 36.6503 1.22549 23.5 1.22549C10.3497 1.22549 1.21762 4.28922 1.21762 6.98529C1.21762 8.94608 6.33161 11.5196 16.1943 12.3775C16.5596 12.3775 16.8031 12.7451 16.8031 12.9902C16.6813 13.3578 16.4378 13.6029 16.1943 13.6029Z" fill="currentColor"/>
<path d="M41.6426 11.5196C41.5208 11.5196 41.5208 11.5196 41.3991 11.5196C37.1374 9.92646 30.5623 9.06862 23.3783 9.06862C16.1944 9.06862 9.74101 9.92646 5.35759 11.5196C5.23583 11.5196 4.87055 11.3971 4.74879 11.0294C4.62702 10.6618 4.74879 10.4167 5.11407 10.2941C9.49749 8.70097 16.3161 7.72058 23.5001 7.72058C30.8058 7.72058 37.5027 8.70097 41.8861 10.2941C42.2514 10.4167 42.3731 10.7843 42.2514 11.0294C42.1296 11.2745 41.8861 11.5196 41.6426 11.5196Z" fill="currentColor"/>
<path d="M16.1943 24.0196C16.1943 24.0196 16.0725 24.0196 16.1943 24.0196C8.27979 23.2843 0 21.201 0 17.402V6.9853C0 6.61766 0.243523 6.37256 0.608808 6.37256C0.974093 6.37256 1.21762 6.61766 1.21762 6.9853C1.21762 8.94609 6.33161 11.5196 16.1943 12.3775C16.5596 12.3775 16.8031 12.6226 16.8031 12.9902V23.4069C16.8031 23.5294 16.6813 23.7745 16.5596 23.8971C16.4378 24.0196 16.3161 24.0196 16.1943 24.0196ZM1.21762 9.31374V17.402C1.21762 19.3628 6.08808 21.8137 15.5855 22.7941V13.603C9.74093 12.9902 3.77461 11.6422 1.21762 9.31374Z" fill="currentColor"/>
<path d="M39.9378 22.4265C39.6942 22.4265 39.4507 22.3039 39.329 21.9363C39.2072 21.5686 39.4507 21.3235 39.6942 21.201C43.4689 20.098 45.7823 18.6275 45.7823 17.2794V9.31373C44.3212 10.6618 41.7642 11.5196 39.4507 12.1324C39.0854 12.2549 38.8419 12.0098 38.7202 11.6422C38.5984 11.2745 38.8419 11.0294 39.2072 10.9069C43.3471 9.80392 45.7823 8.33333 45.7823 6.86275C45.7823 6.4951 46.0258 6.25 46.3911 6.25C46.7564 6.25 46.9999 6.4951 46.9999 6.86275V17.2794C46.9999 19.2402 44.5647 21.0784 40.0595 22.3039C40.0595 22.4265 39.9378 22.4265 39.9378 22.4265Z" fill="currentColor"/>
<path d="M24.7177 20.098H20.2125C19.2384 20.098 18.5078 19.3627 18.5078 18.3823C18.5078 17.4019 19.2384 16.6667 20.2125 16.6667H24.7177C25.0829 16.6667 25.3265 16.9118 25.3265 17.2794V19.4853C25.3265 19.8529 25.0829 20.098 24.7177 20.098ZM20.2125 17.8921C19.969 17.8921 19.7254 18.1372 19.7254 18.3823C19.7254 18.6274 19.969 18.8725 20.2125 18.8725H24.1088V17.8921H20.2125Z" fill="currentColor"/>
<path d="M21.6736 15.4412H19.1166C18.7513 15.4412 18.5078 15.1961 18.5078 14.8284C18.5078 14.4608 18.7513 14.2157 19.1166 14.2157H21.6736C22.0389 14.2157 22.2824 14.4608 22.2824 14.8284C22.2824 15.1961 22.0389 15.4412 21.6736 15.4412Z" fill="currentColor"/>
<path d="M21.6736 22.7941H19.1166C18.7513 22.7941 18.5078 22.549 18.5078 22.1814C18.5078 21.8137 18.7513 21.5686 19.1166 21.5686H21.6736C22.0389 21.5686 22.2824 21.8137 22.2824 22.1814C22.2824 22.4265 22.0389 22.7941 21.6736 22.7941Z" fill="currentColor"/>
<path d="M11.2022 19.6078C10.2281 19.6078 9.37573 18.75 9.37573 17.7696C9.37573 16.7892 10.2281 15.9314 11.2022 15.9314C12.1763 15.9314 13.0286 16.7892 13.0286 17.7696C13.0286 18.8725 12.1763 19.6078 11.2022 19.6078ZM11.2022 17.2794C10.8369 17.2794 10.5933 17.5245 10.5933 17.8922C10.5933 18.2598 10.8369 18.5049 11.2022 18.5049C11.5674 18.5049 11.811 18.2598 11.811 17.8922C11.811 17.5245 11.5674 17.2794 11.2022 17.2794Z" fill="currentColor"/>
<path d="M29.1011 20.3431C28.127 20.3431 27.2747 19.4853 27.2747 18.5049C27.2747 17.5245 28.127 16.6667 29.1011 16.6667C30.0752 16.6667 30.9275 17.5245 30.9275 18.5049C30.8057 19.6078 30.0752 20.3431 29.1011 20.3431ZM29.1011 18.0147C28.7358 18.0147 28.4923 18.2598 28.4923 18.6274C28.4923 18.9951 28.7358 19.2402 29.1011 19.2402C29.4664 19.2402 29.7099 18.9951 29.7099 18.6274C29.5881 18.2598 29.3446 18.0147 29.1011 18.0147Z" fill="currentColor"/>
<path d="M5.60108 17.8922C4.62699 17.8922 3.77466 17.0343 3.77466 16.0539C3.77466 15.0735 4.62699 14.2157 5.60108 14.2157C6.57518 14.2157 7.42751 15.0735 7.42751 16.0539C7.30575 17.0343 6.57518 17.8922 5.60108 17.8922ZM5.60108 15.4412C5.2358 15.4412 4.99227 15.6863 4.99227 16.0539C4.99227 16.4216 5.2358 16.6667 5.60108 16.6667C5.96637 16.6667 6.20989 16.4216 6.20989 16.0539C6.08813 15.6863 5.84461 15.4412 5.60108 15.4412Z" fill="currentColor"/>
</svg>
