<svg width="41" height="41" viewBox="0 0 41 41" fill="none" xmlns="http://www.w3.org/2000/svg">
<path d="M12.8 40.5C12.1 40.5 11.4 40.2 10.9 39.7L0.5 29.2C0.2 28.9 0 28.4 0 27.9C0 27.4 0.3 27 0.6 26.7C1.3 26.2 2.3 26.2 2.9 26.9L11.6 35.6C11.9 35.9 12.5 35.9 12.8 35.6C13.1 35.3 13.1 34.7 12.8 34.4L4 25.6C3.7 25.3 3.5 24.8 3.5 24.3C3.5 23.8 3.7 23.4 4.1 23.1C4.8 22.6 5.8 22.6 6.4 23.3L15 31.9C15.4 32.3 16 32.3 16.4 31.9C16.8 31.5 16.8 30.9 16.4 30.5L7.7 21.8C7.4 21.5 7.2 21 7.2 20.5C7.2 20 7.4 19.6 7.8 19.3C8.5 18.8 9.5 18.8 10.1 19.5L18.7 28.1C19.1 28.5 19.8 28.5 20.1 28.1C20.5 27.7 20.5 27.1 20.1 26.7L11.8 18C11.5 17.7 11.3 17.2 11.3 16.7C11.3 16.2 11.5 15.8 11.9 15.5C12.6 15 13.6 15 14.2 15.7L22.8 24.3C23.2 24.7 23.8 24.7 24.2 24.3C24.6 23.9 24.6 23.3 24.2 22.9L15.5 14.2C15.2 13.9 15 13.4 15 12.9C15 12.4 15.2 12 15.6 11.7C16.3 11.2 17.3 11.2 17.9 11.9L26.5 20.5C26.9 20.9 27.5 20.9 27.9 20.5C28.3 20.1 28.3 19.5 27.9 19.1L19.2 10.4C19.1 10 18.9 9.5 18.9 9C18.9 8.5 19.1 8.1 19.5 7.8C20.2 7.3 21.2 7.3 21.8 8L30.4 16.6C30.8 17 31.5 17 31.8 16.6C32 16.4 32.1 16.2 32.1 15.9C32.1 15.6 32 15.4 31.8 15.2L23.1 6.5C22.8 6.2 22.6 5.7 22.6 5.2C22.6 4.7 22.8 4.3 23.2 4C24 3.5 25 3.5 25.6 4.2L34.3 12.9C34.6 13.2 35.2 13.2 35.5 12.9C35.7 12.7 35.8 12.5 35.8 12.3C35.8 12.1 35.7 11.8 35.5 11.7L26.8 3C26.2 2.4 26.1 1.4 26.6 0.7C27 0.3 27.5 0 27.9 0C28.4 0 28.8 0.2 29.2 0.5L39.7 11C40.7 12 40.7 13.7 39.7 14.7L14.7 39.7C14.2 40.2 13.5 40.5 12.8 40.5ZM1.7 27.4C1.6 27.4 1.4 27.4 1.3 27.5C1.2 27.6 1.1 27.8 1.1 28C1.1 28.2 1.2 28.4 1.3 28.5L11.8 39C12.4 39.6 13.4 39.6 14 39L39 14C39.6 13.4 39.6 12.4 39 11.8L28.5 1.2C28.4 1.1 28.2 1 28 1.1C27.8 1.1 27.7 1.2 27.5 1.3C27.3 1.5 27.3 1.9 27.6 2.2L36.3 10.9C36.7 11.3 36.9 11.7 36.9 12.3C36.9 12.8 36.7 13.3 36.3 13.7C35.5 14.5 34.3 14.5 33.6 13.7L24.9 5C24.6 4.7 24.3 4.7 24 4.9C23.9 5 23.8 5.2 23.8 5.4C23.8 5.6 23.9 5.7 24 5.9L32.7 14.6C33.5 15.4 33.5 16.7 32.7 17.5C31.9 18.3 30.6 18.3 29.8 17.5L21.2 8.9C20.9 8.6 20.6 8.6 20.3 8.8C20 8.8 20 8.9 20 9.1C20 9.3 20.1 9.4 20.2 9.6L28.9 18.3C29.7 19.1 29.7 20.4 28.9 21.2C28.1 22 26.8 22 26 21.2L17.4 12.6C17.2 12.4 16.8 12.3 16.5 12.5C16.4 12.6 16.3 12.8 16.3 13C16.3 13.2 16.4 13.3 16.5 13.5L25.2 22.2C25.6 22.6 25.8 23.1 25.8 23.7C25.8 24.3 25.6 24.8 25.2 25.2C24.4 26 23.1 26 22.3 25.2L13.7 16.6C13.4 16.3 13.1 16.3 12.8 16.5C12.7 16.6 12.6 16.8 12.6 17C12.6 17.2 12.7 17.3 12.8 17.5L21.5 26.2C21.9 26.6 22.1 27.1 22.1 27.7C22.1 28.3 21.9 28.8 21.5 29.2C20.7 30 19.4 30 18.6 29.2L10 20.6C9.8 20.4 9.4 20.3 9.1 20.5C9 20.6 8.9 20.8 8.9 21C8.9 21.2 9 21.3 9.1 21.5L17.8 30.2C18.2 30.6 18.4 31.1 18.4 31.7C18.4 32.3 18.2 32.8 17.8 33.2C17 34 15.7 34 14.9 33.2L5.8 24C5.5 23.7 5.2 23.7 4.9 23.9C4.8 24 4.7 24.2 4.7 24.4C4.7 24.6 4.8 24.7 4.9 24.9L13.7 33.7C14.5 34.5 14.5 35.7 13.7 36.4C12.9 37.2 11.7 37.2 11 36.4L2.3 27.7C2 27.5 1.9 27.4 1.7 27.4Z" fill="currentColor"/>
<path d="M38.7999 40.5H2.3999C2.0999 40.5 1.8999 40.3 1.8999 40C1.8999 39.7 2.0999 39.5 2.3999 39.5H38.7999C39.0999 39.5 39.2999 39.7 39.2999 40C39.2999 40.2 39.0999 40.5 38.7999 40.5Z" fill="currentColor"/>
</svg>
