<svg width="100" height="100" viewBox="0 0 100 100" fill="none" xmlns="http://www.w3.org/2000/svg">
<path opacity="0.05" d="M99.4897 49.9999C99.4897 77.3467 77.347 99.4895 50.0001 99.4895C22.5512 99.5916 0.408447 77.4488 0.408447 49.9999C0.408447 22.653 22.5512 0.510254 49.8981 0.510254C77.347 0.510254 99.4897 22.653 99.4897 49.9999Z" fill="url(#paint0_linear_1281:20950)"/>
<path opacity="0.1" d="M98.9797 49.9999C98.9797 77.0407 77.041 98.9794 50.0003 98.9794C22.9596 98.9794 1.02086 77.0407 1.02086 49.9999C0.918822 22.9592 22.8575 1.02051 49.8982 1.02051C77.041 1.02051 98.9797 22.9592 98.9797 49.9999Z" fill="url(#paint1_linear_1281:20950)"/>
<path opacity="0.15" d="M98.4694 50C98.4694 76.8366 76.7348 98.4692 49.8982 98.4692C23.1636 98.5713 1.42896 76.8366 1.42896 50C1.42896 23.2654 23.1636 1.53076 49.8982 1.53076C76.7348 1.53076 98.4694 23.2654 98.4694 50Z" fill="url(#paint2_linear_1281:20950)"/>
<path opacity="0.2" d="M97.9593 50C97.9593 76.5306 76.4288 98.0611 49.8982 98.0611C23.4698 98.0611 1.93921 76.5306 1.93921 50C1.93921 23.5716 23.4698 2.04102 49.8982 2.04102C76.4288 2.04102 97.9593 23.5716 97.9593 50Z" fill="url(#paint3_linear_1281:20950)"/>
<path opacity="0.25" d="M97.4489 50C97.4489 76.2244 76.2245 97.5508 49.898 97.5508C23.6736 97.5508 2.44922 76.3264 2.44922 50C2.44922 23.7756 23.6736 2.55115 49.898 2.55115C76.2245 2.55115 97.4489 23.7756 97.4489 50Z" fill="url(#paint4_linear_1281:20950)"/>
<path opacity="0.3" d="M96.9387 50C96.9387 75.9183 75.9184 97.0407 49.8981 97.0407C23.9798 97.0407 2.95947 76.0203 2.95947 50C2.95947 24.0817 23.9798 3.0614 49.8981 3.0614C75.9184 3.0614 96.9387 24.0817 96.9387 50Z" fill="url(#paint5_linear_1281:20950)"/>
<path opacity="0.35" d="M96.4286 49.9999C96.4286 75.7141 75.6123 96.5304 49.8981 96.5304C24.286 96.5304 3.46973 75.7141 3.46973 49.9999C3.46973 24.3878 24.286 3.57153 49.8981 3.57153C75.6123 3.57153 96.4286 24.3878 96.4286 49.9999Z" fill="url(#paint6_linear_1281:20950)"/>
<path opacity="0.4" d="M95.9184 50C95.9184 75.4081 75.3063 96.0202 49.8982 96.0202C24.5922 96.0202 3.97998 75.4081 3.97998 50C3.97998 24.694 24.5922 4.08179 49.8982 4.08179C75.3063 4.08179 95.9184 24.694 95.9184 50Z" fill="url(#paint7_linear_1281:20950)"/>
<path opacity="0.45" d="M95.4083 50C95.4083 75.102 75.0002 95.5101 49.8982 95.5101C24.7963 95.5101 4.38818 75.102 4.38818 50C4.38818 24.8981 24.7963 4.48999 49.8982 4.48999C75.1022 4.59203 95.4083 24.8981 95.4083 50Z" fill="url(#paint8_linear_1281:20950)"/>
<path opacity="0.5" d="M94.8981 50C94.8981 74.7958 74.7962 94.9998 49.8983 94.9998C25.1025 94.9998 5.00049 74.8979 5.00049 50C5.00049 25.2041 25.1025 5.10217 49.8983 5.10217C74.7962 5.10217 94.8981 25.2041 94.8981 50Z" fill="url(#paint9_linear_1281:20950)"/>
<path opacity="0.55" d="M94.388 50C94.388 74.5918 74.4901 94.4897 49.8983 94.4897C25.4086 94.4897 5.51074 74.5918 5.51074 50C5.51074 25.5103 25.4086 5.61243 49.8983 5.61243C74.4901 5.61243 94.388 25.5103 94.388 50Z" fill="url(#paint10_linear_1281:20950)"/>
<path opacity="0.6" d="M93.8774 50C93.8774 74.2856 74.1835 93.9794 49.8979 93.9794C25.6123 93.9794 6.02051 74.2856 6.02051 50C6.02051 25.7143 25.6123 6.12256 49.8979 6.12256C74.1835 6.12256 93.8774 25.7143 93.8774 50Z" fill="url(#paint11_linear_1281:20950)"/>
<path opacity="0.65" d="M93.3672 50C93.3672 73.9795 73.8775 93.4693 49.898 93.4693C25.9185 93.4693 6.53076 74.0816 6.53076 50C6.53076 26.0205 25.9185 6.63281 49.898 6.63281C73.9795 6.63281 93.3672 26.0205 93.3672 50Z" fill="url(#paint12_linear_1281:20950)"/>
<path opacity="0.7" d="M92.8573 50.0001C92.8573 73.6735 73.6737 92.9591 49.8982 92.9591C26.2249 92.9591 6.93921 73.7755 6.93921 50.0001C6.93921 26.3267 26.2249 7.14307 49.8982 7.14307C73.6737 7.14307 92.8573 26.3267 92.8573 50.0001Z" fill="url(#paint13_linear_1281:20950)"/>
<path opacity="0.75" d="M92.3471 50C92.3471 73.4693 73.3676 92.4488 49.8983 92.4488C26.531 92.4488 7.44946 73.4693 7.44946 50C7.44946 26.5307 26.429 7.55115 49.8983 7.55115C73.3676 7.55115 92.3471 26.6327 92.3471 50Z" fill="url(#paint14_linear_1281:20950)"/>
<path opacity="0.8" d="M91.8367 50C91.8367 73.1632 73.0613 91.9387 49.8981 91.9387C26.7349 91.9387 7.95947 73.1632 7.95947 50C7.95947 26.8368 26.7349 8.0614 49.8981 8.0614C73.0613 8.0614 91.8367 26.8368 91.8367 50Z" fill="url(#paint15_linear_1281:20950)"/>
<path opacity="0.85" d="M91.3266 50C91.3266 72.857 72.7552 91.4284 49.8982 91.4284C27.0411 91.4284 8.46973 72.9591 8.46973 50C8.46973 27.1429 27.0411 8.57153 49.8982 8.57153C72.8573 8.57153 91.3266 27.1429 91.3266 50Z" fill="url(#paint16_linear_1281:20950)"/>
<path opacity="0.9" d="M90.8164 50C90.8164 72.551 72.4492 90.9182 49.8982 90.9182C27.3473 90.9182 8.97998 72.551 8.97998 50C8.97998 27.347 27.3473 9.08179 49.8982 9.08179C72.5512 9.08179 90.8164 27.4491 90.8164 50Z" fill="url(#paint17_linear_1281:20950)"/>
<path opacity="0.95" d="M90.3063 50.0001C90.3063 72.3469 72.2451 90.4081 49.8983 90.4081C27.6534 90.5101 9.49023 72.3469 9.49023 50.0001C9.49023 27.7552 27.6534 9.59204 49.8983 9.59204C72.2451 9.59204 90.3063 27.7552 90.3063 50.0001Z" fill="url(#paint18_linear_1281:20950)"/>
<path d="M89.8982 50.0001C89.8982 72.0409 72.0411 89.8979 50.0004 89.8979C27.8576 90 10.0005 72.0409 10.0005 50.0001C10.0005 27.9594 27.8576 10.1023 49.8983 10.1023C71.9391 10.1023 89.8982 27.9594 89.8982 50.0001Z" fill="url(#paint19_linear_1281:20950)"/>
<path d="M85.5104 50.0001C85.5104 69.6939 69.5921 85.6122 49.8983 85.6122C30.2045 85.6122 14.3882 69.6939 14.3882 50.0001C14.3882 30.3063 30.3065 14.3879 50.0003 14.3879C69.6941 14.3879 85.5104 30.4083 85.5104 50.0001Z" fill="#43A10B"/>
<path d="M64.9842 70H34.8272C34.6387 70 34.2617 69.8068 34.2617 69.4203V44.8793C34.2617 44.686 34.2617 44.4928 34.4502 44.4928L49.5287 35.0242C49.7172 34.831 49.9057 34.831 50.0942 35.0242L65.1727 44.4928C65.3612 44.4928 65.3612 44.686 65.3612 44.8793V69.6136C65.5497 69.8068 65.3612 70 64.9842 70ZM35.3926 69.0339H64.6073V45.0725L49.9057 35.9904L35.3926 45.0725V69.0339Z" fill="white"/>
<path d="M32.5654 46.8116H32.377C32.1885 46.6184 32 46.6184 32 46.4251V41.5942C32 41.401 32 41.2077 32.1885 41.2077L49.7173 30C49.9058 30 50.0942 30 50.2827 30L56.1257 33.6715V33.0918C56.1257 32.8986 56.3141 32.5121 56.6911 32.5121H61.9686C62.1571 32.5121 62.534 32.7053 62.534 33.0918V37.7295L67.8115 41.2077C68 41.2077 68 41.401 68 41.5942V46.4251C68 46.6184 67.8115 46.8116 67.8115 46.8116C67.623 46.8116 67.4346 46.8116 67.2461 46.8116L49.9058 35.9903L32.7539 46.8116H32.5654ZM32.9424 41.7874V45.4589L49.7173 34.8309C49.9058 34.6377 50.0942 34.6377 50.2827 34.8309L67.0576 45.4589V41.7874L61.5916 38.3092C61.4031 38.3092 61.4031 38.1159 61.4031 37.9227V33.6715H57.0681V34.6377C57.0681 34.8309 56.8796 35.0242 56.8796 35.0242C56.6911 35.0242 56.5026 35.0242 56.3141 35.0242L50.0942 31.1594L32.9424 41.7874Z" fill="white"/>
<path d="M49.9057 63.6231C49.7173 63.6231 49.7173 63.6231 49.5288 63.4299L41.6126 55.8936C40.1047 54.3478 39.5393 52.2222 40.2932 50.0965C41.0471 48.1642 42.7434 46.8115 44.8167 46.8115H45.0052C46.89 46.8115 48.5864 47.7777 49.7173 49.1304C50.8482 47.5845 52.5445 46.8115 54.4293 46.8115C54.6178 46.8115 54.8063 46.8115 54.9948 46.8115C56.8796 47.0048 58.5759 48.3574 59.1413 50.2898C59.8953 52.2222 59.3298 54.541 57.822 55.8936L49.9057 63.4299C50.2827 63.4299 50.0942 63.6231 49.9057 63.6231ZM45.1937 47.7777C43.4974 47.7777 41.9895 48.7439 41.4241 50.483C40.8586 51.8357 40.8586 53.768 42.3665 55.1207L49.9057 62.2705L57.445 55.1207C58.5759 53.9613 59.1413 52.2222 58.5759 50.483C58.0105 48.9371 56.8796 47.9709 55.1832 47.7777C54.9948 47.7777 54.8063 47.7777 54.6178 47.7777C52.733 47.7777 51.2251 48.7439 50.2827 50.2898C50.0942 50.6763 49.5288 50.6763 49.5288 50.2898C48.5864 48.7439 47.0785 47.7777 45.1937 47.7777Z" fill="white"/>
<path d="M42.555 66.715H41.2356C41.0471 66.715 40.6702 66.5217 40.6702 66.1353C40.6702 65.942 40.8586 65.5555 41.2356 65.5555H42.555C42.7435 65.5555 43.1204 65.7488 43.1204 66.1353C42.9319 66.5217 42.7435 66.715 42.555 66.715Z" fill="white"/>
<path d="M55.7486 66.715H53.4868C53.2983 66.715 52.9214 66.5217 52.9214 66.1353C52.9214 65.942 53.1099 65.5555 53.4868 65.5555H55.7486C55.9371 65.5555 56.3141 65.7488 56.3141 66.1353C56.3141 66.5217 56.1256 66.715 55.7486 66.715ZM51.4135 66.715H49.1518C48.9633 66.715 48.5863 66.5217 48.5863 66.1353C48.5863 65.942 48.7748 65.5555 49.1518 65.5555H51.4135C51.602 65.5555 51.979 65.7488 51.979 66.1353C51.7905 66.5217 51.602 66.715 51.4135 66.715ZM46.89 66.715H44.6282C44.4397 66.715 44.0627 66.5217 44.0627 66.1353C44.0627 65.942 44.2512 65.5555 44.6282 65.5555H46.89C47.0785 65.5555 47.4554 65.7488 47.4554 66.1353C47.4554 66.5217 47.2669 66.715 46.89 66.715Z" fill="white"/>
<path d="M59.3299 66.715H58.0105C57.822 66.715 57.4451 66.5217 57.4451 66.1353C57.4451 65.942 57.6336 65.5555 58.0105 65.5555H59.3299C59.5184 65.5555 59.8953 65.7488 59.8953 66.1353C59.7068 66.5217 59.5184 66.715 59.3299 66.715Z" fill="white"/>
<path d="M41.2355 66.715H34.8272C34.6387 66.715 34.2617 66.5217 34.2617 66.1353C34.2617 65.942 34.4502 65.5555 34.8272 65.5555H41.2355C41.424 65.5555 41.801 65.7488 41.801 66.1353C41.801 66.5217 41.6125 66.715 41.2355 66.715Z" fill="white"/>
<defs>
<linearGradient id="paint0_linear_1281:20950" x1="14.9134" y1="15.0158" x2="84.9651" y2="85.0675" gradientUnits="userSpaceOnUse">
<stop stop-color="#FCFDFF"/>
<stop offset="0.2208" stop-color="#F7F9FB"/>
<stop offset="0.4652" stop-color="#EAECF1"/>
<stop offset="0.7209" stop-color="#D4D7E0"/>
<stop offset="0.983" stop-color="#B5BAC8"/>
<stop offset="1" stop-color="#B3B8C6"/>
</linearGradient>
<linearGradient id="paint1_linear_1281:20950" x1="15.2717" y1="15.374" x2="84.6072" y2="84.7094" gradientUnits="userSpaceOnUse">
<stop stop-color="#FCFDFF"/>
<stop offset="0.2208" stop-color="#F7F9FB"/>
<stop offset="0.4652" stop-color="#EAECF1"/>
<stop offset="0.7209" stop-color="#D4D7E0"/>
<stop offset="0.983" stop-color="#B5BAC8"/>
<stop offset="1" stop-color="#B3B8C6"/>
</linearGradient>
<linearGradient id="paint2_linear_1281:20950" x1="15.6298" y1="15.7322" x2="84.249" y2="84.3514" gradientUnits="userSpaceOnUse">
<stop stop-color="#FCFDFF"/>
<stop offset="0.2208" stop-color="#F7F9FB"/>
<stop offset="0.4652" stop-color="#EAECF1"/>
<stop offset="0.7209" stop-color="#D4D7E0"/>
<stop offset="0.983" stop-color="#B5BAC8"/>
<stop offset="1" stop-color="#B3B8C6"/>
</linearGradient>
<linearGradient id="paint3_linear_1281:20950" x1="15.988" y1="16.0905" x2="83.8909" y2="83.9933" gradientUnits="userSpaceOnUse">
<stop stop-color="#FCFDFF"/>
<stop offset="0.2208" stop-color="#F7F9FB"/>
<stop offset="0.4652" stop-color="#EAECF1"/>
<stop offset="0.7209" stop-color="#D4D7E0"/>
<stop offset="0.983" stop-color="#B5BAC8"/>
<stop offset="1" stop-color="#B3B8C6"/>
</linearGradient>
<linearGradient id="paint4_linear_1281:20950" x1="16.346" y1="16.4485" x2="83.5326" y2="83.6352" gradientUnits="userSpaceOnUse">
<stop stop-color="#FCFDFF"/>
<stop offset="0.2208" stop-color="#F7F9FB"/>
<stop offset="0.4652" stop-color="#EAECF1"/>
<stop offset="0.7209" stop-color="#D4D7E0"/>
<stop offset="0.983" stop-color="#B5BAC8"/>
<stop offset="1" stop-color="#B3B8C6"/>
</linearGradient>
<linearGradient id="paint5_linear_1281:20950" x1="16.7042" y1="16.8068" x2="83.1745" y2="83.277" gradientUnits="userSpaceOnUse">
<stop stop-color="#FCFDFF"/>
<stop offset="0.2208" stop-color="#F7F9FB"/>
<stop offset="0.4652" stop-color="#EAECF1"/>
<stop offset="0.7209" stop-color="#D4D7E0"/>
<stop offset="0.983" stop-color="#B5BAC8"/>
<stop offset="1" stop-color="#B3B8C6"/>
</linearGradient>
<linearGradient id="paint6_linear_1281:20950" x1="17.0624" y1="17.1649" x2="82.8165" y2="82.9189" gradientUnits="userSpaceOnUse">
<stop stop-color="#FCFDFF"/>
<stop offset="0.2208" stop-color="#F7F9FB"/>
<stop offset="0.4652" stop-color="#EAECF1"/>
<stop offset="0.7209" stop-color="#D4D7E0"/>
<stop offset="0.983" stop-color="#B5BAC8"/>
<stop offset="1" stop-color="#B3B8C6"/>
</linearGradient>
<linearGradient id="paint7_linear_1281:20950" x1="17.4206" y1="17.5231" x2="82.4584" y2="82.5608" gradientUnits="userSpaceOnUse">
<stop stop-color="#FCFDFF"/>
<stop offset="0.2208" stop-color="#F7F9FB"/>
<stop offset="0.4652" stop-color="#EAECF1"/>
<stop offset="0.7209" stop-color="#D4D7E0"/>
<stop offset="0.983" stop-color="#B5BAC8"/>
<stop offset="1" stop-color="#B3B8C6"/>
</linearGradient>
<linearGradient id="paint8_linear_1281:20950" x1="17.7789" y1="17.8813" x2="82.1004" y2="82.2028" gradientUnits="userSpaceOnUse">
<stop stop-color="#FCFDFF"/>
<stop offset="0.2208" stop-color="#F7F9FB"/>
<stop offset="0.4652" stop-color="#EAECF1"/>
<stop offset="0.7209" stop-color="#D4D7E0"/>
<stop offset="0.983" stop-color="#B5BAC8"/>
<stop offset="1" stop-color="#B3B8C6"/>
</linearGradient>
<linearGradient id="paint9_linear_1281:20950" x1="18.1371" y1="18.2394" x2="81.7423" y2="81.8446" gradientUnits="userSpaceOnUse">
<stop stop-color="#FCFDFF"/>
<stop offset="0.2208" stop-color="#F7F9FB"/>
<stop offset="0.4652" stop-color="#EAECF1"/>
<stop offset="0.7209" stop-color="#D4D7E0"/>
<stop offset="0.983" stop-color="#B5BAC8"/>
<stop offset="1" stop-color="#B3B8C6"/>
</linearGradient>
<linearGradient id="paint10_linear_1281:20950" x1="18.4953" y1="18.5976" x2="81.3842" y2="81.4864" gradientUnits="userSpaceOnUse">
<stop stop-color="#FCFDFF"/>
<stop offset="0.2208" stop-color="#F7F9FB"/>
<stop offset="0.4652" stop-color="#EAECF1"/>
<stop offset="0.7209" stop-color="#D4D7E0"/>
<stop offset="0.983" stop-color="#B5BAC8"/>
<stop offset="1" stop-color="#B3B8C6"/>
</linearGradient>
<linearGradient id="paint11_linear_1281:20950" x1="18.853" y1="18.9557" x2="81.0257" y2="81.1283" gradientUnits="userSpaceOnUse">
<stop stop-color="#FCFDFF"/>
<stop offset="0.2208" stop-color="#F7F9FB"/>
<stop offset="0.4652" stop-color="#EAECF1"/>
<stop offset="0.7209" stop-color="#D4D7E0"/>
<stop offset="0.983" stop-color="#B5BAC8"/>
<stop offset="1" stop-color="#B3B8C6"/>
</linearGradient>
<linearGradient id="paint12_linear_1281:20950" x1="19.2112" y1="19.3139" x2="80.6676" y2="80.7702" gradientUnits="userSpaceOnUse">
<stop stop-color="#FCFDFF"/>
<stop offset="0.2208" stop-color="#F7F9FB"/>
<stop offset="0.4652" stop-color="#EAECF1"/>
<stop offset="0.7209" stop-color="#D4D7E0"/>
<stop offset="0.983" stop-color="#B5BAC8"/>
<stop offset="1" stop-color="#B3B8C6"/>
</linearGradient>
<linearGradient id="paint13_linear_1281:20950" x1="19.5696" y1="19.6721" x2="80.3098" y2="80.4122" gradientUnits="userSpaceOnUse">
<stop stop-color="#FCFDFF"/>
<stop offset="0.2208" stop-color="#F7F9FB"/>
<stop offset="0.4652" stop-color="#EAECF1"/>
<stop offset="0.7209" stop-color="#D4D7E0"/>
<stop offset="0.983" stop-color="#B5BAC8"/>
<stop offset="1" stop-color="#B3B8C6"/>
</linearGradient>
<linearGradient id="paint14_linear_1281:20950" x1="19.9278" y1="20.0301" x2="79.9517" y2="80.054" gradientUnits="userSpaceOnUse">
<stop stop-color="#FCFDFF"/>
<stop offset="0.2208" stop-color="#F7F9FB"/>
<stop offset="0.4652" stop-color="#EAECF1"/>
<stop offset="0.7209" stop-color="#D4D7E0"/>
<stop offset="0.983" stop-color="#B5BAC8"/>
<stop offset="1" stop-color="#B3B8C6"/>
</linearGradient>
<linearGradient id="paint15_linear_1281:20950" x1="20.2858" y1="20.3883" x2="79.5934" y2="79.696" gradientUnits="userSpaceOnUse">
<stop stop-color="#FCFDFF"/>
<stop offset="0.2208" stop-color="#F7F9FB"/>
<stop offset="0.4652" stop-color="#EAECF1"/>
<stop offset="0.7209" stop-color="#D4D7E0"/>
<stop offset="0.983" stop-color="#B5BAC8"/>
<stop offset="1" stop-color="#B3B8C6"/>
</linearGradient>
<linearGradient id="paint16_linear_1281:20950" x1="20.644" y1="20.7464" x2="79.2353" y2="79.3377" gradientUnits="userSpaceOnUse">
<stop stop-color="#FCFDFF"/>
<stop offset="0.2208" stop-color="#F7F9FB"/>
<stop offset="0.4652" stop-color="#EAECF1"/>
<stop offset="0.7209" stop-color="#D4D7E0"/>
<stop offset="0.983" stop-color="#B5BAC8"/>
<stop offset="1" stop-color="#B3B8C6"/>
</linearGradient>
<linearGradient id="paint17_linear_1281:20950" x1="21.0022" y1="21.1046" x2="78.8772" y2="78.9797" gradientUnits="userSpaceOnUse">
<stop stop-color="#FCFDFF"/>
<stop offset="0.2208" stop-color="#F7F9FB"/>
<stop offset="0.4652" stop-color="#EAECF1"/>
<stop offset="0.7209" stop-color="#D4D7E0"/>
<stop offset="0.983" stop-color="#B5BAC8"/>
<stop offset="1" stop-color="#B3B8C6"/>
</linearGradient>
<linearGradient id="paint18_linear_1281:20950" x1="21.3604" y1="21.4628" x2="78.5192" y2="78.6216" gradientUnits="userSpaceOnUse">
<stop stop-color="#FCFDFF"/>
<stop offset="0.2208" stop-color="#F7F9FB"/>
<stop offset="0.4652" stop-color="#EAECF1"/>
<stop offset="0.7209" stop-color="#D4D7E0"/>
<stop offset="0.983" stop-color="#B5BAC8"/>
<stop offset="1" stop-color="#B3B8C6"/>
</linearGradient>
<linearGradient id="paint19_linear_1281:20950" x1="21.7186" y1="21.821" x2="78.1611" y2="78.2635" gradientUnits="userSpaceOnUse">
<stop stop-color="#FCFDFF"/>
<stop offset="0.2208" stop-color="#F7F9FB"/>
<stop offset="0.4652" stop-color="#EAECF1"/>
<stop offset="0.7209" stop-color="#D4D7E0"/>
<stop offset="0.983" stop-color="#B5BAC8"/>
<stop offset="1" stop-color="#B3B8C6"/>
</linearGradient>
</defs>
</svg>
