<svg width="100" height="100" viewBox="0 0 100 100" fill="none" xmlns="http://www.w3.org/2000/svg">
<path opacity="0.05" d="M99.4897 49.9999C99.4897 77.3467 77.347 99.4895 50.0001 99.4895C22.5512 99.5916 0.408447 77.4488 0.408447 49.9999C0.408447 22.653 22.5512 0.510254 49.8981 0.510254C77.347 0.510254 99.4897 22.653 99.4897 49.9999Z" fill="url(#paint0_linear_1281:20952)"/>
<path opacity="0.1" d="M98.9797 49.9999C98.9797 77.0407 77.041 98.9794 50.0003 98.9794C22.9596 98.9794 1.02086 77.0407 1.02086 49.9999C0.918822 22.9592 22.8575 1.02051 49.8982 1.02051C77.041 1.02051 98.9797 22.9592 98.9797 49.9999Z" fill="url(#paint1_linear_1281:20952)"/>
<path opacity="0.15" d="M98.4694 50C98.4694 76.8366 76.7348 98.4692 49.8982 98.4692C23.1636 98.5713 1.42896 76.8366 1.42896 50C1.42896 23.2654 23.1636 1.53076 49.8982 1.53076C76.7348 1.53076 98.4694 23.2654 98.4694 50Z" fill="url(#paint2_linear_1281:20952)"/>
<path opacity="0.2" d="M97.9593 50C97.9593 76.5306 76.4288 98.0611 49.8982 98.0611C23.4698 98.0611 1.93921 76.5306 1.93921 50C1.93921 23.5716 23.4698 2.04102 49.8982 2.04102C76.4288 2.04102 97.9593 23.5716 97.9593 50Z" fill="url(#paint3_linear_1281:20952)"/>
<path opacity="0.25" d="M97.4489 50C97.4489 76.2244 76.2245 97.5508 49.898 97.5508C23.6736 97.5508 2.44922 76.3264 2.44922 50C2.44922 23.7756 23.6736 2.55115 49.898 2.55115C76.2245 2.55115 97.4489 23.7756 97.4489 50Z" fill="url(#paint4_linear_1281:20952)"/>
<path opacity="0.3" d="M96.9387 50C96.9387 75.9183 75.9184 97.0407 49.8981 97.0407C23.9798 97.0407 2.95947 76.0203 2.95947 50C2.95947 24.0817 23.9798 3.0614 49.8981 3.0614C75.9184 3.0614 96.9387 24.0817 96.9387 50Z" fill="url(#paint5_linear_1281:20952)"/>
<path opacity="0.35" d="M96.4286 49.9999C96.4286 75.7141 75.6123 96.5304 49.8981 96.5304C24.286 96.5304 3.46973 75.7141 3.46973 49.9999C3.46973 24.3878 24.286 3.57153 49.8981 3.57153C75.6123 3.57153 96.4286 24.3878 96.4286 49.9999Z" fill="url(#paint6_linear_1281:20952)"/>
<path opacity="0.4" d="M95.9184 50C95.9184 75.4081 75.3063 96.0202 49.8982 96.0202C24.5922 96.0202 3.97998 75.4081 3.97998 50C3.97998 24.694 24.5922 4.08179 49.8982 4.08179C75.3063 4.08179 95.9184 24.694 95.9184 50Z" fill="url(#paint7_linear_1281:20952)"/>
<path opacity="0.45" d="M95.4083 50C95.4083 75.102 75.0002 95.5101 49.8982 95.5101C24.7963 95.5101 4.38818 75.102 4.38818 50C4.38818 24.8981 24.7963 4.48999 49.8982 4.48999C75.1022 4.59203 95.4083 24.8981 95.4083 50Z" fill="url(#paint8_linear_1281:20952)"/>
<path opacity="0.5" d="M94.8981 50C94.8981 74.7958 74.7962 94.9998 49.8983 94.9998C25.1025 94.9998 5.00049 74.8979 5.00049 50C5.00049 25.2041 25.1025 5.10217 49.8983 5.10217C74.7962 5.10217 94.8981 25.2041 94.8981 50Z" fill="url(#paint9_linear_1281:20952)"/>
<path opacity="0.55" d="M94.388 50C94.388 74.5918 74.4901 94.4897 49.8983 94.4897C25.4086 94.4897 5.51074 74.5918 5.51074 50C5.51074 25.5103 25.4086 5.61243 49.8983 5.61243C74.4901 5.61243 94.388 25.5103 94.388 50Z" fill="url(#paint10_linear_1281:20952)"/>
<path opacity="0.6" d="M93.8774 50C93.8774 74.2856 74.1835 93.9794 49.8979 93.9794C25.6123 93.9794 6.02051 74.2856 6.02051 50C6.02051 25.7143 25.6123 6.12256 49.8979 6.12256C74.1835 6.12256 93.8774 25.7143 93.8774 50Z" fill="url(#paint11_linear_1281:20952)"/>
<path opacity="0.65" d="M93.3672 50C93.3672 73.9795 73.8775 93.4693 49.898 93.4693C25.9185 93.4693 6.53076 74.0816 6.53076 50C6.53076 26.0205 25.9185 6.63281 49.898 6.63281C73.9795 6.63281 93.3672 26.0205 93.3672 50Z" fill="url(#paint12_linear_1281:20952)"/>
<path opacity="0.7" d="M92.8573 50.0001C92.8573 73.6735 73.6737 92.9591 49.8982 92.9591C26.2249 92.9591 6.93921 73.7755 6.93921 50.0001C6.93921 26.3267 26.2249 7.14307 49.8982 7.14307C73.6737 7.14307 92.8573 26.3267 92.8573 50.0001Z" fill="url(#paint13_linear_1281:20952)"/>
<path opacity="0.75" d="M92.3471 50C92.3471 73.4693 73.3676 92.4488 49.8983 92.4488C26.531 92.4488 7.44946 73.4693 7.44946 50C7.44946 26.5307 26.429 7.55115 49.8983 7.55115C73.3676 7.55115 92.3471 26.6327 92.3471 50Z" fill="url(#paint14_linear_1281:20952)"/>
<path opacity="0.8" d="M91.8367 50C91.8367 73.1632 73.0613 91.9387 49.8981 91.9387C26.7349 91.9387 7.95947 73.1632 7.95947 50C7.95947 26.8368 26.7349 8.0614 49.8981 8.0614C73.0613 8.0614 91.8367 26.8368 91.8367 50Z" fill="url(#paint15_linear_1281:20952)"/>
<path opacity="0.85" d="M91.3266 50C91.3266 72.857 72.7552 91.4284 49.8982 91.4284C27.0411 91.4284 8.46973 72.9591 8.46973 50C8.46973 27.1429 27.0411 8.57153 49.8982 8.57153C72.8573 8.57153 91.3266 27.1429 91.3266 50Z" fill="url(#paint16_linear_1281:20952)"/>
<path opacity="0.9" d="M90.8164 50C90.8164 72.551 72.4492 90.9182 49.8982 90.9182C27.3473 90.9182 8.97998 72.551 8.97998 50C8.97998 27.347 27.3473 9.08179 49.8982 9.08179C72.5512 9.08179 90.8164 27.4491 90.8164 50Z" fill="url(#paint17_linear_1281:20952)"/>
<path opacity="0.95" d="M90.3063 50.0001C90.3063 72.3469 72.2451 90.4081 49.8983 90.4081C27.6534 90.5101 9.49023 72.3469 9.49023 50.0001C9.49023 27.7552 27.6534 9.59204 49.8983 9.59204C72.2451 9.59204 90.3063 27.7552 90.3063 50.0001Z" fill="url(#paint18_linear_1281:20952)"/>
<path d="M89.8982 50.0001C89.8982 72.0409 72.0411 89.8979 50.0004 89.8979C27.8576 90 10.0005 72.0409 10.0005 50.0001C10.0005 27.9594 27.8576 10.1023 49.8983 10.1023C71.9391 10.1023 89.8982 27.9594 89.8982 50.0001Z" fill="url(#paint19_linear_1281:20952)"/>
<path d="M85.5104 50.0001C85.5104 69.6939 69.5921 85.6122 49.8983 85.6122C30.2045 85.6122 14.3882 69.6939 14.3882 50.0001C14.3882 30.3063 30.3065 14.3879 50.0003 14.3879C69.6941 14.3879 85.5104 30.4083 85.5104 50.0001Z" fill="#43A10B"/>
<path d="M58.5573 66.1923H58.3646C58.1719 66 57.9792 65.8077 58.1719 65.6153C58.3646 65.2307 58.5573 64.8461 58.9427 64.4615L65.6875 57.5384C66.651 56.5769 67.0364 55.423 67.0364 54.0769V42.5384C67.0364 41.5769 66.2656 40.6153 65.1094 40.6153C64.1458 40.6153 63.1823 41.3846 63.1823 42.5384V50.423C63.1823 52.1538 62.4114 53.6923 61.2552 54.8461L59.1354 56.9615C58.9427 57.1538 58.5573 57.1538 58.3646 56.9615C58.1719 56.7692 58.1719 56.3846 58.3646 56.1923L60.4844 54.0769C61.4479 53.1153 62.026 51.7692 62.026 50.423V42.5384C62.026 41 63.375 39.6538 64.9167 39.6538C66.4583 39.6538 67.8073 41 67.8073 42.5384V54.0769C67.8073 55.6153 67.2292 57.1538 66.0729 58.3077L59.3281 65.2307C58.9427 65.423 58.75 65.8077 58.75 66C58.9427 66.1923 58.75 66.1923 58.5573 66.1923Z" fill="white"/>
<path d="M49.5 66.1923C49.3073 66.1923 48.9219 66 48.9219 65.6154V61.7693C48.9219 60.2308 49.5 58.6923 50.6562 57.5385C52.5833 55.6154 55.6667 52.5385 57.5937 50.6154C58.1719 50.0385 58.75 49.8462 59.5208 49.8462C60.2917 49.8462 60.8698 50.2308 61.4479 50.6154C62.026 51.1923 62.2188 51.7693 62.2188 52.5385C62.2188 53.3077 62.026 53.8847 61.4479 54.4616L57.5937 58.3077C57.401 58.5 57.0156 58.5 56.8229 58.3077C56.6302 58.1154 56.6302 57.7308 56.8229 57.5385L60.6771 53.6923C61.0625 53.3077 61.2552 52.9231 61.2552 52.5385C61.2552 52.1539 61.0625 51.7693 60.6771 51.3847C60.2917 51 59.9062 50.8077 59.3281 50.8077C58.9427 50.8077 58.3646 51 58.1719 51.3847C56.2448 53.3077 53.1615 56.3847 51.2344 58.3077C50.2708 59.2693 49.8854 60.4231 49.8854 61.7693V65.8077C50.0781 66 49.8854 66.1923 49.5 66.1923Z" fill="white"/>
<path d="M40.4427 66.1923C40.25 66.1923 40.0573 66 40.0573 65.8077C39.8646 65.6153 39.6719 65.2307 39.4792 65.0384L32.7344 58.1153C31.5781 57.1538 31 55.6153 31 54.0769V42.5384C31 41 32.349 39.6538 33.8906 39.6538C35.4323 39.8461 36.7812 41 36.7812 42.5384V50.423C36.7812 51.7692 37.3594 53.1153 38.3229 54.0769L40.4427 56.1923C40.6354 56.3846 40.6354 56.7692 40.4427 56.9615C40.25 57.1538 39.8646 57.1538 39.6719 56.9615L37.5521 54.8461C36.3958 53.6923 35.625 52.1538 35.625 50.423V42.5384C35.625 41.5769 34.8542 40.6153 33.6979 40.6153C32.7344 40.6153 31.7708 41.3846 31.7708 42.5384V54.0769C31.7708 55.423 32.349 56.5769 33.1198 57.5384L39.8646 64.4615C40.25 64.8461 40.4427 65.0384 40.6354 65.6153C40.8281 65.8077 40.6354 66.1923 40.4427 66.1923C40.6354 66.1923 40.6354 66.1923 40.4427 66.1923Z" fill="white"/>
<path d="M49.5 66.1923C49.3073 66.1923 48.9219 66 48.9219 65.6154V61.7692C48.9219 60.4231 48.3438 59.2692 47.5729 58.3077C45.6458 56.3846 42.5625 53.3077 40.6354 51.3846C40.25 51 39.8646 50.8077 39.4792 50.8077C39.0938 50.8077 38.5156 51 38.3229 51.3846C37.9375 51.7692 37.7448 52.1538 37.7448 52.5385C37.7448 52.9231 37.9375 53.3077 38.3229 53.6923L42.1771 57.5385C42.3698 57.7308 42.3698 58.1154 42.1771 58.3077C41.9844 58.5 41.599 58.5 41.4062 58.3077L37.5521 54.4615C36.974 54.0769 36.7812 53.5 36.7812 52.7308C36.7812 51.9615 36.974 51.3846 37.5521 50.8077C38.1302 50.2308 38.7083 50.0385 39.4792 50.0385C40.25 50.0385 40.8281 50.2308 41.4062 50.8077C43.3333 52.7308 46.4167 55.8077 48.3437 57.7308C49.5 58.8846 50.0781 60.2308 50.0781 61.9615V66C50.0781 66 49.8854 66.1923 49.5 66.1923Z" fill="white"/>
<path d="M48.3437 71H39.6718C38.7083 71 38.1301 70.2308 38.1301 69.4616V66.9616C38.1301 66 38.901 65.4231 39.6718 65.4231H49.4999C49.6926 65.4231 50.078 65.6154 50.078 66V69.4616C50.078 70.2308 49.3072 71 48.3437 71ZM39.6718 66.1923C39.2864 66.1923 39.0937 66.3846 39.0937 66.7693V69.4616C39.0937 69.8462 39.2864 70.0385 39.6718 70.0385H48.3437C48.7291 70.0385 48.9218 69.8462 48.9218 69.4616V66.3846H39.6718V66.1923Z" fill="white"/>
<path d="M59.5208 71.0001H50.6562C49.6926 71.0001 49.1145 70.2308 49.1145 69.4616V65.8078C49.1145 65.6155 49.3072 65.2308 49.6926 65.2308H59.5208C60.4843 65.2308 61.0624 66.0001 61.0624 66.7693V69.4616C61.0624 70.2308 60.2916 71.0001 59.5208 71.0001ZM50.078 66.1924V69.4616C50.078 69.8462 50.2708 70.0385 50.6562 70.0385H59.5208C59.9062 70.0385 60.0989 69.8462 60.0989 69.4616V66.9616C60.0989 66.577 59.9062 66.3847 59.5208 66.3847H50.078V66.1924Z" fill="white"/>
<path d="M58.5572 66.1923H53.1614C52.9687 66.1923 52.5833 66 52.5833 65.6154C52.5833 65.4231 52.776 65.0385 53.1614 65.0385H58.5572C58.7499 65.0385 59.1353 65.2308 59.1353 65.6154C59.1353 66 58.7499 66.1923 58.5572 66.1923Z" fill="white"/>
<path d="M49.5 48.6923C49.3072 48.6923 49.3072 48.6923 49.1145 48.5L40.25 40.8077C38.5156 39.2692 37.9375 36.9615 38.7083 34.8462C39.2864 32.5385 41.0208 31.1923 43.1406 31C43.3333 31 43.526 31 43.7187 31C46.0312 31 48.3437 32.1538 49.5 34.2692C50.6562 32.3462 52.9687 31 55.2812 31C55.4739 31 55.6666 31 55.8593 31C57.9791 31.1923 59.7135 32.5385 60.4843 34.6538C61.2552 36.7692 60.4843 39.2692 58.9427 40.6154L49.8854 48.5C49.6927 48.6923 49.6927 48.6923 49.5 48.6923ZM43.7187 31.9615C43.526 31.9615 43.3333 31.9615 43.1406 31.9615C41.5989 32.1538 40.0572 33.3077 39.4791 35.0385C38.901 36.7692 39.4791 38.6923 40.8281 40.0385L49.5 47.5385L58.1718 40.0385C59.5208 38.8846 60.0989 36.9615 59.5208 35.0385C58.9427 33.3077 57.5937 32.1538 55.8593 31.9615C55.6666 31.9615 55.4739 31.9615 55.2812 31.9615C52.9687 31.9615 50.8489 33.3077 49.8854 35.6154C49.8854 35.8077 49.6927 36 49.5 36C49.3072 36 49.1145 35.8077 49.1145 35.6154C48.151 33.5 46.0312 31.9615 43.7187 31.9615Z" fill="white"/>
<path d="M49.4999 44.6538C49.3072 44.6538 49.3072 44.6538 49.1145 44.4615C48.9218 44.2692 48.9218 43.8846 49.1145 43.6923L50.078 42.923C50.2708 42.7307 50.6562 42.7307 50.8489 42.923C51.0416 43.1153 51.0416 43.5 50.8489 43.6923L49.8853 44.6538C49.6926 44.6538 49.6926 44.6538 49.4999 44.6538Z" fill="white"/>
<path d="M52.0053 42.5385C51.8126 42.5385 51.8126 42.5385 51.6199 42.3462C51.4272 42.1539 51.4272 41.7692 51.6199 41.5769L53.1615 40.2308C53.3542 40.0385 53.7397 40.0385 53.9324 40.2308C54.1251 40.4231 54.1251 40.8077 53.9324 41L52.3907 42.3462C52.3907 42.3462 52.198 42.5385 52.0053 42.5385Z" fill="white"/>
<path d="M55.2812 39.6538C55.0885 39.6538 55.0885 39.6538 54.8958 39.4615C54.703 39.2692 54.703 38.8846 54.8958 38.6923L55.8593 37.923C56.052 37.7307 56.4374 37.7307 56.6301 37.923C56.8228 38.1153 56.8228 38.5 56.6301 38.6923L55.6666 39.4615C55.4739 39.6538 55.2812 39.6538 55.2812 39.6538Z" fill="white"/>
<defs>
<linearGradient id="paint0_linear_1281:20952" x1="14.9134" y1="15.0158" x2="84.9651" y2="85.0675" gradientUnits="userSpaceOnUse">
<stop stop-color="#FCFDFF"/>
<stop offset="0.2208" stop-color="#F7F9FB"/>
<stop offset="0.4652" stop-color="#EAECF1"/>
<stop offset="0.7209" stop-color="#D4D7E0"/>
<stop offset="0.983" stop-color="#B5BAC8"/>
<stop offset="1" stop-color="#B3B8C6"/>
</linearGradient>
<linearGradient id="paint1_linear_1281:20952" x1="15.2717" y1="15.374" x2="84.6072" y2="84.7094" gradientUnits="userSpaceOnUse">
<stop stop-color="#FCFDFF"/>
<stop offset="0.2208" stop-color="#F7F9FB"/>
<stop offset="0.4652" stop-color="#EAECF1"/>
<stop offset="0.7209" stop-color="#D4D7E0"/>
<stop offset="0.983" stop-color="#B5BAC8"/>
<stop offset="1" stop-color="#B3B8C6"/>
</linearGradient>
<linearGradient id="paint2_linear_1281:20952" x1="15.6298" y1="15.7322" x2="84.249" y2="84.3514" gradientUnits="userSpaceOnUse">
<stop stop-color="#FCFDFF"/>
<stop offset="0.2208" stop-color="#F7F9FB"/>
<stop offset="0.4652" stop-color="#EAECF1"/>
<stop offset="0.7209" stop-color="#D4D7E0"/>
<stop offset="0.983" stop-color="#B5BAC8"/>
<stop offset="1" stop-color="#B3B8C6"/>
</linearGradient>
<linearGradient id="paint3_linear_1281:20952" x1="15.988" y1="16.0905" x2="83.8909" y2="83.9933" gradientUnits="userSpaceOnUse">
<stop stop-color="#FCFDFF"/>
<stop offset="0.2208" stop-color="#F7F9FB"/>
<stop offset="0.4652" stop-color="#EAECF1"/>
<stop offset="0.7209" stop-color="#D4D7E0"/>
<stop offset="0.983" stop-color="#B5BAC8"/>
<stop offset="1" stop-color="#B3B8C6"/>
</linearGradient>
<linearGradient id="paint4_linear_1281:20952" x1="16.346" y1="16.4485" x2="83.5326" y2="83.6352" gradientUnits="userSpaceOnUse">
<stop stop-color="#FCFDFF"/>
<stop offset="0.2208" stop-color="#F7F9FB"/>
<stop offset="0.4652" stop-color="#EAECF1"/>
<stop offset="0.7209" stop-color="#D4D7E0"/>
<stop offset="0.983" stop-color="#B5BAC8"/>
<stop offset="1" stop-color="#B3B8C6"/>
</linearGradient>
<linearGradient id="paint5_linear_1281:20952" x1="16.7042" y1="16.8068" x2="83.1745" y2="83.277" gradientUnits="userSpaceOnUse">
<stop stop-color="#FCFDFF"/>
<stop offset="0.2208" stop-color="#F7F9FB"/>
<stop offset="0.4652" stop-color="#EAECF1"/>
<stop offset="0.7209" stop-color="#D4D7E0"/>
<stop offset="0.983" stop-color="#B5BAC8"/>
<stop offset="1" stop-color="#B3B8C6"/>
</linearGradient>
<linearGradient id="paint6_linear_1281:20952" x1="17.0624" y1="17.1649" x2="82.8165" y2="82.9189" gradientUnits="userSpaceOnUse">
<stop stop-color="#FCFDFF"/>
<stop offset="0.2208" stop-color="#F7F9FB"/>
<stop offset="0.4652" stop-color="#EAECF1"/>
<stop offset="0.7209" stop-color="#D4D7E0"/>
<stop offset="0.983" stop-color="#B5BAC8"/>
<stop offset="1" stop-color="#B3B8C6"/>
</linearGradient>
<linearGradient id="paint7_linear_1281:20952" x1="17.4206" y1="17.5231" x2="82.4584" y2="82.5608" gradientUnits="userSpaceOnUse">
<stop stop-color="#FCFDFF"/>
<stop offset="0.2208" stop-color="#F7F9FB"/>
<stop offset="0.4652" stop-color="#EAECF1"/>
<stop offset="0.7209" stop-color="#D4D7E0"/>
<stop offset="0.983" stop-color="#B5BAC8"/>
<stop offset="1" stop-color="#B3B8C6"/>
</linearGradient>
<linearGradient id="paint8_linear_1281:20952" x1="17.7789" y1="17.8813" x2="82.1004" y2="82.2028" gradientUnits="userSpaceOnUse">
<stop stop-color="#FCFDFF"/>
<stop offset="0.2208" stop-color="#F7F9FB"/>
<stop offset="0.4652" stop-color="#EAECF1"/>
<stop offset="0.7209" stop-color="#D4D7E0"/>
<stop offset="0.983" stop-color="#B5BAC8"/>
<stop offset="1" stop-color="#B3B8C6"/>
</linearGradient>
<linearGradient id="paint9_linear_1281:20952" x1="18.1371" y1="18.2394" x2="81.7423" y2="81.8446" gradientUnits="userSpaceOnUse">
<stop stop-color="#FCFDFF"/>
<stop offset="0.2208" stop-color="#F7F9FB"/>
<stop offset="0.4652" stop-color="#EAECF1"/>
<stop offset="0.7209" stop-color="#D4D7E0"/>
<stop offset="0.983" stop-color="#B5BAC8"/>
<stop offset="1" stop-color="#B3B8C6"/>
</linearGradient>
<linearGradient id="paint10_linear_1281:20952" x1="18.4953" y1="18.5976" x2="81.3842" y2="81.4864" gradientUnits="userSpaceOnUse">
<stop stop-color="#FCFDFF"/>
<stop offset="0.2208" stop-color="#F7F9FB"/>
<stop offset="0.4652" stop-color="#EAECF1"/>
<stop offset="0.7209" stop-color="#D4D7E0"/>
<stop offset="0.983" stop-color="#B5BAC8"/>
<stop offset="1" stop-color="#B3B8C6"/>
</linearGradient>
<linearGradient id="paint11_linear_1281:20952" x1="18.853" y1="18.9557" x2="81.0257" y2="81.1283" gradientUnits="userSpaceOnUse">
<stop stop-color="#FCFDFF"/>
<stop offset="0.2208" stop-color="#F7F9FB"/>
<stop offset="0.4652" stop-color="#EAECF1"/>
<stop offset="0.7209" stop-color="#D4D7E0"/>
<stop offset="0.983" stop-color="#B5BAC8"/>
<stop offset="1" stop-color="#B3B8C6"/>
</linearGradient>
<linearGradient id="paint12_linear_1281:20952" x1="19.2112" y1="19.3139" x2="80.6676" y2="80.7702" gradientUnits="userSpaceOnUse">
<stop stop-color="#FCFDFF"/>
<stop offset="0.2208" stop-color="#F7F9FB"/>
<stop offset="0.4652" stop-color="#EAECF1"/>
<stop offset="0.7209" stop-color="#D4D7E0"/>
<stop offset="0.983" stop-color="#B5BAC8"/>
<stop offset="1" stop-color="#B3B8C6"/>
</linearGradient>
<linearGradient id="paint13_linear_1281:20952" x1="19.5696" y1="19.6721" x2="80.3098" y2="80.4122" gradientUnits="userSpaceOnUse">
<stop stop-color="#FCFDFF"/>
<stop offset="0.2208" stop-color="#F7F9FB"/>
<stop offset="0.4652" stop-color="#EAECF1"/>
<stop offset="0.7209" stop-color="#D4D7E0"/>
<stop offset="0.983" stop-color="#B5BAC8"/>
<stop offset="1" stop-color="#B3B8C6"/>
</linearGradient>
<linearGradient id="paint14_linear_1281:20952" x1="19.9278" y1="20.0301" x2="79.9517" y2="80.054" gradientUnits="userSpaceOnUse">
<stop stop-color="#FCFDFF"/>
<stop offset="0.2208" stop-color="#F7F9FB"/>
<stop offset="0.4652" stop-color="#EAECF1"/>
<stop offset="0.7209" stop-color="#D4D7E0"/>
<stop offset="0.983" stop-color="#B5BAC8"/>
<stop offset="1" stop-color="#B3B8C6"/>
</linearGradient>
<linearGradient id="paint15_linear_1281:20952" x1="20.2858" y1="20.3883" x2="79.5934" y2="79.696" gradientUnits="userSpaceOnUse">
<stop stop-color="#FCFDFF"/>
<stop offset="0.2208" stop-color="#F7F9FB"/>
<stop offset="0.4652" stop-color="#EAECF1"/>
<stop offset="0.7209" stop-color="#D4D7E0"/>
<stop offset="0.983" stop-color="#B5BAC8"/>
<stop offset="1" stop-color="#B3B8C6"/>
</linearGradient>
<linearGradient id="paint16_linear_1281:20952" x1="20.644" y1="20.7464" x2="79.2353" y2="79.3377" gradientUnits="userSpaceOnUse">
<stop stop-color="#FCFDFF"/>
<stop offset="0.2208" stop-color="#F7F9FB"/>
<stop offset="0.4652" stop-color="#EAECF1"/>
<stop offset="0.7209" stop-color="#D4D7E0"/>
<stop offset="0.983" stop-color="#B5BAC8"/>
<stop offset="1" stop-color="#B3B8C6"/>
</linearGradient>
<linearGradient id="paint17_linear_1281:20952" x1="21.0022" y1="21.1046" x2="78.8772" y2="78.9797" gradientUnits="userSpaceOnUse">
<stop stop-color="#FCFDFF"/>
<stop offset="0.2208" stop-color="#F7F9FB"/>
<stop offset="0.4652" stop-color="#EAECF1"/>
<stop offset="0.7209" stop-color="#D4D7E0"/>
<stop offset="0.983" stop-color="#B5BAC8"/>
<stop offset="1" stop-color="#B3B8C6"/>
</linearGradient>
<linearGradient id="paint18_linear_1281:20952" x1="21.3604" y1="21.4628" x2="78.5192" y2="78.6216" gradientUnits="userSpaceOnUse">
<stop stop-color="#FCFDFF"/>
<stop offset="0.2208" stop-color="#F7F9FB"/>
<stop offset="0.4652" stop-color="#EAECF1"/>
<stop offset="0.7209" stop-color="#D4D7E0"/>
<stop offset="0.983" stop-color="#B5BAC8"/>
<stop offset="1" stop-color="#B3B8C6"/>
</linearGradient>
<linearGradient id="paint19_linear_1281:20952" x1="21.7186" y1="21.821" x2="78.1611" y2="78.2635" gradientUnits="userSpaceOnUse">
<stop stop-color="#FCFDFF"/>
<stop offset="0.2208" stop-color="#F7F9FB"/>
<stop offset="0.4652" stop-color="#EAECF1"/>
<stop offset="0.7209" stop-color="#D4D7E0"/>
<stop offset="0.983" stop-color="#B5BAC8"/>
<stop offset="1" stop-color="#B3B8C6"/>
</linearGradient>
</defs>
</svg>
