<svg width="100" height="100" viewBox="0 0 100 100" fill="none" xmlns="http://www.w3.org/2000/svg">
<path opacity="0.05" d="M99.4897 49.9999C99.4897 77.3467 77.347 99.4895 50.0001 99.4895C22.5512 99.5916 0.408447 77.4488 0.408447 49.9999C0.408447 22.653 22.5512 0.510254 49.8981 0.510254C77.347 0.510254 99.4897 22.653 99.4897 49.9999Z" fill="url(#paint0_linear_1281:20951)"/>
<path opacity="0.1" d="M98.9797 49.9999C98.9797 77.0407 77.041 98.9794 50.0003 98.9794C22.9596 98.9794 1.02086 77.0407 1.02086 49.9999C0.918822 22.9592 22.8575 1.02051 49.8982 1.02051C77.041 1.02051 98.9797 22.9592 98.9797 49.9999Z" fill="url(#paint1_linear_1281:20951)"/>
<path opacity="0.15" d="M98.4694 50C98.4694 76.8366 76.7348 98.4692 49.8982 98.4692C23.1636 98.5713 1.42896 76.8366 1.42896 50C1.42896 23.2654 23.1636 1.53076 49.8982 1.53076C76.7348 1.53076 98.4694 23.2654 98.4694 50Z" fill="url(#paint2_linear_1281:20951)"/>
<path opacity="0.2" d="M97.9593 50C97.9593 76.5306 76.4288 98.0611 49.8982 98.0611C23.4698 98.0611 1.93921 76.5306 1.93921 50C1.93921 23.5716 23.4698 2.04102 49.8982 2.04102C76.4288 2.04102 97.9593 23.5716 97.9593 50Z" fill="url(#paint3_linear_1281:20951)"/>
<path opacity="0.25" d="M97.4489 50C97.4489 76.2244 76.2245 97.5508 49.898 97.5508C23.6736 97.5508 2.44922 76.3264 2.44922 50C2.44922 23.7756 23.6736 2.55115 49.898 2.55115C76.2245 2.55115 97.4489 23.7756 97.4489 50Z" fill="url(#paint4_linear_1281:20951)"/>
<path opacity="0.3" d="M96.9387 50C96.9387 75.9183 75.9184 97.0407 49.8981 97.0407C23.9798 97.0407 2.95947 76.0203 2.95947 50C2.95947 24.0817 23.9798 3.0614 49.8981 3.0614C75.9184 3.0614 96.9387 24.0817 96.9387 50Z" fill="url(#paint5_linear_1281:20951)"/>
<path opacity="0.35" d="M96.4286 49.9999C96.4286 75.7141 75.6123 96.5304 49.8981 96.5304C24.286 96.5304 3.46973 75.7141 3.46973 49.9999C3.46973 24.3878 24.286 3.57153 49.8981 3.57153C75.6123 3.57153 96.4286 24.3878 96.4286 49.9999Z" fill="url(#paint6_linear_1281:20951)"/>
<path opacity="0.4" d="M95.9184 50C95.9184 75.4081 75.3063 96.0202 49.8982 96.0202C24.5922 96.0202 3.97998 75.4081 3.97998 50C3.97998 24.694 24.5922 4.08179 49.8982 4.08179C75.3063 4.08179 95.9184 24.694 95.9184 50Z" fill="url(#paint7_linear_1281:20951)"/>
<path opacity="0.45" d="M95.4083 50C95.4083 75.102 75.0002 95.5101 49.8982 95.5101C24.7963 95.5101 4.38818 75.102 4.38818 50C4.38818 24.8981 24.7963 4.48999 49.8982 4.48999C75.1022 4.59203 95.4083 24.8981 95.4083 50Z" fill="url(#paint8_linear_1281:20951)"/>
<path opacity="0.5" d="M94.8981 50C94.8981 74.7958 74.7962 94.9998 49.8983 94.9998C25.1025 94.9998 5.00049 74.8979 5.00049 50C5.00049 25.2041 25.1025 5.10217 49.8983 5.10217C74.7962 5.10217 94.8981 25.2041 94.8981 50Z" fill="url(#paint9_linear_1281:20951)"/>
<path opacity="0.55" d="M94.388 50C94.388 74.5918 74.4901 94.4897 49.8983 94.4897C25.4086 94.4897 5.51074 74.5918 5.51074 50C5.51074 25.5103 25.4086 5.61243 49.8983 5.61243C74.4901 5.61243 94.388 25.5103 94.388 50Z" fill="url(#paint10_linear_1281:20951)"/>
<path opacity="0.6" d="M93.8774 50C93.8774 74.2856 74.1835 93.9794 49.8979 93.9794C25.6123 93.9794 6.02051 74.2856 6.02051 50C6.02051 25.7143 25.6123 6.12256 49.8979 6.12256C74.1835 6.12256 93.8774 25.7143 93.8774 50Z" fill="url(#paint11_linear_1281:20951)"/>
<path opacity="0.65" d="M93.3672 50C93.3672 73.9795 73.8775 93.4693 49.898 93.4693C25.9185 93.4693 6.53076 74.0816 6.53076 50C6.53076 26.0205 25.9185 6.63281 49.898 6.63281C73.9795 6.63281 93.3672 26.0205 93.3672 50Z" fill="url(#paint12_linear_1281:20951)"/>
<path opacity="0.7" d="M92.8573 50.0001C92.8573 73.6735 73.6737 92.9591 49.8982 92.9591C26.2249 92.9591 6.93921 73.7755 6.93921 50.0001C6.93921 26.3267 26.2249 7.14307 49.8982 7.14307C73.6737 7.14307 92.8573 26.3267 92.8573 50.0001Z" fill="url(#paint13_linear_1281:20951)"/>
<path opacity="0.75" d="M92.3471 50C92.3471 73.4693 73.3676 92.4488 49.8983 92.4488C26.531 92.4488 7.44946 73.4693 7.44946 50C7.44946 26.5307 26.429 7.55115 49.8983 7.55115C73.3676 7.55115 92.3471 26.6327 92.3471 50Z" fill="url(#paint14_linear_1281:20951)"/>
<path opacity="0.8" d="M91.8367 50C91.8367 73.1632 73.0613 91.9387 49.8981 91.9387C26.7349 91.9387 7.95947 73.1632 7.95947 50C7.95947 26.8368 26.7349 8.0614 49.8981 8.0614C73.0613 8.0614 91.8367 26.8368 91.8367 50Z" fill="url(#paint15_linear_1281:20951)"/>
<path opacity="0.85" d="M91.3266 50C91.3266 72.857 72.7552 91.4284 49.8982 91.4284C27.0411 91.4284 8.46973 72.9591 8.46973 50C8.46973 27.1429 27.0411 8.57153 49.8982 8.57153C72.8573 8.57153 91.3266 27.1429 91.3266 50Z" fill="url(#paint16_linear_1281:20951)"/>
<path opacity="0.9" d="M90.8164 50C90.8164 72.551 72.4492 90.9182 49.8982 90.9182C27.3473 90.9182 8.97998 72.551 8.97998 50C8.97998 27.347 27.3473 9.08179 49.8982 9.08179C72.5512 9.08179 90.8164 27.4491 90.8164 50Z" fill="url(#paint17_linear_1281:20951)"/>
<path opacity="0.95" d="M90.3063 50.0001C90.3063 72.3469 72.2451 90.4081 49.8983 90.4081C27.6534 90.5101 9.49023 72.3469 9.49023 50.0001C9.49023 27.7552 27.6534 9.59204 49.8983 9.59204C72.2451 9.59204 90.3063 27.7552 90.3063 50.0001Z" fill="url(#paint18_linear_1281:20951)"/>
<path d="M89.8982 50.0001C89.8982 72.0409 72.0411 89.8979 50.0004 89.8979C27.8576 90 10.0005 72.0409 10.0005 50.0001C10.0005 27.9594 27.8576 10.1023 49.8983 10.1023C71.9391 10.1023 89.8982 27.9594 89.8982 50.0001Z" fill="url(#paint19_linear_1281:20951)"/>
<path d="M85.5104 50.0001C85.5104 69.6939 69.5921 85.6122 49.8983 85.6122C30.2045 85.6122 14.3882 69.6939 14.3882 50.0001C14.3882 30.3063 30.3065 14.3879 50.0003 14.3879C69.6941 14.3879 85.5104 30.4083 85.5104 50.0001Z" fill="#43A10B"/>
<g clip-path="url(#clip0_1281:20951)">
<path d="M57.3257 71H49.5943C49.4057 71 49.0286 70.8066 49.0286 70.4198V62.4906C49.0286 61.1368 49.5943 59.783 50.5371 58.6226L56.5714 52.434C56.9486 52.0472 57.7028 51.6604 58.2686 51.6604C59.0228 51.6604 59.5886 51.8538 59.9657 52.434C60.1543 52.6274 60.3428 52.8208 60.3428 53.0141C60.3428 52.6274 60.5314 52.434 60.5314 52.0472V44.8915C60.5314 43.5377 61.6629 42.184 63.1714 42.184C64.68 42.184 65.8114 43.3443 65.8114 44.8915V55.3349C65.8114 56.6887 65.2457 58.0425 64.3029 59.2028L58.2686 65.3915C57.8914 65.7783 57.5143 66.1651 57.5143 66.7453V70.6132C57.8914 70.8066 57.5143 71 57.3257 71ZM49.9714 70.033H56.76V67.1321C56.76 66.3585 57.1371 65.5849 57.7029 65.0047L63.7371 58.816C64.4914 58.0424 65.0571 56.8821 65.0571 55.7217V45.0849C65.0571 44.1179 64.3029 43.3443 63.36 43.3443C62.4171 43.3443 61.8514 44.1179 61.6628 44.8915V52.0472C61.6628 53.4009 61.0971 54.5613 60.3428 55.7217C60.3428 55.9151 60.1543 55.9151 60.1543 56.1085L56.76 59.5896C56.5714 59.783 56.1943 59.783 56.0057 59.5896C55.8171 59.3962 55.8171 59.0094 56.0057 58.816L57.5143 57.2689L59.4 55.3349C59.5886 55.1415 59.5886 55.1415 59.7771 54.9481C59.9657 54.7547 59.9657 54.3679 59.9657 54.1745C59.9657 53.7877 59.7771 53.4009 59.5886 53.2075C59.2114 52.8208 58.8343 52.6274 58.4571 52.6274C58.08 52.6274 57.7028 52.8208 57.3257 53.0141L51.2914 59.2028C50.5371 59.9764 49.9714 61.1368 49.9714 62.2972V70.033Z" fill="white"/>
<path d="M49.5943 71H41.6743C41.4857 71 41.1086 70.8066 41.1086 70.4198V66.9386C41.1086 66.3585 40.92 65.9717 40.5429 65.5849L34.5086 59.2028C33.5657 58.4292 33 57.0754 33 55.5283V45.0849C33 43.5377 34.1314 42.3773 35.64 42.3773C36.96 42.3773 38.28 43.5377 38.28 45.0849V52.2405C38.28 52.6273 38.28 53.0141 38.4686 53.2075C38.6571 53.0141 38.6571 52.8207 38.8457 52.6273C39.4114 52.0471 39.9771 51.8537 40.7314 51.8537C41.4857 51.8537 42.0514 52.0471 42.4286 52.6273L48.4629 58.816C49.4057 59.783 49.9714 61.1368 49.9714 62.6839V70.6132C49.9714 70.8066 49.7829 71 49.5943 71ZM42.24 70.033H49.0286V62.6839C49.0286 61.5235 48.6514 60.3632 47.7086 59.5896L41.6743 53.2075C41.4857 53.0141 41.1086 52.8207 40.5429 52.8207C40.1657 52.8207 39.7886 53.0141 39.4114 53.2075C39.0343 53.5943 39.0343 53.9811 39.0343 54.3679C39.0343 54.7547 39.0343 54.9481 39.2229 55.1415C39.2229 55.3349 39.4114 55.3349 39.6 55.5283L41.4857 57.4622L42.9943 59.0094C43.1829 59.2028 43.1829 59.5896 42.9943 59.783C42.8057 59.9764 42.4286 59.9764 42.24 59.783L38.8457 56.3018C38.6571 55.9151 38.6571 55.9151 38.6571 55.7217C37.9029 54.7547 37.3371 53.4009 37.3371 52.0471V44.8915C37.3371 43.9245 36.5829 43.3443 35.64 43.3443C34.6971 43.3443 33.9429 44.1179 33.9429 45.0849V55.5283C33.9429 56.6886 34.32 57.849 35.2629 58.6226L41.2971 64.8113C41.8629 65.3915 42.24 66.1651 42.24 66.9386V70.033Z" fill="white"/>
<path d="M47.52 38.8962C46.2 38.8962 44.88 37.1557 44.5028 34.8349C44.1257 32.3208 44.88 30.1934 46.3886 30C47.8971 29.8066 49.2171 31.5472 49.5943 34.0613C49.9714 36.5755 49.2171 38.7028 47.7086 38.8962H47.52ZM46.5771 30.967C45.8228 31.1604 45.0686 32.7076 45.4457 34.6415C45.8228 36.7689 46.7657 37.9293 47.52 37.7359C48.2743 37.7359 49.0286 36.1887 48.6514 34.2547C48.2743 32.3208 47.3314 30.967 46.5771 30.967Z" fill="white"/>
<path d="M43.3714 43.3444C42.9943 43.3444 42.4286 43.151 42.0514 42.9576C41.2971 42.5708 40.7314 41.7972 40.1657 41.0236C39.7886 40.0566 39.6 39.0897 39.7886 38.3161C39.9771 37.3491 40.3543 36.7689 41.1086 36.3821C41.8629 35.9953 42.6171 35.9953 43.3714 36.5755C44.1257 36.9623 44.6914 37.7359 45.2571 38.5095C46.2 40.4434 45.6343 42.5708 44.3143 43.151C44.1257 43.151 43.7486 43.3444 43.3714 43.3444ZM42.24 36.9623C42.0514 36.9623 41.8629 36.9623 41.6743 37.1557C41.2971 37.3491 40.92 37.7359 40.92 38.5095C40.7314 39.0897 40.92 39.8633 41.2971 40.6368C41.6743 41.4104 42.0514 41.7972 42.6171 42.184C43.1829 42.3774 43.56 42.5708 44.1257 42.3774C45.0686 41.9906 45.2571 40.4434 44.6914 39.0897C44.1257 38.1227 43.7486 37.5425 43.1829 37.3491C42.8057 37.1557 42.4286 36.9623 42.24 36.9623Z" fill="white"/>
<path d="M45.8229 50.4999C43.56 50.4999 43.1829 48.9527 43.1829 48.7593C42.6172 46.2452 44.88 43.5376 46.9543 41.7971C48.6514 40.4433 51.2914 40.4433 52.9886 41.7971C55.0629 43.5376 57.5143 46.2452 56.9486 48.9527C56.9486 49.1461 56.3829 50.8867 53.5543 50.6933C51.2914 50.4999 48.6514 50.4999 46.3886 50.6933C46.2 50.4999 46.0114 50.4999 45.8229 50.4999ZM47.52 42.5707C45.6343 44.1178 43.56 46.4386 43.9372 48.5659C43.9372 48.5659 44.3143 49.7263 46.2 49.3395C48.6514 49.1461 51.1029 49.1461 53.5543 49.3395C55.44 49.5329 55.8172 48.5659 55.8172 48.3725C56.1943 46.2452 54.12 43.9244 52.2343 42.3773C51.1029 41.4103 49.0286 41.4103 47.52 42.5707Z" fill="white"/>
<path d="M52.6116 38.8962H52.4231C50.9145 38.7028 49.9716 36.5755 50.3488 34.0613C50.7259 31.5472 52.2345 29.8066 53.5545 30C54.3088 30.1934 54.8745 30.7736 55.2516 31.7406C55.6288 32.7076 55.6288 33.6745 55.4402 34.8349C55.2516 35.9953 54.8745 36.9623 54.3088 37.7359C53.7431 38.5094 53.1774 38.8962 52.6116 38.8962ZM51.4802 34.2547C51.1031 36.1887 51.6688 37.7359 52.4231 37.9293C52.8002 37.9293 53.1774 37.7359 53.5545 37.1557C53.9316 36.5755 54.3088 35.6085 54.4974 34.6415C54.6859 33.6745 54.6859 32.7076 54.3088 31.934C54.1202 31.3538 53.7431 30.967 53.3659 30.7736C52.8002 30.967 51.6688 32.1274 51.4802 34.2547Z" fill="white"/>
<path d="M56.5714 43.3443C56.1943 43.3443 55.8172 43.3443 55.6286 43.1509C54.3086 42.3773 53.7429 40.4434 54.6857 38.5094C55.6286 36.5754 57.5143 35.6085 58.8343 36.382C60.1543 37.1556 60.72 39.0896 59.7772 41.0235C59.4 41.9905 58.6457 42.5707 57.8914 42.9575C57.5143 43.1509 56.9486 43.3443 56.5714 43.3443ZM57.7029 37.1556C56.9486 37.1556 56.0057 37.9292 55.44 38.8962C54.8743 40.25 55.0629 41.7971 56.0057 42.1839C56.3829 42.3773 56.9486 42.3773 57.5143 41.9905C58.08 41.6037 58.6457 41.2169 58.8343 40.4434C59.4 39.0896 59.2114 37.7358 58.2686 37.1556C58.08 37.1556 57.8914 37.1556 57.7029 37.1556Z" fill="white"/>
<path d="M46.3885 66.7453H41.4856C41.2971 66.7453 40.9199 66.5519 40.9199 66.1652C40.9199 65.9718 41.1085 65.585 41.4856 65.585H46.3885C46.5771 65.585 46.9542 65.7784 46.9542 66.1652C46.7656 66.5519 46.5771 66.7453 46.3885 66.7453Z" fill="white"/>
<path d="M57.5145 66.7453H52.6116C52.423 66.7453 52.0459 66.5519 52.0459 66.1652C52.0459 65.9718 52.2345 65.585 52.6116 65.585H57.5145C57.703 65.585 58.0802 65.7784 58.0802 66.1652C58.0802 66.5519 57.703 66.7453 57.5145 66.7453Z" fill="white"/>
</g>
<defs>
<linearGradient id="paint0_linear_1281:20951" x1="14.9134" y1="15.0158" x2="84.9651" y2="85.0675" gradientUnits="userSpaceOnUse">
<stop stop-color="#FCFDFF"/>
<stop offset="0.2208" stop-color="#F7F9FB"/>
<stop offset="0.4652" stop-color="#EAECF1"/>
<stop offset="0.7209" stop-color="#D4D7E0"/>
<stop offset="0.983" stop-color="#B5BAC8"/>
<stop offset="1" stop-color="#B3B8C6"/>
</linearGradient>
<linearGradient id="paint1_linear_1281:20951" x1="15.2717" y1="15.374" x2="84.6072" y2="84.7094" gradientUnits="userSpaceOnUse">
<stop stop-color="#FCFDFF"/>
<stop offset="0.2208" stop-color="#F7F9FB"/>
<stop offset="0.4652" stop-color="#EAECF1"/>
<stop offset="0.7209" stop-color="#D4D7E0"/>
<stop offset="0.983" stop-color="#B5BAC8"/>
<stop offset="1" stop-color="#B3B8C6"/>
</linearGradient>
<linearGradient id="paint2_linear_1281:20951" x1="15.6298" y1="15.7322" x2="84.249" y2="84.3514" gradientUnits="userSpaceOnUse">
<stop stop-color="#FCFDFF"/>
<stop offset="0.2208" stop-color="#F7F9FB"/>
<stop offset="0.4652" stop-color="#EAECF1"/>
<stop offset="0.7209" stop-color="#D4D7E0"/>
<stop offset="0.983" stop-color="#B5BAC8"/>
<stop offset="1" stop-color="#B3B8C6"/>
</linearGradient>
<linearGradient id="paint3_linear_1281:20951" x1="15.988" y1="16.0905" x2="83.8909" y2="83.9933" gradientUnits="userSpaceOnUse">
<stop stop-color="#FCFDFF"/>
<stop offset="0.2208" stop-color="#F7F9FB"/>
<stop offset="0.4652" stop-color="#EAECF1"/>
<stop offset="0.7209" stop-color="#D4D7E0"/>
<stop offset="0.983" stop-color="#B5BAC8"/>
<stop offset="1" stop-color="#B3B8C6"/>
</linearGradient>
<linearGradient id="paint4_linear_1281:20951" x1="16.346" y1="16.4485" x2="83.5326" y2="83.6352" gradientUnits="userSpaceOnUse">
<stop stop-color="#FCFDFF"/>
<stop offset="0.2208" stop-color="#F7F9FB"/>
<stop offset="0.4652" stop-color="#EAECF1"/>
<stop offset="0.7209" stop-color="#D4D7E0"/>
<stop offset="0.983" stop-color="#B5BAC8"/>
<stop offset="1" stop-color="#B3B8C6"/>
</linearGradient>
<linearGradient id="paint5_linear_1281:20951" x1="16.7042" y1="16.8068" x2="83.1745" y2="83.277" gradientUnits="userSpaceOnUse">
<stop stop-color="#FCFDFF"/>
<stop offset="0.2208" stop-color="#F7F9FB"/>
<stop offset="0.4652" stop-color="#EAECF1"/>
<stop offset="0.7209" stop-color="#D4D7E0"/>
<stop offset="0.983" stop-color="#B5BAC8"/>
<stop offset="1" stop-color="#B3B8C6"/>
</linearGradient>
<linearGradient id="paint6_linear_1281:20951" x1="17.0624" y1="17.1649" x2="82.8165" y2="82.9189" gradientUnits="userSpaceOnUse">
<stop stop-color="#FCFDFF"/>
<stop offset="0.2208" stop-color="#F7F9FB"/>
<stop offset="0.4652" stop-color="#EAECF1"/>
<stop offset="0.7209" stop-color="#D4D7E0"/>
<stop offset="0.983" stop-color="#B5BAC8"/>
<stop offset="1" stop-color="#B3B8C6"/>
</linearGradient>
<linearGradient id="paint7_linear_1281:20951" x1="17.4206" y1="17.5231" x2="82.4584" y2="82.5608" gradientUnits="userSpaceOnUse">
<stop stop-color="#FCFDFF"/>
<stop offset="0.2208" stop-color="#F7F9FB"/>
<stop offset="0.4652" stop-color="#EAECF1"/>
<stop offset="0.7209" stop-color="#D4D7E0"/>
<stop offset="0.983" stop-color="#B5BAC8"/>
<stop offset="1" stop-color="#B3B8C6"/>
</linearGradient>
<linearGradient id="paint8_linear_1281:20951" x1="17.7789" y1="17.8813" x2="82.1004" y2="82.2028" gradientUnits="userSpaceOnUse">
<stop stop-color="#FCFDFF"/>
<stop offset="0.2208" stop-color="#F7F9FB"/>
<stop offset="0.4652" stop-color="#EAECF1"/>
<stop offset="0.7209" stop-color="#D4D7E0"/>
<stop offset="0.983" stop-color="#B5BAC8"/>
<stop offset="1" stop-color="#B3B8C6"/>
</linearGradient>
<linearGradient id="paint9_linear_1281:20951" x1="18.1371" y1="18.2394" x2="81.7423" y2="81.8446" gradientUnits="userSpaceOnUse">
<stop stop-color="#FCFDFF"/>
<stop offset="0.2208" stop-color="#F7F9FB"/>
<stop offset="0.4652" stop-color="#EAECF1"/>
<stop offset="0.7209" stop-color="#D4D7E0"/>
<stop offset="0.983" stop-color="#B5BAC8"/>
<stop offset="1" stop-color="#B3B8C6"/>
</linearGradient>
<linearGradient id="paint10_linear_1281:20951" x1="18.4953" y1="18.5976" x2="81.3842" y2="81.4864" gradientUnits="userSpaceOnUse">
<stop stop-color="#FCFDFF"/>
<stop offset="0.2208" stop-color="#F7F9FB"/>
<stop offset="0.4652" stop-color="#EAECF1"/>
<stop offset="0.7209" stop-color="#D4D7E0"/>
<stop offset="0.983" stop-color="#B5BAC8"/>
<stop offset="1" stop-color="#B3B8C6"/>
</linearGradient>
<linearGradient id="paint11_linear_1281:20951" x1="18.853" y1="18.9557" x2="81.0257" y2="81.1283" gradientUnits="userSpaceOnUse">
<stop stop-color="#FCFDFF"/>
<stop offset="0.2208" stop-color="#F7F9FB"/>
<stop offset="0.4652" stop-color="#EAECF1"/>
<stop offset="0.7209" stop-color="#D4D7E0"/>
<stop offset="0.983" stop-color="#B5BAC8"/>
<stop offset="1" stop-color="#B3B8C6"/>
</linearGradient>
<linearGradient id="paint12_linear_1281:20951" x1="19.2112" y1="19.3139" x2="80.6676" y2="80.7702" gradientUnits="userSpaceOnUse">
<stop stop-color="#FCFDFF"/>
<stop offset="0.2208" stop-color="#F7F9FB"/>
<stop offset="0.4652" stop-color="#EAECF1"/>
<stop offset="0.7209" stop-color="#D4D7E0"/>
<stop offset="0.983" stop-color="#B5BAC8"/>
<stop offset="1" stop-color="#B3B8C6"/>
</linearGradient>
<linearGradient id="paint13_linear_1281:20951" x1="19.5696" y1="19.6721" x2="80.3098" y2="80.4122" gradientUnits="userSpaceOnUse">
<stop stop-color="#FCFDFF"/>
<stop offset="0.2208" stop-color="#F7F9FB"/>
<stop offset="0.4652" stop-color="#EAECF1"/>
<stop offset="0.7209" stop-color="#D4D7E0"/>
<stop offset="0.983" stop-color="#B5BAC8"/>
<stop offset="1" stop-color="#B3B8C6"/>
</linearGradient>
<linearGradient id="paint14_linear_1281:20951" x1="19.9278" y1="20.0301" x2="79.9517" y2="80.054" gradientUnits="userSpaceOnUse">
<stop stop-color="#FCFDFF"/>
<stop offset="0.2208" stop-color="#F7F9FB"/>
<stop offset="0.4652" stop-color="#EAECF1"/>
<stop offset="0.7209" stop-color="#D4D7E0"/>
<stop offset="0.983" stop-color="#B5BAC8"/>
<stop offset="1" stop-color="#B3B8C6"/>
</linearGradient>
<linearGradient id="paint15_linear_1281:20951" x1="20.2858" y1="20.3883" x2="79.5934" y2="79.696" gradientUnits="userSpaceOnUse">
<stop stop-color="#FCFDFF"/>
<stop offset="0.2208" stop-color="#F7F9FB"/>
<stop offset="0.4652" stop-color="#EAECF1"/>
<stop offset="0.7209" stop-color="#D4D7E0"/>
<stop offset="0.983" stop-color="#B5BAC8"/>
<stop offset="1" stop-color="#B3B8C6"/>
</linearGradient>
<linearGradient id="paint16_linear_1281:20951" x1="20.644" y1="20.7464" x2="79.2353" y2="79.3377" gradientUnits="userSpaceOnUse">
<stop stop-color="#FCFDFF"/>
<stop offset="0.2208" stop-color="#F7F9FB"/>
<stop offset="0.4652" stop-color="#EAECF1"/>
<stop offset="0.7209" stop-color="#D4D7E0"/>
<stop offset="0.983" stop-color="#B5BAC8"/>
<stop offset="1" stop-color="#B3B8C6"/>
</linearGradient>
<linearGradient id="paint17_linear_1281:20951" x1="21.0022" y1="21.1046" x2="78.8772" y2="78.9797" gradientUnits="userSpaceOnUse">
<stop stop-color="#FCFDFF"/>
<stop offset="0.2208" stop-color="#F7F9FB"/>
<stop offset="0.4652" stop-color="#EAECF1"/>
<stop offset="0.7209" stop-color="#D4D7E0"/>
<stop offset="0.983" stop-color="#B5BAC8"/>
<stop offset="1" stop-color="#B3B8C6"/>
</linearGradient>
<linearGradient id="paint18_linear_1281:20951" x1="21.3604" y1="21.4628" x2="78.5192" y2="78.6216" gradientUnits="userSpaceOnUse">
<stop stop-color="#FCFDFF"/>
<stop offset="0.2208" stop-color="#F7F9FB"/>
<stop offset="0.4652" stop-color="#EAECF1"/>
<stop offset="0.7209" stop-color="#D4D7E0"/>
<stop offset="0.983" stop-color="#B5BAC8"/>
<stop offset="1" stop-color="#B3B8C6"/>
</linearGradient>
<linearGradient id="paint19_linear_1281:20951" x1="21.7186" y1="21.821" x2="78.1611" y2="78.2635" gradientUnits="userSpaceOnUse">
<stop stop-color="#FCFDFF"/>
<stop offset="0.2208" stop-color="#F7F9FB"/>
<stop offset="0.4652" stop-color="#EAECF1"/>
<stop offset="0.7209" stop-color="#D4D7E0"/>
<stop offset="0.983" stop-color="#B5BAC8"/>
<stop offset="1" stop-color="#B3B8C6"/>
</linearGradient>
<clipPath id="clip0_1281:20951">
<rect width="33" height="41" fill="white" transform="translate(33 30)"/>
</clipPath>
</defs>
</svg>
