<svg width="45" height="45" viewBox="0 0 45 45" fill="none" xmlns="http://www.w3.org/2000/svg">
<path d="M32.9 29.4H24C22.9 29.4 22 30.3 22 31.4V35.4C22 36.5 22.9 37.4 24 37.4H32.9C34 37.4 34.9 36.5 34.9 35.4V31.4C34.9 30.3 34 29.4 32.9 29.4ZM23.3 35.5V31.5C23.3 31.1 23.6 30.8 24 30.8H27.8V36.2H24C23.6 36.1 23.3 35.8 23.3 35.5ZM33.5 35.5C33.5 35.9 33.2 36.2 32.8 36.2H29V30.8H32.8C33.2 30.8 33.5 31.1 33.5 31.5V35.5Z" fill="currentColor"/>
<path d="M43.6 42.7999H39.4V27.1999C39.6 27.1999 39.8 27.1999 40 27.1999C42.3 27.1999 44.2 25.2999 44.2 22.8999V22.7999C44.2 22.6999 44.2 22.6999 44.2 22.5999C44.2 22.5999 44.2 22.5999 44.2 22.4999C44.2 22.3999 44.1 22.3999 44.1 22.2999L39.2 17.4999C39.1 17.3999 38.9 17.2999 38.7 17.2999H33.3H27.7H26.8C26.4 17.2999 26.1 17.5999 26.1 17.9999C26.1 18.3999 26.4 18.6999 26.8 18.6999H27.2L28.3 22.0999H22.1H15.9L17 18.6999H17.4C17.8 18.6999 18.1 18.3999 18.1 17.9999C18.1 17.5999 17.8 17.2999 17.4 17.2999H16.5H10.9H5.5C5.3 17.2999 5.1 17.3999 5 17.4999L0.1 22.2999C0 22.3999 0 22.3999 0 22.4999C0 22.4999 0 22.4999 0 22.5999C0 22.6999 0 22.6999 0 22.7999C0 22.7999 0 22.7999 0 22.8999C0 25.2999 1.9 27.1999 4.2 27.1999C4.4 27.1999 4.6 27.1999 4.8 27.1999V42.7999H0.7C0.3 42.7999 0 43.0999 0 43.4999C0 43.8999 0.3 44.1999 0.7 44.1999H5.6H10.1H18.2H38.8H43.7C44.1 44.1999 44.4 43.8999 44.4 43.4999C44.3 43.0999 44 42.7999 43.6 42.7999ZM40 25.8999C38.6 25.8999 37.5 24.8999 37.2 23.4999H42.9C42.6 24.8999 41.4 25.8999 40 25.8999ZM42 22.1999H36.9L34.7 18.7999H38.6L42 22.1999ZM33 18.7999L35.2 22.1999H29.8L28.7 18.7999H33ZM35.7 23.5999C35.4 24.9999 34.2 25.9999 32.9 25.9999C31.5 25.9999 30.4 24.9999 30.1 23.5999H35.7ZM28.5 23.5999C28.2 24.9999 27 25.9999 25.7 25.9999C24.3 25.9999 23.2 24.9999 22.9 23.5999H28.5ZM14.5 22.1999H9.1L11.3 18.7999H15.7L14.5 22.1999ZM14.2 23.5999C13.9 24.9999 12.7 25.9999 11.4 25.9999C10 25.9999 8.9 24.9999 8.6 23.5999H14.2ZM21.4 23.5999C21.1 24.9999 19.9 25.9999 18.6 25.9999C17.2 25.9999 16.1 24.9999 15.8 23.5999H21.4ZM5.8 18.7999H9.7L7.5 22.1999H2.3L5.8 18.7999ZM1.4 23.5999H7.1C6.8 24.9999 5.6 25.9999 4.3 25.9999C2.9 25.8999 1.7 24.8999 1.4 23.5999ZM17.4 36.0999H10.7V31.3999C10.7 30.9999 11 30.6999 11.4 30.6999H16.8C17.2 30.6999 17.5 30.9999 17.5 31.3999V36.0999H17.4ZM10.7 37.4999H17.4V42.7999H10.7V37.4999ZM18.8 42.7999V31.3999C18.8 30.2999 17.9 29.3999 16.8 29.3999H11.4C10.3 29.3999 9.4 30.2999 9.4 31.3999V42.6999H6.2V26.6999C6.9 26.2999 7.4 25.7999 7.8 25.1999C8.6 26.3999 9.9 27.1999 11.4 27.1999C12.9 27.1999 14.2 26.3999 15 25.1999C15.8 26.3999 17.1 27.1999 18.6 27.1999C20.1 27.1999 21.4 26.3999 22.2 25.1999C23 26.3999 24.3 27.1999 25.8 27.1999C27.3 27.1999 28.6 26.3999 29.4 25.1999C30.2 26.3999 31.5 27.1999 33 27.1999C34.5 27.1999 35.8 26.3999 36.6 25.1999C37 25.8999 37.6 26.3999 38.2 26.6999V42.6999H18.8V42.7999Z" fill="currentColor"/>
<path d="M22.1 21.1C22.3 21.1 22.5 21 22.6 20.9C22.9 20.6 29.4 12.8 29.4 7.39998C29.4 3.39998 26.1 0.0999756 22.1 0.0999756C18.1 0.0999756 14.8 3.39998 14.8 7.39998C14.8 12.9 21.3 20.6 21.6 20.9C21.7 21 21.9 21.1 22.1 21.1ZM22.1 1.29998C25.4 1.29998 28.1 3.99998 28.1 7.29998C28.1 11.4 23.6 17.4 22.1 19.3C20.6 17.4 16.1 11.4 16.1 7.29998C16.2 3.99998 18.8 1.29998 22.1 1.29998Z" fill="currentColor"/>
<path d="M25.5 7.4C25.5 5.5 24 4 22.1 4C20.2 4 18.7 5.5 18.7 7.3C18.7 9.2 20.2 10.6 22.1 10.6C24 10.7 25.5 9.2 25.5 7.4ZM20.1 7.4C20.1 6.3 21 5.4 22.1 5.4C23.2 5.4 24.1 6.3 24.1 7.4C24.1 8.5 23.2 9.4 22.1 9.4C21 9.4 20.1 8.5 20.1 7.4Z" fill="currentColor"/>
</svg>
