<svg width="50" height="34" viewBox="0 0 50 34" fill="none" xmlns="http://www.w3.org/2000/svg">
<path d="M14.4 32.2C14.4 32.4 14.5 32.7 14.6 32.8C14.8 33 15 33.1 15.2 33.1H34.3C34.8 33.1 35.1 32.7 35.2 32.3C35.2 32.2 35.2 31 35 29.3H49C49.5 29.3 49.8 28.9 49.9 28.5C49.9 28.2 50.1 21.2 45.7 17.2C45.4 16.9 44.9 16.9 44.6 17.2C44.5 17.2 39.4 21.1 34.7 17.2C34.4 16.9 33.9 16.9 33.6 17.2C33.5 17.3 32.1 18.5 30.9 20.9C30.6 20.8 30.3 20.8 30 21C29.8 21.2 24.8 24.9 20.1 21C19.9 20.8 19.6 20.8 19.3 20.8C18.7 19.5 17.8 18.2 16.7 17.1C16.4 16.8 15.9 16.8 15.6 17.1C15.5 17.1 10.4 21 5.7 17.1C5.4 16.8 4.9 16.8 4.6 17.1C4.3 17.2 0.1 21 0 28.4C0 28.6 0.1 28.9 0.2 29C0.4 29.2 0.6 29.3 0.8 29.3H14.7C14.6 30.2 14.5 31.2 14.4 32.2ZM34.2 18.9C38.7 22.1 43.3 19.9 45 18.9C47.6 21.7 48.1 25.8 48.2 27.6H34.8C34.4 25.8 33.6 23.9 32.2 22.2C32.9 20.5 33.7 19.4 34.2 18.9ZM19.6 22.7C24.1 25.9 28.7 23.7 30.4 22.7C33 25.5 33.5 29.6 33.6 31.4H16.3C16.5 26.7 18.6 23.8 19.6 22.7ZM1.8 27.5C2.1 22.9 4.2 19.9 5.2 18.8C9.7 22 14.3 19.8 16 18.8C16.9 19.8 17.5 20.9 18 22C17.1 23.1 15.9 24.9 15.2 27.5H1.8Z" fill="currentColor"/>
<path d="M2.19995 8.2C2.19995 12.7 5.89995 16.4 10.4 16.4C12.6 16.4 14.6 15.5 16.2 14C16.4 13.8 16.6 13.6 16.8 13.3C17.4 17.2 20.7999 20.2 24.9 20.2C27.1 20.2 29.1 19.4 30.7 17.8C32 16.5 32.7999 14.9 33 13.1C34.5 15.1 36.9 16.3 39.5 16.3C41.7 16.3 43.7 15.4 45.2999 13.9C46.7999 12.4 47.7 10.3 47.7 8.1C47.6 3.7 44 0 39.5 0C37.2999 0 35.2999 0.9 33.7 2.4C32.4 3.7 31.6 5.3 31.4 7.1C29.9 5.1 27.6 3.9 24.9 3.9C22.6999 3.9 20.7 4.8 19.1 6.3C18.9 6.5 18.7 6.7 18.5 7C17.9 3 14.5 0 10.4 0C8.19995 0 6.19995 0.9 4.59995 2.4C3.09995 3.9 2.19995 6 2.19995 8.2ZM34.9 3.6C36.1 2.4 37.7 1.7 39.5 1.7C43.0999 1.7 45.9 4.6 45.9 8.1C45.9 9.8 45.2 11.4 44 12.7C42.7999 13.9 41.2 14.6 39.4 14.6C35.8 14.6 33 11.7 33 8.2C33 6.5 33.7 4.8 34.9 3.6ZM20.2999 7.5C21.5 6.3 23.1 5.6 24.9 5.6C28.5 5.6 31.2999 8.5 31.4 12C31.4 13.7 30.7 15.3 29.5 16.6C28.2999 17.8 26.6999 18.5 24.9 18.5C21.2999 18.5 18.5 15.6 18.5 12.1C18.4 10.3 19.0999 8.7 20.2999 7.5ZM10.4 1.7C14 1.7 16.8 4.6 16.8 8.1C16.8 9.8 16.1 11.4 14.9 12.7C13.7 13.9 12.1 14.6 10.3 14.6C6.89995 14.6 3.99995 11.7 3.99995 8.2C3.99995 6.5 4.69995 4.9 5.89995 3.6C7.09995 2.4 8.69995 1.7 10.4 1.7Z" fill="currentColor"/>
</svg>
