<svg width="52" height="38" viewBox="0 0 52 38" fill="none" xmlns="http://www.w3.org/2000/svg">
<path d="M34.3 23.4C34.3 23.8 34.5001 24.1 34.9001 24.2V22.5H34.8C34.5 22.8 34.3 23.1 34.3 23.4Z" fill="currentColor"/>
<path d="M36.8 28.8C36.9 28.8 36.9 28.7001 37 28.7001C37.4 28.5001 37.5 28.1001 37.6 27.7001C37.6 27.2001 37.3 26.9 36.8 26.8V28.8Z" fill="currentColor"/>
<path d="M31.7 0.400024L31.6 0.300024C31.6 0.300024 31.6 0.300024 31.5 0.300024C30.6 2.3514e-05 29.9 -0.0999765 29 0.100024C29 0.100024 29 0.100024 28.9 0.100024H28.8C21.1 2.20002 10.8 5.00002 5.7 6.40002H5.6L5.2 6.60002C3.4 7.10002 1.8 7.30002 1 7.30002C0.5 7.30002 0 7.70002 0 8.30002V9.00002C0 9.10002 0 9.10002 0 9.20002V18C0 18.3 0 18.5 0.2 18.7C0.4 19 0.7 19.1 1 19.1C3.6 19.1 5.4 20.5 7.5 22.2C8 22.6 8.4 22.9 8.9 23.3C10.8 24.7 13.2 26.2 16.7 26.2C18.2 26.2 19.3 26.2 20.3 26.2H24.4C24.5 32.6 29.5 37.9 35.6 37.9C41.8 37.9 46.8 32.5 46.8 26C46.8 24.7 46.6 23.5 46.2 22.3H46.3C46.5 22.4 46.6 22.4 46.8 22.4C47.3 22.5 47.7 22.5 48.1 22.4C50.2 22.2 51.8 20.4 51.8 18.1C51.8 17 51.4 15.9 50.6 15.1C50.6 15.1 50.6 15.1 50.6 15C50.3 14.7 50 14.5 49.7 14.3L32 0.500024C31.9 0.500024 31.8 0.400024 31.7 0.400024ZM35.6 36.5C30.4 36.5 26 32.1 25.7 26.6H28.2C29.6 26.6 30.8 25.6 31.3 24.3C31.4 24.7 31.6 25.1 31.8 25.4C32.4 26.2 33.2 26.7 34.3 27V27.7C34.2 27.6 34.1 27.5 33.9 27.3C33.7 27 33.4 26.8 33 26.8C32.8 26.8 32.6 26.9 32.4 26.9H32.3L31.3 27.5C30.9 27.7 30.8 28.1 30.8 28.5C30.8 28.7 30.9 29 31 29.2C31.3 29.6 31.7 30 32.1 30.4C32.7 30.9 33.4 31.3 34.1 31.5V31.9C34.1 32.6 34.6 33.1 35.2 33.1H36.1C36.7 33.1 37.2 32.6 37.2 31.9V31.5C37.8 31.3 38.4 31.1 38.9 30.7C39.9 30 40.5 28.9 40.5 27.7C40.5 26.9 40.3 26.2 39.8 25.6C39.2 24.8 38.3 24.3 37.2 24.1V23.9C37.3 23.9 37.5 24 37.6 24C37.9 24 38.1 23.9 38.2 23.8C38.2 23.8 38.2 23.8 38.3 23.8L39.4 23.1C39.7 22.9 39.9 22.6 39.9 22.2C39.9 21.9 39.8 21.7 39.6 21.4C39 20.6 38.2 20.1 37.2 19.8V19.3C37.2 18.6 36.7 18.1 36.1 18.1H35.2C34.6 18.1 34.1 18.6 34.1 19.3V19.8C33.8 19.9 33.4 20 33.2 20.1C32 20.7 31.5 21.4 31.2 22.2C31 21.2 30.3 20.4 29.4 19.9C28.9 19.7 28.5 19.6 28 19.6H27.4C29.3 16.8 32.3 15.1 35.5 15.1C35.6 15.1 35.8 15.1 35.9 15.1L43.6 20.4L44.4 21C45.1 22.5 45.4 24.1 45.4 25.7C45.5 31.7 41.1 36.5 35.6 36.5ZM39.4 21.8C39.5 21.9 39.5 22 39.5 22.1C39.5 22.3 39.4 22.4 39.3 22.5L38.3 23.2C38.3 23.2 38.1 23.3 38 23.3C37.8 23.3 37.7 23.2 37.6 23.1C37.4 22.9 37.2 22.8 37 22.7V24.6C38.2 24.8 39.2 25.3 39.8 26C40.2 26.5 40.3 27 40.3 27.7C40.3 28.8 39.8 29.6 39 30.2C38.4 30.6 37.8 30.8 37.1 31V31.9C37.1 32.2 36.9 32.4 36.6 32.4H35.7C35.4 32.4 35.2 32.2 35.2 31.9V31C34.4 30.9 33.6 30.5 32.9 30C32.5 29.7 32.2 29.3 31.9 28.9C31.8 28.8 31.8 28.7 31.8 28.6C31.8 28.4 31.9 28.3 32 28.2L33 27.6C33 27.6 33.2 27.5 33.3 27.5C33.5 27.5 33.6 27.6 33.7 27.7C34.2 28.2 34.7 28.6 35.2 28.8V26.5C34 26.3 33.1 25.8 32.5 25C32.2 24.5 32 24 32 23.4C32 22.2 32.6 21.3 33.8 20.7C34.2 20.5 34.6 20.4 35.1 20.3V19.3C35.1 19 35.3 18.8 35.6 18.8H36.5C36.8 18.8 37 19 37 19.3V20.4C37.9 20.5 38.7 21 39.4 21.8ZM25.8 19.9V20H20.8C19.9 19.8 19.2 18.9 19.2 17.9C19.2 17.2 19.6 16.5 20.1 16.1C20.4 16 21.1 15.8 21.9 15.6L22.6 15.4C23.4 15.2 24.3 14.9 25.2 14.7L25.4 14.6C29.1 13.5 31.5 12.9 32.2 12.7C32.4 12.7 32.6 12.7 32.7 12.7L34.4 13.9C30.8 14.3 27.6 16.5 25.8 19.9ZM48.6 15.8L48.7 15.9C48.9 16 49.1 16.1 49.2 16.3C49.6 16.8 49.9 17.4 49.9 18C49.9 19.2 49 20.3 47.9 20.4H47.8C47.6 20.4 47.4 20.5 47.2 20.4C47.1 20.4 47 20.4 47 20.3C46.9 20.3 46.8 20.2 46.7 20.2C46.6 20.2 46.6 20.1 46.5 20.1L44.6 18.6L33.6 11C33.5 10.9 33.4 10.9 33.3 10.9C32.9 10.8 32.5 10.8 31.9 10.8C31.8 10.8 31.8 10.8 31.7 10.8C31.1 11 27.6 11.9 24.8 12.7L24.6 12.8C23.7 13.1 22.9 13.3 22 13.5L21.3 13.7C20.3 14 19.5 14.2 19.3 14.3C19.2 14.3 19.1 14.4 19.1 14.4C17.9 15.1 17.1 16.5 17.1 17.9C17.1 19.9 18.5 21.6 20.3 21.9C20.4 21.9 20.4 21.9 20.5 21.9H27.4C27.9 21.9 28.4 22.4 28.4 23C28.4 23.6 28 24.1 27.4 24.1H20C19 24.1 17.9 24.1 16.4 24.1C13.5 24.1 11.5 22.9 9.8 21.6C9.3 21.3 8.9 20.9 8.5 20.6C6.6 19.1 4.6 17.5 1.8 17.2V10.3V9.30002V9.20002C2.8 9.10002 4.1 8.80002 5.7 8.40002H5.8L6.1 8.30002C11.4 6.90002 21.7 4.10002 29.4 2.00002H29.5C30 1.90002 30.4 1.90002 30.9 2.10002H31L47.9 15.2L48.6 15.8Z" fill="currentColor"/>
</svg>
