<svg width="45" height="34" viewBox="0 0 45 34" fill="none" xmlns="http://www.w3.org/2000/svg">
<path d="M38.2 1H27.2C26.2 1 25.3 1.4 24.6 2V0H1.9V20C0.8 20.5 0 21.5 0 22.8V25.3C0 26.9 1.3 28.3 3 28.3H5.6C5.6 28.3 5.6 28.3 5.6 28.4C5.6 31.4 8 33.8 11 33.8C14 33.8 16.4 31.4 16.4 28.4C16.4 28.4 16.4 28.4 16.4 28.3H30.4C30.4 28.3 30.4 28.3 30.4 28.4C30.4 31.4 32.8 33.8 35.8 33.8C38.8 33.8 41.2 31.4 41.2 28.4C41.2 28.2 41.2 27.9 41.1 27.7C43.3 26.7 44.8 24.4 44.8 21.8V7.5C44.7 3.9 41.8 1 38.2 1ZM3.2 1.3H23.3V4.9V19.8H3.2V1.3ZM10.9 32.3C8.7 32.3 6.9 30.5 6.9 28.3C6.9 26.1 8.7 24.3 10.9 24.3C13.1 24.3 14.9 26.1 14.9 28.3C15 30.5 13.2 32.3 10.9 32.3ZM35.7 32.3C33.5 32.3 31.7 30.5 31.7 28.3C31.7 26.1 33.5 24.3 35.7 24.3C37.9 24.3 39.7 26.1 39.7 28.3C39.7 30.5 37.9 32.3 35.7 32.3ZM43.4 21.7C43.4 23.7 42.3 25.4 40.7 26.3C39.9 24.3 38 22.9 35.7 22.9C33.2 22.9 31.1 24.6 30.5 26.9H16.1C15.5 24.6 13.4 22.9 10.9 22.9C8.4 22.9 6.3 24.6 5.7 26.9H3C2.1 26.9 1.4 26.2 1.4 25.3V22.8C1.4 21.9 2.1 21.2 3 21.2H24.7V4.9C24.7 3.5 25.9 2.3 27.3 2.3H38.3C41.1 2.3 43.5 4.6 43.5 7.5V21.7H43.4Z" fill="currentColor"/>
<path d="M10.9 25.7C9.50005 25.7 8.30005 26.8999 8.30005 28.2999C8.30005 29.6999 9.50005 30.9 10.9 30.9C12.3 30.9 13.5 29.6999 13.5 28.2999C13.5 26.8999 12.4 25.7 10.9 25.7ZM10.9 29.5C10.2 29.5 9.60005 28.9 9.60005 28.2C9.60005 27.5 10.2 26.9 10.9 26.9C11.6 26.9 12.2 27.5 12.2 28.2C12.2 29 11.6 29.5 10.9 29.5Z" fill="currentColor"/>
<path d="M35.7 25.7C34.3 25.7 33.1 26.8999 33.1 28.2999C33.1 29.6999 34.3 30.9 35.7 30.9C37.1 30.9 38.3 29.6999 38.3 28.2999C38.3 26.8999 37.1 25.7 35.7 25.7ZM35.7 29.5C35 29.5 34.4 28.9 34.4 28.2C34.4 27.5 35 26.9 35.7 26.9C36.4 26.9 37 27.5 37 28.2C36.9 29 36.4 29.5 35.7 29.5Z" fill="currentColor"/>
<path d="M37.5 6.59998H34.4H26.9V10.1V12.6V16H30.4H34.4H37.5C39.4 16 41 14.4 41 12.5V9.99998C41 8.09998 39.5 6.59998 37.5 6.59998ZM39.7 12.5C39.7 13.7 38.7 14.7 37.5 14.7H34.4H33.7H33H30.3H28.5H28.2V14.4V12.6V10.1V8.19998V7.89998H28.6H33H33.7H34.4H37.5C38.7 7.89998 39.7 8.89998 39.7 10.1V12.5Z" fill="currentColor"/>
</svg>
