<svg width="51" height="43" viewBox="0 0 51 43" fill="none" xmlns="http://www.w3.org/2000/svg">
<path d="M12.5 36.9C12.1 36.9 11.7 37.2 11.7 37.7C11.7 38.1 12 38.5 12.5 38.5C12.9 38.5 13.3 38.2 13.3 37.7C13.3 37.2 12.9 36.9 12.5 36.9Z" fill="currentColor"/>
<path d="M50 0C46.5 0 43.5 2.3 42.6 5.7L42.2 7.3H33.9H25.7H17.1H8.89997H3.49997C2.39997 7.3 1.39997 7.8 0.699966 8.7C-3.41535e-05 9.6 -0.200034 10.7 0.0999658 11.8L4.09997 27.3C4.49997 28.8 5.89997 29.9 7.49997 29.9H12H18.1H24.5H30.6H36.3L35.5 33C35.3 33 35.1 33 34.9 33C32.5 33 30.5 34.8 30.1 37.1H17.3C16.9 34.8 14.9 33 12.5 33C9.79997 33 7.69997 35.2 7.69997 37.8C7.69997 40.5 9.89997 42.6 12.5 42.6C14.9 42.6 16.9 40.8 17.3 38.5H30.2C30.6 40.8 32.6 42.6 35 42.6C37.7 42.6 39.8 40.4 39.8 37.8C39.8 35.9 38.7 34.2 37 33.4L38.1 29.3L38.2 29L44.2 6.1C44.9 3.5 47.3 1.6 50.1 1.6C50.5 1.6 50.9 1.3 50.9 0.8C50.8 0.4 50.4 0 50 0ZM12.5 41C10.7 41 9.19997 39.5 9.19997 37.7C9.19997 35.9 10.7 34.4 12.5 34.4C14.3 34.4 15.8 35.8 15.8 37.6C15.8 37.6 15.8 37.6 15.8 37.7C15.8 37.8 15.8 37.7 15.8 37.8C15.8 39.5 14.3 41 12.5 41ZM38.3 37.7C38.3 39.5 36.8 41 35 41C33.2 41 31.7 39.5 31.7 37.7C31.7 35.9 33.2 34.4 35 34.4C36.8 34.4 38.3 35.9 38.3 37.7ZM38.6 21.3H32.7L33.5 15.8H40L38.8 20.6L38.6 21.3ZM2.79997 15.8H9.29997L10.1 21.3H4.19997L2.79997 15.8ZM10.8 15.8H16.7L17 21.3H11.7L10.8 15.8ZM18.3 15.8H24.6L24.3 21.3H18.6L18.3 15.8ZM26.1 15.8H32L31.2 21.3H25.9L26.1 15.8ZM40.4 14.3H33.7L34.5 8.8H41.8L40.4 14.3ZM32.2 14.3H26.2L26.5 8.8H33L32.2 14.3ZM24.9 8.8L24.6 14.3H18.2L17.9 8.8H24.9ZM16.4 8.8L16.7 14.3H10.7L9.79997 8.8H16.4ZM1.99997 9.6C2.39997 9.1 2.99997 8.8 3.59997 8.8H8.29997L9.09997 14.3H2.39997L1.59997 11.3C1.39997 10.7 1.59997 10.1 1.99997 9.6ZM5.59997 26.8L4.59997 22.8H10.3L11.1 28.3H7.59997C6.69997 28.3 5.89997 27.7 5.59997 26.8ZM11.9 22.8H17.1L17.4 28.3H12.8L11.9 22.8ZM18.9 28.3L18.6 22.8H24.1L23.8 28.3H18.9ZM25.4 28.3L25.7 22.8H30.9L30 28.3H25.4ZM31.6 28.3L32.4 22.8H38.2L36.8 28.3H31.6Z" fill="currentColor"/>
<path d="M34.2 37.7C34.2 38.1 34.6 38.5 35 38.5C35.4 38.5 35.7999 38.2 35.7999 37.7C35.7999 37.3 35.4 36.9 35 36.9C34.5 36.9 34.2 37.2 34.2 37.7Z" fill="currentColor"/>
</svg>
