<svg width="42" height="44" viewBox="0 0 42 44" fill="none" xmlns="http://www.w3.org/2000/svg">
<path d="M38.7 28.6C39.5 26.3001 39.5 23.9 39.4 21.5C39.2 18.3 39 15.1 38.7 12C38.5 10 37 8.60005 35.2 8.60005C34.5 8.60005 33.9 8.80005 33.4 9.10005C34 6.90005 33.2 5.50005 30.2 4.40005C30.3 2.80005 29.9 1.80005 28.4 1.00005C26.9 0.200049 25.5 0.100049 24.2 1.70005L23.8 2.10005C23.6 1.20005 22.8 0.600049 22.2 0.300049C21.2 -0.199951 20.2 -0.199951 19.4 0.300049C19.1 0.400049 18.9 0.500049 18.6 0.600049C18 0.900049 17.3 1.50005 17.1 2.40005L16.7 2.00005C15.3 0.400049 13.9 0.500049 12.5 1.40005C11 2.30005 10.7 3.30005 10.8 5.00005C8 6.10005 7.1 7.40005 7.6 9.40005C7.1 9.10005 6.5 9.00005 5.9 9.00005C4 9.10005 2.6 10.5 2.5 12.5C2.3 15.7 2.2 18.9 2.2 22.1C2.2 24.5 2.3 26.9 3.2 29.1L0 34.3L15.1 43.4001L18.5 37.7001C19.3 37.5 20 37.2001 20.8 36.8C21.7 37.3 22.6 37.6 23.5 37.8L27.2 43.4001L42 33.7001L38.7 28.6ZM28.5 7.60005C29.2 6.40005 29.9 6.10005 30.9 6.60005C31.9 7.10005 32.1 7.90005 31.5 9.10005C30.9 10.1 30.3 11.2 29.8 12.2C29.1 11.2 28.4 10.1 27.8 9.10005C27.9 8.50005 28.2 8.10005 28.5 7.60005ZM31.4 13.1C31.4 13.5 31.3 13.9 31.3 14.4C31.3 14.4 31.3 14.4 31.2 14.4C31 14.1 30.8 13.9 30.7 13.7C31 13.5 31.2 13.3 31.4 13.1ZM24.9 3.40005C25.5 2.30005 26.3 2.00005 27.1 2.30005C28.2 2.80005 28.5 3.80005 27.8 5.00005C27.4 5.70005 26.9 6.50005 26.5 7.20005C25.8 6.20005 25.1 5.10005 24.4 4.10005C24.6 3.90005 24.7 3.70005 24.9 3.40005ZM18.9 35.7001C18.6 35.8 18.2 35.9001 17.8 36L16.8 37.6L16.6 38L14.3 41.8L1.8 34.3L3.9 30.8L4.2 30.3L5 29C4.9 28.7001 4.7 28.4 4.6 28.1C4.5 27.8001 4.4 27.4 4.3 27.1C4.2 26.4 4.1 25.7001 4.1 25C4.1 20.9 4.2 16.8 4.3 12.7C4.3 11.6 5 10.8 5.9 10.8C6.7 10.8 7.3 11.2 7.6 11.9C7.4 12 7.2 12.2 6.9 12.5C5.6 13.9 5.5 16.1 6.5 17.7001C9.5 22.4001 12.5 27.1 15.6 31.8C16.2 32.7001 16.9 33.6 17.6 34.3C18.1 34.8 18.6 35.2 19.1 35.6C19 35.6 19 35.6001 18.9 35.7001ZM25.5 38L25.2 37.6L24.2 36C23.8 35.9001 23.5 35.8 23.1 35.7001C22.7 35.6001 22.3 35.4001 21.9 35.2001C20.1 34.3 18.7 32.9001 17.5 31.2001C15.9 28.9001 14.4 26.4 12.8 24.1C11.2 21.6 9.5 19.1 7.9 16.6C7.6 16.2001 7.2 15.5 7.3 14.8C7.4 14.3 7.7 13.9 8.1 13.6C8.5 13.3 9.3 13.4 9.7 13.6C10.2 13.8 10.6 14.4 10.9 14.9C11.7 16 12.4 17.2 13.2 18.4C13.6 19 13.9 19.5 14.3 20.1C14.7 20.7001 15.5 22.3001 16.4 21.7001C17.2 21.1 16.1 19.8 15.8 19.3C15.4 18.7 15.1 18.2001 14.7 17.6C13 15 11.3 12.4 9.7 9.70005C9 8.50005 9.2 7.70005 10.2 7.20005C11 6.70005 11.8 7.00005 12.5 8.10005C14.5 11.1 16.4 14.1 18.4 17.1C18.7 17.5 18.8 17.9 19.4 18C19.8 18.1 20.2 18.1 20.3 17.7001C20.5 17 20.3 16.7001 20 16.2001C17.7 12.7001 15.4 9.10005 13.1 5.60005C12.3 4.40005 12.6 3.40005 13.7 2.90005C14.5 2.50005 15.3 2.80005 16 3.90005C18.4 7.50005 20.7 11.1 23 14.7C23.4 15.3 23.8 15.8 24.5 15.3C25.2 14.8 24.8 14.3 24.4 13.7C22.6 10.9 20.8 8.20005 19 5.40005C18.8 5.00005 18.5 4.60005 18.4 4.20005C18.1 3.30005 18.8 2.30005 19.7 2.10005C20.7 1.90005 21.2 2.50005 21.6 3.20005C24.7 7.90005 27.7 12.6 30.9 17.3C31.2 17.7 31.8 18.2001 32.2 18.2001C33 18.2001 32.9 17.3001 33 16.7001C33.1 15.2001 33.2 13.7 33.3 12.2C33.4 11 34.1 10.4 35.1 10.4C36 10.4 36.7 11.1 36.8 12.2C37.1 16.3 37.3 20.4 37.5 24.5C37.5 25.2001 37.5 25.9 37.4 26.6C37.3 27 37.3 27.3001 37.2 27.6C37.1 27.9 37 28.2001 36.9 28.5L37.7 29.7001L38 30.2001L40.3 33.6L28.1 41.6L25.5 38Z" fill="currentColor"/>
<path d="M28.9 19.2001C27.6 19.2001 26.3 19.9001 25.6 21.1001C24.9 19.9001 23.7 19.2001 22.3 19.2001C20.7 19.2001 19.2 20.3001 18.7 21.9001C18.5 22.4001 18.5 22.8001 18.5 23.3001C18.5 23.8001 18.6 24.2001 18.7 24.7001C18.7 24.7001 18.7 24.8001 18.8 24.8001L19.4 24.5001L18.8 24.8001L19.4 24.5001L18.8 24.8001C18.8 24.8001 18.8 24.8001 18.8 24.9001C19 25.3001 19.2 25.7001 19.4 26.0001C19.5 26.2001 19.7 26.3001 19.8 26.4001L25.6 32.6001L31.6 26.2001C32 25.8001 32.3 25.3001 32.5 24.7001C32.7 24.3001 32.7 23.8001 32.7 23.3001C32.8 21.0001 31.1 19.2001 28.9 19.2001ZM31.3 24.3001C31.2 24.7001 31 25.0001 30.7 25.3001L25.7 30.6001L20.8 25.5001C20.7 25.4001 20.6 25.3001 20.5 25.2001C20.3 25.0001 20.2 24.7001 20.1 24.4001C20.1 24.3001 20.1 24.3001 20 24.2001C19.9 23.9001 19.9 23.6001 19.9 23.3001C19.9 23.0001 20 22.6001 20.1 22.3001C20.5 21.2001 21.4 20.5001 22.5 20.5001C23.5 20.5001 24.4 21.1001 24.8 22.1001C25 22.5001 25.3 22.7001 25.8 22.7001C26.2 22.7001 26.6 22.5001 26.8 22.1001C27.2 21.1001 28.1 20.5001 29.1 20.5001C30.5 20.5001 31.7 21.8001 31.7 23.3001C31.5 23.6001 31.4 24.0001 31.3 24.3001Z" fill="currentColor"/>
</svg>
