<svg width="140" height="140" viewBox="0 0 140 140" fill="none" xmlns="http://www.w3.org/2000/svg">
<path opacity="0.05" d="M139.286 70.0001C139.286 108.286 108.286 139.286 70.0005 139.286C31.5719 139.429 0.571899 108.429 0.571899 70.0001C0.571899 31.7144 31.5719 0.714355 69.8576 0.714355C108.286 0.714355 139.286 31.7144 139.286 70.0001Z" fill="url(#paint0_linear_1281:21569)"/>
<path opacity="0.1" d="M138.572 70C138.572 107.857 107.858 138.571 70.0005 138.571C32.1434 138.571 1.42909 107.857 1.42909 70C1.28623 32.1429 32.0005 1.42859 69.8577 1.42859C107.858 1.42859 138.572 32.1429 138.572 70Z" fill="url(#paint1_linear_1281:21569)"/>
<path opacity="0.15" d="M137.858 70C137.858 107.571 107.429 137.857 69.8576 137.857C32.4291 138 2.00049 107.571 2.00049 70C2.00049 32.5714 32.4291 2.14282 69.8576 2.14282C107.429 2.14282 137.858 32.5714 137.858 70Z" fill="url(#paint2_linear_1281:21569)"/>
<path opacity="0.2" d="M137.143 70C137.143 107.143 107 137.286 69.8576 137.286C32.8576 137.286 2.71472 107.143 2.71472 70C2.71472 33 32.8576 2.85718 69.8576 2.85718C107 2.85718 137.143 33 137.143 70Z" fill="url(#paint3_linear_1281:21569)"/>
<path opacity="0.25" d="M136.429 70C136.429 106.714 106.715 136.571 69.8577 136.571C33.1434 136.571 3.42908 106.857 3.42908 70C3.42908 33.2857 33.1434 3.57141 69.8577 3.57141C106.715 3.57141 136.429 33.2857 136.429 70Z" fill="url(#paint4_linear_1281:21569)"/>
<path opacity="0.3" d="M135.715 69.9999C135.715 106.286 106.286 135.857 69.8576 135.857C33.5719 135.857 4.14331 106.429 4.14331 69.9999C4.14331 33.7142 33.5719 4.28564 69.8576 4.28564C106.286 4.28564 135.715 33.7142 135.715 69.9999Z" fill="url(#paint5_linear_1281:21569)"/>
<path opacity="0.35" d="M135 70C135 106 105.858 135.143 69.8576 135.143C34.0005 135.143 4.8576 106 4.8576 70C4.8576 34.1429 34.0005 5 69.8576 5C105.858 5 135 34.1429 135 70Z" fill="url(#paint6_linear_1281:21569)"/>
<path opacity="0.4" d="M134.286 70.0001C134.286 105.571 105.429 134.429 69.8576 134.429C34.429 134.429 5.5719 105.571 5.5719 70.0001C5.5719 34.5715 34.429 5.71436 69.8576 5.71436C105.429 5.71436 134.286 34.5715 134.286 70.0001Z" fill="url(#paint7_linear_1281:21569)"/>
<path opacity="0.45" d="M133.572 70.0001C133.572 105.143 105.001 133.714 69.8577 133.714C34.7148 133.714 6.14337 105.143 6.14337 70.0001C6.14337 34.8572 34.7148 6.28577 69.8577 6.28577C105.143 6.42862 133.572 34.8572 133.572 70.0001Z" fill="url(#paint8_linear_1281:21569)"/>
<path opacity="0.5" d="M132.858 70C132.858 104.714 104.715 133 69.8576 133C35.1433 133 7.00049 104.857 7.00049 70C7.00049 35.2857 35.1433 7.14282 69.8576 7.14282C104.715 7.14282 132.858 35.2857 132.858 70Z" fill="url(#paint9_linear_1281:21569)"/>
<path opacity="0.55" d="M132.143 70C132.143 104.429 104.286 132.286 69.8576 132.286C35.5719 132.286 7.71472 104.429 7.71472 70C7.71472 35.7143 35.5719 7.85718 69.8576 7.85718C104.286 7.85718 132.143 35.7143 132.143 70Z" fill="url(#paint10_linear_1281:21569)"/>
<path opacity="0.6" d="M131.429 70C131.429 104 103.858 131.571 69.8577 131.571C35.8577 131.571 8.42908 104 8.42908 70C8.42908 36 35.8577 8.57141 69.8577 8.57141C103.858 8.57141 131.429 36 131.429 70Z" fill="url(#paint11_linear_1281:21569)"/>
<path opacity="0.65" d="M130.715 69.9999C130.715 103.571 103.429 130.857 69.8576 130.857C36.2862 130.857 9.14331 103.714 9.14331 69.9999C9.14331 36.4285 36.2862 9.28564 69.8576 9.28564C103.572 9.28564 130.715 36.4285 130.715 69.9999Z" fill="url(#paint12_linear_1281:21569)"/>
<path opacity="0.7" d="M130 70C130 103.143 103.143 130.143 69.8576 130.143C36.7148 130.143 9.71478 103.286 9.71478 70C9.71478 36.8571 36.7148 10 69.8576 10C103.143 10 130 36.8571 130 70Z" fill="url(#paint13_linear_1281:21569)"/>
<path opacity="0.75" d="M129.286 70.0001C129.286 102.857 102.715 129.429 69.8576 129.429C37.1434 129.429 10.4291 102.857 10.4291 70.0001C10.4291 37.143 37.0005 10.5715 69.8576 10.5715C102.715 10.5715 129.286 37.2858 129.286 70.0001Z" fill="url(#paint14_linear_1281:21569)"/>
<path opacity="0.8" d="M128.572 70.0001C128.572 102.429 102.286 128.714 69.8577 128.714C37.4291 128.714 11.1434 102.429 11.1434 70.0001C11.1434 37.5715 37.4291 11.2858 69.8577 11.2858C102.286 11.2858 128.572 37.5715 128.572 70.0001Z" fill="url(#paint15_linear_1281:21569)"/>
<path opacity="0.85" d="M127.858 70C127.858 102 101.858 128 69.8577 128C37.8577 128 11.8577 102.143 11.8577 70C11.8577 38 37.8577 12 69.8577 12C102.001 12 127.858 38 127.858 70Z" fill="url(#paint16_linear_1281:21569)"/>
<path opacity="0.9" d="M127.143 70.0001C127.143 101.571 101.429 127.286 69.8576 127.286C38.2862 127.286 12.5719 101.571 12.5719 70.0001C12.5719 38.2858 38.2862 12.7144 69.8576 12.7144C101.572 12.7144 127.143 38.4286 127.143 70.0001Z" fill="url(#paint17_linear_1281:21569)"/>
<path opacity="0.95" d="M126.429 70C126.429 101.286 101.143 126.571 69.8577 126.571C38.7148 126.714 13.2863 101.286 13.2863 70C13.2863 38.8572 38.7148 13.4286 69.8577 13.4286C101.143 13.4286 126.429 38.8572 126.429 70Z" fill="url(#paint18_linear_1281:21569)"/>
<path d="M125.858 70C125.858 100.857 100.858 125.857 70.0005 125.857C39.0005 126 14.0005 100.857 14.0005 70C14.0005 39.1428 39.0005 14.1428 69.8576 14.1428C100.715 14.1428 125.858 39.1428 125.858 70Z" fill="url(#paint19_linear_1281:21569)"/>
<path d="M119.715 70C119.715 97.5714 97.429 119.857 69.8576 119.857C42.2862 119.857 20.1433 97.5714 20.1433 70C20.1433 42.4285 42.429 20.1428 70.0005 20.1428C97.5719 20.1428 119.715 42.5714 119.715 70Z" fill="#43A10B"/>
<g clip-path="url(#clip0_1281:21569)">
<path d="M91.6 58.6H81.5C81 58.6 80.7 59 80.7 59.4C80.7 59.9 81.1 60.2 81.5 60.2H91.7C91.9 60.2 92.1 60.4 92.1 60.6V87.5C92.1 87.7 91.9 87.9 91.7 87.9H49.1C48.9 87.9 48.7 87.7 48.7 87.5V60.6C48.7 60.4 48.9 60.2 49.1 60.2H59.3C59.8 60.2 60.1 59.8 60.1 59.4C60.1 58.9 59.7 58.6 59.3 58.6H49.1C48 58.6 47 59.5 47 60.7V87.6C47 88.7 47.9 89.7 49.1 89.7H91.7C92.8 89.7 93.8 88.8 93.8 87.6V60.6C93.7 59.5 92.8 58.6 91.6 58.6Z" fill="white"/>
<path d="M51.7 84.9V63.2H58C58.5 63.2 58.8 62.8 58.8 62.4C58.8 62 58.4 61.6 58 61.6H51.5C50.7 61.5 50 62.2 50 63V85.2C50 86 50.7 86.7 51.5 86.7H89.2C90 86.7 90.7 86 90.7 85.2V63C90.7 62.2 90 61.5 89.2 61.5H82.7C82.2 61.5 81.9 61.9 81.9 62.3C81.9 62.7 82.3 63.1 82.7 63.1H89V84.8H51.7V84.9Z" fill="white"/>
<path d="M76.7 73.6V64.9C76.7 64.4 76.3 64.1 75.9 64.1C75.5 64.1 75 64.4 75 64.9V73.6C75 74.1 75.4 74.4 75.8 74.4C76.2 74.4 76.7 74 76.7 73.6Z" fill="white"/>
<path d="M75.3 50.1C75.3 47.4 73.1 45.2 70.4 45.2C67.7 45.2 65.5 47.4 65.5 50.1C65.5 52.8 67.7 55 70.4 55C73.1 55 75.3 52.8 75.3 50.1ZM67.1 50.1C67.1 48.3 68.6 46.9 70.3 46.9C72 46.9 73.5 48.4 73.5 50.1C73.5 51.8 72 53.3 70.3 53.3C68.6 53.3 67.1 51.9 67.1 50.1Z" fill="white"/>
<path d="M65.7 73.6V68.1V64.9C65.7 64.4 65.3 64.1 64.9 64.1C64.5 64.1 64 64.4 64 64.9V68.1V73.6C64 74.1 64.4 74.4 64.8 74.4C65.2 74.4 65.7 74 65.7 73.6Z" fill="white"/>
<path d="M61 74.4C61.5 74.4 61.8 74 61.8 73.6V63C61.8 60.6 63.6 58.5 66.1 58.2C66.6 58.1 66.9 57.7 66.8 57.3C66.7 56.8 66.3 56.5 65.9 56.6C62.6 57 60.1 59.8 60.1 63.1V73.7C60.2 74 60.5 74.4 61 74.4Z" fill="white"/>
<path d="M74.8 56.5C74.3 56.5 73.9 56.8 73.9 57.2C73.8 57.7 74.2 58.1 74.6 58.1C77 58.4 78.9 60.4 78.9 62.9V73.5C78.9 74 79.3 74.3 79.7 74.3C80.1 74.3 80.5 73.9 80.5 73.5V63C80.5 59.7 78.1 56.9 74.8 56.5Z" fill="white"/>
<path d="M63.5 53.1C64.3 53.1 64.9 52.5 64.9 51.7V49.1V48.5C64.9 48.1 64.7 47.8 64.5 47.5C65.5 45.2 67.8 43.7 70.4 43.7C73 43.7 75.3 45.3 76.3 47.7C76.1 47.9 76 48.2 76 48.6V51.8C76 52.6 76.6 53.2 77.4 53.2C78.2 53.2 78.8 52.6 78.8 51.8V49.1V48.5C78.8 48 78.5 47.5 78 47.3C76.7 44.2 73.7 42 70.3 42C66.8 42 63.8 44.2 62.7 47.4C62.4 47.7 62.1 48.1 62.1 48.5V51.7C62.2 52.5 62.8 53.1 63.5 53.1Z" fill="white"/>
<path d="M68 81.2H54C53.5 81.2 53.2 81.6 53.2 82C53.2 82.4 53.6 82.7999 54 82.7999H68C68.5 82.7999 68.8 82.4 68.8 82C68.8 81.6 68.5 81.2 68 81.2Z" fill="white"/>
<path d="M53.2 78.4C53.2 78.9 53.6 79.2 54 79.2H68C68.5 79.2 68.8 78.8 68.8 78.4C68.8 77.9 68.4 77.6 68 77.6H54C53.5 77.5 53.2 77.9 53.2 78.4Z" fill="white"/>
<path d="M92.9 90.6H78.7C78.2 90.6 77.9 91 77.9 91.4C77.9 92.6 76.9 93.6 75.7 93.6H65C63.8 93.6 62.8 92.6 62.8 91.4C62.8 90.9 62.4 90.6 62 90.6H47.8C47.4 90.6 47 91 47 91.4V93.2C47 95.7 49 97.7 51.5 97.7H89.2C91.7 97.7 93.7 95.7 93.7 93.2V91.4C93.7 91 93.3 90.6 92.9 90.6ZM92 93.3C92 94.8 90.7 96.1 89.2 96.1H51.5C50 96.1 48.7 94.8 48.7 93.3V92.3H61.2C61.2 92.5 61.3 92.7 61.4 92.9C61.4 92.9 61.4 93 61.5 93C61.6 93.2 61.7 93.3 61.8 93.5C61.8 93.6 61.9 93.6 61.9 93.7C62 93.8 62.1 93.9 62.2 94.1C62.3 94.2 62.3 94.2 62.4 94.3C62.5 94.4 62.6 94.5 62.7 94.6C62.8 94.7 62.9 94.7 62.9 94.8C63 94.9 63.2 94.9 63.3 95C63.4 95 63.5 95.1 63.5 95.1C63.6 95.2 63.8 95.2 64 95.2C64.1 95.2 64.1 95.2 64.2 95.3C64.4 95.3 64.7 95.4 64.9 95.4H75.6C75.9 95.4 76.1 95.4 76.3 95.3C76.4 95.3 76.5 95.3 76.5 95.2C76.7 95.2 76.8 95.1 77 95.1C77.1 95.1 77.2 95 77.2 95C77.3 94.9 77.5 94.9 77.6 94.8C77.7 94.8 77.8 94.7 77.8 94.6C77.9 94.5 78 94.4 78.1 94.3C78.2 94.2 78.2 94.2 78.3 94.1C78.4 94 78.5 93.9 78.6 93.7C78.6 93.6 78.7 93.6 78.7 93.5C78.8 93.3 78.9 93.2 79 93C79 93 79 92.9 79.1 92.9C79.2 92.7 79.3 92.5 79.3 92.3H92V93.3Z" fill="white"/>
</g>
<defs>
<linearGradient id="paint0_linear_1281:21569" x1="20.8789" y1="21.0222" x2="118.952" y2="119.095" gradientUnits="userSpaceOnUse">
<stop stop-color="#FCFDFF"/>
<stop offset="0.2208" stop-color="#F7F9FB"/>
<stop offset="0.4652" stop-color="#EAECF1"/>
<stop offset="0.7209" stop-color="#D4D7E0"/>
<stop offset="0.983" stop-color="#B5BAC8"/>
<stop offset="1" stop-color="#B3B8C6"/>
</linearGradient>
<linearGradient id="paint1_linear_1281:21569" x1="21.3804" y1="21.5236" x2="118.45" y2="118.593" gradientUnits="userSpaceOnUse">
<stop stop-color="#FCFDFF"/>
<stop offset="0.2208" stop-color="#F7F9FB"/>
<stop offset="0.4652" stop-color="#EAECF1"/>
<stop offset="0.7209" stop-color="#D4D7E0"/>
<stop offset="0.983" stop-color="#B5BAC8"/>
<stop offset="1" stop-color="#B3B8C6"/>
</linearGradient>
<linearGradient id="paint2_linear_1281:21569" x1="21.8818" y1="22.025" x2="117.949" y2="118.092" gradientUnits="userSpaceOnUse">
<stop stop-color="#FCFDFF"/>
<stop offset="0.2208" stop-color="#F7F9FB"/>
<stop offset="0.4652" stop-color="#EAECF1"/>
<stop offset="0.7209" stop-color="#D4D7E0"/>
<stop offset="0.983" stop-color="#B5BAC8"/>
<stop offset="1" stop-color="#B3B8C6"/>
</linearGradient>
<linearGradient id="paint3_linear_1281:21569" x1="22.3832" y1="22.5265" x2="117.447" y2="117.591" gradientUnits="userSpaceOnUse">
<stop stop-color="#FCFDFF"/>
<stop offset="0.2208" stop-color="#F7F9FB"/>
<stop offset="0.4652" stop-color="#EAECF1"/>
<stop offset="0.7209" stop-color="#D4D7E0"/>
<stop offset="0.983" stop-color="#B5BAC8"/>
<stop offset="1" stop-color="#B3B8C6"/>
</linearGradient>
<linearGradient id="paint4_linear_1281:21569" x1="22.8846" y1="23.0278" x2="116.946" y2="117.089" gradientUnits="userSpaceOnUse">
<stop stop-color="#FCFDFF"/>
<stop offset="0.2208" stop-color="#F7F9FB"/>
<stop offset="0.4652" stop-color="#EAECF1"/>
<stop offset="0.7209" stop-color="#D4D7E0"/>
<stop offset="0.983" stop-color="#B5BAC8"/>
<stop offset="1" stop-color="#B3B8C6"/>
</linearGradient>
<linearGradient id="paint5_linear_1281:21569" x1="23.386" y1="23.5292" x2="116.445" y2="116.588" gradientUnits="userSpaceOnUse">
<stop stop-color="#FCFDFF"/>
<stop offset="0.2208" stop-color="#F7F9FB"/>
<stop offset="0.4652" stop-color="#EAECF1"/>
<stop offset="0.7209" stop-color="#D4D7E0"/>
<stop offset="0.983" stop-color="#B5BAC8"/>
<stop offset="1" stop-color="#B3B8C6"/>
</linearGradient>
<linearGradient id="paint6_linear_1281:21569" x1="23.8875" y1="24.0307" x2="115.943" y2="116.087" gradientUnits="userSpaceOnUse">
<stop stop-color="#FCFDFF"/>
<stop offset="0.2208" stop-color="#F7F9FB"/>
<stop offset="0.4652" stop-color="#EAECF1"/>
<stop offset="0.7209" stop-color="#D4D7E0"/>
<stop offset="0.983" stop-color="#B5BAC8"/>
<stop offset="1" stop-color="#B3B8C6"/>
</linearGradient>
<linearGradient id="paint7_linear_1281:21569" x1="24.3889" y1="24.5322" x2="115.442" y2="115.585" gradientUnits="userSpaceOnUse">
<stop stop-color="#FCFDFF"/>
<stop offset="0.2208" stop-color="#F7F9FB"/>
<stop offset="0.4652" stop-color="#EAECF1"/>
<stop offset="0.7209" stop-color="#D4D7E0"/>
<stop offset="0.983" stop-color="#B5BAC8"/>
<stop offset="1" stop-color="#B3B8C6"/>
</linearGradient>
<linearGradient id="paint8_linear_1281:21569" x1="24.8904" y1="25.0336" x2="114.941" y2="115.084" gradientUnits="userSpaceOnUse">
<stop stop-color="#FCFDFF"/>
<stop offset="0.2208" stop-color="#F7F9FB"/>
<stop offset="0.4652" stop-color="#EAECF1"/>
<stop offset="0.7209" stop-color="#D4D7E0"/>
<stop offset="0.983" stop-color="#B5BAC8"/>
<stop offset="1" stop-color="#B3B8C6"/>
</linearGradient>
<linearGradient id="paint9_linear_1281:21569" x1="25.3918" y1="25.535" x2="114.439" y2="114.583" gradientUnits="userSpaceOnUse">
<stop stop-color="#FCFDFF"/>
<stop offset="0.2208" stop-color="#F7F9FB"/>
<stop offset="0.4652" stop-color="#EAECF1"/>
<stop offset="0.7209" stop-color="#D4D7E0"/>
<stop offset="0.983" stop-color="#B5BAC8"/>
<stop offset="1" stop-color="#B3B8C6"/>
</linearGradient>
<linearGradient id="paint10_linear_1281:21569" x1="25.8932" y1="26.0365" x2="113.938" y2="114.081" gradientUnits="userSpaceOnUse">
<stop stop-color="#FCFDFF"/>
<stop offset="0.2208" stop-color="#F7F9FB"/>
<stop offset="0.4652" stop-color="#EAECF1"/>
<stop offset="0.7209" stop-color="#D4D7E0"/>
<stop offset="0.983" stop-color="#B5BAC8"/>
<stop offset="1" stop-color="#B3B8C6"/>
</linearGradient>
<linearGradient id="paint11_linear_1281:21569" x1="26.3946" y1="26.5378" x2="113.437" y2="113.58" gradientUnits="userSpaceOnUse">
<stop stop-color="#FCFDFF"/>
<stop offset="0.2208" stop-color="#F7F9FB"/>
<stop offset="0.4652" stop-color="#EAECF1"/>
<stop offset="0.7209" stop-color="#D4D7E0"/>
<stop offset="0.983" stop-color="#B5BAC8"/>
<stop offset="1" stop-color="#B3B8C6"/>
</linearGradient>
<linearGradient id="paint12_linear_1281:21569" x1="26.896" y1="27.0392" x2="112.935" y2="113.078" gradientUnits="userSpaceOnUse">
<stop stop-color="#FCFDFF"/>
<stop offset="0.2208" stop-color="#F7F9FB"/>
<stop offset="0.4652" stop-color="#EAECF1"/>
<stop offset="0.7209" stop-color="#D4D7E0"/>
<stop offset="0.983" stop-color="#B5BAC8"/>
<stop offset="1" stop-color="#B3B8C6"/>
</linearGradient>
<linearGradient id="paint13_linear_1281:21569" x1="27.3974" y1="27.5407" x2="112.434" y2="112.577" gradientUnits="userSpaceOnUse">
<stop stop-color="#FCFDFF"/>
<stop offset="0.2208" stop-color="#F7F9FB"/>
<stop offset="0.4652" stop-color="#EAECF1"/>
<stop offset="0.7209" stop-color="#D4D7E0"/>
<stop offset="0.983" stop-color="#B5BAC8"/>
<stop offset="1" stop-color="#B3B8C6"/>
</linearGradient>
<linearGradient id="paint14_linear_1281:21569" x1="27.8988" y1="28.0421" x2="111.933" y2="112.076" gradientUnits="userSpaceOnUse">
<stop stop-color="#FCFDFF"/>
<stop offset="0.2208" stop-color="#F7F9FB"/>
<stop offset="0.4652" stop-color="#EAECF1"/>
<stop offset="0.7209" stop-color="#D4D7E0"/>
<stop offset="0.983" stop-color="#B5BAC8"/>
<stop offset="1" stop-color="#B3B8C6"/>
</linearGradient>
<linearGradient id="paint15_linear_1281:21569" x1="28.4002" y1="28.5435" x2="111.431" y2="111.574" gradientUnits="userSpaceOnUse">
<stop stop-color="#FCFDFF"/>
<stop offset="0.2208" stop-color="#F7F9FB"/>
<stop offset="0.4652" stop-color="#EAECF1"/>
<stop offset="0.7209" stop-color="#D4D7E0"/>
<stop offset="0.983" stop-color="#B5BAC8"/>
<stop offset="1" stop-color="#B3B8C6"/>
</linearGradient>
<linearGradient id="paint16_linear_1281:21569" x1="28.9017" y1="29.0449" x2="110.93" y2="111.073" gradientUnits="userSpaceOnUse">
<stop stop-color="#FCFDFF"/>
<stop offset="0.2208" stop-color="#F7F9FB"/>
<stop offset="0.4652" stop-color="#EAECF1"/>
<stop offset="0.7209" stop-color="#D4D7E0"/>
<stop offset="0.983" stop-color="#B5BAC8"/>
<stop offset="1" stop-color="#B3B8C6"/>
</linearGradient>
<linearGradient id="paint17_linear_1281:21569" x1="29.403" y1="29.5464" x2="110.428" y2="110.572" gradientUnits="userSpaceOnUse">
<stop stop-color="#FCFDFF"/>
<stop offset="0.2208" stop-color="#F7F9FB"/>
<stop offset="0.4652" stop-color="#EAECF1"/>
<stop offset="0.7209" stop-color="#D4D7E0"/>
<stop offset="0.983" stop-color="#B5BAC8"/>
<stop offset="1" stop-color="#B3B8C6"/>
</linearGradient>
<linearGradient id="paint18_linear_1281:21569" x1="29.9045" y1="30.0477" x2="109.927" y2="110.07" gradientUnits="userSpaceOnUse">
<stop stop-color="#FCFDFF"/>
<stop offset="0.2208" stop-color="#F7F9FB"/>
<stop offset="0.4652" stop-color="#EAECF1"/>
<stop offset="0.7209" stop-color="#D4D7E0"/>
<stop offset="0.983" stop-color="#B5BAC8"/>
<stop offset="1" stop-color="#B3B8C6"/>
</linearGradient>
<linearGradient id="paint19_linear_1281:21569" x1="30.4059" y1="30.5491" x2="109.426" y2="109.569" gradientUnits="userSpaceOnUse">
<stop stop-color="#FCFDFF"/>
<stop offset="0.2208" stop-color="#F7F9FB"/>
<stop offset="0.4652" stop-color="#EAECF1"/>
<stop offset="0.7209" stop-color="#D4D7E0"/>
<stop offset="0.983" stop-color="#B5BAC8"/>
<stop offset="1" stop-color="#B3B8C6"/>
</linearGradient>
<clipPath id="clip0_1281:21569">
<rect width="46.7" height="55.8" fill="white" transform="translate(47 42)"/>
</clipPath>
</defs>
</svg>
