<svg width="140" height="140" viewBox="0 0 140 140" fill="none" xmlns="http://www.w3.org/2000/svg">
<path opacity="0.05" d="M139.286 70.0001C139.286 108.286 108.286 139.286 70.0005 139.286C31.5719 139.429 0.571899 108.429 0.571899 70.0001C0.571899 31.7144 31.5719 0.714355 69.8576 0.714355C108.286 0.714355 139.286 31.7144 139.286 70.0001Z" fill="url(#paint0_linear_1281:21573)"/>
<path opacity="0.1" d="M138.572 70C138.572 107.857 107.858 138.571 70.0005 138.571C32.1434 138.571 1.42909 107.857 1.42909 70C1.28623 32.1429 32.0005 1.42859 69.8577 1.42859C107.858 1.42859 138.572 32.1429 138.572 70Z" fill="url(#paint1_linear_1281:21573)"/>
<path opacity="0.15" d="M137.858 70C137.858 107.571 107.429 137.857 69.8576 137.857C32.4291 138 2.00049 107.571 2.00049 70C2.00049 32.5714 32.4291 2.14282 69.8576 2.14282C107.429 2.14282 137.858 32.5714 137.858 70Z" fill="url(#paint2_linear_1281:21573)"/>
<path opacity="0.2" d="M137.143 70C137.143 107.143 107 137.286 69.8576 137.286C32.8576 137.286 2.71472 107.143 2.71472 70C2.71472 33 32.8576 2.85718 69.8576 2.85718C107 2.85718 137.143 33 137.143 70Z" fill="url(#paint3_linear_1281:21573)"/>
<path opacity="0.25" d="M136.429 70C136.429 106.714 106.715 136.571 69.8577 136.571C33.1434 136.571 3.42908 106.857 3.42908 70C3.42908 33.2857 33.1434 3.57141 69.8577 3.57141C106.715 3.57141 136.429 33.2857 136.429 70Z" fill="url(#paint4_linear_1281:21573)"/>
<path opacity="0.3" d="M135.715 69.9999C135.715 106.286 106.286 135.857 69.8576 135.857C33.5719 135.857 4.14331 106.429 4.14331 69.9999C4.14331 33.7142 33.5719 4.28564 69.8576 4.28564C106.286 4.28564 135.715 33.7142 135.715 69.9999Z" fill="url(#paint5_linear_1281:21573)"/>
<path opacity="0.35" d="M135.001 70C135.001 106 105.858 135.143 69.8577 135.143C34.0005 135.143 4.85767 106 4.85767 70C4.85767 34.1429 34.0005 5 69.8577 5C105.858 5 135.001 34.1429 135.001 70Z" fill="url(#paint6_linear_1281:21573)"/>
<path opacity="0.4" d="M134.286 70.0001C134.286 105.571 105.429 134.429 69.8576 134.429C34.429 134.429 5.5719 105.571 5.5719 70.0001C5.5719 34.5715 34.429 5.71436 69.8576 5.71436C105.429 5.71436 134.286 34.5715 134.286 70.0001Z" fill="url(#paint7_linear_1281:21573)"/>
<path opacity="0.45" d="M133.572 70.0001C133.572 105.143 105 133.714 69.8576 133.714C34.7147 133.714 6.14331 105.143 6.14331 70.0001C6.14331 34.8572 34.7147 6.28577 69.8576 6.28577C105.143 6.42862 133.572 34.8572 133.572 70.0001Z" fill="url(#paint8_linear_1281:21573)"/>
<path opacity="0.5" d="M132.858 70C132.858 104.714 104.715 133 69.8576 133C35.1433 133 7.00049 104.857 7.00049 70C7.00049 35.2857 35.1433 7.14282 69.8576 7.14282C104.715 7.14282 132.858 35.2857 132.858 70Z" fill="url(#paint9_linear_1281:21573)"/>
<path opacity="0.55" d="M132.143 70C132.143 104.429 104.286 132.286 69.8576 132.286C35.5719 132.286 7.71472 104.429 7.71472 70C7.71472 35.7143 35.5719 7.85718 69.8576 7.85718C104.286 7.85718 132.143 35.7143 132.143 70Z" fill="url(#paint10_linear_1281:21573)"/>
<path opacity="0.6" d="M131.429 70C131.429 104 103.858 131.571 69.8577 131.571C35.8577 131.571 8.42908 104 8.42908 70C8.42908 36 35.8577 8.57141 69.8577 8.57141C103.858 8.57141 131.429 36 131.429 70Z" fill="url(#paint11_linear_1281:21573)"/>
<path opacity="0.65" d="M130.715 69.9999C130.715 103.571 103.429 130.857 69.8576 130.857C36.2862 130.857 9.14331 103.714 9.14331 69.9999C9.14331 36.4285 36.2862 9.28564 69.8576 9.28564C103.572 9.28564 130.715 36.4285 130.715 69.9999Z" fill="url(#paint12_linear_1281:21573)"/>
<path opacity="0.7" d="M130.001 70C130.001 103.143 103.143 130.143 69.8577 130.143C36.7148 130.143 9.71484 103.286 9.71484 70C9.71484 36.8571 36.7148 10 69.8577 10C103.143 10 130.001 36.8571 130.001 70Z" fill="url(#paint13_linear_1281:21573)"/>
<path opacity="0.75" d="M129.286 70.0001C129.286 102.857 102.715 129.429 69.8576 129.429C37.1434 129.429 10.4291 102.857 10.4291 70.0001C10.4291 37.143 37.0005 10.5715 69.8576 10.5715C102.715 10.5715 129.286 37.2858 129.286 70.0001Z" fill="url(#paint14_linear_1281:21573)"/>
<path opacity="0.8" d="M128.572 70.0001C128.572 102.429 102.286 128.714 69.8576 128.714C37.429 128.714 11.1433 102.429 11.1433 70.0001C11.1433 37.5715 37.429 11.2858 69.8576 11.2858C102.286 11.2858 128.572 37.5715 128.572 70.0001Z" fill="url(#paint15_linear_1281:21573)"/>
<path opacity="0.85" d="M127.858 70C127.858 102 101.858 128 69.8577 128C37.8577 128 11.8577 102.143 11.8577 70C11.8577 38 37.8577 12 69.8577 12C102.001 12 127.858 38 127.858 70Z" fill="url(#paint16_linear_1281:21573)"/>
<path opacity="0.9" d="M127.143 70.0001C127.143 101.571 101.429 127.286 69.8576 127.286C38.2862 127.286 12.5719 101.571 12.5719 70.0001C12.5719 38.2858 38.2862 12.7144 69.8576 12.7144C101.572 12.7144 127.143 38.4286 127.143 70.0001Z" fill="url(#paint17_linear_1281:21573)"/>
<path opacity="0.95" d="M126.429 70C126.429 101.286 101.143 126.571 69.8577 126.571C38.7148 126.714 13.2863 101.286 13.2863 70C13.2863 38.8572 38.7148 13.4286 69.8577 13.4286C101.143 13.4286 126.429 38.8572 126.429 70Z" fill="url(#paint18_linear_1281:21573)"/>
<path d="M125.858 70C125.858 100.857 100.858 125.857 70.0005 125.857C39.0005 126 14.0005 100.857 14.0005 70C14.0005 39.1428 39.0005 14.1428 69.8576 14.1428C100.715 14.1428 125.858 39.1428 125.858 70Z" fill="url(#paint19_linear_1281:21573)"/>
<path d="M119.715 70C119.715 97.5714 97.429 119.857 69.8576 119.857C42.2862 119.857 20.1433 97.5714 20.1433 70C20.1433 42.4285 42.429 20.1428 70.0005 20.1428C97.5719 20.1428 119.715 42.5714 119.715 70Z" fill="#43A10B"/>
<g clip-path="url(#clip0_1281:21573)">
<path d="M98.8462 79.5128C98.6402 79.2051 98.2283 79.1025 97.8163 79.3076L92.4613 82.6923C91.9464 83 91.3285 82.8974 91.0195 82.3846C89.1658 79.6153 85.1495 73.5641 82.8839 70.1794C82.575 69.6666 82.678 69.0512 83.0899 68.7435L89.6808 63.7179C89.9897 63.5128 90.0927 63 89.7837 62.6923C89.5778 62.3846 89.0629 62.282 88.7539 62.5897L82.1631 67.5128C81.4422 68.0256 81.1332 68.8461 81.1332 69.5641H66.3038C66.2008 69.5641 66.0978 69.5641 65.9948 69.6666L64.6561 70.282H58.6831C58.8891 69.3589 58.5801 68.3333 57.8593 67.7179L50.5475 61.7692C50.2386 61.5641 49.7237 61.5641 49.5177 61.8717C49.3117 62.1794 49.3117 62.6923 49.6207 62.8974L56.9324 68.8461C57.3443 69.2564 57.4473 69.8717 57.1384 70.282L49.5177 81.0512C49.2088 81.5641 48.5909 81.6666 48.1789 81.3589L43.1328 78.4871C42.8239 78.282 42.3089 78.3846 42.103 78.7948C41.897 79.1025 42 79.6153 42.4119 79.8205L47.4581 82.6923C47.87 82.8974 48.2819 83 48.6938 83C49.2088 83 49.7237 82.7948 50.1356 82.4871L53.328 85.7692V85.8717C52.8131 86.4871 52.6072 87.2051 52.7101 88.0256C52.8131 88.8461 53.2251 89.4615 53.843 89.9743C54.3579 90.3846 54.9758 90.4871 55.4907 90.4871H55.5936C55.5936 90.6923 55.5936 90.8974 55.5936 91.1025C55.6966 91.923 56.1086 92.641 56.7265 93.1538C57.2414 93.5641 57.9622 93.7692 58.5801 93.7692H58.6831C58.6831 93.9743 58.6831 94.1794 58.6831 94.3846C58.7861 95.2051 59.095 95.923 59.7129 96.4359C60.2278 96.8461 60.9487 97.1538 61.5666 97.1538C61.9785 97.1538 62.3905 97.0512 62.8024 96.8461C62.9054 97.4615 63.3173 98.0769 63.8322 98.4871C64.3471 98.8974 65.068 99.1025 65.6859 99.1025C66.5098 99.1025 67.2306 98.7948 67.8485 98.1794L68.0545 97.8717L68.1575 97.7692L68.4664 97.9743C68.9813 98.282 69.5992 98.4871 70.1141 98.4871C71.144 98.4871 72.0708 97.9743 72.6887 97.1538C73.1006 96.641 73.3066 96.0256 73.3066 95.3076L74.3364 95.923C74.8513 96.2307 75.4692 96.4359 76.0871 96.4359C77.1169 96.4359 78.0438 96.0256 78.6617 95.1025C79.0736 94.4871 79.2796 93.8717 79.2796 93.1538C79.7945 93.4615 80.3094 93.5641 80.9273 93.5641C81.1332 93.5641 81.3392 93.5641 81.6481 93.4615C82.472 93.2564 83.2959 92.7435 83.7078 92.0256C84.0167 91.5128 84.2227 90.7948 84.2227 90.1794L85.0466 90.6923C85.5615 91 86.1794 91.2051 86.7973 91.2051C87.0032 91.2051 87.3122 91.2051 87.5181 91.1025C88.342 90.8974 89.0629 90.3846 89.4748 89.5641C90.2986 88.1282 89.7837 86.282 88.445 85.3589L87.5181 84.7435L89.5778 82.6923C89.6808 82.7948 89.6808 82.8974 89.7837 83C90.2986 83.7179 91.1225 84.1282 91.9464 84.1282C92.4613 84.1282 92.8732 84.0256 93.2851 83.7179L98.6402 80.3333C98.9492 80.3333 99.0521 79.8205 98.8462 79.5128ZM54.5638 88.7435C54.2549 88.5384 54.0489 88.2307 54.0489 87.8205C54.0489 87.4102 54.1519 87.1025 54.3579 86.7948L54.8728 86.282C55.1817 85.9743 55.4907 85.7692 55.9026 85.7692C56.2115 85.7692 56.5205 85.8717 56.7265 86.0769C57.0354 86.282 57.2414 86.5897 57.2414 87C57.2414 87.4102 57.1384 87.7179 56.9324 88.0256L56.4175 88.5384C56.0056 89.0512 55.1817 89.1538 54.5638 88.7435ZM57.5503 92.0256C57.2414 91.8205 57.0354 91.4102 56.9324 91C56.9324 90.5897 57.0354 90.1794 57.2414 89.8717L58.2712 88.5384C58.5801 88.1282 58.9921 87.923 59.507 87.923C59.8159 87.923 60.2278 88.0256 60.4338 88.2307C60.7428 88.5384 60.9487 88.8461 61.0517 89.3589C61.0517 89.7692 60.9487 90.1794 60.6398 90.4871L59.507 91.7179C59.095 92.4359 58.1682 92.4359 57.5503 92.0256ZM60.6398 95.2051C60.3308 95 60.1249 94.5897 60.1249 94.1794C60.1249 93.7692 60.2278 93.3589 60.5368 93.0512L63.6263 89.5641C63.9352 89.2564 64.3471 89.0512 64.7591 89.0512C65.068 89.0512 65.377 89.1538 65.7889 89.4615C66.0978 89.7692 66.3038 90.0769 66.3038 90.4871C66.3038 90.8974 66.2008 91.3076 65.8919 91.6153L62.8024 95.1025C62.0815 95.6153 61.1547 95.7179 60.6398 95.2051ZM67.0247 96.8461L66.7157 97.1538C66.2008 97.7692 65.274 97.7692 64.7591 97.2564C64.4501 97.0512 64.2442 96.641 64.2442 96.2307C64.2442 95.8205 64.3471 95.4102 64.6561 95.1025L64.862 94.7948C65.171 94.4871 65.5829 94.282 65.9948 94.282C66.3038 94.282 66.6127 94.3846 66.9217 94.5897C67.2306 94.8974 67.4366 95.2051 67.4366 95.6153C67.4366 96.1282 67.2306 96.5384 67.0247 96.8461ZM88.239 88.9487C88.033 89.3589 87.6211 89.6666 87.2092 89.7692C86.7973 89.8717 86.2823 89.7692 85.8704 89.5641L82.7809 87.5128L76.2931 83.3076L75.7782 83C75.4692 82.7948 74.9543 82.8974 74.7483 83.2051C74.5424 83.5128 74.6454 84.0256 74.9543 84.2307L75.4692 84.5384L75.9841 84.8461L81.9571 88.7435C82.7809 89.2564 82.9869 90.3846 82.472 91.2051C82.1631 91.6153 81.7511 91.923 81.3392 92.0256C80.8243 92.1282 80.4124 92.0256 80.0004 91.7179L77.9408 90.3846L77.5289 90.1794L72.8947 87C72.5857 86.7948 72.0708 86.8974 71.8648 87.2051C71.6589 87.5128 71.7619 88.0256 72.0708 88.2307L73.9245 89.4615L77.1169 91.6153C77.5289 91.923 77.8378 92.3333 77.8378 92.8461C77.9408 93.3589 77.8378 93.8717 77.5289 94.1794C77.0139 94.8974 75.8811 95.1025 75.1603 94.5897L71.8648 92.5384L70.629 91.8205L70.2171 91.5128C69.9082 91.3076 69.3933 91.4102 69.1873 91.7179C68.9813 92.0256 69.0843 92.5384 69.3933 92.7435L71.041 93.7692C71.4529 93.9743 71.6589 94.3846 71.7619 94.8974C71.8648 95.3076 71.7619 95.8205 71.4529 96.2307C70.938 96.9487 69.9082 97.1538 69.1873 96.641L68.7754 96.3333C68.7754 96.1282 68.8784 95.8205 68.7754 95.6153C68.6724 94.7948 68.3634 94.0769 67.6426 93.5641C67.2306 93.2564 66.8187 93.0512 66.4068 93.0512L66.7157 92.641C67.2306 92.0256 67.5396 91.3076 67.4366 90.4871C67.3336 89.6666 67.0247 88.9487 66.4068 88.4359L65.8919 88.9487L66.3038 88.3333C65.068 87.3076 63.3173 87.5128 62.2875 88.641C62.0815 88.0256 61.7726 87.5128 61.2577 87.1025C60.4338 86.4871 59.404 86.282 58.4771 86.5897C58.3742 85.8717 57.9622 85.2564 57.4473 84.8461C56.6235 84.1282 55.2847 84.1282 54.3579 84.7435L51.1654 81.3589L58.0652 71.7179H61.5666L60.2278 72.3333C59.507 72.641 59.095 73.3589 59.095 74.1794V79.2051C59.095 80.8461 60.4338 82.1794 62.0815 82.1794C63.7292 82.1794 65.068 80.8461 65.068 79.2051V77.4615H71.6589C72.3797 77.4615 73.1006 77.6666 73.7185 78.0769L87.7241 86.7948C88.445 87.2051 88.6509 88.2307 88.239 88.9487ZM86.2823 84.1282L74.5424 76.7435C73.7185 76.2307 72.6887 75.923 71.6589 75.923H64.3471C63.9352 75.923 63.6263 76.2307 63.6263 76.641V79.1025C63.6263 79.923 62.9054 80.641 62.0815 80.641C61.2577 80.641 60.5368 79.923 60.5368 79.1025V74.0769C60.5368 73.8717 60.6398 73.6666 60.8457 73.5641L66.4068 70.8974H81.5452C83.5018 73.7692 86.5913 78.4871 88.6509 81.4615L86.2823 84.1282Z" fill="white"/>
<path d="M46.2223 79.1026C46.4282 79.1026 46.6342 79 46.8402 78.7949L50.7535 73.1538C50.9595 72.8462 50.8565 72.3333 50.5475 72.1282C50.2386 71.9231 49.7237 72.0256 49.5177 72.3333L45.6044 77.9744C45.3984 78.2821 45.5014 78.7949 45.8103 79C45.9133 79.1026 46.1193 79.1026 46.2223 79.1026Z" fill="white"/>
<path d="M89.2688 72.641C88.9599 72.8461 88.8569 73.2564 89.0629 73.6667L92.7702 79.5128C92.8732 79.7179 93.1822 79.8205 93.3881 79.8205C93.4911 79.8205 93.6971 79.8205 93.8001 79.7179C94.109 79.5128 94.212 79.1026 94.006 78.6923L90.2987 72.8462C90.0927 72.5385 89.5778 72.4359 89.2688 72.641Z" fill="white"/>
<path d="M70.4231 64.2308C73.6156 64.2308 76.911 63 79.3826 60.5385C84.3257 55.6154 84.3257 47.6154 79.3826 42.6923C74.4394 37.7692 66.4068 37.7692 61.4636 42.6923C56.5205 47.6154 56.5205 55.6154 61.4636 60.5385C63.9352 63 67.2307 64.2308 70.4231 64.2308ZM62.5965 43.7179C64.7591 41.5641 67.6426 40.4359 70.4231 40.4359C73.3066 40.4359 76.0871 41.5641 78.2498 43.7179C82.575 48.0256 82.575 55.1026 78.2498 59.4103C73.9245 63.7179 66.8187 63.7179 62.4935 59.4103C58.2712 55.1026 58.2712 48.1282 62.5965 43.7179Z" fill="white"/>
<path d="M71.2469 53.6666C70.629 54.282 70.3201 55.1025 70.3201 56.0256C70.3201 56.9487 70.629 57.6666 71.2469 58.3846C71.8648 58.9999 72.6887 59.3076 73.6155 59.3076C74.5424 59.3076 75.3662 58.9999 75.9841 58.3846C76.602 57.7692 76.911 56.9487 76.911 56.0256C76.911 55.1025 76.602 54.3846 75.9841 53.6666C75.3662 53.0512 74.5424 52.7435 73.6155 52.7435C72.6887 52.7435 71.8648 53.0512 71.2469 53.6666ZM75.3662 55.923C75.3662 56.4358 75.1603 56.8461 74.8513 57.1538C74.5424 57.4615 74.1304 57.6666 73.6155 57.6666C73.1006 57.6666 72.6887 57.4615 72.3797 57.1538C72.0708 56.8461 71.8648 56.4358 71.8648 55.923C71.8648 55.4102 72.0708 54.9999 72.3797 54.6922C72.6887 54.3846 73.1006 54.1794 73.6155 54.1794C74.1304 54.1794 74.5424 54.3846 74.8513 54.6922C75.1603 55.1025 75.3662 55.5128 75.3662 55.923Z" fill="white"/>
<path d="M67.2306 50.4872C68.1575 50.4872 68.9813 50.1795 69.5992 49.5641C70.2171 48.9487 70.5261 48.1282 70.5261 47.2051C70.5261 46.2821 70.2171 45.5641 69.5992 44.8462C68.9813 44.2308 68.1575 43.9231 67.2306 43.9231C66.3038 43.9231 65.4799 44.2308 64.8621 44.8462C64.2442 45.4616 63.9352 46.2821 63.9352 47.1026C63.9352 48.0257 64.2442 48.7436 64.8621 49.4616C65.4799 50.1795 66.3038 50.4872 67.2306 50.4872ZM65.9949 45.9744C66.3038 45.6667 66.7157 45.4616 67.2306 45.4616C67.7456 45.4616 68.1575 45.6667 68.4664 45.9744C68.7754 46.3846 68.9813 46.7949 68.9813 47.2051C68.9813 47.718 68.7754 48.1282 68.4664 48.4359C68.1575 48.7436 67.7456 48.9487 67.2306 48.9487C66.7157 48.9487 66.3038 48.7436 65.9949 48.4359C65.6859 48.1282 65.5829 47.718 65.5829 47.2051C65.5829 46.7949 65.6859 46.3846 65.9949 45.9744Z" fill="white"/>
<path d="M65.8919 57.4615L75.7782 46.4872L74.7484 45.9744L64.8621 56.8462L65.8919 57.4615Z" fill="white"/>
</g>
<defs>
<linearGradient id="paint0_linear_1281:21573" x1="20.8789" y1="21.0222" x2="118.952" y2="119.095" gradientUnits="userSpaceOnUse">
<stop stop-color="#FCFDFF"/>
<stop offset="0.2208" stop-color="#F7F9FB"/>
<stop offset="0.4652" stop-color="#EAECF1"/>
<stop offset="0.7209" stop-color="#D4D7E0"/>
<stop offset="0.983" stop-color="#B5BAC8"/>
<stop offset="1" stop-color="#B3B8C6"/>
</linearGradient>
<linearGradient id="paint1_linear_1281:21573" x1="21.3804" y1="21.5236" x2="118.45" y2="118.593" gradientUnits="userSpaceOnUse">
<stop stop-color="#FCFDFF"/>
<stop offset="0.2208" stop-color="#F7F9FB"/>
<stop offset="0.4652" stop-color="#EAECF1"/>
<stop offset="0.7209" stop-color="#D4D7E0"/>
<stop offset="0.983" stop-color="#B5BAC8"/>
<stop offset="1" stop-color="#B3B8C6"/>
</linearGradient>
<linearGradient id="paint2_linear_1281:21573" x1="21.8818" y1="22.025" x2="117.949" y2="118.092" gradientUnits="userSpaceOnUse">
<stop stop-color="#FCFDFF"/>
<stop offset="0.2208" stop-color="#F7F9FB"/>
<stop offset="0.4652" stop-color="#EAECF1"/>
<stop offset="0.7209" stop-color="#D4D7E0"/>
<stop offset="0.983" stop-color="#B5BAC8"/>
<stop offset="1" stop-color="#B3B8C6"/>
</linearGradient>
<linearGradient id="paint3_linear_1281:21573" x1="22.3832" y1="22.5265" x2="117.447" y2="117.591" gradientUnits="userSpaceOnUse">
<stop stop-color="#FCFDFF"/>
<stop offset="0.2208" stop-color="#F7F9FB"/>
<stop offset="0.4652" stop-color="#EAECF1"/>
<stop offset="0.7209" stop-color="#D4D7E0"/>
<stop offset="0.983" stop-color="#B5BAC8"/>
<stop offset="1" stop-color="#B3B8C6"/>
</linearGradient>
<linearGradient id="paint4_linear_1281:21573" x1="22.8846" y1="23.0278" x2="116.946" y2="117.089" gradientUnits="userSpaceOnUse">
<stop stop-color="#FCFDFF"/>
<stop offset="0.2208" stop-color="#F7F9FB"/>
<stop offset="0.4652" stop-color="#EAECF1"/>
<stop offset="0.7209" stop-color="#D4D7E0"/>
<stop offset="0.983" stop-color="#B5BAC8"/>
<stop offset="1" stop-color="#B3B8C6"/>
</linearGradient>
<linearGradient id="paint5_linear_1281:21573" x1="23.386" y1="23.5292" x2="116.445" y2="116.588" gradientUnits="userSpaceOnUse">
<stop stop-color="#FCFDFF"/>
<stop offset="0.2208" stop-color="#F7F9FB"/>
<stop offset="0.4652" stop-color="#EAECF1"/>
<stop offset="0.7209" stop-color="#D4D7E0"/>
<stop offset="0.983" stop-color="#B5BAC8"/>
<stop offset="1" stop-color="#B3B8C6"/>
</linearGradient>
<linearGradient id="paint6_linear_1281:21573" x1="23.8875" y1="24.0307" x2="115.944" y2="116.087" gradientUnits="userSpaceOnUse">
<stop stop-color="#FCFDFF"/>
<stop offset="0.2208" stop-color="#F7F9FB"/>
<stop offset="0.4652" stop-color="#EAECF1"/>
<stop offset="0.7209" stop-color="#D4D7E0"/>
<stop offset="0.983" stop-color="#B5BAC8"/>
<stop offset="1" stop-color="#B3B8C6"/>
</linearGradient>
<linearGradient id="paint7_linear_1281:21573" x1="24.3889" y1="24.5322" x2="115.442" y2="115.585" gradientUnits="userSpaceOnUse">
<stop stop-color="#FCFDFF"/>
<stop offset="0.2208" stop-color="#F7F9FB"/>
<stop offset="0.4652" stop-color="#EAECF1"/>
<stop offset="0.7209" stop-color="#D4D7E0"/>
<stop offset="0.983" stop-color="#B5BAC8"/>
<stop offset="1" stop-color="#B3B8C6"/>
</linearGradient>
<linearGradient id="paint8_linear_1281:21573" x1="24.8903" y1="25.0336" x2="114.941" y2="115.084" gradientUnits="userSpaceOnUse">
<stop stop-color="#FCFDFF"/>
<stop offset="0.2208" stop-color="#F7F9FB"/>
<stop offset="0.4652" stop-color="#EAECF1"/>
<stop offset="0.7209" stop-color="#D4D7E0"/>
<stop offset="0.983" stop-color="#B5BAC8"/>
<stop offset="1" stop-color="#B3B8C6"/>
</linearGradient>
<linearGradient id="paint9_linear_1281:21573" x1="25.3918" y1="25.535" x2="114.439" y2="114.583" gradientUnits="userSpaceOnUse">
<stop stop-color="#FCFDFF"/>
<stop offset="0.2208" stop-color="#F7F9FB"/>
<stop offset="0.4652" stop-color="#EAECF1"/>
<stop offset="0.7209" stop-color="#D4D7E0"/>
<stop offset="0.983" stop-color="#B5BAC8"/>
<stop offset="1" stop-color="#B3B8C6"/>
</linearGradient>
<linearGradient id="paint10_linear_1281:21573" x1="25.8932" y1="26.0365" x2="113.938" y2="114.081" gradientUnits="userSpaceOnUse">
<stop stop-color="#FCFDFF"/>
<stop offset="0.2208" stop-color="#F7F9FB"/>
<stop offset="0.4652" stop-color="#EAECF1"/>
<stop offset="0.7209" stop-color="#D4D7E0"/>
<stop offset="0.983" stop-color="#B5BAC8"/>
<stop offset="1" stop-color="#B3B8C6"/>
</linearGradient>
<linearGradient id="paint11_linear_1281:21573" x1="26.3946" y1="26.5378" x2="113.437" y2="113.58" gradientUnits="userSpaceOnUse">
<stop stop-color="#FCFDFF"/>
<stop offset="0.2208" stop-color="#F7F9FB"/>
<stop offset="0.4652" stop-color="#EAECF1"/>
<stop offset="0.7209" stop-color="#D4D7E0"/>
<stop offset="0.983" stop-color="#B5BAC8"/>
<stop offset="1" stop-color="#B3B8C6"/>
</linearGradient>
<linearGradient id="paint12_linear_1281:21573" x1="26.896" y1="27.0392" x2="112.935" y2="113.078" gradientUnits="userSpaceOnUse">
<stop stop-color="#FCFDFF"/>
<stop offset="0.2208" stop-color="#F7F9FB"/>
<stop offset="0.4652" stop-color="#EAECF1"/>
<stop offset="0.7209" stop-color="#D4D7E0"/>
<stop offset="0.983" stop-color="#B5BAC8"/>
<stop offset="1" stop-color="#B3B8C6"/>
</linearGradient>
<linearGradient id="paint13_linear_1281:21573" x1="27.3974" y1="27.5407" x2="112.434" y2="112.577" gradientUnits="userSpaceOnUse">
<stop stop-color="#FCFDFF"/>
<stop offset="0.2208" stop-color="#F7F9FB"/>
<stop offset="0.4652" stop-color="#EAECF1"/>
<stop offset="0.7209" stop-color="#D4D7E0"/>
<stop offset="0.983" stop-color="#B5BAC8"/>
<stop offset="1" stop-color="#B3B8C6"/>
</linearGradient>
<linearGradient id="paint14_linear_1281:21573" x1="27.8988" y1="28.0421" x2="111.933" y2="112.076" gradientUnits="userSpaceOnUse">
<stop stop-color="#FCFDFF"/>
<stop offset="0.2208" stop-color="#F7F9FB"/>
<stop offset="0.4652" stop-color="#EAECF1"/>
<stop offset="0.7209" stop-color="#D4D7E0"/>
<stop offset="0.983" stop-color="#B5BAC8"/>
<stop offset="1" stop-color="#B3B8C6"/>
</linearGradient>
<linearGradient id="paint15_linear_1281:21573" x1="28.4002" y1="28.5435" x2="111.431" y2="111.574" gradientUnits="userSpaceOnUse">
<stop stop-color="#FCFDFF"/>
<stop offset="0.2208" stop-color="#F7F9FB"/>
<stop offset="0.4652" stop-color="#EAECF1"/>
<stop offset="0.7209" stop-color="#D4D7E0"/>
<stop offset="0.983" stop-color="#B5BAC8"/>
<stop offset="1" stop-color="#B3B8C6"/>
</linearGradient>
<linearGradient id="paint16_linear_1281:21573" x1="28.9017" y1="29.0449" x2="110.93" y2="111.073" gradientUnits="userSpaceOnUse">
<stop stop-color="#FCFDFF"/>
<stop offset="0.2208" stop-color="#F7F9FB"/>
<stop offset="0.4652" stop-color="#EAECF1"/>
<stop offset="0.7209" stop-color="#D4D7E0"/>
<stop offset="0.983" stop-color="#B5BAC8"/>
<stop offset="1" stop-color="#B3B8C6"/>
</linearGradient>
<linearGradient id="paint17_linear_1281:21573" x1="29.403" y1="29.5464" x2="110.428" y2="110.572" gradientUnits="userSpaceOnUse">
<stop stop-color="#FCFDFF"/>
<stop offset="0.2208" stop-color="#F7F9FB"/>
<stop offset="0.4652" stop-color="#EAECF1"/>
<stop offset="0.7209" stop-color="#D4D7E0"/>
<stop offset="0.983" stop-color="#B5BAC8"/>
<stop offset="1" stop-color="#B3B8C6"/>
</linearGradient>
<linearGradient id="paint18_linear_1281:21573" x1="29.9045" y1="30.0477" x2="109.927" y2="110.07" gradientUnits="userSpaceOnUse">
<stop stop-color="#FCFDFF"/>
<stop offset="0.2208" stop-color="#F7F9FB"/>
<stop offset="0.4652" stop-color="#EAECF1"/>
<stop offset="0.7209" stop-color="#D4D7E0"/>
<stop offset="0.983" stop-color="#B5BAC8"/>
<stop offset="1" stop-color="#B3B8C6"/>
</linearGradient>
<linearGradient id="paint19_linear_1281:21573" x1="30.4059" y1="30.5491" x2="109.426" y2="109.569" gradientUnits="userSpaceOnUse">
<stop stop-color="#FCFDFF"/>
<stop offset="0.2208" stop-color="#F7F9FB"/>
<stop offset="0.4652" stop-color="#EAECF1"/>
<stop offset="0.7209" stop-color="#D4D7E0"/>
<stop offset="0.983" stop-color="#B5BAC8"/>
<stop offset="1" stop-color="#B3B8C6"/>
</linearGradient>
<clipPath id="clip0_1281:21573">
<rect width="56.9492" height="60" fill="white" transform="translate(42 39)"/>
</clipPath>
</defs>
</svg>
