<svg width="140" height="140" viewBox="0 0 140 140" fill="none" xmlns="http://www.w3.org/2000/svg">
<path opacity="0.05" d="M139.286 70.0001C139.286 108.286 108.286 139.286 70.0005 139.286C31.5719 139.429 0.571899 108.429 0.571899 70.0001C0.571899 31.7144 31.5719 0.714355 69.8576 0.714355C108.286 0.714355 139.286 31.7144 139.286 70.0001Z" fill="url(#paint0_linear_1281:21571)"/>
<path opacity="0.1" d="M138.572 70C138.572 107.857 107.858 138.571 70.0005 138.571C32.1434 138.571 1.42909 107.857 1.42909 70C1.28623 32.1429 32.0005 1.42859 69.8577 1.42859C107.858 1.42859 138.572 32.1429 138.572 70Z" fill="url(#paint1_linear_1281:21571)"/>
<path opacity="0.15" d="M137.858 70C137.858 107.571 107.429 137.857 69.8576 137.857C32.4291 138 2.00049 107.571 2.00049 70C2.00049 32.5714 32.4291 2.14282 69.8576 2.14282C107.429 2.14282 137.858 32.5714 137.858 70Z" fill="url(#paint2_linear_1281:21571)"/>
<path opacity="0.2" d="M137.143 70C137.143 107.143 107 137.286 69.8576 137.286C32.8576 137.286 2.71478 107.143 2.71478 70C2.71478 33 32.8576 2.85718 69.8576 2.85718C107 2.85718 137.143 33 137.143 70Z" fill="url(#paint3_linear_1281:21571)"/>
<path opacity="0.25" d="M136.429 70C136.429 106.714 106.715 136.571 69.8576 136.571C33.1433 136.571 3.42902 106.857 3.42902 70C3.42902 33.2857 33.1433 3.57141 69.8576 3.57141C106.715 3.57141 136.429 33.2857 136.429 70Z" fill="url(#paint4_linear_1281:21571)"/>
<path opacity="0.3" d="M135.715 69.9999C135.715 106.286 106.286 135.857 69.8576 135.857C33.5719 135.857 4.14331 106.429 4.14331 69.9999C4.14331 33.7142 33.5719 4.28564 69.8576 4.28564C106.286 4.28564 135.715 33.7142 135.715 69.9999Z" fill="url(#paint5_linear_1281:21571)"/>
<path opacity="0.35" d="M135 70C135 106 105.858 135.143 69.8576 135.143C34.0005 135.143 4.8576 106 4.8576 70C4.8576 34.1429 34.0005 5 69.8576 5C105.858 5 135 34.1429 135 70Z" fill="url(#paint6_linear_1281:21571)"/>
<path opacity="0.4" d="M134.286 70.0001C134.286 105.571 105.429 134.429 69.8576 134.429C34.429 134.429 5.5719 105.571 5.5719 70.0001C5.5719 34.5715 34.429 5.71436 69.8576 5.71436C105.429 5.71436 134.286 34.5715 134.286 70.0001Z" fill="url(#paint7_linear_1281:21571)"/>
<path opacity="0.45" d="M133.572 70.0001C133.572 105.143 105.001 133.714 69.8577 133.714C34.7148 133.714 6.14337 105.143 6.14337 70.0001C6.14337 34.8572 34.7148 6.28577 69.8577 6.28577C105.143 6.42862 133.572 34.8572 133.572 70.0001Z" fill="url(#paint8_linear_1281:21571)"/>
<path opacity="0.5" d="M132.858 70C132.858 104.714 104.715 133 69.8576 133C35.1433 133 7.00049 104.857 7.00049 70C7.00049 35.2857 35.1433 7.14282 69.8576 7.14282C104.715 7.14282 132.858 35.2857 132.858 70Z" fill="url(#paint9_linear_1281:21571)"/>
<path opacity="0.55" d="M132.143 70C132.143 104.429 104.286 132.286 69.8576 132.286C35.5719 132.286 7.71478 104.429 7.71478 70C7.71478 35.7143 35.5719 7.85718 69.8576 7.85718C104.286 7.85718 132.143 35.7143 132.143 70Z" fill="url(#paint10_linear_1281:21571)"/>
<path opacity="0.6" d="M131.429 70C131.429 104 103.858 131.571 69.8576 131.571C35.8576 131.571 8.42902 104 8.42902 70C8.42902 36 35.8576 8.57141 69.8576 8.57141C103.858 8.57141 131.429 36 131.429 70Z" fill="url(#paint11_linear_1281:21571)"/>
<path opacity="0.65" d="M130.715 69.9999C130.715 103.571 103.429 130.857 69.8576 130.857C36.2862 130.857 9.14331 103.714 9.14331 69.9999C9.14331 36.4285 36.2862 9.28564 69.8576 9.28564C103.572 9.28564 130.715 36.4285 130.715 69.9999Z" fill="url(#paint12_linear_1281:21571)"/>
<path opacity="0.7" d="M130 70C130 103.143 103.143 130.143 69.8576 130.143C36.7148 130.143 9.71478 103.286 9.71478 70C9.71478 36.8571 36.7148 10 69.8576 10C103.143 10 130 36.8571 130 70Z" fill="url(#paint13_linear_1281:21571)"/>
<path opacity="0.75" d="M129.286 70.0001C129.286 102.857 102.715 129.429 69.8576 129.429C37.1434 129.429 10.4291 102.857 10.4291 70.0001C10.4291 37.143 37.0005 10.5715 69.8576 10.5715C102.715 10.5715 129.286 37.2858 129.286 70.0001Z" fill="url(#paint14_linear_1281:21571)"/>
<path opacity="0.8" d="M128.572 70.0001C128.572 102.429 102.286 128.714 69.8577 128.714C37.4291 128.714 11.1434 102.429 11.1434 70.0001C11.1434 37.5715 37.4291 11.2858 69.8577 11.2858C102.286 11.2858 128.572 37.5715 128.572 70.0001Z" fill="url(#paint15_linear_1281:21571)"/>
<path opacity="0.85" d="M127.858 70C127.858 102 101.858 128 69.8577 128C37.8577 128 11.8577 102.143 11.8577 70C11.8577 38 37.8577 12 69.8577 12C102.001 12 127.858 38 127.858 70Z" fill="url(#paint16_linear_1281:21571)"/>
<path opacity="0.9" d="M127.143 70.0001C127.143 101.571 101.429 127.286 69.8577 127.286C38.2862 127.286 12.572 101.571 12.572 70.0001C12.572 38.2858 38.2862 12.7144 69.8577 12.7144C101.572 12.7144 127.143 38.4286 127.143 70.0001Z" fill="url(#paint17_linear_1281:21571)"/>
<path opacity="0.95" d="M126.429 70C126.429 101.286 101.143 126.571 69.8576 126.571C38.7148 126.714 13.2862 101.286 13.2862 70C13.2862 38.8572 38.7148 13.4286 69.8576 13.4286C101.143 13.4286 126.429 38.8572 126.429 70Z" fill="url(#paint18_linear_1281:21571)"/>
<path d="M125.858 70C125.858 100.857 100.858 125.857 70.0005 125.857C39.0005 126 14.0005 100.857 14.0005 70C14.0005 39.1428 39.0005 14.1428 69.8576 14.1428C100.715 14.1428 125.858 39.1428 125.858 70Z" fill="url(#paint19_linear_1281:21571)"/>
<path d="M119.715 70C119.715 97.5714 97.4291 119.857 69.8577 119.857C42.2862 119.857 20.1434 97.5714 20.1434 70C20.1434 42.4285 42.4291 20.1428 70.0005 20.1428C97.5719 20.1428 119.715 42.5714 119.715 70Z" fill="#43A10B"/>
<path d="M65.4613 58.9306C67.5994 58.9306 69.2624 57.1597 69.2624 55.1528C69.2624 53.0278 67.4807 51.375 65.4613 51.375C63.442 51.375 61.6602 53.1458 61.6602 55.1528C61.6602 57.1597 63.3232 58.9306 65.4613 58.9306ZM65.4613 52.9097C66.6492 52.9097 67.5994 53.8542 67.5994 55.0347C67.5994 56.2153 66.6492 57.1597 65.4613 57.1597C64.2735 57.1597 63.3232 56.2153 63.3232 55.0347C63.3232 53.8542 64.2735 52.9097 65.4613 52.9097Z" fill="white"/>
<path d="M59.047 68.0209C59.5221 68.0209 59.8785 67.6667 59.8785 67.1945V63.7709C59.8785 62.4722 60.9475 61.4097 62.2541 61.4097H68.5497C69.8564 61.4097 70.9254 62.4722 70.9254 63.7709V67.1945C70.9254 67.6667 71.2818 68.0209 71.7569 68.0209C72.232 68.0209 72.5884 67.6667 72.5884 67.1945V63.7709C72.5884 61.5278 70.8066 59.6389 68.4309 59.6389H62.1354C59.8785 59.6389 57.9779 61.4097 57.9779 63.7709V67.1945C58.2155 67.5486 58.5718 68.0209 59.047 68.0209Z" fill="white"/>
<path d="M61.8978 65.8959V67.0764C61.8978 67.5487 62.2541 67.9028 62.7293 67.9028C63.2044 67.9028 63.5608 67.5487 63.5608 67.0764V65.8959C63.5608 65.4237 63.2044 65.0695 62.7293 65.0695C62.2541 64.9514 61.8978 65.4237 61.8978 65.8959Z" fill="white"/>
<path d="M67.3619 65.8959V67.0764C67.3619 67.5487 67.7182 67.9028 68.1934 67.9028C68.6685 67.9028 69.0249 67.5487 69.0249 67.0764V65.8959C69.0249 65.4237 68.6685 65.0695 68.1934 65.0695C67.7182 64.9514 67.3619 65.4237 67.3619 65.8959Z" fill="white"/>
<path d="M53.8204 71.2083H77.1022C77.5774 71.2083 77.9337 70.8542 77.9337 70.3819C77.9337 69.9097 77.5774 69.5555 77.1022 69.5555H53.8204C53.3453 69.5555 52.989 69.9097 52.989 70.3819C52.989 70.8542 53.3453 71.2083 53.8204 71.2083Z" fill="white"/>
<path d="M53.8204 75.8125H77.1022C77.5774 75.8125 77.9337 75.4583 77.9337 74.9861C77.9337 74.5138 77.5774 74.1597 77.1022 74.1597H53.8204C53.3453 74.1597 52.989 74.5138 52.989 74.9861C52.989 75.4583 53.3453 75.8125 53.8204 75.8125Z" fill="white"/>
<path d="M86.605 79.4722V45.8264C86.605 45.3542 86.2486 45 85.7735 45H52.5138C52.0387 45 51.6823 45.3542 51.6823 45.8264V48.1875H48.8315C48.3564 48.1875 48 48.6597 48 49.1319V94.5833C48 95.0556 48.3564 95.4097 48.8315 95.4097H78.884C79.8343 95.7639 80.9033 96 81.9724 96C86.8425 96 90.8812 91.9861 90.8812 87.1458C91 83.9583 89.2182 81.125 86.605 79.4722ZM53.4641 46.7708H84.8232V78.7639C84.5856 78.6458 84.3481 78.6458 84.1105 78.5278H83.9917C83.6354 78.4097 83.3978 78.4097 83.0414 78.4097V49.1319C83.0414 48.6597 82.6851 48.3056 82.2099 48.3056H53.4641V46.7708ZM76.0332 93.7569H49.7818V50.0764H52.5138H81.1409V78.4097C81.0221 78.4097 81.0221 78.4097 80.9033 78.4097C80.6657 78.4097 80.547 78.4097 80.3094 78.5278C80.1906 78.5278 80.0718 78.5278 79.953 78.6458C79.8343 78.6458 79.5967 78.7639 79.4779 78.7639C79.3591 78.7639 79.2403 78.8819 79.1215 78.8819C79.0028 78.8819 78.7652 79 78.6464 79C78.5276 79 78.4088 79.1181 78.2901 79.1181C78.1713 79.1181 78.1713 79.2361 78.0525 79.2361H64.0359C63.5608 79.2361 63.2044 79.5903 63.2044 80.0625C63.2044 80.5347 63.5608 80.8889 64.0359 80.8889H75.6768C75.6768 80.8889 75.6768 80.8889 75.558 81.0069C75.4392 81.125 75.3204 81.2431 75.2017 81.3611C75.0829 81.4792 75.0829 81.5972 74.9641 81.7153C74.8453 81.8333 74.7265 81.9514 74.7265 82.0694C74.6077 82.1875 74.6077 82.3056 74.489 82.4236C74.3702 82.5417 74.3702 82.6597 74.2514 82.7778C74.1326 82.8958 74.1326 83.0139 74.0138 83.1319C73.895 83.25 73.895 83.3681 73.7762 83.6042H63.9171C63.442 83.6042 63.0856 83.9583 63.0856 84.4306C63.0856 84.9028 63.442 85.2569 63.9171 85.2569H73.1823V85.375C73.1823 85.6111 73.0635 85.7292 73.0635 85.9653C73.0635 86.0833 73.0635 86.2014 73.0635 86.2014C73.0635 86.4375 73.0635 86.7917 73.0635 87.0278C73.0635 87.2639 73.0635 87.5 73.0635 87.7361H63.9171C63.442 87.7361 63.0856 88.0903 63.0856 88.5625C63.0856 89.0347 63.442 89.3889 63.9171 89.3889H73.4199C73.4199 89.3889 73.4199 89.3889 73.4199 89.5069C73.4199 89.625 73.4199 89.625 73.4199 89.7431C73.5387 89.9792 73.5387 90.2153 73.6575 90.4514C73.6575 90.4514 73.6575 90.4514 73.6575 90.5694C73.7762 90.8056 73.895 91.0417 74.0138 91.2778C74.1326 91.5139 74.2514 91.75 74.489 91.9861C74.6077 92.2222 74.8453 92.4583 74.9641 92.6944C75.0829 92.9306 75.3204 93.0486 75.4392 93.2847L75.558 93.4028C75.9144 93.5208 75.9144 93.6389 76.0332 93.7569ZM82.0912 94.2292C81.1409 94.2292 80.3094 93.9931 79.4779 93.7569C79.1215 93.6389 78.884 93.5208 78.5276 93.2847L78.4088 93.1667C78.1713 93.0486 77.9337 92.9306 77.6961 92.6944L77.5773 92.5764C77.3398 92.4583 77.221 92.2222 76.9834 91.9861C76.8646 91.8681 76.7459 91.75 76.7459 91.6319C76.6271 91.5139 76.5083 91.3958 76.3895 91.2778C76.2707 91.1597 76.1519 90.9236 76.0332 90.8056C75.9144 90.6875 75.7956 90.4514 75.7956 90.3333C75.6768 90.2153 75.6768 90.0972 75.6768 89.9792C75.4392 89.8611 75.3204 89.625 75.3204 89.3889C75.3204 89.2708 75.3204 89.2708 75.2017 89.1528C75.0829 88.9167 75.0829 88.6806 74.9641 88.3264C74.9641 88.2083 74.9641 88.2083 74.9641 88.0903C74.9641 87.7361 74.8453 87.5 74.8453 87.1458C74.8453 86.4375 74.9641 85.7292 75.2017 85.0208C75.3204 84.9028 75.4392 84.6667 75.4392 84.4306C75.4392 84.4306 75.4392 84.4306 75.4392 84.3125C76.0332 82.8958 77.1022 81.7153 78.5276 80.8889H79.5967C80.0718 80.8889 80.4282 80.5347 80.4282 80.1806C80.9033 80.0625 81.4972 80.0625 81.9724 80.0625C82.2099 80.0625 82.4475 80.0625 82.8039 80.0625C82.9227 80.0625 82.9227 80.0625 83.0414 80.0625C83.279 80.0625 83.3978 80.0625 83.6354 80.1806C83.7541 80.1806 83.7541 80.1806 83.8729 80.2986C84.1105 80.2986 84.2293 80.4167 84.4669 80.4167C84.4669 80.4167 84.5856 80.4167 84.5856 80.5347C84.8232 80.6528 85.0608 80.6528 85.1796 80.7708C87.5552 81.9514 89.0994 84.3125 89.0994 87.1458C89.2182 91.0417 86.0111 94.2292 82.0912 94.2292Z" fill="white"/>
<path d="M85.0608 84.1944L81.2597 89.0347L78.884 85.7291C78.6464 85.375 78.0525 85.2569 77.6961 85.493C77.3398 85.7291 77.221 86.3194 77.4586 86.6736L80.547 90.9236C80.6657 91.1597 81.0221 91.2778 81.2597 91.2778C81.4972 91.2778 81.7348 91.1597 81.9724 90.9236L86.4862 85.1389C86.7238 84.7847 86.7238 84.1944 86.3674 83.9583C85.8923 83.7222 85.2983 83.7222 85.0608 84.1944Z" fill="white"/>
<path d="M57.9779 79.2361H54.1768V84.3125H52.989V85.8472H54.1768V86.7916H52.989V87.9722H54.1768V89.625H55.8398V87.9722H59.2845V86.7916H55.8398V85.8472H57.9779C58.9282 85.8472 59.7597 85.493 60.3536 84.9027C61.0663 84.3125 61.3039 83.4861 61.3039 82.5416C61.3039 81.5972 60.9475 80.8889 60.3536 80.1805C59.7597 79.4722 58.9282 79.2361 57.9779 79.2361ZM59.1658 83.7222C58.8094 84.0764 58.453 84.1944 57.9779 84.1944H55.8398V80.7708H57.9779C58.453 80.7708 58.8094 80.8889 59.1658 81.243C59.5221 81.5972 59.6409 81.9514 59.6409 82.4236C59.6409 83.0139 59.5221 83.368 59.1658 83.7222Z" fill="white"/>
<defs>
<linearGradient id="paint0_linear_1281:21571" x1="20.8789" y1="21.0222" x2="118.952" y2="119.095" gradientUnits="userSpaceOnUse">
<stop stop-color="#FCFDFF"/>
<stop offset="0.2208" stop-color="#F7F9FB"/>
<stop offset="0.4652" stop-color="#EAECF1"/>
<stop offset="0.7209" stop-color="#D4D7E0"/>
<stop offset="0.983" stop-color="#B5BAC8"/>
<stop offset="1" stop-color="#B3B8C6"/>
</linearGradient>
<linearGradient id="paint1_linear_1281:21571" x1="21.3804" y1="21.5236" x2="118.45" y2="118.593" gradientUnits="userSpaceOnUse">
<stop stop-color="#FCFDFF"/>
<stop offset="0.2208" stop-color="#F7F9FB"/>
<stop offset="0.4652" stop-color="#EAECF1"/>
<stop offset="0.7209" stop-color="#D4D7E0"/>
<stop offset="0.983" stop-color="#B5BAC8"/>
<stop offset="1" stop-color="#B3B8C6"/>
</linearGradient>
<linearGradient id="paint2_linear_1281:21571" x1="21.8818" y1="22.025" x2="117.949" y2="118.092" gradientUnits="userSpaceOnUse">
<stop stop-color="#FCFDFF"/>
<stop offset="0.2208" stop-color="#F7F9FB"/>
<stop offset="0.4652" stop-color="#EAECF1"/>
<stop offset="0.7209" stop-color="#D4D7E0"/>
<stop offset="0.983" stop-color="#B5BAC8"/>
<stop offset="1" stop-color="#B3B8C6"/>
</linearGradient>
<linearGradient id="paint3_linear_1281:21571" x1="22.3832" y1="22.5265" x2="117.447" y2="117.591" gradientUnits="userSpaceOnUse">
<stop stop-color="#FCFDFF"/>
<stop offset="0.2208" stop-color="#F7F9FB"/>
<stop offset="0.4652" stop-color="#EAECF1"/>
<stop offset="0.7209" stop-color="#D4D7E0"/>
<stop offset="0.983" stop-color="#B5BAC8"/>
<stop offset="1" stop-color="#B3B8C6"/>
</linearGradient>
<linearGradient id="paint4_linear_1281:21571" x1="22.8846" y1="23.0278" x2="116.946" y2="117.089" gradientUnits="userSpaceOnUse">
<stop stop-color="#FCFDFF"/>
<stop offset="0.2208" stop-color="#F7F9FB"/>
<stop offset="0.4652" stop-color="#EAECF1"/>
<stop offset="0.7209" stop-color="#D4D7E0"/>
<stop offset="0.983" stop-color="#B5BAC8"/>
<stop offset="1" stop-color="#B3B8C6"/>
</linearGradient>
<linearGradient id="paint5_linear_1281:21571" x1="23.386" y1="23.5292" x2="116.445" y2="116.588" gradientUnits="userSpaceOnUse">
<stop stop-color="#FCFDFF"/>
<stop offset="0.2208" stop-color="#F7F9FB"/>
<stop offset="0.4652" stop-color="#EAECF1"/>
<stop offset="0.7209" stop-color="#D4D7E0"/>
<stop offset="0.983" stop-color="#B5BAC8"/>
<stop offset="1" stop-color="#B3B8C6"/>
</linearGradient>
<linearGradient id="paint6_linear_1281:21571" x1="23.8875" y1="24.0307" x2="115.943" y2="116.087" gradientUnits="userSpaceOnUse">
<stop stop-color="#FCFDFF"/>
<stop offset="0.2208" stop-color="#F7F9FB"/>
<stop offset="0.4652" stop-color="#EAECF1"/>
<stop offset="0.7209" stop-color="#D4D7E0"/>
<stop offset="0.983" stop-color="#B5BAC8"/>
<stop offset="1" stop-color="#B3B8C6"/>
</linearGradient>
<linearGradient id="paint7_linear_1281:21571" x1="24.3889" y1="24.5322" x2="115.442" y2="115.585" gradientUnits="userSpaceOnUse">
<stop stop-color="#FCFDFF"/>
<stop offset="0.2208" stop-color="#F7F9FB"/>
<stop offset="0.4652" stop-color="#EAECF1"/>
<stop offset="0.7209" stop-color="#D4D7E0"/>
<stop offset="0.983" stop-color="#B5BAC8"/>
<stop offset="1" stop-color="#B3B8C6"/>
</linearGradient>
<linearGradient id="paint8_linear_1281:21571" x1="24.8904" y1="25.0336" x2="114.941" y2="115.084" gradientUnits="userSpaceOnUse">
<stop stop-color="#FCFDFF"/>
<stop offset="0.2208" stop-color="#F7F9FB"/>
<stop offset="0.4652" stop-color="#EAECF1"/>
<stop offset="0.7209" stop-color="#D4D7E0"/>
<stop offset="0.983" stop-color="#B5BAC8"/>
<stop offset="1" stop-color="#B3B8C6"/>
</linearGradient>
<linearGradient id="paint9_linear_1281:21571" x1="25.3918" y1="25.535" x2="114.439" y2="114.583" gradientUnits="userSpaceOnUse">
<stop stop-color="#FCFDFF"/>
<stop offset="0.2208" stop-color="#F7F9FB"/>
<stop offset="0.4652" stop-color="#EAECF1"/>
<stop offset="0.7209" stop-color="#D4D7E0"/>
<stop offset="0.983" stop-color="#B5BAC8"/>
<stop offset="1" stop-color="#B3B8C6"/>
</linearGradient>
<linearGradient id="paint10_linear_1281:21571" x1="25.8932" y1="26.0365" x2="113.938" y2="114.081" gradientUnits="userSpaceOnUse">
<stop stop-color="#FCFDFF"/>
<stop offset="0.2208" stop-color="#F7F9FB"/>
<stop offset="0.4652" stop-color="#EAECF1"/>
<stop offset="0.7209" stop-color="#D4D7E0"/>
<stop offset="0.983" stop-color="#B5BAC8"/>
<stop offset="1" stop-color="#B3B8C6"/>
</linearGradient>
<linearGradient id="paint11_linear_1281:21571" x1="26.3946" y1="26.5378" x2="113.437" y2="113.58" gradientUnits="userSpaceOnUse">
<stop stop-color="#FCFDFF"/>
<stop offset="0.2208" stop-color="#F7F9FB"/>
<stop offset="0.4652" stop-color="#EAECF1"/>
<stop offset="0.7209" stop-color="#D4D7E0"/>
<stop offset="0.983" stop-color="#B5BAC8"/>
<stop offset="1" stop-color="#B3B8C6"/>
</linearGradient>
<linearGradient id="paint12_linear_1281:21571" x1="26.896" y1="27.0392" x2="112.935" y2="113.078" gradientUnits="userSpaceOnUse">
<stop stop-color="#FCFDFF"/>
<stop offset="0.2208" stop-color="#F7F9FB"/>
<stop offset="0.4652" stop-color="#EAECF1"/>
<stop offset="0.7209" stop-color="#D4D7E0"/>
<stop offset="0.983" stop-color="#B5BAC8"/>
<stop offset="1" stop-color="#B3B8C6"/>
</linearGradient>
<linearGradient id="paint13_linear_1281:21571" x1="27.3974" y1="27.5407" x2="112.434" y2="112.577" gradientUnits="userSpaceOnUse">
<stop stop-color="#FCFDFF"/>
<stop offset="0.2208" stop-color="#F7F9FB"/>
<stop offset="0.4652" stop-color="#EAECF1"/>
<stop offset="0.7209" stop-color="#D4D7E0"/>
<stop offset="0.983" stop-color="#B5BAC8"/>
<stop offset="1" stop-color="#B3B8C6"/>
</linearGradient>
<linearGradient id="paint14_linear_1281:21571" x1="27.8988" y1="28.0421" x2="111.933" y2="112.076" gradientUnits="userSpaceOnUse">
<stop stop-color="#FCFDFF"/>
<stop offset="0.2208" stop-color="#F7F9FB"/>
<stop offset="0.4652" stop-color="#EAECF1"/>
<stop offset="0.7209" stop-color="#D4D7E0"/>
<stop offset="0.983" stop-color="#B5BAC8"/>
<stop offset="1" stop-color="#B3B8C6"/>
</linearGradient>
<linearGradient id="paint15_linear_1281:21571" x1="28.4002" y1="28.5435" x2="111.431" y2="111.574" gradientUnits="userSpaceOnUse">
<stop stop-color="#FCFDFF"/>
<stop offset="0.2208" stop-color="#F7F9FB"/>
<stop offset="0.4652" stop-color="#EAECF1"/>
<stop offset="0.7209" stop-color="#D4D7E0"/>
<stop offset="0.983" stop-color="#B5BAC8"/>
<stop offset="1" stop-color="#B3B8C6"/>
</linearGradient>
<linearGradient id="paint16_linear_1281:21571" x1="28.9017" y1="29.0449" x2="110.93" y2="111.073" gradientUnits="userSpaceOnUse">
<stop stop-color="#FCFDFF"/>
<stop offset="0.2208" stop-color="#F7F9FB"/>
<stop offset="0.4652" stop-color="#EAECF1"/>
<stop offset="0.7209" stop-color="#D4D7E0"/>
<stop offset="0.983" stop-color="#B5BAC8"/>
<stop offset="1" stop-color="#B3B8C6"/>
</linearGradient>
<linearGradient id="paint17_linear_1281:21571" x1="29.4031" y1="29.5464" x2="110.428" y2="110.572" gradientUnits="userSpaceOnUse">
<stop stop-color="#FCFDFF"/>
<stop offset="0.2208" stop-color="#F7F9FB"/>
<stop offset="0.4652" stop-color="#EAECF1"/>
<stop offset="0.7209" stop-color="#D4D7E0"/>
<stop offset="0.983" stop-color="#B5BAC8"/>
<stop offset="1" stop-color="#B3B8C6"/>
</linearGradient>
<linearGradient id="paint18_linear_1281:21571" x1="29.9045" y1="30.0477" x2="109.927" y2="110.07" gradientUnits="userSpaceOnUse">
<stop stop-color="#FCFDFF"/>
<stop offset="0.2208" stop-color="#F7F9FB"/>
<stop offset="0.4652" stop-color="#EAECF1"/>
<stop offset="0.7209" stop-color="#D4D7E0"/>
<stop offset="0.983" stop-color="#B5BAC8"/>
<stop offset="1" stop-color="#B3B8C6"/>
</linearGradient>
<linearGradient id="paint19_linear_1281:21571" x1="30.4059" y1="30.5491" x2="109.426" y2="109.569" gradientUnits="userSpaceOnUse">
<stop stop-color="#FCFDFF"/>
<stop offset="0.2208" stop-color="#F7F9FB"/>
<stop offset="0.4652" stop-color="#EAECF1"/>
<stop offset="0.7209" stop-color="#D4D7E0"/>
<stop offset="0.983" stop-color="#B5BAC8"/>
<stop offset="1" stop-color="#B3B8C6"/>
</linearGradient>
</defs>
</svg>
