<svg width="140" height="140" viewBox="0 0 140 140" fill="none" xmlns="http://www.w3.org/2000/svg">
<path opacity="0.05" d="M139.286 70.0001C139.286 108.286 108.286 139.286 70.0005 139.286C31.5719 139.429 0.571899 108.429 0.571899 70.0001C0.571899 31.7144 31.5719 0.714355 69.8576 0.714355C108.286 0.714355 139.286 31.7144 139.286 70.0001Z" fill="url(#paint0_linear_1281:21570)"/>
<path opacity="0.1" d="M138.572 70C138.572 107.857 107.858 138.571 70.0005 138.571C32.1434 138.571 1.42909 107.857 1.42909 70C1.28623 32.1429 32.0005 1.42859 69.8577 1.42859C107.858 1.42859 138.572 32.1429 138.572 70Z" fill="url(#paint1_linear_1281:21570)"/>
<path opacity="0.15" d="M137.858 70C137.858 107.571 107.429 137.857 69.8576 137.857C32.4291 138 2.00049 107.571 2.00049 70C2.00049 32.5714 32.4291 2.14282 69.8576 2.14282C107.429 2.14282 137.858 32.5714 137.858 70Z" fill="url(#paint2_linear_1281:21570)"/>
<path opacity="0.2" d="M137.143 70C137.143 107.143 107 137.286 69.8576 137.286C32.8576 137.286 2.71478 107.143 2.71478 70C2.71478 33 32.8576 2.85718 69.8576 2.85718C107 2.85718 137.143 33 137.143 70Z" fill="url(#paint3_linear_1281:21570)"/>
<path opacity="0.25" d="M136.429 70C136.429 106.714 106.715 136.571 69.8576 136.571C33.1433 136.571 3.42902 106.857 3.42902 70C3.42902 33.2857 33.1433 3.57141 69.8576 3.57141C106.715 3.57141 136.429 33.2857 136.429 70Z" fill="url(#paint4_linear_1281:21570)"/>
<path opacity="0.3" d="M135.715 69.9999C135.715 106.286 106.286 135.857 69.8576 135.857C33.5719 135.857 4.14331 106.429 4.14331 69.9999C4.14331 33.7142 33.5719 4.28564 69.8576 4.28564C106.286 4.28564 135.715 33.7142 135.715 69.9999Z" fill="url(#paint5_linear_1281:21570)"/>
<path opacity="0.35" d="M135 70C135 106 105.858 135.143 69.8576 135.143C34.0005 135.143 4.8576 106 4.8576 70C4.8576 34.1429 34.0005 5 69.8576 5C105.858 5 135 34.1429 135 70Z" fill="url(#paint6_linear_1281:21570)"/>
<path opacity="0.4" d="M134.286 70.0001C134.286 105.571 105.429 134.429 69.8576 134.429C34.429 134.429 5.5719 105.571 5.5719 70.0001C5.5719 34.5715 34.429 5.71436 69.8576 5.71436C105.429 5.71436 134.286 34.5715 134.286 70.0001Z" fill="url(#paint7_linear_1281:21570)"/>
<path opacity="0.45" d="M133.572 70.0001C133.572 105.143 105.001 133.714 69.8577 133.714C34.7148 133.714 6.14337 105.143 6.14337 70.0001C6.14337 34.8572 34.7148 6.28577 69.8577 6.28577C105.143 6.42862 133.572 34.8572 133.572 70.0001Z" fill="url(#paint8_linear_1281:21570)"/>
<path opacity="0.5" d="M132.858 70C132.858 104.714 104.715 133 69.8576 133C35.1433 133 7.00049 104.857 7.00049 70C7.00049 35.2857 35.1433 7.14282 69.8576 7.14282C104.715 7.14282 132.858 35.2857 132.858 70Z" fill="url(#paint9_linear_1281:21570)"/>
<path opacity="0.55" d="M132.143 70C132.143 104.429 104.286 132.286 69.8576 132.286C35.5719 132.286 7.71478 104.429 7.71478 70C7.71478 35.7143 35.5719 7.85718 69.8576 7.85718C104.286 7.85718 132.143 35.7143 132.143 70Z" fill="url(#paint10_linear_1281:21570)"/>
<path opacity="0.6" d="M131.429 70C131.429 104 103.858 131.571 69.8576 131.571C35.8576 131.571 8.42902 104 8.42902 70C8.42902 36 35.8576 8.57141 69.8576 8.57141C103.858 8.57141 131.429 36 131.429 70Z" fill="url(#paint11_linear_1281:21570)"/>
<path opacity="0.65" d="M130.715 69.9999C130.715 103.571 103.429 130.857 69.8576 130.857C36.2862 130.857 9.14331 103.714 9.14331 69.9999C9.14331 36.4285 36.2862 9.28564 69.8576 9.28564C103.572 9.28564 130.715 36.4285 130.715 69.9999Z" fill="url(#paint12_linear_1281:21570)"/>
<path opacity="0.7" d="M130 70C130 103.143 103.143 130.143 69.8576 130.143C36.7148 130.143 9.71478 103.286 9.71478 70C9.71478 36.8571 36.7148 10 69.8576 10C103.143 10 130 36.8571 130 70Z" fill="url(#paint13_linear_1281:21570)"/>
<path opacity="0.75" d="M129.286 70.0001C129.286 102.857 102.715 129.429 69.8576 129.429C37.1434 129.429 10.4291 102.857 10.4291 70.0001C10.4291 37.143 37.0005 10.5715 69.8576 10.5715C102.715 10.5715 129.286 37.2858 129.286 70.0001Z" fill="url(#paint14_linear_1281:21570)"/>
<path opacity="0.8" d="M128.572 70.0001C128.572 102.429 102.286 128.714 69.8577 128.714C37.4291 128.714 11.1434 102.429 11.1434 70.0001C11.1434 37.5715 37.4291 11.2858 69.8577 11.2858C102.286 11.2858 128.572 37.5715 128.572 70.0001Z" fill="url(#paint15_linear_1281:21570)"/>
<path opacity="0.85" d="M127.858 70C127.858 102 101.858 128 69.8577 128C37.8577 128 11.8577 102.143 11.8577 70C11.8577 38 37.8577 12 69.8577 12C102.001 12 127.858 38 127.858 70Z" fill="url(#paint16_linear_1281:21570)"/>
<path opacity="0.9" d="M127.143 70.0001C127.143 101.571 101.429 127.286 69.8577 127.286C38.2862 127.286 12.572 101.571 12.572 70.0001C12.572 38.2858 38.2862 12.7144 69.8577 12.7144C101.572 12.7144 127.143 38.4286 127.143 70.0001Z" fill="url(#paint17_linear_1281:21570)"/>
<path opacity="0.95" d="M126.429 70C126.429 101.286 101.143 126.571 69.8576 126.571C38.7148 126.714 13.2862 101.286 13.2862 70C13.2862 38.8572 38.7148 13.4286 69.8576 13.4286C101.143 13.4286 126.429 38.8572 126.429 70Z" fill="url(#paint18_linear_1281:21570)"/>
<path d="M125.858 70C125.858 100.857 100.858 125.857 70.0005 125.857C39.0005 126 14.0005 100.857 14.0005 70C14.0005 39.1428 39.0005 14.1428 69.8576 14.1428C100.715 14.1428 125.858 39.1428 125.858 70Z" fill="url(#paint19_linear_1281:21570)"/>
<path d="M119.715 70C119.715 97.5714 97.4291 119.857 69.8577 119.857C42.2862 119.857 20.1434 97.5714 20.1434 70C20.1434 42.4285 42.4291 20.1428 70.0005 20.1428C97.5719 20.1428 119.715 42.5714 119.715 70Z" fill="#43A10B"/>
<g clip-path="url(#clip0_1281:21570)">
<path d="M55.9038 58.1673C53.2585 58.1673 51.0856 55.9079 51.0856 53.1778C51.0856 50.4476 53.2585 48.1882 55.9038 48.1882C58.549 48.1882 60.7219 50.4476 60.7219 53.1778C60.7219 56.002 58.549 58.1673 55.9038 58.1673ZM55.9038 49.8828C54.2032 49.8828 52.7861 51.3891 52.7861 53.1778C52.7861 54.9665 54.2032 56.4728 55.9038 56.4728C57.6043 56.4728 59.0214 54.9665 59.0214 53.1778C59.0214 51.3891 57.6043 49.8828 55.9038 49.8828Z" fill="white"/>
<path d="M55.9037 93.0001C55.4314 93.0001 55.0535 92.6235 55.0535 92.1528V77.749C55.0535 77.2783 55.4314 76.9017 55.9037 76.9017C56.3761 76.9017 56.754 77.2783 56.754 77.749V92.2469C56.754 92.6235 56.3761 93.0001 55.9037 93.0001Z" fill="white"/>
<path d="M93.6934 93H44.8503C44.3779 93 44 92.6234 44 92.1527C44 91.682 44.3779 91.3054 44.8503 91.3054H93.6934C94.1658 91.3054 94.5437 91.682 94.5437 92.1527C94.5437 92.6234 94.1658 93 93.6934 93Z" fill="white"/>
<path d="M72.6257 93C72.5312 93 72.4367 93 72.3422 92.9059C71.8699 92.7176 71.6809 92.2469 71.8699 91.7762L79.1444 72.6653C79.3333 72.1946 79.8057 72.0063 80.2781 72.1946C80.7504 72.3829 80.9394 72.8536 80.7504 73.3243L73.4759 92.4352C73.287 92.8117 73.0036 93 72.6257 93Z" fill="white"/>
<path d="M87.1747 93C86.7968 93 86.5134 92.8117 86.3244 92.4351L80.7504 77.6548V92.1527C80.7504 92.6234 80.3726 93 79.9002 93C79.4278 93 79.0499 92.6234 79.0499 92.1527V73.0418C79.0499 72.6652 79.3333 72.2887 79.7112 72.1945C80.0891 72.1004 80.5615 72.3828 80.656 72.7594L87.9305 91.8702C88.1194 92.341 87.836 92.8117 87.4581 93C87.3636 93 87.2692 93 87.1747 93Z" fill="white"/>
<path d="M70.0749 69.2762C69.7915 69.2762 69.508 69.0879 69.3191 68.8996C69.0357 68.523 69.2246 67.9582 69.6025 67.6758L75.8378 63.8159C76.1212 63.6276 76.4991 63.6276 76.7825 63.8159L79.4278 65.4163L82.6399 62.7804C82.8289 62.6862 83.0178 62.5921 83.2068 62.5921H86.7023L88.5918 58.9205C88.7808 58.544 89.3476 58.3557 89.7255 58.544C90.1034 58.7322 90.2923 59.2971 90.1034 59.6737L87.9305 63.7218C87.7415 64.0042 87.4581 64.1925 87.1747 64.1925H83.4902L79.9947 67.0168C79.7112 67.205 79.3333 67.2992 78.9554 67.1109L76.2157 65.4163L70.4528 69.0879C70.3583 69.182 70.1693 69.2762 70.0749 69.2762Z" fill="white"/>
<path d="M60.344 93H51.5579C51.0856 93 50.7077 92.6235 50.7077 92.1527V77.3724C50.3298 77.5607 49.8574 77.6548 49.385 77.6548C47.6845 77.6548 46.3618 76.3368 46.3618 74.6423V64.9456C46.3618 62.1214 48.7237 59.7678 51.5579 59.7678H60.1551C60.9109 59.4854 65.0677 57.885 69.1301 53.7427C70.2638 52.613 71.9643 52.5189 73.1925 53.5544C74.4207 54.4958 74.7986 56.0963 73.9483 57.5084C71.8699 60.8975 67.4296 64.9456 61.0998 66.1695V92.2469C61.1943 92.6235 60.8164 93 60.344 93ZM52.4082 91.3055H59.4938V65.3222C59.4938 64.9456 59.7772 64.5691 60.2495 64.4749C66.3904 63.5335 70.6417 59.7678 72.6257 56.567C73.0036 56.0021 72.8146 55.3431 72.2478 54.8724C71.6809 54.4017 70.9251 54.4958 70.4528 54.9665C65.6346 59.7678 60.9109 61.3682 60.6274 61.3682C60.533 61.3682 60.4385 61.3682 60.344 61.3682H51.5579C49.6684 61.3682 48.0624 62.9686 48.0624 64.8515V74.5481C48.0624 75.3013 48.6292 75.8661 49.385 75.8661C50.1408 75.8661 50.7077 75.3013 50.7077 74.5481C50.7077 74.0774 51.0856 73.7009 51.5579 73.7009C52.0303 73.7009 52.4082 74.0774 52.4082 74.5481V91.3055Z" fill="white"/>
<path d="M51.5579 75.4896C51.0856 75.4896 50.7077 75.113 50.7077 74.6423V67.2992C50.7077 66.8285 51.0856 66.4519 51.5579 66.4519C52.0303 66.4519 52.4082 66.8285 52.4082 67.2992V74.6423C52.4082 75.113 52.0303 75.4896 51.5579 75.4896Z" fill="white"/>
<path d="M93.6934 73.8891H91.5205C91.0481 73.8891 90.6702 73.5126 90.6702 73.0418C90.6702 72.5711 91.0481 72.1946 91.5205 72.1946H92.8431V52.8013C92.8431 52.3305 93.221 51.954 93.6934 51.954H95.2995V49.6946H64.5009V51.954H66.107C66.5793 51.954 66.9572 52.3305 66.9572 52.8013V55.7197C67.713 55.0607 68.4688 54.4017 69.1301 53.7427C70.2638 52.613 71.9643 52.5188 73.1925 53.5544C74.4207 54.4958 74.7986 56.0962 73.9483 57.5084C73.1925 58.7322 71.0196 61.8389 66.8627 64.0983V72.2887H85.2852C85.7576 72.2887 86.1355 72.6653 86.1355 73.136C86.1355 73.6067 85.7576 73.9833 85.2852 73.9833H66.107C65.6346 73.9833 65.2567 73.6067 65.2567 73.136V63.4393C65.2567 63.1569 65.4456 62.7803 65.7291 62.6862C69.8859 60.5209 72.0588 57.4142 72.5312 56.5669C72.9091 56.0021 72.7201 55.3431 72.1533 54.8724C71.5865 54.4017 70.8307 54.4958 70.3583 54.9665C69.2246 56.0962 67.902 57.2259 66.5793 58.1674C66.2959 58.3556 66.0125 58.3556 65.7291 58.2615C65.4456 58.0732 65.2567 57.7908 65.2567 57.5084V53.6485H63.6506C63.1783 53.6485 62.8004 53.272 62.8004 52.8013V48.8473C62.8004 48.3766 63.1783 48 63.6506 48H96.2442C96.7166 48 97.0945 48.3766 97.0945 48.8473V52.8013C97.0945 53.272 96.7166 53.6485 96.2442 53.6485H94.6381V73.0418C94.5437 73.5126 94.1658 73.8891 93.6934 73.8891Z" fill="white"/>
<path d="M87.836 53.6485H66.107C65.6346 53.6485 65.2567 53.272 65.2567 52.8013C65.2567 52.3305 65.6346 51.954 66.107 51.954H87.836C88.3084 51.954 88.6863 52.3305 88.6863 52.8013C88.6863 53.272 88.3084 53.6485 87.836 53.6485Z" fill="white"/>
</g>
<defs>
<linearGradient id="paint0_linear_1281:21570" x1="20.8789" y1="21.0222" x2="118.952" y2="119.095" gradientUnits="userSpaceOnUse">
<stop stop-color="#FCFDFF"/>
<stop offset="0.2208" stop-color="#F7F9FB"/>
<stop offset="0.4652" stop-color="#EAECF1"/>
<stop offset="0.7209" stop-color="#D4D7E0"/>
<stop offset="0.983" stop-color="#B5BAC8"/>
<stop offset="1" stop-color="#B3B8C6"/>
</linearGradient>
<linearGradient id="paint1_linear_1281:21570" x1="21.3804" y1="21.5236" x2="118.45" y2="118.593" gradientUnits="userSpaceOnUse">
<stop stop-color="#FCFDFF"/>
<stop offset="0.2208" stop-color="#F7F9FB"/>
<stop offset="0.4652" stop-color="#EAECF1"/>
<stop offset="0.7209" stop-color="#D4D7E0"/>
<stop offset="0.983" stop-color="#B5BAC8"/>
<stop offset="1" stop-color="#B3B8C6"/>
</linearGradient>
<linearGradient id="paint2_linear_1281:21570" x1="21.8818" y1="22.025" x2="117.949" y2="118.092" gradientUnits="userSpaceOnUse">
<stop stop-color="#FCFDFF"/>
<stop offset="0.2208" stop-color="#F7F9FB"/>
<stop offset="0.4652" stop-color="#EAECF1"/>
<stop offset="0.7209" stop-color="#D4D7E0"/>
<stop offset="0.983" stop-color="#B5BAC8"/>
<stop offset="1" stop-color="#B3B8C6"/>
</linearGradient>
<linearGradient id="paint3_linear_1281:21570" x1="22.3832" y1="22.5265" x2="117.447" y2="117.591" gradientUnits="userSpaceOnUse">
<stop stop-color="#FCFDFF"/>
<stop offset="0.2208" stop-color="#F7F9FB"/>
<stop offset="0.4652" stop-color="#EAECF1"/>
<stop offset="0.7209" stop-color="#D4D7E0"/>
<stop offset="0.983" stop-color="#B5BAC8"/>
<stop offset="1" stop-color="#B3B8C6"/>
</linearGradient>
<linearGradient id="paint4_linear_1281:21570" x1="22.8846" y1="23.0278" x2="116.946" y2="117.089" gradientUnits="userSpaceOnUse">
<stop stop-color="#FCFDFF"/>
<stop offset="0.2208" stop-color="#F7F9FB"/>
<stop offset="0.4652" stop-color="#EAECF1"/>
<stop offset="0.7209" stop-color="#D4D7E0"/>
<stop offset="0.983" stop-color="#B5BAC8"/>
<stop offset="1" stop-color="#B3B8C6"/>
</linearGradient>
<linearGradient id="paint5_linear_1281:21570" x1="23.386" y1="23.5292" x2="116.445" y2="116.588" gradientUnits="userSpaceOnUse">
<stop stop-color="#FCFDFF"/>
<stop offset="0.2208" stop-color="#F7F9FB"/>
<stop offset="0.4652" stop-color="#EAECF1"/>
<stop offset="0.7209" stop-color="#D4D7E0"/>
<stop offset="0.983" stop-color="#B5BAC8"/>
<stop offset="1" stop-color="#B3B8C6"/>
</linearGradient>
<linearGradient id="paint6_linear_1281:21570" x1="23.8875" y1="24.0307" x2="115.943" y2="116.087" gradientUnits="userSpaceOnUse">
<stop stop-color="#FCFDFF"/>
<stop offset="0.2208" stop-color="#F7F9FB"/>
<stop offset="0.4652" stop-color="#EAECF1"/>
<stop offset="0.7209" stop-color="#D4D7E0"/>
<stop offset="0.983" stop-color="#B5BAC8"/>
<stop offset="1" stop-color="#B3B8C6"/>
</linearGradient>
<linearGradient id="paint7_linear_1281:21570" x1="24.3889" y1="24.5322" x2="115.442" y2="115.585" gradientUnits="userSpaceOnUse">
<stop stop-color="#FCFDFF"/>
<stop offset="0.2208" stop-color="#F7F9FB"/>
<stop offset="0.4652" stop-color="#EAECF1"/>
<stop offset="0.7209" stop-color="#D4D7E0"/>
<stop offset="0.983" stop-color="#B5BAC8"/>
<stop offset="1" stop-color="#B3B8C6"/>
</linearGradient>
<linearGradient id="paint8_linear_1281:21570" x1="24.8904" y1="25.0336" x2="114.941" y2="115.084" gradientUnits="userSpaceOnUse">
<stop stop-color="#FCFDFF"/>
<stop offset="0.2208" stop-color="#F7F9FB"/>
<stop offset="0.4652" stop-color="#EAECF1"/>
<stop offset="0.7209" stop-color="#D4D7E0"/>
<stop offset="0.983" stop-color="#B5BAC8"/>
<stop offset="1" stop-color="#B3B8C6"/>
</linearGradient>
<linearGradient id="paint9_linear_1281:21570" x1="25.3918" y1="25.535" x2="114.439" y2="114.583" gradientUnits="userSpaceOnUse">
<stop stop-color="#FCFDFF"/>
<stop offset="0.2208" stop-color="#F7F9FB"/>
<stop offset="0.4652" stop-color="#EAECF1"/>
<stop offset="0.7209" stop-color="#D4D7E0"/>
<stop offset="0.983" stop-color="#B5BAC8"/>
<stop offset="1" stop-color="#B3B8C6"/>
</linearGradient>
<linearGradient id="paint10_linear_1281:21570" x1="25.8932" y1="26.0365" x2="113.938" y2="114.081" gradientUnits="userSpaceOnUse">
<stop stop-color="#FCFDFF"/>
<stop offset="0.2208" stop-color="#F7F9FB"/>
<stop offset="0.4652" stop-color="#EAECF1"/>
<stop offset="0.7209" stop-color="#D4D7E0"/>
<stop offset="0.983" stop-color="#B5BAC8"/>
<stop offset="1" stop-color="#B3B8C6"/>
</linearGradient>
<linearGradient id="paint11_linear_1281:21570" x1="26.3946" y1="26.5378" x2="113.437" y2="113.58" gradientUnits="userSpaceOnUse">
<stop stop-color="#FCFDFF"/>
<stop offset="0.2208" stop-color="#F7F9FB"/>
<stop offset="0.4652" stop-color="#EAECF1"/>
<stop offset="0.7209" stop-color="#D4D7E0"/>
<stop offset="0.983" stop-color="#B5BAC8"/>
<stop offset="1" stop-color="#B3B8C6"/>
</linearGradient>
<linearGradient id="paint12_linear_1281:21570" x1="26.896" y1="27.0392" x2="112.935" y2="113.078" gradientUnits="userSpaceOnUse">
<stop stop-color="#FCFDFF"/>
<stop offset="0.2208" stop-color="#F7F9FB"/>
<stop offset="0.4652" stop-color="#EAECF1"/>
<stop offset="0.7209" stop-color="#D4D7E0"/>
<stop offset="0.983" stop-color="#B5BAC8"/>
<stop offset="1" stop-color="#B3B8C6"/>
</linearGradient>
<linearGradient id="paint13_linear_1281:21570" x1="27.3974" y1="27.5407" x2="112.434" y2="112.577" gradientUnits="userSpaceOnUse">
<stop stop-color="#FCFDFF"/>
<stop offset="0.2208" stop-color="#F7F9FB"/>
<stop offset="0.4652" stop-color="#EAECF1"/>
<stop offset="0.7209" stop-color="#D4D7E0"/>
<stop offset="0.983" stop-color="#B5BAC8"/>
<stop offset="1" stop-color="#B3B8C6"/>
</linearGradient>
<linearGradient id="paint14_linear_1281:21570" x1="27.8988" y1="28.0421" x2="111.933" y2="112.076" gradientUnits="userSpaceOnUse">
<stop stop-color="#FCFDFF"/>
<stop offset="0.2208" stop-color="#F7F9FB"/>
<stop offset="0.4652" stop-color="#EAECF1"/>
<stop offset="0.7209" stop-color="#D4D7E0"/>
<stop offset="0.983" stop-color="#B5BAC8"/>
<stop offset="1" stop-color="#B3B8C6"/>
</linearGradient>
<linearGradient id="paint15_linear_1281:21570" x1="28.4002" y1="28.5435" x2="111.431" y2="111.574" gradientUnits="userSpaceOnUse">
<stop stop-color="#FCFDFF"/>
<stop offset="0.2208" stop-color="#F7F9FB"/>
<stop offset="0.4652" stop-color="#EAECF1"/>
<stop offset="0.7209" stop-color="#D4D7E0"/>
<stop offset="0.983" stop-color="#B5BAC8"/>
<stop offset="1" stop-color="#B3B8C6"/>
</linearGradient>
<linearGradient id="paint16_linear_1281:21570" x1="28.9017" y1="29.0449" x2="110.93" y2="111.073" gradientUnits="userSpaceOnUse">
<stop stop-color="#FCFDFF"/>
<stop offset="0.2208" stop-color="#F7F9FB"/>
<stop offset="0.4652" stop-color="#EAECF1"/>
<stop offset="0.7209" stop-color="#D4D7E0"/>
<stop offset="0.983" stop-color="#B5BAC8"/>
<stop offset="1" stop-color="#B3B8C6"/>
</linearGradient>
<linearGradient id="paint17_linear_1281:21570" x1="29.4031" y1="29.5464" x2="110.428" y2="110.572" gradientUnits="userSpaceOnUse">
<stop stop-color="#FCFDFF"/>
<stop offset="0.2208" stop-color="#F7F9FB"/>
<stop offset="0.4652" stop-color="#EAECF1"/>
<stop offset="0.7209" stop-color="#D4D7E0"/>
<stop offset="0.983" stop-color="#B5BAC8"/>
<stop offset="1" stop-color="#B3B8C6"/>
</linearGradient>
<linearGradient id="paint18_linear_1281:21570" x1="29.9045" y1="30.0477" x2="109.927" y2="110.07" gradientUnits="userSpaceOnUse">
<stop stop-color="#FCFDFF"/>
<stop offset="0.2208" stop-color="#F7F9FB"/>
<stop offset="0.4652" stop-color="#EAECF1"/>
<stop offset="0.7209" stop-color="#D4D7E0"/>
<stop offset="0.983" stop-color="#B5BAC8"/>
<stop offset="1" stop-color="#B3B8C6"/>
</linearGradient>
<linearGradient id="paint19_linear_1281:21570" x1="30.4059" y1="30.5491" x2="109.426" y2="109.569" gradientUnits="userSpaceOnUse">
<stop stop-color="#FCFDFF"/>
<stop offset="0.2208" stop-color="#F7F9FB"/>
<stop offset="0.4652" stop-color="#EAECF1"/>
<stop offset="0.7209" stop-color="#D4D7E0"/>
<stop offset="0.983" stop-color="#B5BAC8"/>
<stop offset="1" stop-color="#B3B8C6"/>
</linearGradient>
<clipPath id="clip0_1281:21570">
<rect width="53" height="45" fill="white" transform="translate(44 48)"/>
</clipPath>
</defs>
</svg>
