<svg width="140" height="140" viewBox="0 0 140 140" fill="none" xmlns="http://www.w3.org/2000/svg">
<path opacity="0.05" d="M139.286 70.0001C139.286 108.286 108.286 139.286 70.0005 139.286C31.5719 139.429 0.571899 108.429 0.571899 70.0001C0.571899 31.7144 31.5719 0.714355 69.8576 0.714355C108.286 0.714355 139.286 31.7144 139.286 70.0001Z" fill="url(#paint0_linear_1281:21572)"/>
<path opacity="0.1" d="M138.572 70C138.572 107.857 107.858 138.571 70.0005 138.571C32.1434 138.571 1.42909 107.857 1.42909 70C1.28623 32.1429 32.0005 1.42859 69.8577 1.42859C107.858 1.42859 138.572 32.1429 138.572 70Z" fill="url(#paint1_linear_1281:21572)"/>
<path opacity="0.15" d="M137.858 70C137.858 107.571 107.429 137.857 69.8576 137.857C32.4291 138 2.00049 107.571 2.00049 70C2.00049 32.5714 32.4291 2.14282 69.8576 2.14282C107.429 2.14282 137.858 32.5714 137.858 70Z" fill="url(#paint2_linear_1281:21572)"/>
<path opacity="0.2" d="M137.143 70C137.143 107.143 107 137.286 69.8576 137.286C32.8576 137.286 2.71472 107.143 2.71472 70C2.71472 33 32.8576 2.85718 69.8576 2.85718C107 2.85718 137.143 33 137.143 70Z" fill="url(#paint3_linear_1281:21572)"/>
<path opacity="0.25" d="M136.429 70C136.429 106.714 106.715 136.571 69.8577 136.571C33.1434 136.571 3.42908 106.857 3.42908 70C3.42908 33.2857 33.1434 3.57141 69.8577 3.57141C106.715 3.57141 136.429 33.2857 136.429 70Z" fill="url(#paint4_linear_1281:21572)"/>
<path opacity="0.3" d="M135.715 69.9999C135.715 106.286 106.286 135.857 69.8576 135.857C33.5719 135.857 4.14331 106.429 4.14331 69.9999C4.14331 33.7142 33.5719 4.28564 69.8576 4.28564C106.286 4.28564 135.715 33.7142 135.715 69.9999Z" fill="url(#paint5_linear_1281:21572)"/>
<path opacity="0.35" d="M135.001 70C135.001 106 105.858 135.143 69.8577 135.143C34.0005 135.143 4.85767 106 4.85767 70C4.85767 34.1429 34.0005 5 69.8577 5C105.858 5 135.001 34.1429 135.001 70Z" fill="url(#paint6_linear_1281:21572)"/>
<path opacity="0.4" d="M134.286 70.0001C134.286 105.571 105.429 134.429 69.8576 134.429C34.429 134.429 5.5719 105.571 5.5719 70.0001C5.5719 34.5715 34.429 5.71436 69.8576 5.71436C105.429 5.71436 134.286 34.5715 134.286 70.0001Z" fill="url(#paint7_linear_1281:21572)"/>
<path opacity="0.45" d="M133.572 70.0001C133.572 105.143 105 133.714 69.8576 133.714C34.7147 133.714 6.14331 105.143 6.14331 70.0001C6.14331 34.8572 34.7147 6.28577 69.8576 6.28577C105.143 6.42862 133.572 34.8572 133.572 70.0001Z" fill="url(#paint8_linear_1281:21572)"/>
<path opacity="0.5" d="M132.858 70C132.858 104.714 104.715 133 69.8576 133C35.1433 133 7.00049 104.857 7.00049 70C7.00049 35.2857 35.1433 7.14282 69.8576 7.14282C104.715 7.14282 132.858 35.2857 132.858 70Z" fill="url(#paint9_linear_1281:21572)"/>
<path opacity="0.55" d="M132.143 70C132.143 104.429 104.286 132.286 69.8576 132.286C35.5719 132.286 7.71472 104.429 7.71472 70C7.71472 35.7143 35.5719 7.85718 69.8576 7.85718C104.286 7.85718 132.143 35.7143 132.143 70Z" fill="url(#paint10_linear_1281:21572)"/>
<path opacity="0.6" d="M131.429 70C131.429 104 103.858 131.571 69.8577 131.571C35.8577 131.571 8.42908 104 8.42908 70C8.42908 36 35.8577 8.57141 69.8577 8.57141C103.858 8.57141 131.429 36 131.429 70Z" fill="url(#paint11_linear_1281:21572)"/>
<path opacity="0.65" d="M130.715 69.9999C130.715 103.571 103.429 130.857 69.8576 130.857C36.2862 130.857 9.14331 103.714 9.14331 69.9999C9.14331 36.4285 36.2862 9.28564 69.8576 9.28564C103.572 9.28564 130.715 36.4285 130.715 69.9999Z" fill="url(#paint12_linear_1281:21572)"/>
<path opacity="0.7" d="M130.001 70C130.001 103.143 103.143 130.143 69.8577 130.143C36.7148 130.143 9.71484 103.286 9.71484 70C9.71484 36.8571 36.7148 10 69.8577 10C103.143 10 130.001 36.8571 130.001 70Z" fill="url(#paint13_linear_1281:21572)"/>
<path opacity="0.75" d="M129.286 70.0001C129.286 102.857 102.715 129.429 69.8576 129.429C37.1434 129.429 10.4291 102.857 10.4291 70.0001C10.4291 37.143 37.0005 10.5715 69.8576 10.5715C102.715 10.5715 129.286 37.2858 129.286 70.0001Z" fill="url(#paint14_linear_1281:21572)"/>
<path opacity="0.8" d="M128.572 70.0001C128.572 102.429 102.286 128.714 69.8576 128.714C37.429 128.714 11.1433 102.429 11.1433 70.0001C11.1433 37.5715 37.429 11.2858 69.8576 11.2858C102.286 11.2858 128.572 37.5715 128.572 70.0001Z" fill="url(#paint15_linear_1281:21572)"/>
<path opacity="0.85" d="M127.858 70C127.858 102 101.858 128 69.8577 128C37.8577 128 11.8577 102.143 11.8577 70C11.8577 38 37.8577 12 69.8577 12C102.001 12 127.858 38 127.858 70Z" fill="url(#paint16_linear_1281:21572)"/>
<path opacity="0.9" d="M127.143 70.0001C127.143 101.571 101.429 127.286 69.8576 127.286C38.2862 127.286 12.5719 101.571 12.5719 70.0001C12.5719 38.2858 38.2862 12.7144 69.8576 12.7144C101.572 12.7144 127.143 38.4286 127.143 70.0001Z" fill="url(#paint17_linear_1281:21572)"/>
<path opacity="0.95" d="M126.429 70C126.429 101.286 101.143 126.571 69.8577 126.571C38.7148 126.714 13.2863 101.286 13.2863 70C13.2863 38.8572 38.7148 13.4286 69.8577 13.4286C101.143 13.4286 126.429 38.8572 126.429 70Z" fill="url(#paint18_linear_1281:21572)"/>
<path d="M125.858 70C125.858 100.857 100.858 125.857 70.0005 125.857C39.0005 126 14.0005 100.857 14.0005 70C14.0005 39.1428 39.0005 14.1428 69.8576 14.1428C100.715 14.1428 125.858 39.1428 125.858 70Z" fill="url(#paint19_linear_1281:21572)"/>
<path d="M119.715 70C119.715 97.5714 97.429 119.857 69.8576 119.857C42.2862 119.857 20.1433 97.5714 20.1433 70C20.1433 42.4285 42.429 20.1428 70.0005 20.1428C97.5719 20.1428 119.715 42.5714 119.715 70Z" fill="#43A10B"/>
<path d="M75.9495 75.1097C82.1303 75.1097 87.1466 70.1149 87.1466 63.9605C87.1466 57.8061 82.1303 52.8113 75.9495 52.8113C69.7687 52.8113 64.7524 57.8061 64.7524 63.9605C64.7524 70.1149 69.7687 75.1097 75.9495 75.1097ZM75.9495 54.5952C81.1449 54.5952 85.355 58.7873 85.355 63.9605C85.355 69.1337 81.1449 73.3259 75.9495 73.3259C70.7541 73.3259 66.544 69.1337 66.544 63.9605C66.544 58.7873 70.7541 54.5952 75.9495 54.5952Z" fill="white"/>
<path d="M75.9495 50.3139C76.487 50.3139 76.8453 49.8679 76.8453 49.422V43.8919C76.8453 43.3568 76.3974 43 75.9495 43C75.5016 43 75.0537 43.446 75.0537 43.8919V49.422C75.0537 49.9571 75.412 50.3139 75.9495 50.3139Z" fill="white"/>
<path d="M82.7573 52.187C82.9365 52.2762 83.0261 52.2762 83.2052 52.2762C83.4739 52.2762 83.8323 52.0978 84.0114 51.8302L86.7883 47.0137C87.057 46.5677 86.8778 46.0326 86.43 45.765C85.9821 45.4974 85.4446 45.6758 85.1759 46.1218L82.399 50.9382C82.2199 51.3842 82.3094 51.9194 82.7573 52.187Z" fill="white"/>
<path d="M88.5798 57.6277C88.759 57.6277 88.8485 57.6277 89.0277 57.5385L93.8648 54.7735C94.3127 54.506 94.4023 53.9708 94.2231 53.5248C93.9544 53.0789 93.4169 52.9897 92.9691 53.168L88.1319 55.9331C87.684 56.2006 87.5945 56.7358 87.7736 57.1818C87.9528 57.4494 88.2215 57.6277 88.5798 57.6277Z" fill="white"/>
<path d="M96.1042 63.0686H90.5505C90.013 63.0686 89.6547 63.5146 89.6547 63.9605C89.6547 64.4065 90.1026 64.8525 90.5505 64.8525H96.1042C96.6417 64.8525 97 64.4065 97 63.9605C97 63.5146 96.5521 63.0686 96.1042 63.0686Z" fill="white"/>
<path d="M55.7948 64.8525H61.3485C61.886 64.8525 62.2443 64.4065 62.2443 63.9605C62.2443 63.5146 61.7964 63.0686 61.3485 63.0686H55.7948C55.2573 63.0686 54.899 63.5146 54.899 63.9605C54.899 64.4065 55.2573 64.8525 55.7948 64.8525Z" fill="white"/>
<path d="M58.0342 54.6843L62.8713 57.4493C63.0505 57.5385 63.1401 57.5385 63.3192 57.5385C63.5879 57.5385 63.9463 57.3602 64.1254 57.0926C64.3941 56.6466 64.215 56.1114 63.7671 55.8439L58.93 53.0788C58.4821 52.8113 57.9446 52.9897 57.6759 53.4356C57.4072 53.8816 57.5863 54.4168 58.0342 54.6843Z" fill="white"/>
<path d="M67.8876 51.8302C68.0668 52.0977 68.3355 52.2761 68.6938 52.2761C68.873 52.2761 68.9625 52.2761 69.1417 52.1869C69.5896 51.9193 69.6792 51.3842 69.5 50.9382L66.7231 46.1217C66.4544 45.6758 65.9169 45.5866 65.4691 45.765C65.0212 46.0326 64.9316 46.5677 65.1108 47.0137L67.8876 51.8302Z" fill="white"/>
<path d="M85.355 78.0532L78.3681 82.2453C78.1889 82.1561 78.0098 81.9777 77.8306 81.8885L62.7818 74.2178C61.0798 73.3259 59.1987 72.9691 57.3176 73.2367L55.3469 73.4151C55.2573 71.8096 54.0033 70.4717 52.3013 70.4717H45.0456C43.3436 70.4717 42 71.8096 42 73.5043V89.7375C42 91.4322 43.3436 92.7701 45.0456 92.7701H52.3013C53.5554 92.7701 54.7199 91.9674 55.1678 90.8079L72.7248 94.7324C73.2622 94.8216 73.7997 94.9108 74.3371 94.9108C76.0391 94.9108 77.741 94.2864 78.9951 93.2161L89.8339 84.2967C91.4463 83.048 91.8046 80.6398 90.5505 78.9451C89.386 77.4288 87.1466 76.9828 85.355 78.0532ZM52.3013 90.9863H51.943V81.9777C51.943 81.4425 51.4951 81.0857 51.0472 81.0857C50.5993 81.0857 50.1515 81.5317 50.1515 81.9777V90.9863H47.1954V85.6346C47.1954 85.0995 46.7476 84.7427 46.2997 84.7427C45.8518 84.7427 45.4039 85.1887 45.4039 85.6346V90.9863H45.0456C44.329 90.9863 43.7915 90.4511 43.7915 89.7375V73.5043C43.7915 72.7907 44.329 72.2556 45.0456 72.2556H52.3013C53.0179 72.2556 53.5554 72.7907 53.5554 73.5043V74.3962V89.7375C53.4658 90.4511 52.9283 90.9863 52.3013 90.9863ZM88.6694 83.048L77.8306 91.9674C76.487 93.0377 74.6954 93.4837 73.0831 93.1269L55.3469 89.1132V87.5969L60.9902 88.9348C61.0798 88.9348 61.1694 88.9348 61.1694 88.9348C61.6173 88.9348 61.9756 88.6672 62.0651 88.2213C62.1547 87.7753 61.886 87.2401 61.4381 87.1509L55.3469 85.813V75.199L57.4967 74.9314C59.0195 74.753 60.5423 75.0206 61.9756 75.7341L77.0244 83.4048C77.2036 83.494 77.3827 83.6724 77.5619 83.8508C77.5619 83.8508 77.5619 83.8508 77.6515 83.9399C77.8306 84.1183 77.9202 84.2967 78.0098 84.5643C78.1889 85.0103 78.0993 85.5454 77.8306 85.9914C77.3827 86.705 76.5765 87.0617 75.7704 86.7941L66.1857 83.9399C65.7378 83.7616 65.2003 84.0291 65.0212 84.5643C64.842 85.0103 65.1107 85.5454 65.6482 85.7238L75.1433 88.4888C76.7557 88.9348 78.4577 88.3104 79.2638 86.8833C79.8013 85.9914 79.8909 85.0103 79.6221 84.1183C79.6221 83.9399 79.5326 83.8508 79.443 83.7616L86.2508 79.7478C87.2362 79.2127 88.4007 79.4803 89.0277 80.3722C89.7443 81.0857 89.5651 82.3345 88.6694 83.048Z" fill="white"/>
<path d="M48.6287 73.415C47.1059 73.415 45.8518 74.6638 45.8518 76.18C45.8518 77.6963 47.1059 78.9451 48.6287 78.9451C50.1515 78.9451 51.4055 77.6963 51.4055 76.18C51.4055 74.6638 50.1515 73.415 48.6287 73.415ZM48.6287 77.1612C48.0912 77.1612 47.6433 76.7152 47.6433 76.18C47.6433 75.6449 48.0912 75.1989 48.6287 75.1989C49.1661 75.1989 49.614 75.6449 49.614 76.18C49.614 76.7152 49.1661 77.1612 48.6287 77.1612Z" fill="white"/>
<path d="M72.9935 69.669H74.8746V67.8851H78.6368V66.6364H74.8746V65.566H77.2036C78.1889 65.566 79.0847 65.2093 79.8013 64.5849C80.5179 63.8714 80.8762 63.0686 80.8762 62.0875C80.8762 61.1064 80.5179 60.2144 79.8013 59.5009C79.0847 58.7873 78.1889 58.4305 77.2036 58.4305H72.9935V63.9606H71.7394V65.6552H72.9935V66.7256H71.7394V67.9743H72.9935V69.669ZM74.8746 60.2144H77.2036C77.741 60.2144 78.0993 60.3928 78.4577 60.7496C78.816 61.1064 78.9951 61.5523 78.9951 62.0875C78.9951 62.6227 78.816 63.0686 78.4577 63.4254C78.0993 63.7822 77.6515 63.9606 77.2036 63.9606H74.8746V60.2144Z" fill="white"/>
<defs>
<linearGradient id="paint0_linear_1281:21572" x1="20.8789" y1="21.0222" x2="118.952" y2="119.095" gradientUnits="userSpaceOnUse">
<stop stop-color="#FCFDFF"/>
<stop offset="0.2208" stop-color="#F7F9FB"/>
<stop offset="0.4652" stop-color="#EAECF1"/>
<stop offset="0.7209" stop-color="#D4D7E0"/>
<stop offset="0.983" stop-color="#B5BAC8"/>
<stop offset="1" stop-color="#B3B8C6"/>
</linearGradient>
<linearGradient id="paint1_linear_1281:21572" x1="21.3804" y1="21.5236" x2="118.45" y2="118.593" gradientUnits="userSpaceOnUse">
<stop stop-color="#FCFDFF"/>
<stop offset="0.2208" stop-color="#F7F9FB"/>
<stop offset="0.4652" stop-color="#EAECF1"/>
<stop offset="0.7209" stop-color="#D4D7E0"/>
<stop offset="0.983" stop-color="#B5BAC8"/>
<stop offset="1" stop-color="#B3B8C6"/>
</linearGradient>
<linearGradient id="paint2_linear_1281:21572" x1="21.8818" y1="22.025" x2="117.949" y2="118.092" gradientUnits="userSpaceOnUse">
<stop stop-color="#FCFDFF"/>
<stop offset="0.2208" stop-color="#F7F9FB"/>
<stop offset="0.4652" stop-color="#EAECF1"/>
<stop offset="0.7209" stop-color="#D4D7E0"/>
<stop offset="0.983" stop-color="#B5BAC8"/>
<stop offset="1" stop-color="#B3B8C6"/>
</linearGradient>
<linearGradient id="paint3_linear_1281:21572" x1="22.3832" y1="22.5265" x2="117.447" y2="117.591" gradientUnits="userSpaceOnUse">
<stop stop-color="#FCFDFF"/>
<stop offset="0.2208" stop-color="#F7F9FB"/>
<stop offset="0.4652" stop-color="#EAECF1"/>
<stop offset="0.7209" stop-color="#D4D7E0"/>
<stop offset="0.983" stop-color="#B5BAC8"/>
<stop offset="1" stop-color="#B3B8C6"/>
</linearGradient>
<linearGradient id="paint4_linear_1281:21572" x1="22.8846" y1="23.0278" x2="116.946" y2="117.089" gradientUnits="userSpaceOnUse">
<stop stop-color="#FCFDFF"/>
<stop offset="0.2208" stop-color="#F7F9FB"/>
<stop offset="0.4652" stop-color="#EAECF1"/>
<stop offset="0.7209" stop-color="#D4D7E0"/>
<stop offset="0.983" stop-color="#B5BAC8"/>
<stop offset="1" stop-color="#B3B8C6"/>
</linearGradient>
<linearGradient id="paint5_linear_1281:21572" x1="23.386" y1="23.5292" x2="116.445" y2="116.588" gradientUnits="userSpaceOnUse">
<stop stop-color="#FCFDFF"/>
<stop offset="0.2208" stop-color="#F7F9FB"/>
<stop offset="0.4652" stop-color="#EAECF1"/>
<stop offset="0.7209" stop-color="#D4D7E0"/>
<stop offset="0.983" stop-color="#B5BAC8"/>
<stop offset="1" stop-color="#B3B8C6"/>
</linearGradient>
<linearGradient id="paint6_linear_1281:21572" x1="23.8875" y1="24.0307" x2="115.944" y2="116.087" gradientUnits="userSpaceOnUse">
<stop stop-color="#FCFDFF"/>
<stop offset="0.2208" stop-color="#F7F9FB"/>
<stop offset="0.4652" stop-color="#EAECF1"/>
<stop offset="0.7209" stop-color="#D4D7E0"/>
<stop offset="0.983" stop-color="#B5BAC8"/>
<stop offset="1" stop-color="#B3B8C6"/>
</linearGradient>
<linearGradient id="paint7_linear_1281:21572" x1="24.3889" y1="24.5322" x2="115.442" y2="115.585" gradientUnits="userSpaceOnUse">
<stop stop-color="#FCFDFF"/>
<stop offset="0.2208" stop-color="#F7F9FB"/>
<stop offset="0.4652" stop-color="#EAECF1"/>
<stop offset="0.7209" stop-color="#D4D7E0"/>
<stop offset="0.983" stop-color="#B5BAC8"/>
<stop offset="1" stop-color="#B3B8C6"/>
</linearGradient>
<linearGradient id="paint8_linear_1281:21572" x1="24.8903" y1="25.0336" x2="114.941" y2="115.084" gradientUnits="userSpaceOnUse">
<stop stop-color="#FCFDFF"/>
<stop offset="0.2208" stop-color="#F7F9FB"/>
<stop offset="0.4652" stop-color="#EAECF1"/>
<stop offset="0.7209" stop-color="#D4D7E0"/>
<stop offset="0.983" stop-color="#B5BAC8"/>
<stop offset="1" stop-color="#B3B8C6"/>
</linearGradient>
<linearGradient id="paint9_linear_1281:21572" x1="25.3918" y1="25.535" x2="114.439" y2="114.583" gradientUnits="userSpaceOnUse">
<stop stop-color="#FCFDFF"/>
<stop offset="0.2208" stop-color="#F7F9FB"/>
<stop offset="0.4652" stop-color="#EAECF1"/>
<stop offset="0.7209" stop-color="#D4D7E0"/>
<stop offset="0.983" stop-color="#B5BAC8"/>
<stop offset="1" stop-color="#B3B8C6"/>
</linearGradient>
<linearGradient id="paint10_linear_1281:21572" x1="25.8932" y1="26.0365" x2="113.938" y2="114.081" gradientUnits="userSpaceOnUse">
<stop stop-color="#FCFDFF"/>
<stop offset="0.2208" stop-color="#F7F9FB"/>
<stop offset="0.4652" stop-color="#EAECF1"/>
<stop offset="0.7209" stop-color="#D4D7E0"/>
<stop offset="0.983" stop-color="#B5BAC8"/>
<stop offset="1" stop-color="#B3B8C6"/>
</linearGradient>
<linearGradient id="paint11_linear_1281:21572" x1="26.3946" y1="26.5378" x2="113.437" y2="113.58" gradientUnits="userSpaceOnUse">
<stop stop-color="#FCFDFF"/>
<stop offset="0.2208" stop-color="#F7F9FB"/>
<stop offset="0.4652" stop-color="#EAECF1"/>
<stop offset="0.7209" stop-color="#D4D7E0"/>
<stop offset="0.983" stop-color="#B5BAC8"/>
<stop offset="1" stop-color="#B3B8C6"/>
</linearGradient>
<linearGradient id="paint12_linear_1281:21572" x1="26.896" y1="27.0392" x2="112.935" y2="113.078" gradientUnits="userSpaceOnUse">
<stop stop-color="#FCFDFF"/>
<stop offset="0.2208" stop-color="#F7F9FB"/>
<stop offset="0.4652" stop-color="#EAECF1"/>
<stop offset="0.7209" stop-color="#D4D7E0"/>
<stop offset="0.983" stop-color="#B5BAC8"/>
<stop offset="1" stop-color="#B3B8C6"/>
</linearGradient>
<linearGradient id="paint13_linear_1281:21572" x1="27.3974" y1="27.5407" x2="112.434" y2="112.577" gradientUnits="userSpaceOnUse">
<stop stop-color="#FCFDFF"/>
<stop offset="0.2208" stop-color="#F7F9FB"/>
<stop offset="0.4652" stop-color="#EAECF1"/>
<stop offset="0.7209" stop-color="#D4D7E0"/>
<stop offset="0.983" stop-color="#B5BAC8"/>
<stop offset="1" stop-color="#B3B8C6"/>
</linearGradient>
<linearGradient id="paint14_linear_1281:21572" x1="27.8988" y1="28.0421" x2="111.933" y2="112.076" gradientUnits="userSpaceOnUse">
<stop stop-color="#FCFDFF"/>
<stop offset="0.2208" stop-color="#F7F9FB"/>
<stop offset="0.4652" stop-color="#EAECF1"/>
<stop offset="0.7209" stop-color="#D4D7E0"/>
<stop offset="0.983" stop-color="#B5BAC8"/>
<stop offset="1" stop-color="#B3B8C6"/>
</linearGradient>
<linearGradient id="paint15_linear_1281:21572" x1="28.4002" y1="28.5435" x2="111.431" y2="111.574" gradientUnits="userSpaceOnUse">
<stop stop-color="#FCFDFF"/>
<stop offset="0.2208" stop-color="#F7F9FB"/>
<stop offset="0.4652" stop-color="#EAECF1"/>
<stop offset="0.7209" stop-color="#D4D7E0"/>
<stop offset="0.983" stop-color="#B5BAC8"/>
<stop offset="1" stop-color="#B3B8C6"/>
</linearGradient>
<linearGradient id="paint16_linear_1281:21572" x1="28.9017" y1="29.0449" x2="110.93" y2="111.073" gradientUnits="userSpaceOnUse">
<stop stop-color="#FCFDFF"/>
<stop offset="0.2208" stop-color="#F7F9FB"/>
<stop offset="0.4652" stop-color="#EAECF1"/>
<stop offset="0.7209" stop-color="#D4D7E0"/>
<stop offset="0.983" stop-color="#B5BAC8"/>
<stop offset="1" stop-color="#B3B8C6"/>
</linearGradient>
<linearGradient id="paint17_linear_1281:21572" x1="29.403" y1="29.5464" x2="110.428" y2="110.572" gradientUnits="userSpaceOnUse">
<stop stop-color="#FCFDFF"/>
<stop offset="0.2208" stop-color="#F7F9FB"/>
<stop offset="0.4652" stop-color="#EAECF1"/>
<stop offset="0.7209" stop-color="#D4D7E0"/>
<stop offset="0.983" stop-color="#B5BAC8"/>
<stop offset="1" stop-color="#B3B8C6"/>
</linearGradient>
<linearGradient id="paint18_linear_1281:21572" x1="29.9045" y1="30.0477" x2="109.927" y2="110.07" gradientUnits="userSpaceOnUse">
<stop stop-color="#FCFDFF"/>
<stop offset="0.2208" stop-color="#F7F9FB"/>
<stop offset="0.4652" stop-color="#EAECF1"/>
<stop offset="0.7209" stop-color="#D4D7E0"/>
<stop offset="0.983" stop-color="#B5BAC8"/>
<stop offset="1" stop-color="#B3B8C6"/>
</linearGradient>
<linearGradient id="paint19_linear_1281:21572" x1="30.4059" y1="30.5491" x2="109.426" y2="109.569" gradientUnits="userSpaceOnUse">
<stop stop-color="#FCFDFF"/>
<stop offset="0.2208" stop-color="#F7F9FB"/>
<stop offset="0.4652" stop-color="#EAECF1"/>
<stop offset="0.7209" stop-color="#D4D7E0"/>
<stop offset="0.983" stop-color="#B5BAC8"/>
<stop offset="1" stop-color="#B3B8C6"/>
</linearGradient>
</defs>
</svg>
