<svg width="21" height="20" viewBox="0 0 21 20" fill="none" xmlns="http://www.w3.org/2000/svg">
<path fill-rule="evenodd" clip-rule="evenodd" d="M6.001 16C4.897 16 4.011 16.895 4.011 18C4.011 19.104 4.897 20 6.001 20C7.106 20 8.001 19.104 8.001 18C8.001 16.895 7.106 16 6.001 16ZM16.001 16C14.897 16 14.011 16.895 14.011 18C14.011 19.104 14.897 20 16.001 20C17.106 20 18.001 19.104 18.001 18C18.001 16.895 17.106 16 16.001 16ZM2.001 0H0V1.999H2.001L5.599 9.587L4.246 12.038C4.09 12.325 4.001 12.653 4.001 13C4.001 14.104 4.897 15 6.001 15H18.001V13H6.424C6.286 13 6.175 12.889 6.175 12.75L6.205 12.629L7.103 11H14.552C15.304 11 15.96 10.585 16.302 9.971L19.876 3.482C19.956 3.34 20.002 3.175 20.002 3C20.002 2.447 19.554 1.999 19.001 1.999H4.214L3.808 1.145C3.489 0.468 2.799 0 2.001 0Z" fill="currentColor"/>
</svg>
