<svg width="30" height="30" viewBox="0 0 30 30" fill="none" xmlns="http://www.w3.org/2000/svg">
<path d="M28.9498 7.14012H21.1198C22.8298 6.57012 24.2698 5.82012 24.8098 4.89012L24.8398 4.86012C25.1098 4.32012 25.2898 3.60012 24.4798 2.31012C23.6698 1.02012 22.9198 0.870117 22.4098 0.870117C20.0698 0.870117 16.6798 5.19012 15.3598 7.05012L15.2998 7.14012H14.6698L14.6098 7.08012C13.2898 5.22012 9.92981 0.870117 7.55981 0.870117C6.86981 0.870117 6.1798 1.35012 5.5498 2.31012C5.3098 2.73012 4.58981 3.96012 5.21981 4.89012L5.2798 4.95012C5.8498 5.91012 7.2598 6.63012 8.7898 7.14012H1.0498C0.629805 7.14012 0.299805 7.47012 0.299805 7.89012V12.8401C0.299805 13.2601 0.629805 13.5901 1.0498 13.5901H1.8898V28.3501C1.8898 28.7701 2.2198 29.1001 2.6398 29.1001H27.3598C27.7798 29.1001 28.1098 28.7701 28.1098 28.3501V13.5901H28.9498C29.3698 13.5901 29.6998 13.2601 29.6998 12.8401V7.89012C29.6998 7.50012 29.3698 7.14012 28.9498 7.14012ZM22.4098 2.40012C22.4998 2.40012 22.7698 2.40012 23.2198 3.12012C23.6398 3.81012 23.5798 4.02012 23.5198 4.17012C23.0698 4.92012 20.8498 5.88012 17.6998 6.48012C19.8898 3.69012 21.6298 2.40012 22.4098 2.40012ZM6.5398 4.17012L6.4798 4.08012L6.4498 4.05012C6.4498 3.96012 6.47981 3.69012 6.80981 3.12012C7.19981 2.52012 7.4698 2.40012 7.5298 2.40012C8.3098 2.40012 10.0498 3.69012 12.2698 6.54012C8.96981 5.88012 6.9298 4.92012 6.5398 4.17012ZM1.7998 11.9701V8.82012C1.7998 8.73012 1.8598 8.67012 1.9498 8.67012H14.2498V12.1201H1.9498C1.8598 12.1201 1.7998 12.0601 1.7998 11.9701ZM3.3898 13.6201H14.2498V27.6301H3.3898V13.6201ZM26.6098 27.6301H15.7498V13.6201H26.6098V27.6301ZM28.0498 12.1201H15.7198V8.67012H28.0498C28.1398 8.67012 28.1998 8.73012 28.1998 8.82012V11.9701C28.1998 12.0601 28.1398 12.1201 28.0498 12.1201Z" fill="currentColor"/>
</svg>
