<svg width="40" height="40" viewBox="0 0 40 40" fill="none" xmlns="http://www.w3.org/2000/svg">
<path d="M20.0128 0C8.98532 0 0 8.98532 0 20.0128C0 31.0402 8.98532 40.0255 20.0128 40.0255C31.0402 40.0255 40.0255 31.0402 40.0255 20.0128C40 8.98532 31.0402 0 20.0128 0ZM20.0128 36.1455C11.104 36.1455 3.8545 28.896 3.8545 19.9872C3.8545 11.0785 11.104 3.82897 20.0128 3.82897C28.9215 3.82897 36.171 11.0785 36.171 19.9872C36.1455 28.896 28.896 36.1455 20.0128 36.1455Z" fill="currentColor"/>
<path d="M19.2725 28.8194C18.6599 28.8194 18.0472 28.5897 17.5878 28.1812L12.0485 23.3567C10.9764 22.4378 10.8743 20.8041 11.7932 19.732C12.7122 18.6599 14.3459 18.5578 15.418 19.4767L18.9662 22.5654L25.5265 14.6522C26.4454 13.5546 28.0536 13.4014 29.1512 14.3204C30.2489 15.2393 30.402 16.8475 29.4831 17.9451L21.238 27.8749C20.8041 28.411 20.1659 28.7428 19.4767 28.7939C19.4001 28.8194 19.3236 28.8194 19.2725 28.8194Z" fill="currentColor"/>
</svg>
