<svg width="20" height="20" viewBox="0 0 20 20" fill="none" xmlns="http://www.w3.org/2000/svg">
<path fill-rule="evenodd" clip-rule="evenodd" d="M13.502 12H12.708L12.432 11.726C13.407 10.589 14 9.11497 14 7.49997C14 3.90997 11.09 0.999968 7.5 0.999968C3.91 0.999968 1 3.90997 1 7.49997C1 11.09 3.91 14 7.5 14C9.115 14 10.588 13.408 11.725 12.434L12.001 12.708V13.5L16.999 18.491L18.49 17L13.502 12ZM7.5 12C5.014 12 3 9.98597 3 7.49997C3 5.01497 5.014 2.99997 7.5 2.99997C9.985 2.99997 12 5.01497 12 7.49997C12 9.98597 9.985 12 7.5 12Z" fill="currentColor"/>
</svg>
