<svg width="94" height="83" viewBox="0 0 94 83" fill="none" xmlns="http://www.w3.org/2000/svg">
<g clip-path="url(#clip0_1043:18923)">
<path d="M38.2099 83C28.0117 83 18.4134 79.0389 11.198 71.8157C3.96596 64.6092 0 55.0226 0 44.837C0 35.1672 3.63269 25.9469 10.2149 18.8735C16.7637 11.8334 25.6288 7.5394 35.1938 6.79045C36.0269 6.72388 36.7435 7.33968 36.8101 8.17184C36.8768 9.004 36.2602 9.71966 35.4271 9.78624C17.2469 11.2009 2.99947 26.5959 2.99947 44.837C2.99947 64.2264 18.7967 80.0042 38.2099 80.0042C56.4567 80.0042 72.3205 66.3567 74.3535 48.9479C74.4535 48.1323 75.1867 47.5332 76.0199 47.633C76.8364 47.7329 77.4363 48.4652 77.3363 49.2974C75.12 68.1875 57.9397 83 38.2099 83Z" fill="#EF8800"/>
<path d="M75.8365 50.6122C75.3533 50.6122 74.8701 50.3792 74.5868 49.9464C74.5368 49.8799 70.1542 43.2725 65.9216 35.4169C60.156 24.7152 57.4398 16.8929 57.8564 12.1662C58.3563 6.40765 61.839 3.94444 64.6719 2.87927C67.6213 1.78082 70.4208 1.98054 70.5375 1.99718C71.3707 2.06375 71.9706 2.77941 71.9206 3.61158C71.8539 4.4271 71.1374 5.0429 70.3042 4.99297C70.2542 4.99297 67.9546 4.84318 65.6383 5.72527C62.7389 6.84037 61.1225 9.10386 60.8392 12.4325C60.4893 16.5101 63.1555 23.9663 68.5545 33.9855C72.7038 41.708 77.0363 48.2155 77.0863 48.2821C77.5529 48.9645 77.3529 49.8965 76.6697 50.3625C76.4031 50.529 76.1198 50.6122 75.8365 50.6122Z" fill="#EF8800"/>
<path d="M41.7593 16.0275C37.3434 16.0275 33.744 12.4325 33.744 8.02206C33.744 3.61159 37.3434 0 41.7593 0C46.1751 0 49.7745 3.59495 49.7745 8.00541C49.7745 12.4159 46.1918 16.0275 41.7593 16.0275ZM41.7593 2.99579C38.9931 2.99579 36.7435 5.24263 36.7435 8.00541C36.7435 10.7682 38.9931 13.015 41.7593 13.015C44.5254 13.015 46.775 10.7682 46.775 8.00541C46.7917 5.24263 44.5254 2.99579 41.7593 2.99579Z" fill="#EF8800"/>
<path d="M75.9865 50.6122C75.7032 50.6122 75.4199 50.529 75.1533 50.3625C74.4701 49.8965 74.2701 48.9811 74.7367 48.2821C74.7867 48.2155 79.1026 41.708 83.2685 33.9855C88.6676 23.9497 91.3338 16.5101 90.9838 12.4325C90.7006 9.08721 89.0842 6.84037 86.1847 5.72527C83.8684 4.82653 81.5522 4.99297 81.5189 4.99297C80.7023 5.05954 79.9691 4.44374 79.9025 3.61158C79.8358 2.79606 80.4524 2.06375 81.2689 1.99718C81.3855 1.98054 84.2017 1.78082 87.1345 2.87927C89.9674 3.94444 93.4501 6.42429 93.95 12.1662C94.3666 16.8929 91.6504 24.7152 85.8847 35.4169C81.6688 43.2558 77.2696 49.8799 77.2196 49.9464C76.953 50.3792 76.4697 50.6122 75.9865 50.6122Z" fill="#EF8800"/>
<path d="M30.1113 48.3321C29.8614 44.8703 34.3273 40.6595 38.6598 40.4265C43.4423 40.1769 49.058 40.826 48.858 46.0187C48.5914 52.9922 44.9587 57.1364 39.2764 58.2182C33.5941 59.3 30.3946 52.2433 30.1113 48.3321Z" fill="#EF8800"/>
<path d="M24.5123 35.9828C26.4287 33.5196 29.3948 33.1368 30.9279 38.3961C32.4609 43.6553 28.1284 43.4889 25.9787 42.973C23.8291 42.457 22.2294 38.9286 24.5123 35.9828Z" fill="#EF8800"/>
<path d="M33.1441 37.1811C31.5111 34.5182 32.0943 30.6403 35.5937 29.908C39.0931 29.1757 40.4928 35.2338 38.3099 38.2463C36.4769 40.776 33.1441 37.1811 33.1441 37.1811Z" fill="#EF8800"/>
<path d="M42.9757 29.7582C43.9755 28.227 47.3749 28.1937 48.5914 30.4073C49.8078 32.6208 48.7747 36.9148 47.0083 37.7137C45.242 38.5126 38.8264 36.0993 42.9757 29.7582Z" fill="#EF8800"/>
</g>
<defs>
<clipPath id="clip0_1043:18923">
<rect width="94" height="83" fill="white"/>
</clipPath>
</defs>
</svg>
