<svg width="83" height="83" viewBox="0 0 83 83" fill="none" xmlns="http://www.w3.org/2000/svg">
<g clip-path="url(#clip0_1043:18917)">
<path d="M82.2367 60.9353C83.9939 53.4978 82.734 45.8129 78.6893 39.3154C74.7606 32.9993 68.6603 28.5467 61.4494 26.6832C60.8858 22.412 59.4271 18.2892 57.1395 14.5952C48.2046 0.181912 29.1579 -4.32017 14.6697 4.55207C0.181627 13.4243 -4.34384 32.3562 4.5579 46.7694C5.90062 49.0287 5.88404 51.8157 4.52475 54.0585L0.198204 61.3641H26.3232C29.8209 74.1448 41.4578 83.0005 54.7856 83.0005C54.8353 83.0005 54.9016 83.0005 54.9513 83.0005H81.209L78.7225 78.8117C76.9487 75.9093 76.9487 72.2812 78.7225 69.3788C80.347 66.7732 81.5239 63.9202 82.2367 60.9353ZM7.40911 45.0873L7.39253 45.0708C-0.564328 32.1912 3.48041 15.2878 16.4103 7.35557C29.3402 -0.56019 46.348 3.46365 54.3048 16.3268C57.0566 20.7629 58.4656 25.8586 58.3827 31.0698C58.2501 35.2421 57.1726 39.1835 55.3658 42.7126C54.0893 45.1203 52.498 47.3466 50.6414 49.3256C45.5026 54.7017 38.2585 58.0659 30.3182 58.0659C30.2353 58.0659 30.1359 58.0659 30.053 58.0659H6.00008L7.35938 55.7736C9.36517 52.4919 9.38175 48.3856 7.40911 45.0873ZM75.8878 67.6802C73.65 71.3742 73.4842 75.9093 75.4237 79.7023H54.9348C54.885 79.7023 54.8353 79.7023 54.7856 79.7023C43.5631 79.7023 33.6999 72.6276 30.053 62.2216C38.2088 61.8753 45.8673 58.6266 51.8018 52.9536C52.4317 52.3599 53.0284 51.7333 53.592 51.1066C55.3326 49.1936 56.8245 47.0828 58.0346 44.84C60.4548 40.4038 61.8473 35.4565 62.0628 30.2783C67.7983 32.1088 72.6553 35.8853 75.8547 41.0305C79.4353 46.7859 80.5459 53.5803 79.0043 60.1602C78.3743 62.8318 77.33 65.355 75.8878 67.6802Z" fill="#EF8800"/>
<path d="M33.1535 25.9571C33.1535 27.969 31.1975 29.2718 26.1581 29.4697L25.9426 29.6676L26.8543 35.9177H31.0317L31.4627 33.5595C35.7229 32.8339 39.1543 30.822 39.1543 25.8746C39.1543 20.7459 35.2588 17.794 29.49 17.794C25.7603 17.7115 22.1797 19.2452 19.7263 21.9662L23.3898 25.8581C24.9149 24.209 27.0864 23.236 29.374 23.1866C31.8108 23.2031 33.1535 24.209 33.1535 25.9571Z" fill="#EF8800"/>
<path d="M32.0264 39.0675H25.5614V45.4166H32.0264V39.0675Z" fill="#EF8800"/>
</g>
<defs>
<clipPath id="clip0_1043:18917">
<rect width="83" height="83" fill="white"/>
</clipPath>
</defs>
</svg>
