<svg width="85" height="81" viewBox="0 0 85 81" fill="none" xmlns="http://www.w3.org/2000/svg">
<path d="M83.7072 78.3136H81.0409V27.0271C82.6569 25.3176 83.7072 23.0382 83.7072 20.5146C83.7072 14.3276 83.7072 14.6533 83.6264 14.3276C83.5456 14.0834 84.4344 15.3859 74.0114 0.651256C73.769 0.244221 73.365 0 72.961 0H12.1198C11.7158 0 11.3118 0.244221 11.0694 0.569849C0.646388 15.1417 1.45437 14.0834 1.37357 14.2462C1.21198 14.6533 1.29278 14.7347 1.29278 20.4332C1.29278 22.9568 2.34316 25.2362 3.95913 26.9457V78.2322H1.29278C0.565589 78.2322 0 78.802 0 79.5347C0 80.2673 0.565589 80.8372 1.29278 80.8372C17.2101 80.8372 75.3042 80.8372 83.6264 80.8372C84.3536 80.8372 84.9192 80.2673 84.9192 79.5347C85 78.8834 84.4344 78.3136 83.7072 78.3136ZM3.95913 16.0372H17.0485V20.4332C17.0485 24.0965 14.1397 27.0271 10.5038 27.0271C6.86787 27.0271 3.95913 24.0965 3.95913 20.4332V16.0372ZM19.9572 16.0372H33.1274V20.4332C33.1274 24.0965 30.2186 27.0271 26.5827 27.0271C22.9468 27.0271 20.038 24.0965 20.038 20.4332V16.0372H19.9572ZM35.9553 16.0372H49.0447V20.4332C49.0447 24.0965 46.1359 27.0271 42.5 27.0271C38.8641 27.0271 35.9553 24.0965 35.9553 20.4332V16.0372ZM51.9534 16.0372H65.0428V20.4332C65.0428 24.0965 62.134 27.0271 58.4981 27.0271C54.8622 27.0271 51.9534 24.0965 51.9534 20.4332V16.0372ZM6.62548 28.8995C7.83745 29.4693 9.13023 29.795 10.5038 29.795C13.8973 29.795 16.8869 27.9226 18.5029 25.1548C20.1188 27.9226 23.1084 29.795 26.5019 29.795C29.8954 29.795 32.885 27.9226 34.501 25.1548C36.1169 27.9226 39.1065 29.795 42.5 29.795C45.8935 29.795 48.8831 27.9226 50.4991 25.1548C52.115 27.9226 55.1046 29.795 58.4981 29.795C61.8916 29.795 64.8812 27.9226 66.4972 25.1548C68.1131 27.9226 71.1027 29.795 74.4962 29.795C75.8698 29.795 77.2433 29.4693 78.3745 28.8995V36.3075H6.62548V28.8995ZM74.4962 27.1085C70.8603 27.1085 67.9515 24.1779 67.9515 20.5146V16.1186H81.0409V20.5146C81.0409 24.0965 78.1321 27.1085 74.4962 27.1085ZM12.7662 2.68643H72.2338L79.7481 13.3508C47.1055 13.3508 61.73 13.3508 5.2519 13.3508L12.7662 2.68643ZM32.9658 78.3136V49.9839H51.9534V78.2322H32.9658V78.3136ZM54.7006 78.3136V48.6814C54.7006 47.9487 54.135 47.3789 53.4078 47.3789H31.673C30.9458 47.3789 30.3802 47.9487 30.3802 48.6814V78.3136H6.62548V38.994H78.3745V78.3136H54.7006Z" fill="#EF8800"/>
<path d="M71.8298 47.3789H61.2452C60.518 47.3789 59.9524 47.9488 59.9524 48.6814V66.8352C59.9524 67.5679 60.518 68.1377 61.2452 68.1377H71.9106C72.6378 68.1377 73.2033 67.5679 73.2033 66.8352V48.6814C73.2033 47.9488 72.557 47.3789 71.8298 47.3789ZM70.537 65.5327H62.5379V49.9839H70.537V65.5327Z" fill="#EF8800"/>
<path d="M23.8356 47.3789H13.1702C12.443 47.3789 11.8774 47.9488 11.8774 48.6814V66.8352C11.8774 67.5679 12.443 68.1377 13.1702 68.1377H23.8356C24.5628 68.1377 25.1284 67.5679 25.1284 66.8352V48.6814C25.1284 47.9488 24.5628 47.3789 23.8356 47.3789ZM22.462 65.5327H14.5438V49.9839H22.5428V65.5327H22.462Z" fill="#EF8800"/>
<path d="M37.1673 62.1136C36.4401 62.1136 35.8745 62.6834 35.8745 63.4161V64.7186C35.8745 65.4513 36.4401 66.0211 37.1673 66.0211C37.8945 66.0211 38.4601 65.4513 38.4601 64.7186V63.4975C38.4601 62.7648 37.8945 62.1136 37.1673 62.1136Z" fill="#EF8800"/>
</svg>
