<svg width="84" height="81" viewBox="0 0 84 81" fill="none" xmlns="http://www.w3.org/2000/svg">
<g clip-path="url(#clip0_1043:18941)">
<path d="M41.9921 8.76813C37.3119 8.76813 33.5033 12.586 33.5033 17.2774C33.5033 21.9688 37.3119 25.7867 41.9921 25.7867C46.6722 25.7867 50.4808 21.9688 50.4808 17.2774C50.4808 12.586 46.6722 8.76813 41.9921 8.76813ZM41.9921 23.1498C38.7644 23.1498 36.1338 20.5129 36.1338 17.2774C36.1338 14.0419 38.7644 11.405 41.9921 11.405C45.2197 11.405 47.8503 14.0419 47.8503 17.2774C47.8503 20.5129 45.2197 23.1498 41.9921 23.1498Z" fill="#EF8800"/>
<path d="M58.0335 23.1498H55.4029C54.6767 23.1498 54.0957 23.7322 54.0957 24.4602C54.0957 25.1882 54.6767 25.7705 55.4029 25.7705H58.0335C58.7597 25.7705 59.3407 25.1882 59.3407 24.4602C59.3568 23.7322 58.7597 23.1498 58.0335 23.1498Z" fill="#EF8800"/>
<path d="M67.2323 23.1498H64.6018C63.8755 23.1498 63.2946 23.7322 63.2946 24.4602C63.2946 25.1882 63.8755 25.7705 64.6018 25.7705H67.2323C67.9585 25.7705 68.5395 25.1882 68.5395 24.4602C68.5395 23.7322 67.9424 23.1498 67.2323 23.1498Z" fill="#EF8800"/>
<path d="M19.3983 23.1498H16.7678C16.0416 23.1498 15.4606 23.7322 15.4606 24.4602C15.4606 25.1882 16.0416 25.7705 16.7678 25.7705H19.3983C20.1245 25.7705 20.7055 25.1882 20.7055 24.4602C20.7055 23.7322 20.1245 23.1498 19.3983 23.1498Z" fill="#EF8800"/>
<path d="M28.5811 23.1498H25.9505C25.2243 23.1498 24.6433 23.7322 24.6433 24.4602C24.6433 25.1882 25.2243 25.7705 25.9505 25.7705H28.5811C29.3073 25.7705 29.8883 25.1882 29.8883 24.4602C29.8883 23.7322 29.3073 23.1498 28.5811 23.1498Z" fill="#EF8800"/>
<path d="M39.3776 59.5974H23.207C22.4808 59.5974 21.8998 60.1797 21.8998 60.9077V74.254C21.8998 74.982 22.4808 75.5644 23.207 75.5644H39.3776C40.1038 75.5644 40.6848 74.982 40.6848 74.254V60.9077C40.6848 60.1797 40.1038 59.5974 39.3776 59.5974ZM38.0543 72.9437H24.5142V62.2343H29.9689V64.305C29.9689 65.0329 30.5499 65.6153 31.2762 65.6153C32.0024 65.6153 32.5834 65.0329 32.5834 64.305V62.2343H38.0381V72.9437H38.0543Z" fill="#EF8800"/>
<path d="M60.777 59.5974H44.6225C43.8963 59.5974 43.3153 60.1797 43.3153 60.9077V74.254C43.3153 74.982 43.8963 75.5644 44.6225 75.5644H60.777C61.5032 75.5644 62.0842 74.982 62.0842 74.254V60.9077C62.1003 60.1797 61.5032 59.5974 60.777 59.5974ZM59.4698 72.9437H45.9297V62.2343H51.3845V64.305C51.3845 65.0329 51.9654 65.6153 52.6917 65.6153C53.4179 65.6153 53.9989 65.0329 53.9989 64.305V62.2343H59.4536V72.9437H59.4698Z" fill="#EF8800"/>
<path d="M60.777 41.3655H44.6225C43.8963 41.3655 43.3153 41.9479 43.3153 42.6759V56.0222C43.3153 56.7502 43.8963 57.3326 44.6225 57.3326H60.777C61.5032 57.3326 62.0842 56.7502 62.0842 56.0222V42.6759C62.1003 41.9479 61.5032 41.3655 60.777 41.3655ZM59.4698 54.7118H45.9297V44.0024H51.3845V46.0731C51.3845 46.8011 51.9654 47.3835 52.6917 47.3835C53.4179 47.3835 53.9989 46.8011 53.9989 46.0731V44.0024H59.4536V54.7118H59.4698Z" fill="#EF8800"/>
<path d="M82.6939 78.3623H79.5308V24.6858L82.0323 26.1418C82.6617 26.5138 83.4686 26.2874 83.8236 25.6564C84.1948 25.0255 83.9689 24.2167 83.3395 23.8608L42.6547 0.177112C42.2513 -0.0655479 41.751 -0.0655479 41.3314 0.177112L0.662804 23.8608C0.0334089 24.2328 -0.176389 25.0255 0.178654 25.6564C0.533697 26.2874 1.34061 26.4977 1.97001 26.1418L4.47145 24.6858V78.3784H1.32448C0.59825 78.3784 0.0172706 78.9608 0.0172706 79.6888C0.0172706 80.4168 0.59825 80.9992 1.32448 80.9992C18.5441 80.9992 52.6282 80.9992 82.6939 80.9992C83.4202 80.9992 84.0011 80.4168 84.0011 79.6888C84.0011 78.9608 83.404 78.3623 82.6939 78.3623ZM19.5769 78.3623V38.566H64.4092V78.3623H19.5769ZM15.4617 35.9452V31.998H68.5406V35.9452C51.0951 35.9452 40.0242 35.9452 15.4617 35.9452ZM67.0398 78.3623V38.566H69.8478C70.574 38.566 71.155 37.9836 71.155 37.2556V30.6714C71.155 29.9434 70.574 29.3611 69.8478 29.3611H14.1383C13.4121 29.3611 12.8311 29.9434 12.8311 30.6714V37.2556C12.8311 37.9836 13.4121 38.566 14.1383 38.566H16.9464V78.3623H7.102V23.149L41.9931 2.8302L76.9003 23.149V78.3623H67.0398Z" fill="#EF8800"/>
</g>
<defs>
<clipPath id="clip0_1043:18941">
<rect width="84" height="81" fill="white"/>
</clipPath>
</defs>
</svg>
