<svg width="40" height="40" viewBox="0 0 40 40" fill="none" xmlns="http://www.w3.org/2000/svg">
<path fill-rule="evenodd" clip-rule="evenodd" d="M18.3901 28.0889H20.0066C20.0066 28.0889 20.5233 28.0094 20.775 27.7444C21.0268 27.4926 21.0268 27.0687 21.0268 27.0687C21.0268 27.0687 21.0268 24.856 22.047 24.5115C23.0672 24.167 24.3391 26.6447 25.7038 27.5721C26.724 28.2479 27.4925 28.1684 27.4925 28.1684L31.1493 28.0889C31.1493 28.0889 33.1102 28.0094 32.1695 26.4724C32.09 26.3002 31.6528 25.3595 29.4401 23.3191C27.148 21.1859 27.4792 21.5304 30.2086 17.8736C31.9045 15.5814 32.5935 14.2167 32.3418 13.6205C32.1695 13.0243 30.8976 13.1965 30.8976 13.1965H26.724C26.724 13.1965 26.3795 13.117 26.2073 13.276C25.9556 13.4483 25.8628 13.7 25.8628 13.7C25.8628 13.7 25.1871 15.3959 24.3259 16.9328C22.4577 20.0862 21.7687 20.2585 21.4375 19.9935C20.7618 19.5695 20.9208 18.2048 20.9208 17.1846C20.9208 14.124 21.3448 12.9315 20.0728 12.587C19.6488 12.5075 19.3043 12.4148 18.1119 12.4148C16.6677 12.4148 15.3825 12.4148 14.7068 12.7593C14.1901 13.011 13.8588 13.5277 14.1106 13.5277C14.3623 13.6072 14.9585 13.7 15.303 14.124C15.727 14.7202 15.727 15.9921 15.727 15.9921C15.727 15.9921 15.9787 19.5695 15.1308 19.9935C14.5346 20.3379 13.7661 19.649 12.1497 16.8401C11.3017 15.3959 10.7055 13.7795 10.7055 13.7795C10.7055 13.7795 10.5332 13.435 10.361 13.3555C10.1225 13.1965 9.79126 13.1038 9.79126 13.1038H5.86943C5.86943 13.1038 5.27321 13.1038 5.10097 13.3555C4.92872 13.6072 5.10097 14.0312 5.10097 14.0312C5.10097 14.0312 8.16158 21.2654 11.6594 24.8428C14.8128 28.2611 18.3901 28.0889 18.3901 28.0889Z" fill="currentColor"/>
</svg>
