<svg width="40" height="40" viewBox="0 0 40 40" fill="none" xmlns="http://www.w3.org/2000/svg">
<path d="M19.914 11.4873C22.8024 11.4873 23.0674 11.4873 24.2598 11.5668C25.28 11.6463 25.8762 11.8185 26.2207 11.9113C26.7375 12.0835 27.0687 12.3352 27.4927 12.6797C27.8372 13.0242 28.0889 13.4482 28.2611 13.9517C28.4334 14.2962 28.6056 14.8924 28.6056 15.9126C28.6851 17.0255 28.6851 17.3568 28.6851 20.2584C28.6851 23.16 28.6851 23.4118 28.6056 24.6042C28.5261 25.6244 28.3539 26.2206 28.2611 26.5651C28.0889 27.0818 27.8372 27.4131 27.4927 27.8371C27.1482 28.1816 26.7242 28.4333 26.2207 28.6055C25.8762 28.7778 25.28 28.95 24.2598 28.95C23.1469 29.0295 22.8156 29.0295 19.914 29.0295C17.0124 29.0295 16.7606 29.0295 15.5682 28.95C14.548 28.8705 13.9518 28.6983 13.6073 28.6055C13.0905 28.4333 12.7593 28.1816 12.3353 27.8371C11.9908 27.4926 11.7391 27.0686 11.5669 26.5651C11.3946 26.2206 11.2224 25.6244 11.2224 24.6042C11.1429 23.4913 11.1429 23.16 11.1429 20.2584C11.1429 17.3568 11.1429 17.105 11.2224 15.9126C11.3019 14.8924 11.4741 14.2962 11.5669 13.9517C11.7391 13.4349 11.9908 13.1037 12.3353 12.6797C12.6798 12.3352 13.1038 12.0835 13.6073 11.9113C13.9518 11.739 14.548 11.5668 15.5682 11.5668C16.7606 11.4873 17.1051 11.4873 19.914 11.4873ZM19.914 9.52637C17.0256 9.52637 16.6811 9.52637 15.4887 9.60586C14.3757 9.68536 13.6205 9.8576 12.8521 10.1226C12.1763 10.3876 11.5801 10.7188 10.9839 11.4078C10.3877 12.004 10.0432 12.6002 9.71195 13.276C9.44696 13.9517 9.27472 14.7201 9.19522 15.9126C9.11572 17.105 9.11572 17.4495 9.11572 20.3379C9.11572 23.2263 9.11572 23.5708 9.19522 24.7632C9.27472 25.8762 9.44696 26.6314 9.71195 27.3998C9.96369 28.0756 10.3082 28.6718 10.9839 29.268C11.5801 29.8642 12.1763 30.2087 12.8521 30.5399C13.5278 30.7917 14.2962 30.9639 15.4887 31.0567C16.6016 31.1362 17.0256 31.1362 19.914 31.1362C22.8024 31.1362 23.1469 31.1362 24.3393 31.0567C25.4523 30.9772 26.2075 30.8049 26.9759 30.5399C27.6517 30.2882 28.2479 29.9437 28.8441 29.268C29.4403 28.6718 29.7848 28.0756 30.1161 27.3998C30.3678 26.7241 30.54 25.9556 30.6328 24.7632C30.7123 23.6502 30.7123 23.2263 30.7123 20.3379C30.7123 17.4495 30.7123 17.105 30.6328 15.9126C30.5533 14.7996 30.381 14.0444 30.1161 13.276C29.8643 12.6002 29.5198 12.004 28.8441 11.4078C28.2479 10.8116 27.6517 10.4671 26.9759 10.1358C26.3002 9.8841 25.5318 9.71186 24.3393 9.61911C23.2396 9.61911 22.8156 9.52637 19.914 9.52637Z" fill="currentColor"/>
<path d="M19.914 14.8129C16.8534 14.8129 14.4685 17.2773 14.4685 20.2584C14.4685 23.2395 16.9329 25.7039 19.914 25.7039C22.8951 25.7039 25.3595 23.2395 25.3595 20.2584C25.4523 17.2773 22.9746 14.8129 19.914 14.8129ZM19.914 23.8357C17.9531 23.8357 16.3367 22.2193 16.3367 20.2584C16.3367 18.2975 17.9531 16.681 19.914 16.681C21.8749 16.681 23.4914 18.2975 23.4914 20.2584C23.4914 22.2193 21.8749 23.8357 19.914 23.8357Z" fill="currentColor"/>
<path d="M25.6245 15.8199C26.327 15.8199 26.8964 15.2504 26.8964 14.5479C26.8964 13.8455 26.327 13.276 25.6245 13.276C24.922 13.276 24.3525 13.8455 24.3525 14.5479C24.3525 15.2504 24.922 15.8199 25.6245 15.8199Z" fill="currentColor"/>
</svg>
