<?xml version="1.0" standalone="no"?>
<!DOCTYPE svg PUBLIC "-//W3C//DTD SVG 20010904//EN"
 "http://www.w3.org/TR/2001/REC-SVG-20010904/DTD/svg10.dtd">
<svg version="1.0" xmlns="http://www.w3.org/2000/svg"
 width="592.000000pt" height="592.000000pt" viewBox="0 0 592.000000 592.000000"
 preserveAspectRatio="xMidYMid meet">
<metadata>
Created by potrace 1.14, written by Peter Selinger 2001-2017
</metadata>
<g transform="translate(0.000000,592.000000) scale(0.100000,-0.100000)"
fill="#000000" stroke="none">
<path d="M2324 5829 c-10 -3 -22 -5 -27 -2 -4 2 -32 -1 -62 -7 -30 -6 -56 -11
-57 -10 -2 1 -15 -3 -31 -9 -15 -6 -39 -13 -52 -15 -42 -8 -197 -78 -265 -120
-172 -106 -344 -296 -415 -456 -11 -25 -22 -47 -25 -50 -3 -3 -6 -9 -8 -15 -1
-5 -15 -48 -32 -95 -28 -82 -35 -111 -45 -175 -3 -16 -7 -41 -10 -55 -6 -30
-6 -230 0 -280 11 -89 15 -111 30 -171 44 -170 121 -294 281 -453 82 -82 116
-113 199 -178 33 -26 65 -52 72 -58 74 -63 433 -288 613 -384 151 -81 448
-226 462 -226 12 0 89 127 97 160 2 8 7 17 11 20 33 22 350 730 350 782 0 10
5 18 10 18 6 0 10 6 10 13 0 7 14 55 31 107 17 52 43 149 59 215 25 108 33
148 46 250 8 63 4 244 -6 291 -33 150 -88 267 -217 454 -28 41 -174 183 -233
226 -103 76 -190 120 -355 180 -31 11 -45 14 -180 40 -45 9 -229 11 -251 3z"/>
<path d="M4636 4649 c-28 -3 -60 -5 -73 -4 -13 0 -23 -2 -23 -5 0 -3 -12 -7
-27 -8 -44 -3 -166 -39 -226 -66 -55 -24 -158 -92 -220 -144 -88 -74 -257
-256 -323 -347 -8 -11 -25 -33 -37 -50 -13 -16 -39 -52 -57 -80 -19 -27 -37
-52 -40 -55 -25 -19 -330 -542 -330 -566 0 -7 -4 -16 -10 -19 -9 -6 -112 -214
-112 -225 0 -3 -5 -12 -12 -20 -30 -35 -25 -57 18 -81 22 -13 55 -31 71 -41
52 -30 457 -232 515 -257 30 -13 82 -35 115 -48 33 -13 69 -28 80 -33 77 -36
382 -138 465 -155 8 -2 44 -10 80 -19 169 -39 346 -50 470 -30 237 38 507 201
680 409 41 49 120 169 120 183 0 6 5 12 10 12 6 0 10 4 10 9 0 5 12 35 27 67
15 33 28 64 29 69 1 6 12 39 24 75 11 36 23 81 25 100 3 19 9 58 13 86 13 78
6 262 -12 339 -2 11 -9 40 -15 65 -59 256 -270 534 -511 672 -87 50 -120 68
-128 69 -9 2 -36 12 -84 32 -21 9 -38 13 -38 10 0 -3 -6 -1 -12 5 -7 5 -38 15
-68 21 -30 6 -66 14 -80 17 -71 15 -236 22 -314 13z"/>
<path d="M1108 3545 c-2 -2 -30 -5 -63 -9 -156 -16 -316 -84 -507 -218 -41
-28 -228 -215 -228 -227 0 -5 -6 -16 -14 -24 -51 -51 -150 -250 -182 -366 -31
-115 -35 -145 -38 -291 -5 -242 58 -446 199 -645 165 -233 422 -399 719 -465
142 -31 349 -32 486 -1 25 5 56 12 70 15 197 38 439 226 666 516 28 36 66 88
85 115 109 154 129 185 129 192 0 4 11 21 25 37 14 16 25 35 25 43 0 7 4 13 9
13 5 0 14 14 21 31 7 17 18 36 24 43 12 13 33 50 80 141 17 33 34 62 37 65 4
3 45 84 93 180 48 96 93 188 102 204 13 26 13 30 -3 42 -10 7 -21 14 -26 14
-4 0 -25 11 -48 25 -49 31 -374 197 -484 247 -238 108 -406 171 -665 249 -24
8 -49 14 -55 15 -5 0 -12 2 -15 3 -3 2 -13 4 -23 6 -10 2 -52 10 -95 19 -102
21 -313 40 -324 31z"/>
<path d="M2971 2774 c-154 -269 -295 -560 -389 -799 -21 -55 -43 -109 -47
-120 -4 -11 -9 -24 -10 -30 -1 -5 -10 -32 -20 -60 -9 -27 -18 -57 -20 -65 -2
-8 -9 -31 -15 -50 -10 -29 -22 -76 -54 -210 -5 -21 -16 -103 -24 -180 -12
-109 -5 -223 17 -298 5 -18 11 -36 12 -40 6 -24 14 -46 47 -122 19 -47 41 -92
49 -101 7 -8 13 -19 13 -23 0 -6 38 -65 71 -111 108 -148 304 -304 469 -374
30 -13 62 -27 71 -31 23 -12 158 -48 204 -55 98 -15 135 -18 205 -17 73 1 179
10 190 17 3 2 23 6 45 9 22 4 69 16 105 27 79 26 270 117 270 130 0 5 5 9 11
9 34 0 206 163 286 270 68 91 159 275 179 363 2 9 6 26 9 38 2 11 6 28 9 37
22 72 33 256 21 364 -29 276 -109 440 -309 642 -83 84 -173 165 -231 209 -5 4
-28 21 -50 38 -22 17 -67 50 -100 72 -33 22 -61 44 -63 49 -2 4 -8 8 -14 8 -5
0 -35 18 -67 40 -31 22 -62 40 -69 40 -7 0 -12 5 -12 10 0 6 -6 10 -14 10 -8
0 -16 4 -18 8 -9 22 -669 372 -702 372 -6 0 -32 -34 -55 -76z"/>
</g>
</svg>
